<?xml version="1.0" encoding="UTF-8"?>
<svg id="Layer_1" xmlns="http://www.w3.org/2000/svg" version="1.1" viewBox="0 0 68 17">
  <!-- Generator: Adobe Illustrator 29.0.1, SVG Export Plug-In . SVG Version: 2.1.0 Build 192)  -->
  <defs>
    <style>
      .st0 {
        fill: #2bff99;
      }

      .st1 {
        fill: #fafafc;
      }
    </style>
  </defs>
  <path class="st0" d="M10.6,13.9c-.4.4-.9.6-1.5.6-.3,0-.7,0-1-.2-.4-.2-.7-.5-.9-.9-.1-.3-.2-.6-.2-1h0c0-.3,0-.4,0-.6,0,0,0,0,0,0,.1-.3.2-.7.2-1,0-.5,0-.9-.2-1.3-.2-.4-.4-.9-.8-1.2-.3-.3-.7-.6-1.2-.8-.4-.2-.8-.2-1.3-.2-.4,0-.7,0-1,.2h0c-.2,0-.4,0-.6,0h0c-.3,0-.7,0-1-.2-.4-.2-.7-.5-.9-.9-.1-.3-.2-.6-.2-1,0-.6.2-1.1.6-1.5.4-.4.9-.6,1.5-.6h9.1s0,0,0,0v9.1c0,.6-.2,1.1-.6,1.5h0Z"/>
  <path class="st0" d="M3.8,12.8c1.2,0,2.1-.9,2.1-2.1s-.9-2.1-2.1-2.1-2.1.9-2.1,2.1.9,2.1,2.1,2.1Z"/>
  <g>
    <path class="st1" d="M25.8,8.2c0-1.8-1.4-3.2-3.2-3.2s-3.2,1.4-3.2,3.2,1.4,3.2,3.2,3.2,3.2-1.4,3.2-3.2ZM17.9,8.2c0-2.6,1.9-4.6,4.4-4.6s2.7.7,3.4,1.8l.3-1.6h1.2v8.9h-1.2l-.3-1.6c-.7,1.1-2,1.8-3.4,1.8-2.5,0-4.4-2-4.4-4.6Z"/>
    <path class="st1" d="M37,8.2c0-1.8-1.4-3.2-3.2-3.2s-3.2,1.4-3.2,3.2,1.4,3.2,3.2,3.2,3.2-1.4,3.2-3.2ZM29.2.1h1.5v5.2c.7-1.1,2-1.8,3.4-1.8,2.5,0,4.4,2,4.4,4.6s-1.9,4.6-4.4,4.6-2.7-.7-3.4-1.8l-.3,1.6h-1.2V.1Z"/>
    <path class="st1" d="M41.5.1h-1.5v12.5h1.5V.1Z"/>
    <path class="st1" d="M52.1,10.2c-.8,1.6-2.4,2.6-4.4,2.6s-4.8-2-4.8-4.6,2-4.6,4.7-4.6,4.7,2,4.7,4.6,0,.4,0,.6h-7.8c.3,1.6,1.5,2.6,3.2,2.6s2.2-.6,2.8-1.4l1.6.2ZM44.5,7.5h6.2c-.3-1.5-1.5-2.6-3.1-2.6s-2.8,1-3.1,2.6Z"/>
    <path class="st1" d="M54.2,5.1h-1.6v-1.4h1.6v-1c0-1.7,1.1-2.7,3-2.7h1.1v1.4h-.9c-1,0-1.6.6-1.6,1.5v.8h2.4v1.4h-2.4v7.5h-1.5v-7.5Z"/>
    <path class="st1" d="M62.5,12.6l-3.9-8.8h1.7l3,7.1,3-7.1h1.7l-5.3,12.2h-1.6l1.5-3.3Z"/>
  </g>
</svg>