<svg width="68" height="17" viewBox="0 0 68 17" fill="none" xmlns="http://www.w3.org/2000/svg">
<path d="M10.647 13.9214C10.2656 14.3028 9.73855 14.5388 9.1564 14.5384C8.81062 14.5384 8.48471 14.4552 8.1966 14.3076C7.80254 14.1057 7.48034 13.7835 7.27846 13.3894C7.13159 13.1014 7.04842 12.7759 7.04842 12.4304V12.3754C7.05331 12.1768 7.08588 11.985 7.14207 11.8044C7.14207 11.8037 7.14246 11.803 7.14207 11.8026C7.24322 11.4748 7.29754 11.1264 7.29793 10.7653C7.29793 10.3045 7.20913 9.86428 7.04803 9.46048C6.86937 9.01167 6.60074 8.60857 6.26509 8.27257C5.92944 7.93653 5.52599 7.66794 5.07718 7.48959C4.67333 7.32853 4.23317 7.24012 3.77239 7.23973C3.41126 7.23973 3.06287 7.29444 2.73508 7.39559H2.73321C2.55264 7.45178 2.36121 7.48435 2.16229 7.48924H2.10722C1.7622 7.48924 1.43628 7.40642 1.1482 7.2592C0.754102 7.05728 0.431933 6.73512 0.230015 6.34101C0.0831649 6.05409 0 5.72817 0 5.382C0 4.79986 0.235634 4.27276 0.616996 3.89141C0.998356 3.51005 1.52582 3.27441 2.1076 3.27441H11.1891C11.2303 3.27441 11.264 3.30813 11.264 3.34934V12.4308C11.264 13.013 11.0284 13.5401 10.6466 13.9218L10.647 13.9214Z" fill="#2BFF99"/>
<path d="M3.84758 12.7616C5.00495 12.7616 5.94322 11.8233 5.94322 10.6659C5.94322 9.50854 5.00495 8.57031 3.84758 8.57031C2.69021 8.57031 1.75195 9.50859 1.75195 10.6659C1.75195 11.8233 2.6902 12.7616 3.84758 12.7616Z" fill="#2BFF99"/>
<g clip-path="url(#clip0_17721_7296)">
<path d="M25.7717 8.18432C25.7717 6.35985 24.4164 4.98716 22.6093 4.98716C20.7848 4.98716 19.4295 6.35985 19.4295 8.18432C19.4295 10.0088 20.7848 11.3815 22.6093 11.3815C24.4164 11.3815 25.7717 10.0088 25.7717 8.18432ZM17.9004 8.18432C17.9004 5.54317 19.7944 3.54492 22.3313 3.54492C23.8082 3.54492 25.0245 4.23997 25.7717 5.35203L26.0337 3.75345H27.2661V12.6152H26.0337L25.7717 11.0166C25.0245 12.1287 23.8082 12.8237 22.3313 12.8237C19.7944 12.8237 17.9004 10.8255 17.9004 8.18432Z" fill="#000004"/>
<path d="M37.0451 8.18433C37.0451 6.35986 35.6897 4.98717 33.8652 4.98717C32.0581 4.98717 30.7028 6.35986 30.7028 8.18433C30.7028 10.0088 32.0581 11.3815 33.8652 11.3815C35.6897 11.3815 37.0451 10.0088 37.0451 8.18433ZM29.2085 0.104492H30.7028V5.35204C31.45 4.23998 32.6663 3.54493 34.1433 3.54493C36.6802 3.54493 38.5915 5.54318 38.5915 8.18433C38.5915 10.8255 36.6802 12.8237 34.1433 12.8237C32.6663 12.8237 31.45 12.1287 30.7028 11.0166L30.4409 12.6152H29.2085V0.104492Z" fill="#000004"/>
<path d="M41.5227 0.104492H40.0283V12.6152H41.5227V0.104492Z" fill="#000004"/>
<path d="M52.0565 10.2448C51.2961 11.7973 49.6501 12.8237 47.6775 12.8237C44.9495 12.8237 42.9165 10.8255 42.9165 8.18432C42.9165 5.54317 44.9495 3.54492 47.6254 3.54492C50.3187 3.54492 52.3343 5.54317 52.3343 8.18432C52.3343 8.39285 52.3169 8.61873 52.2995 8.80987H44.5151C44.7757 10.3737 46.0268 11.451 47.6949 11.451C48.8892 11.451 49.9369 10.8974 50.4598 10.0581L52.0565 10.2448ZM44.5324 7.47192H50.7531C50.4924 5.99493 49.2414 4.91762 47.6254 4.91762C46.0442 4.91762 44.8279 5.96019 44.5324 7.47192Z" fill="#000004"/>
<path d="M54.2175 5.10856H52.6016V3.75321H54.2175V2.74539C54.2175 1.00778 55.2775 0 57.1715 0H58.2314V1.3727H57.3105C56.32 1.3727 55.7119 1.9635 55.7119 2.91918V3.75321H58.0924V5.10856H55.7119V12.615H54.2175V5.10856Z" fill="#000004"/>
<path d="M62.5098 12.58L58.6523 3.75293H60.3552L63.3439 10.8249L66.3326 3.75293H68.0006L62.6662 15.9161H61.0503L62.5098 12.58Z" fill="#000004"/>
</g>
<defs>
<clipPath id="clip0_17721_7296">
<rect width="50.0999" height="15.9164" fill="white" transform="translate(17.9004)"/>
</clipPath>
</defs>
</svg>
