<svg width="779" height="218" viewBox="0 0 779 218" fill="none" xmlns="http://www.w3.org/2000/svg">
<path d="M121.934 159.629C117.566 163.997 111.53 166.7 104.863 166.695C100.903 166.695 97.1705 165.743 93.871 164.052C89.358 161.74 85.668 158.05 83.356 153.537C81.674 150.238 80.7215 146.51 80.7215 142.554V141.923C80.7775 139.649 81.1505 137.453 81.794 135.385C81.794 135.376 81.7985 135.368 81.794 135.363C82.9525 131.609 83.5745 127.619 83.579 123.484C83.579 118.207 82.562 113.165 80.717 108.541C78.671 103.401 75.5945 98.7843 71.7505 94.9363C67.9065 91.0878 63.286 88.0118 58.146 85.9693C53.521 84.1248 48.4801 83.1123 43.203 83.1078C39.0672 83.1078 35.0773 83.7343 31.3233 84.8928H31.3018C29.2339 85.5363 27.0416 85.9093 24.7635 85.9653H24.1328C20.1814 85.9653 16.4489 85.0168 13.1497 83.3308C8.6363 81.0183 4.94668 77.3288 2.63423 72.8153C0.95244 69.5293 0 65.7968 0 61.8323C0 55.1653 2.69858 49.1288 7.0661 44.7614C11.4336 40.3939 17.4743 37.6953 24.1371 37.6953H128.142C128.614 37.6953 129 38.0814 129 38.5534V142.558C129 149.225 126.301 155.262 121.929 159.633L121.934 159.629Z" fill="#2BFF99"/>
<path d="M44.0615 146.347C57.3162 146.347 68.0617 135.602 68.0617 122.347C68.0617 109.092 57.3162 98.3468 44.0615 98.3468C30.8068 98.3468 20.0615 109.092 20.0615 122.347C20.0615 135.601 30.8067 146.347 44.0615 146.347Z" fill="#2BFF99"/>
<g clip-path="url(#clip0_2402_1674)">
<path d="M295.146 93.9229C295.146 73.0283 279.624 57.3076 258.928 57.3076C238.034 57.3076 222.512 73.0283 222.512 93.9229C222.512 114.817 238.034 130.539 258.928 130.539C279.624 130.539 295.146 114.818 295.146 93.9229ZM205 93.9229C205 63.6753 226.691 40.7905 255.745 40.7905C272.659 40.7905 286.589 48.7505 295.146 61.4863L298.146 43.1787H312.26V144.667H298.146L295.146 126.359C286.589 139.095 272.659 147.055 255.745 147.055C226.691 147.055 205 124.17 205 93.9229Z" fill="#000004"/>
<path d="M424.255 93.9229C424.255 73.0283 408.734 57.3076 387.839 57.3076C367.143 57.3076 351.622 73.0283 351.622 93.9229C351.622 114.817 367.143 130.539 387.839 130.539C408.734 130.539 424.255 114.818 424.255 93.9229ZM334.508 1.38916H351.622V61.4863C360.178 48.7505 374.108 40.7905 391.023 40.7905C420.077 40.7905 441.966 63.6753 441.966 93.9229C441.966 124.17 420.077 147.055 391.023 147.055C374.108 147.055 360.178 139.095 351.622 126.359L348.622 144.667H334.508V1.38916Z" fill="#000004"/>
<path d="M475.537 1.38916H458.423V144.667H475.537V1.38916Z" fill="#000004"/>
<path d="M596.169 117.521C587.461 135.301 568.61 147.055 546.02 147.055C514.777 147.055 491.494 124.17 491.494 93.9229C491.494 63.6753 514.777 40.7905 545.422 40.7905C576.267 40.7905 599.351 63.6753 599.351 93.9229C599.351 96.311 599.152 98.898 598.953 101.087H509.802C512.787 118.997 527.115 131.334 546.218 131.334C559.896 131.334 571.894 124.994 577.883 115.383L596.169 117.521ZM510 85.7642H581.242C578.257 68.8491 563.929 56.5112 545.422 56.5112C527.313 56.5112 513.384 68.4512 510 85.7642Z" fill="#000004"/>
<path d="M620.921 58.7007H602.415V43.1787H620.921V31.6367C620.921 11.7368 633.06 0.195312 654.751 0.195312H666.89V15.916H656.343C645 15.916 638.035 22.6821 638.035 33.627V43.1787H665.298V58.7007H638.035V144.667H620.921V58.7007Z" fill="#000004"/>
<path d="M715.882 144.27L671.705 43.1787H691.207L725.434 124.17L759.662 43.1787H778.765L717.673 182.477H699.167L715.882 144.27Z" fill="#000004"/>
</g>
<mask id="mask0_2402_1674" style="mask-type:alpha" maskUnits="userSpaceOnUse" x="230" y="166" width="397" height="52">
<path d="M243.39 171.398C244.377 171.398 245.74 171.539 246.727 171.774V175.205C245.975 174.97 244.941 174.876 244.095 174.876C241.369 174.876 239.677 176.145 239.677 179.341V182.255H247.103V185.686H239.677V206.695H235.823V185.686H231.499V182.255H235.823V179.247C235.823 174.641 238.737 171.398 243.39 171.398ZM263.352 181.503C270.637 181.503 276.371 186.767 276.371 194.475C276.371 202.136 270.637 207.4 263.352 207.4C256.067 207.4 250.38 202.136 250.38 194.475C250.38 186.767 256.067 181.503 263.352 181.503ZM254.328 194.475C254.328 200.115 258.182 203.828 263.352 203.828C268.663 203.828 272.423 200.115 272.423 194.475C272.423 188.788 268.663 185.075 263.352 185.075C258.088 185.075 254.328 188.788 254.328 194.475ZM281.904 182.255H285.758V186.485C287.638 182.866 291.163 181.832 293.842 181.832C294.406 181.832 294.782 181.879 295.346 181.973V185.968C294.735 185.827 294.077 185.733 293.419 185.733C289.001 185.733 285.758 188.083 285.758 194.851V206.695H281.904V182.255ZM299.85 182.255H303.704V185.639C305.302 182.866 308.075 181.503 311.13 181.503C314.843 181.503 317.428 183.336 318.791 186.156C320.201 183.524 322.974 181.503 327.016 181.503C332.186 181.503 335.664 184.699 335.664 190.856V206.695H331.81V191.655C331.81 187.096 329.742 185.028 326.123 185.028C321.94 185.028 319.684 187.989 319.684 192.736V206.695H315.83V191.749C315.83 187.096 313.762 185.028 310.19 185.028C305.913 185.028 303.704 188.318 303.704 193.488V206.695H299.85V182.255ZM352.969 181.503C360.348 181.503 364.766 186.579 364.766 194.052C364.766 194.569 364.719 195.18 364.672 195.744H344.979C345.449 201.196 348.927 203.969 353.392 203.969C357.293 203.969 359.972 202.371 361.429 198.987L364.39 201.478C362.228 205.614 357.716 207.4 353.345 207.4C345.966 207.4 340.984 202.136 340.984 194.475C340.984 187.096 346.06 181.503 352.969 181.503ZM345.026 192.642H360.583C360.583 187.848 357.528 184.934 352.969 184.934C349.021 184.934 345.684 187.613 345.026 192.642ZM370.672 182.255H374.526V186.485C376.406 182.866 379.931 181.832 382.61 181.832C383.174 181.832 383.55 181.879 384.114 181.973V185.968C383.503 185.827 382.845 185.733 382.187 185.733C377.769 185.733 374.526 188.083 374.526 194.851V206.695H370.672V182.255ZM388.853 172.15H392.707V206.695H388.853V172.15ZM397.367 182.255H401.691L410.104 201.807L418.141 182.255H422.371L407.707 216.8H403.571L407.989 206.319L397.367 182.255ZM447.887 181.503C455.266 181.503 459.684 186.579 459.684 194.052C459.684 194.569 459.637 195.18 459.59 195.744H439.897C440.367 201.196 443.845 203.969 448.31 203.969C452.211 203.969 454.89 202.371 456.347 198.987L459.308 201.478C457.146 205.614 452.634 207.4 448.263 207.4C440.884 207.4 435.902 202.136 435.902 194.475C435.902 187.096 440.978 181.503 447.887 181.503ZM439.944 192.642H455.501C455.501 187.848 452.446 184.934 447.887 184.934C443.939 184.934 440.602 187.613 439.944 192.642ZM465.825 172.15H469.679V206.695H465.825V172.15ZM488.438 181.503C495.723 181.503 501.457 186.767 501.457 194.475C501.457 202.136 495.723 207.4 488.438 207.4C481.153 207.4 475.466 202.136 475.466 194.475C475.466 186.767 481.153 181.503 488.438 181.503ZM479.414 194.475C479.414 200.115 483.268 203.828 488.438 203.828C493.749 203.828 497.509 200.115 497.509 194.475C497.509 188.788 493.749 185.075 488.438 185.075C483.174 185.075 479.414 188.788 479.414 194.475ZM520.291 207.4C515.92 207.4 512.818 205.567 510.844 202.794V216.8H506.99V182.255H510.844V186.062C512.865 183.289 516.061 181.503 520.291 181.503C527.858 181.503 532.699 187.237 532.699 194.475C532.699 201.666 527.811 207.4 520.291 207.4ZM510.703 194.475C510.703 199.692 514.181 203.875 519.774 203.875C525.461 203.875 528.751 199.645 528.751 194.475C528.751 189.258 525.461 185.028 519.774 185.028C514.181 185.028 510.703 189.258 510.703 194.475ZM537.025 200.491C537.025 196.355 540.221 194.005 544.968 193.159C552.864 191.749 553.945 191.373 553.945 188.741C553.945 185.78 551.078 184.699 547.929 184.699C544.169 184.699 541.161 186.673 541.161 190.715L537.636 189.305C538.012 184.652 542.43 181.503 547.929 181.503C554.039 181.503 557.752 184.37 557.752 189.587V202.23L558.504 206.695H555.167L554.086 203.358C552.065 206.225 548.728 207.4 545.203 207.4C540.409 207.4 537.025 204.627 537.025 200.491ZM541.161 200.303C541.161 202.559 542.947 204.298 546.002 204.298C551.031 204.298 553.945 201.055 553.945 196.825V193.958C553.146 194.757 551.595 194.945 546.049 196.073C543.276 196.59 541.161 197.624 541.161 200.303ZM584.469 182.255H588.323V206.131C588.323 213.134 583.435 217.505 575.774 217.505C569.476 217.505 565.387 215.014 563.507 210.173L566.891 207.823C568.207 212.006 571.168 214.074 575.774 214.074C581.085 214.074 584.469 210.925 584.469 205.943V201.948C582.495 204.627 579.393 206.366 575.445 206.366C567.972 206.366 563.178 200.867 563.178 193.958C563.178 187.049 567.972 181.503 575.445 181.503C579.393 181.503 582.495 183.242 584.469 185.921V182.255ZM567.126 193.958C567.126 198.846 570.369 202.841 575.962 202.841C581.414 202.841 584.563 198.893 584.563 193.958C584.563 188.976 581.414 185.028 575.962 185.028C570.369 185.028 567.126 189.023 567.126 193.958ZM605.869 181.503C613.248 181.503 617.666 186.579 617.666 194.052C617.666 194.569 617.619 195.18 617.572 195.744H597.879C598.349 201.196 601.827 203.969 606.292 203.969C610.193 203.969 612.872 202.371 614.329 198.987L617.29 201.478C615.128 205.614 610.616 207.4 606.245 207.4C598.866 207.4 593.884 202.136 593.884 194.475C593.884 187.096 598.96 181.503 605.869 181.503ZM597.926 192.642H613.483C613.483 187.848 610.428 184.934 605.869 184.934C601.921 184.934 598.584 187.613 597.926 192.642Z" fill="#000004"/>
</mask>
<g mask="url(#mask0_2402_1674)">
<rect x="230" y="166.195" width="390" height="53" fill="#000004"/>
</g>
<defs>
<clipPath id="clip0_2402_1674">
<rect width="573.765" height="182.282" fill="white" transform="translate(205 0.195312)"/>
</clipPath>
</defs>
</svg>
