<svg width="16" height="16" viewBox="0 0 16 16" fill="none" xmlns="http://www.w3.org/2000/svg">
<path d="M14.7066 12.4689C14.4552 13.0279 14.1577 13.5424 13.813 14.0155C13.3431 14.6604 12.9584 15.1068 12.6619 15.3547C12.2023 15.7616 11.7098 15.97 11.1825 15.9818C10.8039 15.9818 10.3474 15.8781 9.81592 15.6678C9.28274 15.4584 8.79275 15.3547 8.34472 15.3547C7.87484 15.3547 7.37089 15.4584 6.83186 15.6678C6.29201 15.8781 5.85712 15.9878 5.52461 15.9986C5.01892 16.0194 4.51488 15.8051 4.01175 15.3547C3.69063 15.0851 3.28898 14.6229 2.80781 13.9681C2.29156 13.2688 1.86713 12.458 1.53462 11.5336C1.17851 10.5351 1 9.56821 1 8.63214C1 7.55987 1.24069 6.63506 1.72278 5.86007C2.10166 5.23757 2.6057 4.74652 3.23655 4.38604C3.8674 4.02556 4.54904 3.84186 5.2831 3.83011C5.68476 3.83011 6.21148 3.94971 6.86603 4.18476C7.51873 4.42061 7.93783 4.54021 8.12157 4.54021C8.25895 4.54021 8.72452 4.40036 9.51378 4.12156C10.2602 3.863 10.8901 3.75594 11.4061 3.79811C12.8045 3.90675 13.8551 4.4374 14.5537 5.39342C13.3031 6.12288 12.6845 7.14458 12.6968 8.45525C12.708 9.47616 13.0928 10.3257 13.8489 11.0003C14.1916 11.3133 14.5742 11.5553 15 11.7272C14.9077 11.9849 14.8102 12.2318 14.7066 12.4689ZM11.4995 0.320091C11.4995 1.12027 11.1958 1.8674 10.5905 2.55894C9.86003 3.38104 8.97649 3.85608 8.01837 3.78112C8.00616 3.68512 7.99908 3.58409 7.99908 3.47792C7.99908 2.70975 8.34646 1.88765 8.96336 1.21547C9.27135 0.875136 9.66305 0.592152 10.1381 0.36641C10.612 0.144037 11.0604 0.0210594 11.482 0C11.4944 0.106972 11.4995 0.213961 11.4995 0.320091Z" fill="#666666"/>
</svg>
