<svg width="22" height="26" viewBox="0 0 22 26" fill="none" xmlns="http://www.w3.org/2000/svg">
<g clip-path="url(#clip0_8838_4531)">
<path d="M21.0599 19.9636C20.6828 20.8346 20.2366 21.6364 19.7195 22.3735C19.0147 23.3784 18.4376 24.074 17.9928 24.4603C17.3034 25.0943 16.5647 25.419 15.7737 25.4375C15.2058 25.4375 14.521 25.2759 13.7239 24.9481C12.9241 24.6219 12.1891 24.4603 11.5171 24.4603C10.8123 24.4603 10.0563 24.6219 9.2478 24.9481C8.43802 25.2759 7.78567 25.4467 7.28691 25.4637C6.52838 25.496 5.77232 25.162 5.01763 24.4603C4.53595 24.0402 3.93347 23.32 3.21172 22.2997C2.43734 21.2101 1.80069 19.9467 1.30193 18.5062C0.767771 16.9504 0.5 15.4438 0.5 13.9852C0.5 12.3144 0.861029 10.8734 1.58416 9.66581C2.15248 8.69583 2.90855 7.93069 3.85483 7.36898C4.80111 6.80728 5.82356 6.52104 6.92465 6.50273C7.52714 6.50273 8.31721 6.68909 9.29904 7.05535C10.2781 7.42284 10.9067 7.60921 11.1824 7.60921C11.3884 7.60921 12.0868 7.3913 13.2707 6.95686C14.3902 6.55397 15.3351 6.38716 16.1092 6.45287C18.2067 6.62215 19.7826 7.44901 20.8306 8.93867C18.9546 10.0753 18.0267 11.6673 18.0451 13.7096C18.0621 15.3004 18.6392 16.6242 19.7733 17.6752C20.2873 18.1631 20.8614 18.5401 21.5 18.8079C21.3615 19.2095 21.2153 19.5943 21.0599 19.9636ZM16.2492 1.03343C16.2492 2.28027 15.7937 3.44445 14.8858 4.52199C13.79 5.80298 12.4647 6.5432 11.0275 6.4264C11.0092 6.27682 10.9986 6.11938 10.9986 5.95395C10.9986 4.75699 11.5197 3.47599 12.445 2.42861C12.907 1.8983 13.4946 1.45736 14.2071 1.10561C14.9181 0.759105 15.5906 0.567483 16.2231 0.534668C16.2415 0.701351 16.2492 0.868061 16.2492 1.03343Z" fill="#B3B3B3"/>
</g>
<defs>
<clipPath id="clip0_8838_4531">
<rect width="21" height="24.9311" fill="white" transform="translate(0.5 0.534668)"/>
</clipPath>
</defs>
</svg>
