<svg width="32" height="32" viewBox="0 0 32 32" fill="none" xmlns="http://www.w3.org/2000/svg">
<path d="M29.7073 16.7081L25.7073 20.7081C25.5197 20.8957 25.2652 21.0011 24.9998 21.0011C24.7344 21.0011 24.4799 20.8957 24.2923 20.7081C24.1047 20.5204 23.9993 20.2659 23.9993 20.0006C23.9993 19.7352 24.1047 19.4807 24.2923 19.2931L26.5861 17.0006H5.41356L7.70731 19.2931C7.89495 19.4807 8.00037 19.7352 8.00037 20.0006C8.00037 20.2659 7.89495 20.5204 7.70731 20.7081C7.51967 20.8957 7.26517 21.0011 6.99981 21.0011C6.73445 21.0011 6.47995 20.8957 6.29231 20.7081L2.29231 16.7081C2.19933 16.6152 2.12557 16.5049 2.07525 16.3835C2.02493 16.2621 1.99902 16.132 1.99902 16.0006C1.99902 15.8691 2.02493 15.739 2.07525 15.6176C2.12557 15.4962 2.19933 15.3859 2.29231 15.2931L6.29231 11.2931C6.47995 11.1054 6.73445 11 6.99981 11C7.26517 11 7.51967 11.1054 7.70731 11.2931C7.89495 11.4807 8.00037 11.7352 8.00037 12.0006C8.00037 12.2659 7.89495 12.5204 7.70731 12.7081L5.41356 15.0006H26.5861L24.2923 12.7081C24.1047 12.5204 23.9993 12.2659 23.9993 12.0006C23.9993 11.7352 24.1047 11.4807 24.2923 11.2931C24.4799 11.1054 24.7344 11 24.9998 11C25.2652 11 25.5197 11.1054 25.7073 11.2931L29.7073 15.2931C29.8003 15.3859 29.874 15.4962 29.9244 15.6176C29.9747 15.739 30.0006 15.8691 30.0006 16.0006C30.0006 16.132 29.9747 16.2621 29.9244 16.3835C29.874 16.5049 29.8003 16.6152 29.7073 16.7081Z" fill="white"/>
</svg>
