<svg width="1694" height="898" viewBox="0 0 1694 898" fill="none" xmlns="http://www.w3.org/2000/svg">
<path d="M1568.4 10.5551L1684.15 133.967C1696.75 147.405 1696.75 169.228 1684.15 182.723L1019.02 891.898C1015.46 895.688 1010.67 897.813 1005.71 897.813H934.78C929.771 897.813 924.977 895.688 921.476 891.898L857.597 823.788C854.042 819.998 852.049 814.887 852.049 809.604V733.972C852.049 728.631 854.042 723.52 857.597 719.787L1522.73 10.5551C1535.33 -2.88296 1555.8 -2.88296 1568.46 10.5551H1568.4Z" fill="#454B50"/>
<path d="M9.45264 133.967L125.2 10.5551C137.804 -2.88296 158.271 -2.88296 170.929 10.5551L836.061 719.73C839.615 723.52 841.608 728.631 841.608 733.914V809.546C841.608 814.887 839.615 819.998 836.061 823.731L772.181 891.84C768.626 895.63 763.833 897.755 758.877 897.755H687.942C682.933 897.755 678.14 895.63 674.639 891.84L9.45264 182.723C-3.15088 169.285 -3.15088 147.463 9.45264 133.967Z" fill="#454B50"/>
</svg>
