<svg width="48" height="48" viewBox="0 0 48 48" fill="none" xmlns="http://www.w3.org/2000/svg">
<path d="M45.3708 45.3708C43.7456 46.9959 41.4995 48.0016 39.0188 48C37.5453 48 36.1564 47.6456 34.9288 47.0166C33.2494 46.1562 31.8765 44.7833 31.0161 43.1039C30.3903 41.8763 30.0359 40.489 30.0359 39.0172V38.7825C30.0567 37.9364 30.1956 37.1191 30.435 36.3496C30.435 36.3464 30.4366 36.3432 30.435 36.3416C30.866 34.9448 31.0975 33.4602 31.0991 31.9212C31.0991 29.9577 30.7208 28.0819 30.0343 26.361C29.2728 24.4486 28.1282 22.7309 26.6979 21.2989C25.2675 19.867 23.5482 18.7224 21.6358 17.9625C19.9149 17.276 18.0391 16.8993 16.0756 16.8977C14.5367 16.8977 13.052 17.1308 11.6552 17.5618C11.6552 17.5618 11.6504 17.5618 11.6472 17.5618C10.8777 17.8013 10.062 17.9401 9.21432 17.9609H8.97965C7.50938 17.9609 6.12053 17.6081 4.89291 16.9807C3.21352 16.1203 1.84063 14.7474 0.980178 13.068C0.354397 11.8452 0 10.4563 0 8.98124C0 6.50047 1.00412 4.25436 2.62924 2.62924C4.25436 1.00412 6.50206 0 8.98124 0H47.6807C47.8563 0 48 0.143674 48 0.319276V39.0188C48 41.4995 46.9959 43.7456 45.3692 45.3724L45.3708 45.3708Z" fill="#141619"/>
<path d="M16.2859 40.2149C21.159 40.2149 25.1095 36.2645 25.1095 31.3914C25.1095 26.5183 21.159 22.5679 16.2859 22.5679C11.4128 22.5679 7.4624 26.5183 7.4624 31.3914C7.4624 36.2645 11.4128 40.2149 16.2859 40.2149Z" fill="#141619"/>
</svg>
