<svg width="30" height="30" viewBox="0 0 30 30" fill="none" xmlns="http://www.w3.org/2000/svg">
<path d="M12.1875 20.625C14.2586 20.625 15.9375 18.9461 15.9375 16.875C15.9375 14.8039 14.2586 13.125 12.1875 13.125C10.1164 13.125 8.4375 14.8039 8.4375 16.875C8.4375 18.9461 10.1164 20.625 12.1875 20.625Z" stroke="#000004" stroke-width="1.5" stroke-linecap="round" stroke-linejoin="round"/>
<path d="M6.25781 24.375C6.78994 23.2527 7.62963 22.3045 8.67929 21.6406C9.72894 20.9766 10.9455 20.6241 12.1875 20.6241C13.4295 20.6241 14.6461 20.9766 15.6957 21.6406C16.7454 22.3045 17.5851 23.2527 18.1172 24.375H25.3125C25.5611 24.375 25.7996 24.2762 25.9754 24.1004C26.1512 23.9246 26.25 23.6861 26.25 23.4375V6.5625C26.25 6.31386 26.1512 6.0754 25.9754 5.89959C25.7996 5.72377 25.5611 5.625 25.3125 5.625H4.6875C4.43886 5.625 4.2004 5.72377 4.02459 5.89959C3.84877 6.0754 3.75 6.31386 3.75 6.5625V23.4375C3.75 23.6861 3.84877 23.9246 4.02459 24.1004C4.2004 24.2762 4.43886 24.375 4.6875 24.375H6.25781Z" stroke="#000004" stroke-width="1.5" stroke-linecap="round" stroke-linejoin="round"/>
<path d="M20.625 20.625H22.5V9.375H7.5V11.25" stroke="#000004" stroke-width="1.5" stroke-linecap="round" stroke-linejoin="round"/>
</svg>
