<svg width="34" height="33" viewBox="0 0 34 33" fill="none" xmlns="http://www.w3.org/2000/svg">
<path d="M27.625 5.15625H6.375C5.7882 5.15625 5.3125 5.61796 5.3125 6.1875V26.8125C5.3125 27.382 5.7882 27.8438 6.375 27.8438H27.625C28.2118 27.8438 28.6875 27.382 28.6875 26.8125V6.1875C28.6875 5.61796 28.2118 5.15625 27.625 5.15625Z" stroke="#000004" stroke-width="1.5" stroke-linecap="round" stroke-linejoin="round"/>
<path d="M23.375 3.09375V7.21875" stroke="#000004" stroke-width="1.5" stroke-linecap="round" stroke-linejoin="round"/>
<path d="M10.625 3.09375V7.21875" stroke="#000004" stroke-width="1.5" stroke-linecap="round" stroke-linejoin="round"/>
<path d="M5.3125 11.3438H28.6875" stroke="#000004" stroke-width="1.5" stroke-linecap="round" stroke-linejoin="round"/>
<path d="M12.2188 16.5H15.9375L13.8125 19.0781C14.1622 19.0775 14.5067 19.1607 14.8153 19.3204C15.124 19.48 15.3873 19.711 15.5819 19.9931C15.7764 20.2751 15.8963 20.5994 15.9308 20.9372C15.9653 21.275 15.9133 21.6158 15.7796 21.9294C15.6458 22.2431 15.4344 22.5198 15.164 22.7351C14.8937 22.9504 14.5727 23.0976 14.2297 23.1637C13.8867 23.2297 13.5321 23.2126 13.1976 23.1138C12.863 23.015 12.5587 22.8376 12.3117 22.5973" stroke="#000004" stroke-width="1.5" stroke-linecap="round" stroke-linejoin="round"/>
<path d="M19.125 18.0469L21.25 16.5V23.2031" stroke="#000004" stroke-width="1.5" stroke-linecap="round" stroke-linejoin="round"/>
</svg>
