<svg width="24" height="25" viewBox="0 0 24 25" fill="none" xmlns="http://www.w3.org/2000/svg">
<path d="M9.75 17.4297C11.4069 17.4297 12.75 16.0865 12.75 14.4297C12.75 12.7728 11.4069 11.4297 9.75 11.4297C8.09315 11.4297 6.75 12.7728 6.75 14.4297C6.75 16.0865 8.09315 17.4297 9.75 17.4297Z" stroke="#000004" stroke-linecap="round" stroke-linejoin="round"/>
<path d="M5.00625 20.4297C5.43196 19.5319 6.1037 18.7733 6.94343 18.2421C7.78315 17.711 8.75638 17.429 9.75 17.429C10.7436 17.429 11.7168 17.711 12.5566 18.2421C13.3963 18.7733 14.068 19.5319 14.4938 20.4297H20.25C20.4489 20.4297 20.6397 20.3507 20.7803 20.21C20.921 20.0694 21 19.8786 21 19.6797V6.17969C21 5.98078 20.921 5.79001 20.7803 5.64936C20.6397 5.50871 20.4489 5.42969 20.25 5.42969H3.75C3.55109 5.42969 3.36032 5.50871 3.21967 5.64936C3.07902 5.79001 3 5.98078 3 6.17969V19.6797C3 19.8786 3.07902 20.0694 3.21967 20.21C3.36032 20.3507 3.55109 20.4297 3.75 20.4297H5.00625Z" stroke="#000004" stroke-linecap="round" stroke-linejoin="round"/>
<path d="M16.5 17.4297H18V8.42969H6V9.92969" stroke="#000004" stroke-linecap="round" stroke-linejoin="round"/>
</svg>
