<svg width="40" height="40" viewBox="0 0 40 40" fill="none" xmlns="http://www.w3.org/2000/svg">
<path fill-rule="evenodd" clip-rule="evenodd" d="M5 20C5 11.7157 11.7157 5 20 5C28.2843 5 35 11.7157 35 20C35 28.2843 28.2843 35 20 35C11.7157 35 5 28.2843 5 20ZM20 3C10.6112 3 3 10.6112 3 20C3 29.3888 10.6112 37 20 37C29.3888 37 37 29.3888 37 20C37 10.6112 29.3888 3 20 3ZM27.6939 15.7279C28.0916 15.3446 28.1033 14.7115 27.72 14.3139C27.3368 13.9162 26.7037 13.9045 26.3061 14.2878L17.662 22.6184L13.6945 18.7884C13.2972 18.4048 12.6641 18.4159 12.2806 18.8133C11.897 19.2106 11.9081 19.8437 12.3055 20.2273L16.9668 24.7273C17.3541 25.1011 17.9677 25.1014 18.3553 24.7279L27.6939 15.7279Z" fill="#FAFAFC"/>
</svg>
