<svg width="390" height="95" viewBox="0 0 390 95" fill="none" xmlns="http://www.w3.org/2000/svg">
<path d="M377.23 9.31984H381.83V12.5998C383.35 9.59984 385.83 8.83984 387.75 8.83984C388.47 8.83984 388.95 8.87984 389.59 9.11984V13.6798C388.79 13.4398 388.11 13.3198 387.23 13.3198C384.03 13.3198 381.83 15.4798 381.83 20.0798V30.1198H377.23V9.31984Z" fill="white"/>
<path d="M371.8 9.32059V30.1206H367.2V27.6006C365.8 29.8006 363.6 30.7206 360.96 30.7206C356.16 30.7206 353.24 27.6406 353.24 22.5606V9.32059H357.84V21.9606C357.84 25.1606 359.24 26.7606 362.04 26.7606C365.4 26.7606 367.2 24.4006 367.2 20.6406V9.32059H371.8ZM356.08 6.40059V1.60059H360.88V6.40059H356.08ZM364.2 6.40059V1.60059H369V6.40059H364.2Z" fill="white"/>
<path d="M345.56 0C346.68 0 347.88 0.079999 348.92 0.36V4.28C348.16 4.12 347.28 4.04 346.48 4.04C344.56 4.04 343.44 5 343.44 7.2V9.32H349.44V13.24H343.44V30.12H338.84V13.24H335.08V9.32H338.84V7.08C338.84 2.96 341.48 0 345.56 0Z" fill="white"/>
<path d="M312.902 3.08008H317.502V9.32008H323.422V13.2801H317.502V23.4001C317.502 25.9601 318.502 26.4801 320.582 26.4801C321.222 26.4801 322.422 26.3201 323.102 26.1601V30.2001C322.422 30.4801 320.582 30.6401 319.902 30.6401C315.382 30.6401 312.902 28.7601 312.902 24.0001V13.2801H309.182V9.32008H312.902V3.08008Z" fill="white"/>
<path d="M300.901 9.31973H305.501V30.1197H300.901V9.31973ZM300.701 5.55973V0.719727H305.661V5.55973H300.701Z" fill="white"/>
<path d="M286.43 8.60059C292.55 8.60059 296.39 12.9606 296.39 19.3206C296.39 19.9206 296.35 20.4406 296.27 21.1606H280.83C281.31 25.1206 283.67 26.8406 286.83 26.8406C289.75 26.8406 291.63 25.6806 292.75 23.1206L296.07 26.0806C294.11 29.2406 290.55 30.7206 286.71 30.7206C280.15 30.7206 275.99 26.2006 275.99 19.7606C275.99 13.3206 280.39 8.60059 286.43 8.60059ZM280.87 17.8006H291.43C291.43 14.6006 289.55 12.4806 286.35 12.4806C283.63 12.4806 281.43 14.2006 280.87 17.8006Z" fill="white"/>
<path d="M261.918 9.31984H266.518V12.5998C268.038 9.59984 270.518 8.83984 272.438 8.83984C273.158 8.83984 273.638 8.87984 274.278 9.11984V13.6798C273.478 13.4398 272.798 13.3198 271.918 13.3198C268.718 13.3198 266.518 15.4798 266.518 20.0798V30.1198H261.918V9.31984Z" fill="white"/>
<path d="M247.446 8.60059C253.566 8.60059 257.406 12.9606 257.406 19.3206C257.406 19.9206 257.366 20.4406 257.286 21.1606H241.846C242.326 25.1206 244.686 26.8406 247.846 26.8406C250.766 26.8406 252.646 25.6806 253.766 23.1206L257.086 26.0806C255.126 29.2406 251.566 30.7206 247.726 30.7206C241.166 30.7206 237.006 26.2006 237.006 19.7606C237.006 13.3206 241.406 8.60059 247.446 8.60059ZM241.886 17.8006H252.446C252.446 14.6006 250.566 12.4806 247.366 12.4806C244.646 12.4806 242.446 14.2006 241.886 17.8006Z" fill="white"/>
<path d="M211.688 0.719727H216.288V11.8397C217.928 9.87973 220.327 8.59972 223.527 8.59972C229.807 8.59972 234.048 13.4397 234.048 19.7197C234.048 25.9597 229.767 30.7197 223.527 30.7197C220.287 30.7197 217.887 29.4397 216.247 27.4797V30.1197H211.688V0.719727ZM216.128 19.7197C216.128 23.7597 218.927 26.5197 222.688 26.5197C226.608 26.5197 229.288 23.6797 229.288 19.7197C229.288 15.6797 226.608 12.7597 222.688 12.7597C218.927 12.7597 216.128 15.6397 216.128 19.7197Z" fill="white"/>
<path d="M189.332 8.59972C194.412 8.59972 197.132 11.8397 197.132 17.6797V30.1197H192.532V18.3197C192.532 14.5597 191.132 12.8397 188.052 12.8397C184.772 12.8397 182.772 15.0797 182.772 19.0397V30.1197H178.172V0.719727H182.772V12.0397C184.052 9.87972 186.172 8.59972 189.332 8.59972Z" fill="white"/>
<path d="M164.299 8.60059C168.779 8.60059 172.539 11.0806 173.899 14.4006L169.819 16.8006C169.259 14.2806 166.899 12.8006 164.299 12.8006C160.499 12.8006 157.899 15.4006 157.899 19.6806C157.899 23.9206 160.419 26.4806 164.299 26.4806C166.939 26.4806 169.219 24.8006 169.859 22.6006L173.819 24.9606C172.419 28.2406 168.779 30.7206 164.299 30.7206C157.659 30.7206 153.139 26.2406 153.139 19.6806C153.139 13.1606 157.819 8.60059 164.299 8.60059Z" fill="white"/>
<path d="M144.339 9.31973H148.939V30.1197H144.339V9.31973ZM144.139 5.55973V0.719727H149.099V5.55973H144.139Z" fill="white"/>
<path d="M138.702 0.719727V30.1197H134.142V27.4797C132.502 29.4397 130.102 30.7197 126.862 30.7197C120.622 30.7197 116.342 25.9597 116.342 19.7197C116.342 13.4397 120.582 8.59972 126.862 8.59972C130.062 8.59972 132.462 9.87973 134.102 11.8397V0.719727H138.702ZM121.102 19.7197C121.102 23.6797 123.782 26.5197 127.702 26.5197C131.462 26.5197 134.262 23.7597 134.262 19.7197C134.262 15.6397 131.462 12.7597 127.702 12.7597C123.782 12.7597 121.102 15.6797 121.102 19.7197Z" fill="white"/>
<path d="M95.4256 8.59972C100.506 8.59972 103.226 11.8397 103.226 17.6797V30.1197H98.6256V18.3197C98.6256 14.5597 97.2256 12.8397 94.1456 12.8397C90.8656 12.8397 88.8656 15.0797 88.8656 19.0397V30.1197H84.2656V0.719727H88.8656V12.0397C90.1456 9.87972 92.2656 8.59972 95.4256 8.59972Z" fill="white"/>
<path d="M70.3924 8.60059C74.8724 8.60059 78.6324 11.0806 79.9924 14.4006L75.9124 16.8006C75.3524 14.2806 72.9924 12.8006 70.3924 12.8006C66.5924 12.8006 63.9924 15.4006 63.9924 19.6806C63.9924 23.9206 66.5124 26.4806 70.3924 26.4806C73.0324 26.4806 75.3124 24.8006 75.9524 22.6006L79.9124 24.9606C78.5124 28.2406 74.8724 30.7206 70.3924 30.7206C63.7524 30.7206 59.2324 26.2406 59.2324 19.6806C59.2324 13.1606 63.9124 8.60059 70.3924 8.60059Z" fill="white"/>
<path d="M36.6621 24.6796C36.6621 21.1196 39.3821 19.0796 43.5821 18.3196C49.5821 17.2796 50.5021 17.1196 50.5021 15.1996C50.5021 13.1596 48.6221 12.2396 46.1821 12.2396C43.2221 12.2396 41.1421 13.9196 41.1421 16.8796L37.0621 15.2796C37.6621 11.3596 41.3421 8.63965 46.1821 8.63965C51.5821 8.63965 54.9821 11.1596 54.9821 15.7996V25.9996L55.7021 30.1196H51.6221L50.7421 27.5596C49.2221 29.6396 46.6221 30.6796 43.7421 30.6796C39.5821 30.6796 36.6621 28.3996 36.6621 24.6796ZM41.5021 24.4396C41.5021 25.9996 42.7021 27.1996 44.7821 27.1996C48.5421 27.1996 50.5021 24.8396 50.5021 21.7596V19.9596C49.8621 20.5196 48.6621 20.6796 44.8621 21.3996C42.9021 21.7996 41.5021 22.5996 41.5021 24.4396Z" fill="white"/>
<path d="M0.410156 0.719727H7.81016L15.9702 24.4797L24.1302 0.719727H31.4502V30.1197H26.7702V5.83972L18.5702 29.8397H13.2102L5.09016 5.87973V30.1197H0.410156V0.719727Z" fill="white"/>
<path d="M263.719 76.2412H269.279V81.8412H263.719V76.2412Z" fill="white"/>
<path d="M229.766 61.041H234.966L240.966 75.961L246.726 61.041H251.806L239.806 90.441H234.846L238.446 81.521L229.766 61.041Z" fill="white"/>
<path d="M200.618 60.2012C206.738 60.2012 210.578 64.5612 210.578 70.9212C210.578 71.5212 210.538 72.0412 210.458 72.7612H195.018C195.498 76.7212 197.858 78.4412 201.018 78.4412C203.938 78.4412 205.818 77.2812 206.938 74.7212L210.258 77.6812C208.298 80.8412 204.738 82.3212 200.898 82.3212C194.338 82.3212 190.178 77.8012 190.178 71.3612C190.178 64.9212 194.578 60.2012 200.618 60.2012ZM195.058 69.4012H205.618C205.618 66.2012 203.738 64.0812 200.538 64.0812C197.818 64.0812 195.618 65.8012 195.058 69.4012Z" fill="white"/>
<path d="M181.188 52.3203H185.787V81.7203H181.188V52.3203Z" fill="white"/>
<path d="M154.43 52.3203H159.03V63.4403C160.67 61.4803 163.07 60.2003 166.27 60.2003C172.55 60.2003 176.79 65.0403 176.79 71.3203C176.79 77.5603 172.51 82.3203 166.27 82.3203C163.03 82.3203 160.63 81.0403 158.99 79.0803V81.7203H154.43V52.3203ZM158.87 71.3203C158.87 75.3603 161.67 78.1203 165.43 78.1203C169.35 78.1203 172.03 75.2803 172.03 71.3203C172.03 67.2803 169.35 64.3603 165.43 64.3603C161.67 64.3603 158.87 67.2403 158.87 71.3203Z" fill="white"/>
<path d="M130.42 76.2802C130.42 72.7202 133.14 70.6802 137.34 69.9202C143.34 68.8802 144.26 68.7202 144.26 66.8002C144.26 64.7602 142.38 63.8402 139.94 63.8402C136.98 63.8402 134.9 65.5202 134.9 68.4802L130.82 66.8802C131.42 62.9602 135.1 60.2402 139.94 60.2402C145.34 60.2402 148.74 62.7602 148.74 67.4002V77.6002L149.46 81.7202H145.38L144.5 79.1602C142.98 81.2402 140.38 82.2802 137.5 82.2802C133.34 82.2802 130.42 80.0002 130.42 76.2802ZM135.26 76.0402C135.26 77.6002 136.46 78.8002 138.54 78.8002C142.3 78.8002 144.26 76.4402 144.26 73.3602V71.5602C143.62 72.1202 142.42 72.2802 138.62 73.0002C136.66 73.4002 135.26 74.2002 135.26 76.0402Z" fill="white"/>
<rect x="121.304" y="47.3056" width="136.83" height="46.8301" rx="23.4151" stroke="white" stroke-width="1.16987"/>
<path d="M223.81 51.7207C224.93 51.7207 226.13 51.8007 227.17 52.0807V56.0007C226.41 55.8407 225.53 55.7607 224.73 55.7607C222.81 55.7607 221.69 56.7207 221.69 58.9207V61.0407H227.69V64.9607H221.69V81.8407H217.09V64.9607H213.33V61.0407H217.09V58.8007C217.09 54.6807 219.73 51.7207 223.81 51.7207Z" fill="white"/>
</svg>
