<svg width="201" height="82" viewBox="0 0 201 82" fill="none" xmlns="http://www.w3.org/2000/svg">
<g clip-path="url(#clip0_480_2041)">
<path d="M177.302 0.933594H24.4051C11.4518 0.933594 0.951172 11.4291 0.951172 24.376V58.2714C0.951172 71.2183 11.4518 81.7138 24.4051 81.7138H177.302C190.255 81.7138 200.756 71.2183 200.756 58.2714V24.376C200.756 11.4291 190.255 0.933594 177.302 0.933594Z" fill="#FFB3C7"/>
<path d="M160.949 36.3292C159.089 35.0625 156.919 34.3267 154.672 34.201C152.425 34.0753 150.186 34.5645 148.196 35.6159C146.206 36.6673 144.541 38.2411 143.38 40.168C142.218 42.0949 141.604 44.3019 141.604 46.5515C141.604 48.8011 142.218 51.008 143.38 52.9349C144.541 54.8618 146.206 56.4357 148.196 57.4871C150.186 58.5385 152.425 59.0277 154.672 58.902C156.919 58.7763 159.089 58.0405 160.949 56.7738V58.2716H167.971V34.8298H160.949V36.3292ZM154.563 52.5829C153.383 52.5202 152.247 52.1132 151.297 51.4122C150.346 50.7112 149.621 49.747 149.213 48.6389C148.805 47.5308 148.731 46.3273 148.999 45.1774C149.268 44.0275 149.868 42.9816 150.726 42.169C151.583 41.3565 152.66 40.813 153.823 40.6057C154.986 40.3985 156.185 40.5366 157.27 41.0029C158.355 41.4693 159.28 42.2435 159.93 43.2297C160.58 44.2159 160.926 45.3709 160.926 46.5518C160.881 48.1946 160.186 49.7524 158.993 50.8832C157.8 52.014 156.206 52.6253 154.563 52.5829Z" fill="black"/>
<path d="M64.6511 24.3828H57.3022V58.2719H64.6511V24.3828Z" fill="black"/>
<path d="M129.134 34.2004C127.754 34.1188 126.374 34.374 125.114 34.944C123.854 35.514 122.751 36.3816 121.901 37.4722V34.8323H114.908V58.2733H121.985V45.9541C121.931 45.2465 122.03 44.5354 122.275 43.8693C122.52 43.2031 122.906 42.5976 123.406 42.0937C123.906 41.5899 124.509 41.1996 125.173 40.9494C125.838 40.6992 126.549 40.595 127.257 40.6437C130.343 40.6437 132.117 42.4866 132.117 45.9056V58.2733H139.132V43.3659C139.132 37.9104 134.792 34.2004 129.134 34.2004Z" fill="black"/>
<path d="M86.8673 36.3292C85.0073 35.0625 82.837 34.3267 80.5898 34.201C78.3427 34.0753 76.1038 34.5645 74.114 35.6159C72.1243 36.6673 70.4591 38.2411 69.2977 40.168C68.1362 42.0949 67.5225 44.3019 67.5225 46.5515C67.5225 48.8011 68.1362 51.008 69.2977 52.9349C70.4591 54.8618 72.1243 56.4357 74.114 57.4871C76.1038 58.5385 78.3427 59.0277 80.5898 58.902C82.837 58.7763 85.0073 58.0405 86.8673 56.7738V58.2716H93.8894V34.8298H86.8673V36.3292ZM80.4805 52.5829C79.3007 52.5204 78.165 52.1135 77.2141 51.4126C76.2632 50.7117 75.5388 49.7475 75.1304 48.6394C74.722 47.5313 74.6475 46.3278 74.9163 45.1778C75.185 44.0279 75.7852 42.9819 76.6425 42.1692C77.4998 41.3566 78.5766 40.813 79.7398 40.6057C80.9029 40.3984 82.1014 40.5365 83.1869 41.0028C84.2723 41.4692 85.1972 42.2434 85.8471 43.2296C86.497 44.2158 86.8433 45.3709 86.8433 46.5518C86.7984 48.1945 86.1031 49.7523 84.9101 50.8831C83.7171 52.0139 82.1239 52.6252 80.4803 52.5829H80.4805Z" fill="black"/>
<path d="M104.752 37.8832V34.8299H97.562V58.2721H104.767V47.3281C104.767 43.6354 108.771 41.6505 111.55 41.6505C111.578 41.6505 111.605 41.6533 111.633 41.6535V34.8313C110.331 34.7963 109.038 35.0522 107.848 35.5802C106.657 36.1081 105.599 36.8949 104.752 37.8832Z" fill="black"/>
<path d="M175.426 49.959C174.555 49.959 173.703 50.2174 172.978 50.7015C172.253 51.1856 171.688 51.8736 171.354 52.6786C171.021 53.4836 170.934 54.3693 171.104 55.2239C171.274 56.0784 171.694 56.8634 172.31 57.4794C172.926 58.0955 173.712 58.515 174.567 58.685C175.422 58.855 176.308 58.7677 177.113 58.4343C177.919 58.1009 178.607 57.5362 179.091 56.8118C179.576 56.0873 179.834 55.2356 179.834 54.3643C179.834 53.7858 179.72 53.2129 179.499 52.6784C179.277 52.1438 178.952 51.6582 178.543 51.2491C178.134 50.84 177.648 50.5155 177.113 50.2942C176.578 50.0728 176.005 49.9589 175.426 49.959Z" fill="black"/>
<path d="M52.2353 24.377H44.6193C44.6311 27.4297 43.9245 30.4424 42.5566 33.1718C41.1886 35.9012 39.1977 38.2709 36.7446 40.0895L33.7275 42.3482L45.4187 58.2832H55.0305L44.2736 43.6207C46.8105 41.1006 48.8208 38.1015 50.1876 34.7978C51.5544 31.4942 52.2505 27.9519 52.2353 24.377Z" fill="black"/>
<path d="M32.797 24.377H25.1675V58.2818H32.797V24.377Z" fill="black"/>
</g>
<defs>
<clipPath id="clip0_480_2041">
<rect width="199.805" height="80.7408" fill="white" transform="translate(0.951172 0.933594)"/>
</clipPath>
</defs>
</svg>
