<svg width="64" height="64" viewBox="0 0 64 64" fill="none" xmlns="http://www.w3.org/2000/svg">
<g clip-path="url(#clip0_3712_72027)">
<circle cx="32" cy="32" r="32" fill="#2BFF99"/>
<g clip-path="url(#clip1_3712_72027)">
<g filter="url(#filter0_f_3712_72027)">
<path d="M25.9592 41.2546L26.3674 41.4964C28.0818 42.5138 30.0475 43.052 32.052 43.0529H32.0562C38.2122 43.0529 43.2221 38.0441 43.2247 31.8877C43.2258 28.9044 42.0652 26.099 39.9565 23.9887C38.9223 22.948 37.6919 22.1227 36.3365 21.5607C34.9812 20.9987 33.5278 20.7111 32.0606 20.7145C25.8999 20.7145 20.8898 25.7228 20.8876 31.8788C20.8845 33.9809 21.4765 36.0409 22.595 37.8207L22.8607 38.243L21.7322 42.3628L25.9592 41.2546ZM18.5059 45.5544L20.4124 38.5936C19.2366 36.5565 18.618 34.2455 18.6187 31.8779C18.6218 24.4711 24.6494 18.4453 32.0564 18.4453C35.6508 18.4471 39.0245 19.8459 41.5618 22.385C44.0991 24.9242 45.4952 28.2992 45.4939 31.8887C45.4906 39.2949 39.4621 45.3218 32.0562 45.3218H32.0504C29.8016 45.3208 27.592 44.7567 25.6292 43.6865L18.5059 45.5544Z" fill="#B3B3B3"/>
</g>
<path d="M18.3682 45.4158L20.2747 38.4549C19.0968 36.4129 18.4782 34.0965 18.481 31.7392C18.4841 24.3324 24.5117 18.3066 31.9187 18.3066C35.5131 18.3085 38.8868 19.7072 41.4241 22.2464C43.9614 24.7855 45.3575 28.1605 45.3562 31.75C45.3529 39.1562 39.3244 45.1831 31.9185 45.1831H31.9127C29.6639 45.1822 27.4543 44.618 25.4915 43.5478L18.3682 45.4158Z" fill="white"/>
<path d="M31.9226 20.5762C25.7619 20.5762 20.7517 25.5845 20.7495 31.7405C20.7465 33.8426 21.3384 35.9026 22.4569 37.6824L22.7227 38.1048L21.5942 42.2246L25.8214 41.1162L26.2296 41.358C27.9439 42.3755 29.9096 42.9135 31.9142 42.9146H31.9184C38.0743 42.9146 43.0845 37.9058 43.0868 31.7494C43.0915 30.2821 42.805 28.8284 42.244 27.4725C41.6831 26.1167 40.8587 24.8855 39.8187 23.8504C38.7844 22.8097 37.554 21.9844 36.1986 21.4224C34.8432 20.8603 33.3898 20.5727 31.9226 20.5762Z" fill="url(#paint0_linear_3712_72027)"/>
<path fill-rule="evenodd" clip-rule="evenodd" d="M28.56 26.123C28.3083 25.564 28.0435 25.5527 27.8044 25.543L27.1608 25.5352C26.9369 25.5352 26.5731 25.6192 26.2656 25.9552C25.958 26.2913 25.0903 27.1034 25.0903 28.7553C25.0903 30.4072 26.2935 32.0034 26.4612 32.2277C26.6288 32.452 28.7839 35.9499 32.1967 37.2957C35.0328 38.4142 35.6099 38.1917 36.2258 38.1358C36.8416 38.0799 38.2122 37.3237 38.4918 36.5396C38.7715 35.7556 38.7716 35.0839 38.6878 34.9434C38.604 34.803 38.3801 34.7195 38.044 34.5515C37.708 34.3835 36.0575 33.5713 35.7498 33.4592C35.4421 33.347 35.2184 33.2913 34.9943 33.6274C34.7702 33.9634 34.1275 34.7193 33.9315 34.9434C33.7356 35.1675 33.54 35.1956 33.2039 35.0278C32.8679 34.86 31.7867 34.5053 30.5039 33.3615C29.5058 32.4715 28.8321 31.3724 28.6359 31.0366C28.4398 30.7007 28.6151 30.5188 28.7835 30.3515C28.9342 30.201 29.1192 29.9594 29.2874 29.7634C29.4556 29.5675 29.5109 29.4274 29.6227 29.2037C29.7345 28.98 29.6788 28.7834 29.5948 28.6156C29.5108 28.4478 28.8584 26.7871 28.56 26.123Z" fill="white"/>
</g>
</g>
<defs>
<filter id="filter0_f_3712_72027" x="11.4439" y="11.3833" width="41.1123" height="41.2334" filterUnits="userSpaceOnUse" color-interpolation-filters="sRGB">
<feFlood flood-opacity="0" result="BackgroundImageFix"/>
<feBlend mode="normal" in="SourceGraphic" in2="BackgroundImageFix" result="shape"/>
<feGaussianBlur stdDeviation="3.531" result="effect1_foregroundBlur_3712_72027"/>
</filter>
<linearGradient id="paint0_linear_3712_72027" x1="31.6908" y1="21.9167" x2="31.804" y2="41.0063" gradientUnits="userSpaceOnUse">
<stop stop-color="#57D163"/>
<stop offset="1" stop-color="#23B33A"/>
</linearGradient>
<clipPath id="clip0_3712_72027">
<rect width="64" height="64" fill="white"/>
</clipPath>
<clipPath id="clip1_3712_72027">
<rect width="32" height="32.0614" fill="white" transform="translate(16 15.9688)"/>
</clipPath>
</defs>
</svg>
