<svg width="153" height="34" viewBox="0 0 153 34" fill="none" xmlns="http://www.w3.org/2000/svg">
<g clip-path="url(#clip0_523_31050)">
<path d="M41.4643 8.19179C43.1442 8.19179 44.6303 8.57968 45.9225 9.35546C47.2363 10.1312 48.2378 11.241 48.927 12.6848C49.6378 14.1287 49.9824 15.8095 49.9608 17.7274H35.8106C35.8968 19.3436 36.4999 20.6581 37.6198 21.671C38.7398 22.6622 40.1182 23.1579 41.755 23.1579C43.0473 23.1579 44.1349 22.867 45.018 22.2851C45.9225 21.6817 46.5794 20.9383 46.9886 20.0548L49.4762 20.3457C49.0239 21.811 48.0871 23.0394 46.6656 24.0306C45.2656 25.0219 43.618 25.5175 41.7227 25.5175C40.0643 25.5175 38.5675 25.162 37.2321 24.4508C35.9183 23.7182 34.8845 22.7053 34.1307 21.4124C33.3769 20.0979 33 18.5786 33 16.8547C33 15.2385 33.3661 13.7731 34.0984 12.4586C34.8307 11.1441 35.8322 10.1097 37.1029 9.35546C38.3952 8.57968 39.8489 8.19179 41.4643 8.19179ZM41.4643 10.5191C39.9351 10.5191 38.6321 10.9932 37.5552 11.9414C36.4999 12.8896 35.9183 14.0963 35.8106 15.5617H47.0209C46.9994 14.6135 46.741 13.7623 46.2456 13.0081C45.7718 12.2323 45.1149 11.6289 44.2749 11.1979C43.4565 10.7454 42.5196 10.5191 41.4643 10.5191Z" fill="#FAFAFC"/>
<path d="M51.8888 0.951172H54.6995V25.1943H51.8888V0.951172Z" fill="#FAFAFC"/>
<path d="M65.6786 25.5175C64.0202 25.5175 62.5126 25.1404 61.1557 24.3862C59.7989 23.632 58.7327 22.5976 57.9574 21.2831C57.182 19.947 56.7944 18.4709 56.7944 16.8547C56.7944 15.2385 57.182 13.7731 57.9574 12.4586C58.7327 11.1225 59.7989 10.0774 61.1557 9.32313C62.5126 8.5689 64.0202 8.19179 65.6786 8.19179C67.337 8.19179 68.8339 8.5689 70.1692 9.32313C71.526 10.0774 72.5922 11.1225 73.3675 12.4586C74.1429 13.7731 74.5305 15.2385 74.5305 16.8547C74.5305 18.4709 74.1429 19.947 73.3675 21.2831C72.5922 22.5976 71.526 23.632 70.1692 24.3862C68.8339 25.1404 67.337 25.5175 65.6786 25.5175ZM65.6786 22.9639C66.8201 22.9639 67.8539 22.6946 68.78 22.1558C69.7061 21.6171 70.4384 20.8844 70.9768 19.9578C71.5153 19.0096 71.7845 17.9645 71.7845 16.8223C71.7845 15.6802 71.5153 14.6458 70.9768 13.7192C70.4384 12.7926 69.7061 12.0707 68.78 11.5535C67.8539 11.0148 66.8201 10.7454 65.6786 10.7454C64.5371 10.7454 63.4925 11.0148 62.5449 11.5535C61.6188 12.0707 60.8865 12.7926 60.3481 13.7192C59.8096 14.6458 59.5404 15.6802 59.5404 16.8223C59.5404 17.9645 59.8096 19.0096 60.3481 19.9578C60.8865 20.8844 61.6188 21.6171 62.5449 22.1558C63.4925 22.6946 64.5371 22.9639 65.6786 22.9639Z" fill="#FAFAFC"/>
<path d="M86.0669 8.22411C87.7253 8.22411 89.1791 8.612 90.4283 9.38778C91.699 10.142 92.6789 11.1872 93.3681 12.5232C94.0573 13.8377 94.402 15.3031 94.402 16.9193C94.402 18.5571 94.0466 20.0332 93.3358 21.3477C92.6466 22.6407 91.6559 23.6643 90.3637 24.4185C89.0929 25.1512 87.6176 25.5175 85.9377 25.5175C84.4947 25.5175 83.1809 25.1728 81.9963 24.4832C80.8333 23.772 79.9287 22.7915 79.2826 21.5417V32.6289H76.4719V8.54735H78.8626L79.2826 12.3616V12.4263C79.821 11.1333 80.6825 10.1097 81.8671 9.35546C83.0517 8.60123 84.4516 8.22411 86.0669 8.22411ZM85.3885 22.9963C86.5731 22.9963 87.6284 22.7377 88.5545 22.2205C89.5022 21.6817 90.2344 20.9491 90.7513 20.0224C91.2898 19.0958 91.559 18.0507 91.559 16.887C91.559 15.7018 91.2898 14.6458 90.7513 13.7192C90.2344 12.7926 89.5022 12.0707 88.5545 11.5535C87.6284 11.0148 86.5731 10.7454 85.3885 10.7454C84.2255 10.7454 83.1809 11.0148 82.2548 11.5535C81.3287 12.0922 80.6072 12.8357 80.0902 13.7839C79.5733 14.7105 79.3149 15.7449 79.3149 16.887C79.3149 18.0291 79.5733 19.0635 80.0902 19.9901C80.6072 20.9167 81.3287 21.6494 82.2548 22.1882C83.1809 22.7269 84.2255 22.9963 85.3885 22.9963Z" fill="#FAFAFC"/>
<path d="M111.792 8.54735H114.215V25.1943H111.372V21.2831C110.855 22.576 109.993 23.6104 108.787 24.3862C107.603 25.1404 106.203 25.5175 104.587 25.5175C102.95 25.5175 101.497 25.1404 100.226 24.3862C98.9552 23.6104 97.9753 22.5653 97.286 21.2507C96.5968 19.9147 96.2522 18.4385 96.2522 16.8223C96.2522 15.1846 96.5968 13.7084 97.286 12.3939C97.9968 11.0794 98.9983 10.0558 100.291 9.32313C101.583 8.5689 103.069 8.19179 104.749 8.19179C106.17 8.19179 107.463 8.54735 108.626 9.25848C109.81 9.96962 110.725 10.9393 111.372 12.1677V12.3293L111.792 8.54735ZM105.266 22.9963C106.429 22.9963 107.473 22.7269 108.399 22.1882C109.326 21.6494 110.047 20.9167 110.564 19.9901C111.081 19.0419 111.339 17.9968 111.339 16.8547C111.339 15.7125 111.081 14.6782 110.564 13.7515C110.047 12.8249 109.326 12.0922 108.399 11.5535C107.473 11.0148 106.429 10.7454 105.266 10.7454C104.081 10.7454 103.026 11.0148 102.1 11.5535C101.174 12.0707 100.441 12.7926 99.9029 13.7192C99.386 14.6458 99.1275 15.691 99.1275 16.8547C99.1275 18.0399 99.386 19.0958 99.9029 20.0224C100.441 20.9491 101.174 21.6817 102.1 22.2205C103.026 22.7377 104.081 22.9963 105.266 22.9963Z" fill="#FAFAFC"/>
<path d="M131.733 8.54735H134.091V23.7074C134.091 26.7028 133.326 29.0086 131.797 30.6248C130.29 32.241 128.168 33.0491 125.433 33.0491C124.098 33.0491 122.773 32.8659 121.459 32.4996C120.167 32.1332 119.058 31.616 118.132 30.948V28.3944C118.95 28.9547 119.941 29.4611 121.104 29.9136C122.267 30.3662 123.538 30.5924 124.916 30.5924C126.941 30.5924 128.502 30.0322 129.6 28.9116C130.72 27.791 131.28 26.0563 131.28 23.7074V21.2831C130.763 22.576 129.902 23.6104 128.696 24.3862C127.511 25.1404 126.111 25.5175 124.496 25.5175C122.859 25.5175 121.405 25.1404 120.135 24.3862C118.864 23.6104 117.884 22.5653 117.195 21.2507C116.506 19.9147 116.161 18.4385 116.161 16.8223C116.161 15.1846 116.506 13.7084 117.195 12.3939C117.906 11.0794 118.907 10.0558 120.199 9.32313C121.492 8.5689 122.978 8.19179 124.658 8.19179C126.079 8.19179 127.371 8.54735 128.534 9.25848C129.719 9.96962 130.634 10.9393 131.28 12.1677V12.3616L131.733 8.54735ZM125.174 22.9963C126.338 22.9963 127.382 22.7269 128.308 22.1882C129.234 21.6494 129.956 20.9167 130.473 19.9901C130.99 19.0419 131.248 17.9968 131.248 16.8547C131.248 15.7125 130.99 14.6782 130.473 13.7515C129.956 12.8249 129.234 12.0922 128.308 11.5535C127.382 11.0148 126.338 10.7454 125.174 10.7454C123.99 10.7454 122.935 11.0148 122.008 11.5535C121.082 12.0707 120.35 12.7926 119.812 13.7192C119.295 14.6458 119.036 15.691 119.036 16.8547C119.036 18.0399 119.295 19.0958 119.812 20.0224C120.35 20.9491 121.082 21.6817 122.008 22.2205C122.935 22.7377 123.99 22.9963 125.174 22.9963Z" fill="#FAFAFC"/>
<path d="M144.503 8.19179C146.182 8.19179 147.669 8.57968 148.961 9.35546C150.275 10.1312 151.276 11.241 151.965 12.6848C152.676 14.1287 153.021 15.8095 152.999 17.7274H138.849C138.935 19.3436 139.538 20.6581 140.658 21.671C141.778 22.6622 143.156 23.1579 144.793 23.1579C146.086 23.1579 147.173 22.867 148.056 22.2851C148.961 21.6817 149.618 20.9383 150.027 20.0548L152.514 20.3457C152.062 21.811 151.125 23.0394 149.704 24.0306C148.304 25.0219 146.656 25.5175 144.761 25.5175C143.103 25.5175 141.606 25.162 140.27 24.4508C138.957 23.7182 137.923 22.7053 137.169 21.4124C136.415 20.0979 136.038 18.5786 136.038 16.8547C136.038 15.2385 136.404 13.7731 137.137 12.4586C137.869 11.1441 138.87 10.1097 140.141 9.35546C141.433 8.57968 142.887 8.19179 144.503 8.19179ZM144.503 10.5191C142.973 10.5191 141.67 10.9932 140.593 11.9414C139.538 12.8896 138.957 14.0963 138.849 15.5617H150.059C150.038 14.6135 149.779 13.7623 149.284 13.0081C148.81 12.2323 148.153 11.6289 147.313 11.1979C146.495 10.7454 145.558 10.5191 144.503 10.5191Z" fill="#FAFAFC"/>
<path d="M19.8497 26.8802C19.1387 27.5933 18.156 28.0347 17.0707 28.034C16.4261 28.034 15.8184 27.8785 15.2814 27.6024C14.5466 27.2248 13.946 26.6224 13.5695 25.8854C13.2958 25.3467 13.1407 24.7379 13.1407 24.092V23.989C13.1498 23.6177 13.2106 23.259 13.3153 22.9213C13.3153 22.9199 13.316 22.9185 13.3153 22.9178C13.5039 22.3048 13.6052 21.6533 13.6059 20.978C13.6059 20.1163 13.4403 19.2932 13.14 18.538C12.8069 17.6987 12.3061 16.9449 11.6803 16.3165C11.0545 15.6881 10.3023 15.1858 9.46564 14.8524C8.71275 14.5511 7.89211 14.3858 7.03306 14.3851C6.35978 14.3851 5.71026 14.4874 5.09914 14.6765C5.09914 14.6765 5.09705 14.6765 5.09565 14.6765C4.75901 14.7816 4.40212 14.8425 4.03126 14.8517H3.9286C3.28535 14.8517 2.67773 14.6968 2.14065 14.4215C1.40591 14.0439 0.805275 13.4414 0.428828 12.7045C0.155049 12.1678 0 11.5584 0 10.911C0 9.82238 0.439304 8.8367 1.15029 8.12354C1.86128 7.41037 2.84465 6.96973 3.92929 6.96973H20.8603C20.9371 6.96973 21 7.03278 21 7.10984V24.0927C21 25.1813 20.5607 26.167 19.849 26.8809L19.8497 26.8802Z" fill="#2BFF99"/>
<path d="M7.19562 24.7571C9.36609 24.7571 11.1256 22.9922 11.1256 20.8151C11.1256 18.6379 9.36609 16.873 7.19562 16.873C5.02514 16.873 3.26562 18.6379 3.26562 20.8151C3.26562 22.9922 5.02514 24.7571 7.19562 24.7571Z" fill="#2BFF99"/>
</g>
<defs>
<clipPath id="clip0_523_31050">
<rect width="153" height="32.0979" fill="white" transform="translate(0 0.951172)"/>
</clipPath>
</defs>
</svg>
