<svg width="32" height="32" viewBox="0 0 32 32" fill="none" xmlns="http://www.w3.org/2000/svg">
<g clip-path="url(#clip0_1150_25822)">
<path d="M16 32C24.8366 32 32 24.8366 32 16C32 7.16344 24.8366 0 16 0C7.16344 0 0 7.16344 0 16C0 24.8366 7.16344 32 16 32Z" fill="#2BFF99"/>
<path d="M21.3537 22.9134C20.8798 23.3873 20.2247 23.6806 19.5011 23.6802C19.0714 23.6802 18.6663 23.5768 18.3083 23.3934C17.8185 23.1424 17.4181 22.7421 17.1671 22.2523C16.9846 21.8943 16.8812 21.4897 16.8812 21.0604V20.992C16.8873 20.7453 16.9278 20.5069 16.9976 20.2825C16.9976 20.2816 16.9981 20.2806 16.9976 20.2802C17.1233 19.8728 17.1909 19.4398 17.1913 18.991C17.1913 18.4184 17.081 17.8713 16.8808 17.3694C16.6587 16.8117 16.3248 16.3108 15.9077 15.8931C15.4905 15.4755 14.9891 15.1417 14.4313 14.9201C13.9294 14.7199 13.3823 14.61 12.8096 14.6096C12.3608 14.6096 11.9278 14.6775 11.5204 14.8033C11.5204 14.8033 11.519 14.8033 11.518 14.8033C11.2936 14.8731 11.0557 14.9136 10.8085 14.9196H10.74C10.3112 14.9196 9.90614 14.8168 9.5481 14.6338C9.05829 14.3828 8.65788 13.9825 8.40692 13.4927C8.22348 13.1347 8.12012 12.7301 8.12012 12.2999C8.12012 11.5764 8.41298 10.9214 8.88695 10.4474C9.36093 9.97348 10.0165 9.68018 10.74 9.68018H22.027C22.0782 9.68018 22.1201 9.72208 22.1201 9.77329V21.0595C22.1201 21.783 21.8273 22.438 21.3528 22.9125L21.3537 22.9134Z" fill="#000004"/>
<path d="M12.9229 21.5127C14.3726 21.5127 15.5479 20.3374 15.5479 18.8877C15.5479 17.4379 14.3726 16.2627 12.9229 16.2627C11.4731 16.2627 10.2979 17.4379 10.2979 18.8877C10.2979 20.3374 11.4731 21.5127 12.9229 21.5127Z" fill="#000004"/>
</g>
<defs>
<clipPath id="clip0_1150_25822">
<rect width="32" height="32" fill="white"/>
</clipPath>
</defs>
</svg>
