<svg width="1600" height="1600" viewBox="0 0 1600 1600" fill="none" xmlns="http://www.w3.org/2000/svg">
<rect x="88" y="88" width="1424" height="1424" rx="122" fill="#000004"/>
<g clip-path="url(#clip0_1095_25640)">
<path d="M611.769 654.8C620.794 654.8 628.778 656.878 635.721 661.035C642.779 665.192 648.16 671.139 651.863 678.876C655.681 686.613 657.532 695.62 657.417 705.897H581.394C581.857 714.558 585.097 721.602 591.114 727.029C597.131 732.341 604.537 734.997 613.331 734.997C620.273 734.997 626.117 733.438 630.861 730.32C635.721 727.087 639.25 723.103 641.449 718.369L654.813 719.927C652.383 727.78 647.35 734.362 639.713 739.674C632.192 744.986 623.34 747.641 613.157 747.641C604.247 747.641 596.205 745.736 589.031 741.925C581.973 737.999 576.419 732.572 572.369 725.643C568.319 718.6 566.294 710.459 566.294 701.221C566.294 692.56 568.261 684.708 572.195 677.664C576.129 670.62 581.51 665.077 588.337 661.035C595.28 656.878 603.09 654.8 611.769 654.8ZM611.769 667.271C603.553 667.271 596.553 669.811 590.767 674.892C585.097 679.973 581.973 686.44 581.394 694.292H641.622C641.506 689.211 640.118 684.65 637.457 680.608C634.911 676.451 631.382 673.218 626.869 670.908C622.472 668.483 617.438 667.271 611.769 667.271Z" fill="#FAFAFC"/>
<path d="M667.775 616H682.876V745.909H667.775V616Z" fill="#FAFAFC"/>
<path d="M741.861 747.641C732.952 747.641 724.852 745.621 717.562 741.579C710.272 737.537 704.544 731.995 700.379 724.951C696.213 717.791 694.13 709.881 694.13 701.221C694.13 692.56 696.213 684.708 700.379 677.664C704.544 670.504 710.272 664.904 717.562 660.862C724.852 656.82 732.952 654.8 741.861 654.8C750.771 654.8 758.813 656.82 765.987 660.862C773.277 664.904 779.005 670.504 783.17 677.664C787.336 684.708 789.419 692.56 789.419 701.221C789.419 709.881 787.336 717.791 783.17 724.951C779.005 731.995 773.277 737.537 765.987 741.579C758.813 745.621 750.771 747.641 741.861 747.641ZM741.861 733.958C747.994 733.958 753.548 732.514 758.524 729.627C763.499 726.741 767.434 722.814 770.326 717.849C773.219 712.768 774.666 707.168 774.666 701.047C774.666 694.927 773.219 689.384 770.326 684.419C767.434 679.454 763.499 675.585 758.524 672.814C753.548 669.927 747.994 668.483 741.861 668.483C735.729 668.483 730.117 669.927 725.025 672.814C720.05 675.585 716.115 679.454 713.223 684.419C710.33 689.384 708.884 694.927 708.884 701.047C708.884 707.168 710.33 712.768 713.223 717.849C716.115 722.814 720.05 726.741 725.025 729.627C730.117 732.514 735.729 733.958 741.861 733.958Z" fill="#FAFAFC"/>
<path d="M851.399 654.973C860.308 654.973 868.119 657.051 874.83 661.208C881.657 665.25 886.922 670.851 890.625 678.01C894.327 685.054 896.179 692.906 896.179 701.567C896.179 710.343 894.27 718.253 890.451 725.297C886.748 732.226 881.426 737.711 874.483 741.752C867.656 745.678 859.73 747.641 850.704 747.641C842.952 747.641 835.893 745.794 829.529 742.099C823.281 738.288 818.421 733.034 814.949 726.336V785.748H799.849V656.705H812.693L814.949 677.144V677.49C817.842 670.562 822.471 665.077 828.835 661.035C835.199 656.994 842.72 654.973 851.399 654.973ZM847.754 734.131C854.118 734.131 859.788 732.745 864.763 729.974C869.855 727.087 873.789 723.161 876.566 718.195C879.459 713.23 880.905 707.629 880.905 701.394C880.905 695.043 879.459 689.384 876.566 684.419C873.789 679.454 869.855 675.585 864.763 672.814C859.788 669.927 854.118 668.483 847.754 668.483C841.505 668.483 835.893 669.927 830.918 672.814C825.942 675.701 822.066 679.684 819.289 684.765C816.512 689.731 815.123 695.274 815.123 701.394C815.123 707.514 816.512 713.057 819.289 718.022C822.066 722.988 825.942 726.914 830.918 729.801C835.893 732.687 841.505 734.131 847.754 734.131Z" fill="#FAFAFC"/>
<path d="M989.606 656.705H1002.62V745.909H987.349V724.951C984.572 731.879 979.944 737.422 973.464 741.579C967.1 745.621 959.578 747.641 950.9 747.641C942.106 747.641 934.295 745.621 927.469 741.579C920.642 737.422 915.377 731.821 911.674 724.777C907.971 717.618 906.12 709.708 906.12 701.047C906.12 692.271 907.971 684.361 911.674 677.317C915.492 670.273 920.873 664.788 927.816 660.862C934.758 656.82 942.742 654.8 951.768 654.8C959.405 654.8 966.348 656.705 972.596 660.516C978.96 664.326 983.878 669.523 987.349 676.105V676.971L989.606 656.705ZM954.545 734.131C960.793 734.131 966.405 732.687 971.381 729.801C976.357 726.914 980.233 722.988 983.01 718.022C985.787 712.941 987.176 707.341 987.176 701.221C987.176 695.1 985.787 689.558 983.01 684.592C980.233 679.627 976.357 675.701 971.381 672.814C966.405 669.927 960.793 668.483 954.545 668.483C948.181 668.483 942.511 669.927 937.535 672.814C932.56 675.585 928.626 679.454 925.733 684.419C922.956 689.384 921.567 694.985 921.567 701.221C921.567 707.572 922.956 713.23 925.733 718.195C928.626 723.161 932.56 727.087 937.535 729.974C942.511 732.745 948.181 734.131 954.545 734.131Z" fill="#FAFAFC"/>
<path d="M1096.74 656.705H1109.41V737.942C1109.41 753.993 1105.3 766.348 1097.09 775.009C1088.99 783.67 1077.59 788 1062.89 788C1055.72 788 1048.6 787.018 1041.55 785.055C1034.6 783.092 1028.64 780.321 1023.67 776.741V763.057C1028.07 766.06 1033.39 768.773 1039.64 771.198C1045.88 773.623 1052.71 774.836 1060.12 774.836C1070.99 774.836 1079.38 771.834 1085.28 765.829C1091.3 759.824 1094.31 750.528 1094.31 737.942V724.951C1091.53 731.879 1086.9 737.422 1080.42 741.579C1074.06 745.621 1066.54 747.641 1057.86 747.641C1049.07 747.641 1041.26 745.621 1034.43 741.579C1027.6 737.422 1022.34 731.821 1018.63 724.777C1014.93 717.618 1013.08 709.708 1013.08 701.047C1013.08 692.271 1014.93 684.361 1018.63 677.317C1022.45 670.273 1027.83 664.788 1034.78 660.862C1041.72 656.82 1049.7 654.8 1058.73 654.8C1066.37 654.8 1073.31 656.705 1079.56 660.516C1085.92 664.326 1090.84 669.523 1094.31 676.105V677.144L1096.74 656.705ZM1061.51 734.131C1067.75 734.131 1073.37 732.687 1078.34 729.801C1083.32 726.914 1087.19 722.988 1089.97 718.022C1092.75 712.941 1094.14 707.341 1094.14 701.221C1094.14 695.1 1092.75 689.558 1089.97 684.592C1087.19 679.627 1083.32 675.701 1078.34 672.814C1073.37 669.927 1067.75 668.483 1061.51 668.483C1055.14 668.483 1049.47 669.927 1044.5 672.814C1039.52 675.585 1035.59 679.454 1032.69 684.419C1029.92 689.384 1028.53 694.985 1028.53 701.221C1028.53 707.572 1029.92 713.23 1032.69 718.195C1035.59 723.161 1039.52 727.087 1044.5 729.974C1049.47 732.745 1055.14 734.131 1061.51 734.131Z" fill="#FAFAFC"/>
<path d="M1165.35 654.8C1174.37 654.8 1182.36 656.878 1189.3 661.035C1196.36 665.192 1201.74 671.139 1205.44 678.876C1209.26 686.613 1211.11 695.62 1210.99 705.897H1134.97C1135.44 714.558 1138.67 721.602 1144.69 727.029C1150.71 732.341 1158.11 734.997 1166.91 734.997C1173.85 734.997 1179.69 733.438 1184.44 730.32C1189.3 727.087 1192.83 723.103 1195.03 718.369L1208.39 719.927C1205.96 727.78 1200.93 734.362 1193.29 739.674C1185.77 744.986 1176.92 747.641 1166.73 747.641C1157.83 747.641 1149.78 745.736 1142.61 741.925C1135.55 737.999 1130 732.572 1125.95 725.643C1121.9 718.6 1119.87 710.459 1119.87 701.221C1119.87 692.56 1121.84 684.708 1125.77 677.664C1129.71 670.62 1135.09 665.077 1141.91 661.035C1148.86 656.878 1156.67 654.8 1165.35 654.8ZM1165.35 667.271C1157.13 667.271 1150.13 669.811 1144.34 674.892C1138.67 679.973 1135.55 686.44 1134.97 694.292H1195.2C1195.08 689.211 1193.7 684.65 1191.03 680.608C1188.49 676.451 1184.96 673.218 1180.45 670.908C1176.05 668.483 1171.02 667.271 1165.35 667.271Z" fill="#FAFAFC"/>
<path d="M495.644 754.942C491.824 758.764 486.544 761.129 480.713 761.125C477.25 761.125 473.985 760.292 471.1 758.813C467.152 756.789 463.926 753.561 461.903 749.612C460.432 746.725 459.599 743.462 459.599 740.001V739.449C459.648 737.46 459.974 735.538 460.537 733.728C460.537 733.721 460.541 733.713 460.537 733.71C461.55 730.425 462.094 726.934 462.098 723.315C462.098 718.697 461.209 714.286 459.595 710.24C457.806 705.742 455.115 701.703 451.753 698.336C448.391 694.968 444.35 692.277 439.855 690.49C435.81 688.876 431.401 687.99 426.785 687.986C423.168 687.986 419.679 688.534 416.395 689.548C416.395 689.548 416.384 689.548 416.377 689.548C414.568 690.111 412.651 690.437 410.658 690.486H410.107C406.651 690.486 403.386 689.657 400.501 688.181C396.553 686.158 393.326 682.929 391.304 678.98C389.833 676.105 389 672.839 389 669.37C389 663.536 391.36 658.254 395.18 654.433C399 650.611 404.283 648.25 410.11 648.25H501.073C501.486 648.25 501.824 648.588 501.824 649.001V740.005C501.824 745.839 499.463 751.121 495.64 754.946L495.644 754.942Z" fill="#2BFF99"/>
<path d="M427.659 743.568C439.32 743.568 448.773 734.11 448.773 722.444C448.773 710.778 439.32 701.32 427.659 701.32C415.998 701.32 406.545 710.778 406.545 722.444C406.545 734.11 415.998 743.568 427.659 743.568Z" fill="#2BFF99"/>
</g>
<path d="M317.471 958H333.298V917.435H351.386L379.316 958H398.069L371.868 921.026L355.509 917.435H361.494C382.242 917.435 393.547 906.13 393.547 888.973C393.547 871.816 381.444 860.245 361.494 860.245H317.471V958ZM333.298 903.337V874.609H360.962C371.735 874.609 377.587 880.461 377.587 888.973C377.587 897.485 371.602 903.337 360.962 903.337H333.298ZM438.536 886.446C418.453 886.446 403.823 902.14 403.823 923.553C403.823 944.966 417.655 959.995 439.467 959.995C452.235 959.995 464.072 955.074 470.589 944.567L459.55 934.725C455.826 943.237 449.575 947.094 439.866 947.094C429.359 947.094 421.512 941.375 419.916 928.208H471.254C471.52 925.814 471.653 924.085 471.653 922.09C471.653 900.943 458.885 886.446 438.536 886.446ZM420.049 917.036C421.911 905.066 429.226 899.347 438.27 899.347C448.91 899.347 455.161 906.396 455.161 917.036H420.049ZM483.596 939.912C483.596 952.281 493.305 959.862 507.137 959.862C516.713 959.862 525.358 956.404 530.412 949.488L533.338 958H546.904L544.51 944.301V910.386C544.51 894.958 533.205 886.579 515.25 886.579C499.157 886.579 486.921 895.623 484.926 908.657L498.492 913.977C498.492 904.135 505.408 898.549 515.25 898.549C523.363 898.549 529.614 901.608 529.614 908.391C529.614 914.775 526.555 915.307 506.605 918.765C492.64 921.292 483.596 928.075 483.596 939.912ZM499.689 939.114C499.689 932.996 504.344 930.336 510.861 929.006C523.496 926.612 527.486 926.08 529.614 924.218V930.203C529.614 940.444 523.097 948.291 510.595 948.291C503.679 948.291 499.689 944.301 499.689 939.114ZM632.991 860.245H617.696V897.219C612.243 890.702 604.263 886.446 593.623 886.446C572.742 886.446 558.644 902.539 558.644 923.42C558.644 944.168 572.875 959.995 593.623 959.995C604.396 959.995 612.376 955.739 617.829 949.222V958H632.991V860.245ZM574.471 923.42C574.471 909.987 583.382 900.278 596.416 900.278C608.918 900.278 618.228 909.854 618.228 923.42C618.228 936.853 608.918 946.03 596.416 946.03C583.382 946.03 574.471 936.587 574.471 923.42ZM644.554 888.84L673.415 956.936L661.445 986.595H677.937L717.837 888.84H700.946L681.794 938.449L661.844 888.84H644.554ZM753.038 860.245V875.008H784.16V958H800.12V875.008H831.109V860.245H753.038ZM864.877 886.446C843.464 886.446 827.371 901.608 827.371 923.287C827.371 944.833 843.464 959.995 864.877 959.995C886.157 959.995 902.383 944.833 902.383 923.287C902.383 901.608 886.157 886.446 864.877 886.446ZM843.198 923.287C843.198 909.322 852.375 900.544 864.877 900.544C877.379 900.544 886.423 909.322 886.423 923.287C886.423 937.119 877.379 945.897 864.877 945.897C852.508 945.897 843.198 937.119 843.198 923.287ZM990.46 959.995C1007.09 959.995 1016.66 952.148 1022.25 944.301V958H1037.94V905.731H992.854V919.829H1022.11C1020.25 935.124 1009.08 945.631 992.721 945.631C973.037 945.631 959.205 932.065 959.205 908.79C959.205 886.047 974.234 872.215 993.519 872.215C1008.02 872.215 1019.72 879.53 1024.51 891.367L1037.54 882.589C1029.3 866.496 1011.87 857.851 993.785 857.851C965.988 857.851 943.245 877.535 943.245 908.923C943.245 939.779 963.727 959.995 990.46 959.995ZM1056.32 888.84V958H1071.62V924.617C1071.62 909.322 1078.93 902.14 1089.57 902.14C1092.5 902.14 1094.76 902.539 1097.42 903.337V888.175C1095.29 887.377 1093.69 887.244 1091.3 887.244C1084.92 887.244 1076.67 889.771 1071.62 899.746V888.84H1056.32ZM1140.62 886.446C1119.21 886.446 1103.11 901.608 1103.11 923.287C1103.11 944.833 1119.21 959.995 1140.62 959.995C1161.9 959.995 1178.12 944.833 1178.12 923.287C1178.12 901.608 1161.9 886.446 1140.62 886.446ZM1118.94 923.287C1118.94 909.322 1128.12 900.544 1140.62 900.544C1153.12 900.544 1162.16 909.322 1162.16 923.287C1162.16 937.119 1153.12 945.897 1140.62 945.897C1128.25 945.897 1118.94 937.119 1118.94 923.287ZM1184.35 888.84L1206.56 958H1223.98L1238.48 911.051L1253.37 958H1270.66L1293.01 888.84H1277.05L1261.49 939.912L1245.66 889.372H1231.43L1215.6 939.912L1200.57 888.84H1184.35Z" fill="white"/>
<defs>
<clipPath id="clip0_1095_25640">
<rect width="822" height="172" fill="white" transform="translate(389 616)"/>
</clipPath>
</defs>
</svg>
