<svg width="32" height="32" viewBox="0 0 32 32" fill="none" xmlns="http://www.w3.org/2000/svg">
<path d="M4.29333 5H27.7129C27.9245 5.00007 28.1314 5.06132 28.3086 5.1763C28.4857 5.29127 28.6254 5.45501 28.7107 5.64756C28.7959 5.84011 28.823 6.05316 28.7887 6.26075C28.7543 6.46835 28.66 6.66153 28.5172 6.81675L19.561 16.6191C19.3747 16.8175 19.2721 17.0797 19.2748 17.3512V25.025C19.2764 25.2052 19.2323 25.383 19.1466 25.5418C19.0608 25.7006 18.9361 25.8352 18.784 25.9333L14.4218 28.8212C14.2582 28.9284 14.0685 28.9897 13.8728 28.9988C13.6771 29.0079 13.4825 28.9644 13.3096 28.8728C13.1366 28.7813 12.9916 28.645 12.8899 28.4785C12.7882 28.312 12.7335 28.1212 12.7315 27.9264V17.3512C12.7341 17.0797 12.6316 16.8175 12.4452 16.6191L3.48905 6.81675C3.34626 6.66153 3.25195 6.46835 3.2176 6.26075C3.18325 6.05316 3.21035 5.84011 3.29559 5.64756C3.38083 5.45501 3.52054 5.29127 3.69769 5.1763C3.87484 5.06132 4.08179 5.00007 4.29333 5V5Z" stroke="#000004" stroke-width="2.4" stroke-linecap="round" stroke-linejoin="round"/>
</svg>
