<svg width="25" height="24" viewBox="0 0 25 24" fill="none" xmlns="http://www.w3.org/2000/svg">
<g clip-path="url(#clip0_8838_4516)">
<path d="M18.816 5.68429L13.1318 5.05273L6.18441 5.68429L5.55273 12.0001L6.18429 18.316L12.5001 19.1055L18.816 18.316L19.4475 11.8423L18.816 5.68429Z" fill="white"/>
<path d="M8.77623 15.4833C8.30415 15.1643 7.97727 14.6986 7.79883 14.0828L8.89467 13.6312C8.99415 14.0102 9.16779 14.3038 9.41571 14.5122C9.66207 14.7207 9.96207 14.8233 10.3126 14.8233C10.671 14.8233 10.9789 14.7143 11.2362 14.4964C11.4935 14.2785 11.6231 14.0006 11.6231 13.6643C11.6231 13.3202 11.4873 13.039 11.2157 12.8212C10.9441 12.6034 10.6031 12.4943 10.1957 12.4943H9.56259V11.4096H10.1309C10.4814 11.4096 10.7767 11.315 11.0167 11.1255C11.2567 10.936 11.3767 10.677 11.3767 10.347C11.3767 10.0534 11.2693 9.81965 11.0547 9.64445C10.84 9.46925 10.5683 9.38081 10.2383 9.38081C9.91623 9.38081 9.66039 9.46613 9.47091 9.63821C9.28143 9.81029 9.14403 10.0218 9.05727 10.2713L7.97259 9.81977C8.11623 9.41237 8.37999 9.05237 8.76675 8.74133C9.15363 8.43029 9.64779 8.27393 10.2478 8.27393C10.6914 8.27393 11.0909 8.35925 11.4447 8.53133C11.7983 8.70341 12.0762 8.94185 12.2767 9.24497C12.4773 9.54965 12.5767 9.89081 12.5767 10.2696C12.5767 10.6565 12.4836 10.9833 12.2973 11.2517C12.1109 11.5202 11.8819 11.7254 11.6104 11.8691V11.9338C11.9688 12.0838 12.2609 12.3128 12.4914 12.6207C12.7204 12.9286 12.8356 13.2965 12.8356 13.726C12.8356 14.1555 12.7266 14.5391 12.5087 14.8755C12.2908 15.2118 11.9892 15.477 11.6071 15.6696C11.2235 15.8622 10.7925 15.9602 10.314 15.9602C9.75987 15.9617 9.24831 15.8022 8.77623 15.4833Z" fill="#1A73E8"/>
<path d="M15.4996 10.0453L14.3027 10.9153L13.7012 10.0027L15.8596 8.4458H16.687V15.7894H15.4996V10.0453Z" fill="#1A73E8"/>
<path d="M18.8159 24L24.5 18.3159L21.6579 17.0527L18.8159 18.3159L17.5527 21.1579L18.8159 24Z" fill="#EA4335"/>
<path d="M4.92188 21.158L6.185 24.0001H18.8166V18.3159H6.185L4.92188 21.158Z" fill="#34A853"/>
<path d="M2.39468 0C1.34792 0 0.5 0.84792 0.5 1.89468V18.3157L3.34208 19.5788L6.18416 18.3157V5.68416H18.8157L20.0788 2.84208L18.8158 0H2.39468Z" fill="#4285F4"/>
<path d="M0.5 18.3159V22.1054C0.5 23.1523 1.34792 24.0001 2.39468 24.0001H6.18416V18.3159H0.5Z" fill="#188038"/>
<path d="M18.8164 5.68402V18.3156H24.5006V5.68402L21.6585 4.4209L18.8164 5.68402Z" fill="#FBBC04"/>
<path d="M24.5006 5.68416V1.89468C24.5006 0.8478 23.6526 0 22.6059 0H18.8164V5.68416H24.5006Z" fill="#1967D2"/>
</g>
<defs>
<clipPath id="clip0_8838_4516">
<rect width="24" height="24" fill="white" transform="translate(0.5)"/>
</clipPath>
</defs>
</svg>
