<svg width="1200" height="1200" viewBox="0 0 1200 1200" fill="none" xmlns="http://www.w3.org/2000/svg">
<rect x="49" y="49" width="1102" height="1102" rx="160" fill="url(#paint0_linear_356_17229)"/>
<path d="M213.638 490H270.758V476.68H227.918V401.8H213.638V490ZM279.033 473.68C279.033 484.84 287.793 491.68 300.273 491.68C308.913 491.68 316.713 488.56 321.273 482.32L323.913 490H336.153L333.993 477.64V447.04C333.993 433.12 323.793 425.56 307.593 425.56C293.073 425.56 282.033 433.72 280.233 445.48L292.473 450.28C292.473 441.4 298.713 436.36 307.593 436.36C314.913 436.36 320.553 439.12 320.553 445.24C320.553 451 317.793 451.48 299.793 454.6C287.193 456.88 279.033 463 279.033 473.68ZM293.553 472.96C293.553 467.44 297.753 465.04 303.633 463.84C315.033 461.68 318.633 461.2 320.553 459.52V464.92C320.553 474.16 314.673 481.24 303.393 481.24C297.153 481.24 293.553 477.64 293.553 472.96ZM405.545 427.6H391.745V461.56C391.745 472.84 386.345 479.92 376.265 479.92C367.865 479.92 363.665 475.12 363.665 465.52V427.6H349.865V467.32C349.865 482.56 358.625 491.8 373.025 491.8C380.945 491.8 387.545 489.04 391.745 482.44V490H405.545V427.6ZM421.832 427.6V490H435.632V456.76C435.632 445 441.392 438.16 451.592 438.16C460.712 438.16 464.912 443.32 464.912 454.6V490H478.712V452.68C478.712 435.16 470.552 425.44 455.432 425.44C446.312 425.44 439.832 428.92 435.632 435.88V427.6H421.832ZM524.248 425.44C504.808 425.44 490.768 439.12 490.768 458.68C490.768 478.36 504.328 491.8 524.248 491.8C537.688 491.8 548.608 484.36 552.808 474.52L540.928 467.44C539.008 474.04 532.168 479.08 524.248 479.08C512.608 479.08 505.048 471.4 505.048 458.68C505.048 445.84 512.848 438.04 524.248 438.04C532.048 438.04 539.128 442.48 540.808 450.04L553.048 442.84C548.968 432.88 537.688 425.44 524.248 425.44ZM599.349 425.44C589.869 425.44 583.509 429.28 579.669 435.76V401.8H565.869V490H579.669V456.76C579.669 444.88 585.669 438.16 595.509 438.16C604.749 438.16 608.949 443.32 608.949 454.6V490H622.749V452.68C622.749 435.16 614.589 425.44 599.349 425.44ZM667.856 490H727.976V477.04H682.136V451.84H724.376V439.12H682.136V414.76H727.736V401.8H667.856V490ZM736.446 427.6L762.366 490H777.006L802.566 427.6H787.686L769.686 474.16L751.686 427.6H736.446ZM838.26 425.44C820.14 425.44 806.94 439.6 806.94 458.92C806.94 478.24 819.42 491.8 839.1 491.8C850.62 491.8 861.3 487.36 867.18 477.88L857.22 469C853.86 476.68 848.22 480.16 839.46 480.16C829.98 480.16 822.9 475 821.46 463.12H867.78C868.02 460.96 868.14 459.4 868.14 457.6C868.14 438.52 856.62 425.44 838.26 425.44ZM821.58 453.04C823.26 442.24 829.86 437.08 838.02 437.08C847.62 437.08 853.26 443.44 853.26 453.04H821.58ZM881.676 427.6V490H895.476V456.76C895.476 445 901.236 438.16 911.436 438.16C920.556 438.16 924.756 443.32 924.756 454.6V490H938.556V452.68C938.556 435.16 930.396 425.44 915.276 425.44C906.156 425.44 899.676 428.92 895.476 435.88V427.6H881.676ZM960.212 408.88V427.6H949.052V439.48H960.212V471.64C960.212 485.92 967.652 491.56 981.212 491.56C983.252 491.56 988.772 491.08 990.812 490.24V478.12C988.772 478.6 985.172 479.08 983.252 479.08C977.012 479.08 974.012 477.52 974.012 469.84V439.48H991.772V427.6H974.012V408.88H960.212Z" fill="#FAFAFC"/>
<path d="M298.373 748.82C288.293 748.82 283.133 756.68 283.133 771.92C283.133 787.1 288.293 794.9 298.373 794.9C308.453 794.9 313.673 787.1 313.673 771.92C313.673 756.68 308.453 748.82 298.373 748.82ZM290.333 771.92C290.333 760.7 292.973 755.3 298.373 755.3C303.773 755.3 306.473 760.7 306.473 771.92C306.473 783.02 303.773 788.42 298.373 788.42C292.973 788.42 290.333 783.02 290.333 771.92ZM334.159 748.82C325.459 748.82 319.279 754.94 319.279 762.68C319.279 763.4 319.339 764.3 319.459 765.08L326.539 766.34C326.359 765.26 326.299 764.42 326.299 763.58C326.299 758.66 329.119 755.3 333.979 755.3C338.419 755.3 341.239 757.88 341.239 761.9C341.239 767.18 336.139 772.46 331.759 776.54L319.699 787.7V794H348.439V787.64H329.479L338.359 779.66C344.419 774.14 348.439 768.86 348.439 762.08C348.439 754.16 342.319 748.82 334.159 748.82ZM354.983 785.6V794H363.323V785.6H354.983ZM385.606 749.9V794H392.626V757.64L404.806 793.58H412.846L425.146 757.58V794H432.166V749.9H421.186L408.946 785.54L396.706 749.9H385.606ZM444.603 751.22V758.42H451.803V751.22H444.603ZM439.983 785.84C439.983 791.42 444.363 794.84 450.603 794.84C454.923 794.84 458.823 793.28 461.103 790.16L462.423 794H468.543L467.463 787.82V772.52C467.463 765.56 462.363 761.78 454.263 761.78C447.003 761.78 441.483 765.86 440.583 771.74L446.703 774.14C446.703 769.7 449.823 767.18 454.263 767.18C457.923 767.18 460.743 768.56 460.743 771.62C460.743 774.5 459.363 774.74 450.363 776.3C444.063 777.44 439.983 780.5 439.983 785.84ZM447.243 785.48C447.243 782.72 449.343 781.52 452.283 780.92C457.983 779.84 459.783 779.6 460.743 778.76V781.46C460.743 786.08 457.803 789.62 452.163 789.62C449.043 789.62 447.243 787.82 447.243 785.48ZM456.783 758.42H463.983V751.22H456.783V758.42ZM475.699 762.8V794H482.599V778.94C482.599 772.04 485.899 768.8 490.699 768.8C492.019 768.8 493.039 768.98 494.239 769.34V762.5C493.279 762.14 492.559 762.08 491.479 762.08C488.599 762.08 484.879 763.22 482.599 767.72V762.8H475.699ZM498.947 762.8V768.92H516.647L498.587 787.64V794H525.887V787.88H507.467L525.527 769.16V762.8H498.947ZM560.096 748.82C551.396 748.82 545.216 754.94 545.216 762.68C545.216 763.4 545.276 764.3 545.396 765.08L552.476 766.34C552.296 765.26 552.236 764.42 552.236 763.58C552.236 758.66 555.056 755.3 559.916 755.3C564.356 755.3 567.176 757.88 567.176 761.9C567.176 767.18 562.076 772.46 557.696 776.54L545.636 787.7V794H574.376V787.64H555.416L564.296 779.66C570.356 774.14 574.376 768.86 574.376 762.08C574.376 754.16 568.256 748.82 560.096 748.82ZM595.561 748.82C585.481 748.82 580.321 756.68 580.321 771.92C580.321 787.1 585.481 794.9 595.561 794.9C605.641 794.9 610.861 787.1 610.861 771.92C610.861 756.68 605.641 748.82 595.561 748.82ZM587.521 771.92C587.521 760.7 590.161 755.3 595.561 755.3C600.961 755.3 603.661 760.7 603.661 771.92C603.661 783.02 600.961 788.42 595.561 788.42C590.161 788.42 587.521 783.02 587.521 771.92ZM631.346 748.82C622.646 748.82 616.466 754.94 616.466 762.68C616.466 763.4 616.526 764.3 616.646 765.08L623.726 766.34C623.546 765.26 623.486 764.42 623.486 763.58C623.486 758.66 626.306 755.3 631.166 755.3C635.606 755.3 638.426 757.88 638.426 761.9C638.426 767.18 633.326 772.46 628.946 776.54L616.886 787.7V794H645.626V787.64H626.666L635.546 779.66C641.606 774.14 645.626 768.86 645.626 762.08C645.626 754.16 639.506 748.82 631.346 748.82ZM651.991 749.9V756.32H670.411L658.051 767.54L661.051 773.3C662.311 772.58 663.931 772.22 665.731 772.22C671.011 772.22 674.131 775.4 674.131 780.44C674.131 785.3 670.891 788.42 665.851 788.42C660.751 788.42 657.631 784.76 657.511 779.06L650.731 782.12C651.631 789.8 657.751 794.9 665.851 794.9C675.271 794.9 681.271 789.26 681.271 780.44C681.271 772.46 675.331 766.76 667.891 766.76H667.351L679.471 756.2V749.9H651.991ZM726.179 800.54C730.019 800.54 735.059 799.58 738.599 798.14V792.56C734.999 794.36 730.079 795.32 726.179 795.32C713.459 795.32 705.119 788.36 705.119 775.64C705.119 762.74 714.059 754.16 726.959 754.16C738.479 754.16 745.319 761.6 745.319 771.08C745.319 777.92 742.439 783.56 737.939 783.44V769.58C737.939 763.28 733.319 759.98 726.119 759.98C719.519 759.98 714.599 763.46 714.059 768.8L719.639 770.96C719.639 767.06 722.339 764.9 726.119 764.9C729.299 764.9 731.819 765.98 731.819 768.62C731.819 771.32 730.979 771.56 722.759 772.94C717.059 773.84 713.339 776.54 713.339 781.4C713.339 786.44 717.299 789.32 722.939 789.32C726.719 789.32 730.139 788.18 732.179 785.42C732.899 787.58 734.999 788.96 737.579 788.96C746.279 788.96 750.839 780.38 750.839 771.08C750.839 758.54 741.359 749 726.959 749C711.179 749 699.539 760.22 699.539 775.64C699.539 791 710.639 800.54 726.179 800.54ZM719.879 781.1C719.879 778.64 721.799 777.5 724.499 776.96C729.419 776.06 730.979 775.88 731.819 775.16V777.44C731.819 781.7 729.179 784.64 724.319 784.64C721.499 784.64 719.879 783.14 719.879 781.1ZM781.1 749.9C781.1 757.52 777.14 759.38 769.22 759.38V764.84H780.2V794H787.22V749.9H781.1ZM812.414 748.82C803.774 748.82 798.074 753.8 798.074 761.12C798.074 766.04 801.254 769.88 804.914 771.14C800.834 772.34 797.414 776.6 797.414 781.94C797.414 789.74 803.354 794.9 812.414 794.9C821.534 794.9 827.474 789.74 827.474 781.94C827.474 776.6 824.114 772.34 820.034 771.02C823.634 769.88 826.754 766.04 826.754 761.12C826.754 753.8 821.114 748.82 812.414 748.82ZM804.674 781.46C804.674 777.2 807.854 774.26 812.414 774.26C817.034 774.26 820.214 777.2 820.214 781.46C820.214 785.6 817.034 788.6 812.414 788.6C807.854 788.6 804.674 785.6 804.674 781.46ZM805.214 761.48C805.214 757.7 808.214 754.94 812.414 754.94C816.674 754.94 819.674 757.7 819.674 761.48C819.674 765.5 816.674 768.2 812.414 768.2C808.214 768.2 805.214 765.5 805.214 761.48ZM834.046 762.8V771.2H842.386V762.8H834.046ZM834.046 794H842.386V785.6H834.046V794ZM864.096 748.82C854.016 748.82 848.856 756.68 848.856 771.92C848.856 787.1 854.016 794.9 864.096 794.9C874.176 794.9 879.396 787.1 879.396 771.92C879.396 756.68 874.176 748.82 864.096 748.82ZM856.056 771.92C856.056 760.7 858.696 755.3 864.096 755.3C869.496 755.3 872.196 760.7 872.196 771.92C872.196 783.02 869.496 788.42 864.096 788.42C858.696 788.42 856.056 783.02 856.056 771.92ZM900.541 748.82C890.461 748.82 885.301 756.68 885.301 771.92C885.301 787.1 890.461 794.9 900.541 794.9C910.621 794.9 915.841 787.1 915.841 771.92C915.841 756.68 910.621 748.82 900.541 748.82ZM892.501 771.92C892.501 760.7 895.141 755.3 900.541 755.3C905.941 755.3 908.641 760.7 908.641 771.92C908.641 783.02 905.941 788.42 900.541 788.42C895.141 788.42 892.501 783.02 892.501 771.92Z" fill="#FAFAFC"/>
<path d="M195.961 569.92C171.801 569.92 154.201 588.8 154.201 614.56C154.201 640.32 170.841 658.4 197.081 658.4C212.441 658.4 226.681 652.48 234.521 639.84L221.241 628C216.761 638.24 209.241 642.88 197.561 642.88C184.921 642.88 175.481 636 173.561 620.16H235.321C235.641 617.28 235.801 615.2 235.801 612.8C235.801 587.36 220.441 569.92 195.961 569.92ZM173.721 606.72C175.961 592.32 184.761 585.44 195.641 585.44C208.441 585.44 215.961 593.92 215.961 606.72H173.721ZM254.649 538.4V656H273.049V538.4H254.649ZM335.728 569.92C309.968 569.92 290.608 588.16 290.608 614.24C290.608 640.16 309.968 658.4 335.728 658.4C361.328 658.4 380.848 640.16 380.848 614.24C380.848 588.16 361.328 569.92 335.728 569.92ZM309.648 614.24C309.648 597.44 320.688 586.88 335.728 586.88C350.768 586.88 361.648 597.44 361.648 614.24C361.648 630.88 350.768 641.44 335.728 641.44C320.848 641.44 309.648 630.88 309.648 614.24ZM444.959 658.4C469.919 658.4 487.039 639.36 487.039 614.4C487.039 589.28 470.079 569.92 444.959 569.92C432.319 569.92 422.559 574.88 415.999 582.56V572.8H397.599V690.4H415.999L415.839 645.6C422.399 653.28 431.679 658.4 444.959 658.4ZM415.359 614.4C415.359 598.08 426.559 586.56 441.599 586.56C457.279 586.56 467.999 598.24 467.999 614.4C467.999 630.24 457.279 641.6 441.599 641.6C426.559 641.6 415.359 630.56 415.359 614.4ZM500.169 634.24C500.169 649.12 511.849 658.24 528.489 658.24C540.009 658.24 550.409 654.08 556.489 645.76L560.009 656H576.329L573.449 639.52V598.72C573.449 580.16 559.849 570.08 538.249 570.08C518.889 570.08 504.169 580.96 501.769 596.64L518.089 603.04C518.089 591.2 526.409 584.48 538.249 584.48C548.009 584.48 555.529 588.16 555.529 596.32C555.529 604 551.849 604.64 527.849 608.8C511.049 611.84 500.169 620 500.169 634.24ZM519.529 633.28C519.529 625.92 525.129 622.72 532.969 621.12C548.169 618.24 552.969 617.6 555.529 615.36V622.56C555.529 634.88 547.689 644.32 532.649 644.32C524.329 644.32 519.529 639.52 519.529 633.28ZM659.251 572.8V582.08C652.851 574.72 643.571 569.92 631.731 569.92C606.771 569.92 590.451 588.32 590.451 612.32C590.451 636 606.771 654.24 631.731 654.24C643.571 654.24 652.851 649.44 659.251 642.24V652.64C659.251 667.68 649.171 677.12 633.171 677.12C619.731 677.12 610.611 670.88 606.611 658.72L590.931 668.96C597.331 684.48 611.731 692.8 633.011 692.8C660.371 692.8 677.651 677.76 677.651 653.76V572.8H659.251ZM609.491 612.32C609.491 597.44 619.411 586.56 634.931 586.56C649.811 586.56 659.891 596.96 659.891 612.32C659.891 626.88 649.811 637.44 634.931 637.44C619.411 637.44 609.491 626.88 609.491 612.32ZM736.274 569.92C712.114 569.92 694.514 588.8 694.514 614.56C694.514 640.32 711.154 658.4 737.394 658.4C752.754 658.4 766.994 652.48 774.834 639.84L761.554 628C757.074 638.24 749.554 642.88 737.874 642.88C725.234 642.88 715.794 636 713.874 620.16H775.634C775.954 617.28 776.114 615.2 776.114 612.8C776.114 587.36 760.754 569.92 736.274 569.92ZM714.034 606.72C716.274 592.32 725.074 585.44 735.954 585.44C748.754 585.44 756.274 593.92 756.274 606.72H714.034ZM828.648 538.4V555.52H877.768L844.808 585.44L852.808 600.8C856.168 598.88 860.488 597.92 865.288 597.92C879.368 597.92 887.688 606.4 887.688 619.84C887.688 632.8 879.048 641.12 865.608 641.12C852.008 641.12 843.688 631.36 843.368 616.16L825.288 624.32C827.688 644.8 844.008 658.4 865.608 658.4C890.728 658.4 906.728 643.36 906.728 619.84C906.728 598.56 890.888 583.36 871.048 583.36H869.608L901.927 555.2V538.4H828.648ZM922.878 633.6V656H945.118V633.6H922.878ZM1003.01 535.52C976.131 535.52 962.371 556.48 962.371 597.12C962.371 637.6 976.131 658.4 1003.01 658.4C1029.89 658.4 1043.81 637.6 1043.81 597.12C1043.81 556.48 1029.89 535.52 1003.01 535.52ZM981.571 597.12C981.571 567.2 988.611 552.8 1003.01 552.8C1017.41 552.8 1024.61 567.2 1024.61 597.12C1024.61 626.72 1017.41 641.12 1003.01 641.12C988.611 641.12 981.571 626.72 981.571 597.12Z" fill="#2BFF99"/>
<defs>
<linearGradient id="paint0_linear_356_17229" x1="49" y1="49" x2="1151" y2="1151" gradientUnits="userSpaceOnUse">
<stop stop-color="#000004"/>
<stop offset="1" stop-color="#141619"/>
</linearGradient>
</defs>
</svg>
