<svg width="119" height="32" viewBox="0 0 119 32" fill="none" xmlns="http://www.w3.org/2000/svg">
<path d="M18.0733 22.9273C18.0657 22.4378 18.023 21.9494 17.9454 21.4661H8.97267V24.4113H14.8814C14.5531 25.708 13.8037 26.8591 12.7507 27.684C11.6977 28.5089 10.4007 28.961 9.06313 28.9694C7.72553 28.9778 6.42297 28.5421 5.35968 27.7305C4.2964 26.9189 3.53254 25.7774 3.18789 24.4849C2.84323 23.1925 2.93727 21.8222 3.45526 20.5889C3.97325 19.3557 4.8859 18.3292 6.05008 17.6705C7.21427 17.0118 8.56415 16.7581 9.88806 16.9491C11.212 17.1402 12.435 17.7653 13.3654 18.7263H17.0184C15.9833 16.7762 14.2701 15.2726 12.2022 14.4992C10.1343 13.7259 7.85485 13.7363 5.79411 14.5285C3.73337 15.3207 2.03392 16.8398 1.01659 18.7993C-0.000742912 20.7587 -0.265581 23.0227 0.272072 25.164C0.809724 27.3053 2.11267 29.1757 3.93494 30.4221C5.75721 31.6685 7.97273 32.2047 10.1633 31.9295C12.3538 31.6542 14.3678 30.5866 15.8251 28.9281C17.2824 27.2696 18.0821 25.135 18.0733 22.9273ZM27.0323 20.1875V16.9637C26.2008 16.9631 25.3773 17.1264 24.6089 17.4442C23.8406 17.7619 23.1423 18.228 22.5542 18.8158C21.966 19.4035 21.4994 20.1014 21.1811 20.8696C20.8627 21.6377 20.6989 22.4611 20.6989 23.2926V31.6945H23.9272C23.9272 31.6945 23.9272 23.4067 23.9272 23.2926C23.9272 22.4691 24.2544 21.6793 24.8367 21.097C25.419 20.5146 26.2088 20.1875 27.0323 20.1875ZM39.585 22.8907H31.7766C32.0088 22.0431 32.4852 21.2824 33.1465 20.7035C33.8833 20.1178 34.7967 19.799 35.7379 19.799C36.6791 19.799 37.5925 20.1178 38.3292 20.7035C38.9808 21.2722 39.4242 22.0418 39.5895 22.8907M42.6033 25.6625C42.7569 25.143 42.8142 24.5998 42.7722 24.0597C42.7954 23.1285 42.6291 22.2023 42.2835 21.3373C41.9379 20.4723 41.4202 19.6865 40.7618 19.0277C40.1033 18.3688 39.3179 17.8506 38.4531 17.5044C37.5883 17.1583 36.6622 16.9914 35.731 17.0139C33.7931 17.0284 31.939 17.8065 30.5712 19.1794C29.2033 20.5524 28.4322 22.4094 28.425 24.3474C28.4125 25.3466 28.6017 26.338 28.9815 27.2623C29.3612 28.1866 29.9237 29.0247 30.6351 29.7264C31.3101 30.4387 32.1239 31.0052 33.0262 31.3908C33.9286 31.7764 34.9004 31.973 35.8817 31.9685C36.6303 31.9694 37.375 31.8601 38.0918 31.6443C38.6956 31.468 39.2788 31.2276 39.8316 30.9274C40.2747 30.6669 40.6948 30.369 41.0873 30.037C41.343 29.8178 41.5439 29.6534 41.6718 29.5164L39.553 27.4753C39.1355 27.9044 38.6435 28.2541 38.1009 28.5072C37.4123 28.8685 36.6456 29.055 35.868 29.0506C34.8182 29.0689 33.7997 28.6925 33.0141 27.9958C32.2984 27.398 31.806 26.5756 31.6168 25.6625H42.6033ZM57.1423 24.4433C57.1423 25.3249 56.8808 26.1867 56.3909 26.9197C55.901 27.6527 55.2047 28.224 54.3901 28.5611C53.5754 28.8983 52.6791 28.9863 51.8145 28.814C50.9498 28.6416 50.1557 28.2167 49.5326 27.593C48.9095 26.9693 48.4855 26.1747 48.314 25.3099C48.1426 24.4451 48.2315 23.5489 48.5695 22.7346C48.9075 21.9203 49.4794 21.2246 50.2129 20.7355C50.9464 20.2463 51.8085 19.9857 52.6902 19.9866C53.2752 19.9866 53.8545 20.1019 54.395 20.3259C54.9354 20.5499 55.4264 20.8783 55.8399 21.2922C56.2534 21.7061 56.5812 22.1974 56.8047 22.7381C57.0282 23.2788 57.1429 23.8582 57.1423 24.4433ZM56.9459 31.6945H60.1697V24.4433C60.1705 22.7684 59.6098 21.1417 58.5773 19.823C57.5447 18.5044 56.0999 17.5699 54.4738 17.1689C52.8477 16.768 51.1341 16.9237 49.6069 17.6112C48.0797 18.2988 46.8271 19.4784 46.0492 20.9616C45.2712 22.4448 45.013 24.1459 45.3157 25.7932C45.6183 27.4404 46.4644 28.9387 47.7188 30.0485C48.9731 31.1583 50.5633 31.8155 52.2351 31.9153C53.907 32.015 55.564 31.5514 56.9414 30.5986L56.9459 31.6945ZM69.3479 31.9685V28.7401C68.94 28.7407 68.536 28.6608 68.159 28.505C67.782 28.3492 67.4394 28.1205 67.151 27.832C66.8625 27.5436 66.6338 27.201 66.478 26.824C66.3222 26.447 66.2423 26.043 66.2429 25.6351C66.2429 25.4798 66.2429 20.4615 66.2429 20.4615H69.3616V17.2651H66.2429V14.0093H63.0465V25.6351C63.0465 27.3085 63.7087 28.9139 64.8886 30.1006C66.0684 31.2873 67.67 31.9588 69.3434 31.9685M83.2385 24.4433C83.2385 25.3247 82.9772 26.1864 82.4875 26.9193C81.9978 27.6522 81.3017 28.2234 80.4874 28.5607C79.673 28.898 78.7769 28.9863 77.9124 28.8143C77.0479 28.6424 76.2538 28.2179 75.6305 27.5946C75.0072 26.9713 74.5828 26.1772 74.4108 25.3127C74.2389 24.4482 74.3271 23.5521 74.6644 22.7378C75.0017 21.9234 75.573 21.2274 76.3059 20.7377C77.0388 20.248 77.9004 19.9866 78.7819 19.9866C79.9639 19.9866 81.0974 20.4561 81.9332 21.2919C82.769 22.1277 83.2385 23.2613 83.2385 24.4433ZM86.266 24.4433C86.2669 22.9629 85.8287 21.5154 85.0069 20.2841C84.1851 19.0527 83.0165 18.0927 81.6491 17.5256C80.2816 16.9584 78.7767 16.8096 77.3246 17.0978C75.8725 17.3861 74.5385 18.0985 73.4914 19.145C72.4443 20.1915 71.731 21.525 71.4419 22.9769C71.1527 24.4288 71.3007 25.9339 71.867 27.3017C72.4333 28.6695 73.3926 29.8386 74.6234 30.6612C75.8543 31.4838 77.3015 31.9228 78.7819 31.9228C79.7645 31.9234 80.7376 31.7304 81.6456 31.3548C82.5536 30.9792 83.3786 30.4283 84.0737 29.7337C84.7687 29.0391 85.32 28.2144 85.6962 27.3066C86.0724 26.3989 86.266 25.4259 86.266 24.4433ZM95.0287 20.1875V16.9637C94.1972 16.9631 93.3737 17.1264 92.6053 17.4442C91.8369 17.7619 91.1387 18.228 90.5505 18.8158C89.9624 19.4035 89.4958 20.1014 89.1774 20.8696C88.8591 21.6377 88.6952 22.4611 88.6952 23.2926V31.6945H91.919C91.919 31.6945 91.919 23.4067 91.919 23.2926C91.9202 22.4686 92.2484 21.6789 92.8314 21.0967C93.4145 20.5145 94.2047 20.1875 95.0287 20.1875ZM116.49 8.93164C116.561 9.36345 116.599 9.80002 116.604 10.2376C116.593 12.2256 115.855 14.1409 114.529 15.6219C113.203 17.1029 111.38 18.047 109.405 18.2762C107.43 18.5053 105.44 18.0035 103.81 16.8655C102.18 15.7276 101.022 14.0322 100.557 12.0995C100.091 10.1667 100.349 8.13033 101.282 6.37476C102.215 4.61919 103.758 3.2659 105.621 2.57038C107.483 1.87486 109.536 1.88524 111.391 2.59955C113.246 3.31385 114.776 4.68267 115.691 6.44758H112.394C111.555 5.58327 110.453 5.02173 109.261 4.85096C108.068 4.68019 106.853 4.90982 105.805 5.50389C104.757 6.09796 103.935 7.0229 103.47 8.13378C103.004 9.24466 102.919 10.4787 103.23 11.6426C103.541 12.8065 104.229 13.8345 105.186 14.5654C106.144 15.2964 107.317 15.689 108.521 15.6819C109.726 15.6747 110.894 15.2682 111.843 14.5259C112.792 13.7836 113.467 12.7476 113.764 11.5801H108.431V8.92707L116.49 8.93164ZM118.714 10.2376C118.715 8.2135 118.115 6.2346 116.992 4.55119C115.868 2.86777 114.27 1.55547 112.4 0.780258C110.53 0.00504482 108.473 -0.198255 106.487 0.196073C104.502 0.5904 102.678 1.56464 101.247 2.99557C99.8151 4.4265 98.8401 6.24984 98.4449 8.23498C98.0496 10.2201 98.252 12.2779 99.0264 14.148C99.8008 16.0181 101.112 17.6165 102.795 18.7412C104.478 19.8658 106.457 20.466 108.481 20.466C111.194 20.466 113.796 19.3886 115.715 17.4705C117.634 15.5524 118.713 12.9508 118.714 10.2376Z" fill="#9B9B9F"/>
</svg>
