<svg width="54" height="53" viewBox="0 0 54 53" fill="none" xmlns="http://www.w3.org/2000/svg">
<g clip-path="url(#clip0_5813_79192)">
<ellipse cx="27" cy="26.2059" rx="27" ry="26.2059" fill="#2BFF99"/>
<path d="M32.4844 18.0165C33.2676 18.0165 34.0187 18.3185 34.5726 18.8561C35.1264 19.3936 35.4375 20.1226 35.4375 20.8828C35.4375 21.643 35.1264 22.372 34.5726 22.9096C34.0187 23.4471 33.2676 23.7491 32.4844 23.7491H29.5313V20.8828C29.5312 20.1226 29.8424 19.3936 30.3962 18.8561C30.95 18.3185 31.7012 18.0165 32.4844 18.0165V18.0165Z" stroke="#141619" stroke-width="1.75" stroke-linecap="round" stroke-linejoin="round"/>
<path d="M24.4688 23.7491H21.5156C20.7324 23.7491 19.9813 23.4471 19.4275 22.9096C18.8736 22.372 18.5625 21.643 18.5625 20.8828C18.5625 20.1226 18.8736 19.3936 19.4275 18.8561C19.9813 18.3185 20.7324 18.0165 21.5156 18.0165C22.2988 18.0165 23.05 18.3185 23.6038 18.8561C24.1576 19.3936 24.4688 20.1226 24.4688 20.8828V23.7491Z" stroke="#141619" stroke-width="1.75" stroke-linecap="round" stroke-linejoin="round"/>
<path d="M29.5312 28.6627H32.4844C33.2676 28.6627 34.0187 28.9647 34.5726 29.5022C35.1264 30.0398 35.4375 30.7688 35.4375 31.529C35.4375 32.2892 35.1264 33.0182 34.5726 33.5557C34.0187 34.0933 33.2676 34.3953 32.4844 34.3953C31.7012 34.3953 30.95 34.0933 30.3962 33.5557C29.8424 33.0182 29.5312 32.2892 29.5312 31.529V28.6627Z" stroke="#141619" stroke-width="1.75" stroke-linecap="round" stroke-linejoin="round"/>
<path d="M21.5156 34.3953C20.7324 34.3953 19.9813 34.0933 19.4275 33.5558C18.8736 33.0182 18.5625 32.2892 18.5625 31.529C18.5625 30.7688 18.8736 30.0398 19.4275 29.5022C19.9813 28.9647 20.7324 28.6627 21.5156 28.6627H24.4688V31.529C24.4688 32.2892 24.1576 33.0182 23.6038 33.5558C23.05 34.0933 22.2988 34.3953 21.5156 34.3953V34.3953Z" stroke="#141619" stroke-width="1.75" stroke-linecap="round" stroke-linejoin="round"/>
<path d="M29.5312 23.7491H24.4688V28.6627H29.5312V23.7491Z" stroke="#141619" stroke-width="1.75" stroke-linecap="round" stroke-linejoin="round"/>
</g>
<defs>
<clipPath id="clip0_5813_79192">
<rect width="54" height="52.4118" fill="white"/>
</clipPath>
</defs>
</svg>
