<svg width="614" height="828" viewBox="0 0 614 828" fill="none" xmlns="http://www.w3.org/2000/svg">
<path d="M61.2838 823.071L4.62693 766.482C-1.54231 760.32 -1.54231 750.314 4.62693 744.126L330.199 418.943C331.94 417.205 334.286 416.23 336.711 416.23H371.433C373.885 416.23 376.232 417.205 377.945 418.943L409.213 450.173C410.953 451.911 411.929 454.255 411.929 456.677V491.358C411.929 493.807 410.953 496.15 409.213 497.862L83.6671 823.071C77.4978 829.233 67.4794 829.233 61.2838 823.071Z" fill="#454B50"/>
<path d="M824.395 766.483L767.738 823.072C761.568 829.234 751.55 829.234 745.354 823.072L419.782 497.889C418.042 496.151 417.066 493.808 417.066 491.385V456.705C417.066 454.256 418.042 451.912 419.782 450.201L451.05 418.97C452.79 417.232 455.136 416.258 457.562 416.258H492.284C494.736 416.258 497.082 417.232 498.796 418.97L824.368 744.153C830.537 750.315 830.537 760.321 824.368 766.509L824.395 766.483Z" fill="#454B50"/>
<path d="M767.711 4.62139L824.368 61.2104C830.537 67.3723 830.537 77.3787 824.368 83.5669L498.796 408.75C497.056 410.488 494.709 411.462 492.284 411.462H457.562C455.11 411.462 452.764 410.488 451.05 408.75L419.782 377.519C418.042 375.781 417.066 373.438 417.066 371.015V336.335C417.066 333.886 418.042 331.542 419.782 329.831L745.354 4.62139C751.524 -1.54046 761.542 -1.54046 767.738 4.62139H767.711Z" fill="#454B50"/>
<path d="M4.62693 61.2104L61.2838 4.62139C67.453 -1.54046 77.4715 -1.54046 83.6671 4.62139L409.24 329.804C410.98 331.542 411.955 333.886 411.955 336.308V370.989C411.955 373.438 410.98 375.781 409.24 377.493L377.972 408.723C376.231 410.461 373.885 411.436 371.46 411.436H336.738C334.286 411.436 331.94 410.461 330.226 408.723L4.62693 83.5669C-1.54231 77.4051 -1.54231 67.3986 4.62693 61.2104Z" fill="#454B50"/>
</svg>
