<svg width="1000" height="818" viewBox="0 0 1000 818" fill="none" xmlns="http://www.w3.org/2000/svg">
<path d="M998.983 594.593C888.388 732.004 701.992 789.541 532.75 809.464C357.303 830.127 165.044 810.656 7.43905 726.811C-15.0913 714.838 19.7647 713.625 30.1372 719.127C182.051 799.961 366.661 811.107 534.539 788.5C691.59 767.324 861.125 707.705 963.258 580.822C970.021 572.415 1006.51 585.248 998.983 594.593Z" fill="#8CC140"/>
<path d="M82.8384 653.79V647.625H80.9842C79.4182 647.625 77.8479 647.479 76.4239 647.333C74.9999 647.04 73.8555 646.601 72.7155 645.866C71.7217 645.13 70.8655 643.956 70.2933 642.635C69.5835 641.168 69.2952 639.408 69.2952 637.059V565.712C69.2952 563.363 69.5835 561.604 70.2933 560.137C70.8655 558.816 71.7217 557.641 72.7155 556.906C73.8555 556.17 74.9999 555.731 76.4239 555.439C77.8479 555.292 79.4182 555.146 80.9842 555.146H82.8384V548.977H41.3613V555.146H43.2156C44.7815 555.146 46.3475 555.292 47.7758 555.439C49.1999 555.731 50.4819 556.17 51.48 556.906C52.6201 557.641 53.3342 558.816 54.0441 560.137C54.6163 561.604 54.9002 563.363 54.9002 565.712V637.059C54.9002 639.408 54.6163 641.168 54.0441 642.635C53.3342 643.956 52.6201 645.13 51.48 645.866C50.4819 646.601 49.1999 647.04 47.7758 647.333C46.3475 647.479 44.7815 647.625 43.2156 647.625H41.3613V653.79H82.8384Z" fill="#58595B"/>
<path d="M118.211 644.399C116.215 642.05 115.217 638.38 115.217 633.239V583.476H133.888V575.108H115.217V557.052H108.665C107.951 560.868 107.095 563.953 106.096 566.448C105.098 568.943 103.674 571.146 102.108 572.905C100.538 574.669 98.6839 575.844 96.692 576.575C94.5538 577.311 92.6996 577.603 90.9873 577.603V583.476H101.82V632.508C101.82 636.762 102.25 640.286 103.102 643.224C103.816 646.158 105.098 648.507 106.811 650.271C108.519 652.031 110.657 653.352 113.225 654.087C115.789 654.819 118.926 655.262 122.63 655.262C123.628 655.262 124.91 655.262 126.05 655.115C127.336 654.965 128.618 654.819 129.758 654.672C130.898 654.38 131.897 654.233 132.895 653.941C133.888 653.644 134.603 653.352 135.175 653.059V646.894C133.746 647.187 132.322 647.479 130.898 647.625C129.47 647.922 127.762 647.922 126.05 647.922C122.772 647.922 120.208 646.748 118.211 644.399Z" fill="#58595B"/>
<path d="M165.25 556.316C164.682 554.703 163.826 553.382 162.828 552.208C161.83 551.18 160.69 550.298 159.408 549.859C158.126 549.274 156.702 548.977 155.131 548.977C152.567 548.977 150.287 549.712 148.575 551.18C146.725 552.647 145.869 554.849 145.869 557.641C145.869 559.108 146.153 560.429 146.579 561.311C147.151 562.335 147.723 563.217 148.575 563.806C149.431 564.538 150.145 565.127 151.143 565.566C151.995 566.009 152.851 566.594 153.565 567.033C154.421 567.476 154.989 568.061 155.561 568.797C155.987 569.382 156.271 570.264 156.271 571.146C156.271 574.08 155.273 576.575 152.993 578.778C150.855 580.981 147.435 582.891 142.732 584.358V590.523C147.009 589.202 150.571 587.584 153.565 585.679C156.56 583.622 158.84 581.419 160.832 578.924C162.686 576.429 163.968 573.641 164.824 570.853C165.68 567.915 166.106 564.835 166.106 561.75C166.106 559.693 165.822 557.934 165.25 556.316Z" fill="#58595B"/>
<path d="M208.471 653.79C211.891 652.913 214.881 651.446 217.307 649.536C219.73 647.479 221.584 645.13 223.008 642.342C224.29 639.408 225.004 636.031 225.004 632.215C225.004 629.13 224.574 626.489 223.864 624.14C223.008 621.791 221.726 619.734 220.155 617.829C218.448 615.918 216.451 614.305 213.887 612.687C211.319 611.074 208.183 609.461 204.62 607.843C201.626 606.523 199.062 605.348 196.924 604.174C194.786 603.145 193.078 601.971 191.649 600.947C190.367 599.772 189.369 598.452 188.801 597.127C188.087 595.806 187.803 594.192 187.803 592.282C187.803 590.523 188.087 588.759 188.513 587.292C189.085 585.825 189.799 584.504 190.798 583.476C191.791 582.301 193.078 581.419 194.644 580.834C196.21 580.245 198.206 579.952 200.344 579.952C204.336 579.952 207.184 581.419 209.039 584.211C210.751 586.999 211.749 590.962 211.749 596.103C215.027 596.103 217.591 595.367 219.299 593.754C221.154 592.136 222.01 589.933 222.01 587.292C222.01 585.532 221.584 583.768 220.728 582.009C219.872 580.391 218.447 578.924 216.735 577.75C215.027 576.575 212.747 575.547 210.179 574.816C207.615 574.08 204.62 573.787 201.2 573.787C197.208 573.787 193.504 574.226 190.225 575.108C186.947 575.99 184.095 577.457 181.815 579.07C179.393 580.834 177.538 583.037 176.256 585.678C174.974 588.174 174.406 591.108 174.406 594.485C174.406 597.716 174.832 600.504 175.688 602.853C176.544 605.055 177.827 607.258 179.393 609.018C181.105 610.782 183.243 612.541 185.807 614.008C188.371 615.626 191.365 617.239 194.928 618.852C198.206 620.47 200.916 621.791 203.054 622.965C205.193 624.14 206.901 625.314 208.183 626.489C209.469 627.663 210.321 628.838 210.751 630.159C211.319 631.479 211.603 633.093 211.603 634.857C211.603 636.909 211.177 638.673 210.609 640.286C209.895 641.904 209.039 643.371 207.757 644.545C206.475 645.719 204.904 646.601 203.196 647.333C201.342 647.922 199.204 648.215 196.782 648.215C194.076 648.215 191.791 647.772 189.941 646.748C188.087 645.72 186.663 644.399 185.523 642.781C184.383 641.022 183.527 639.111 183.101 636.762C182.671 634.564 182.387 632.215 182.387 629.569C181.531 629.569 180.675 629.715 179.534 630.012C178.536 630.305 177.538 630.89 176.686 631.626C175.688 632.361 174.974 633.39 174.406 634.71C173.692 636.031 173.408 637.791 173.408 639.701C173.408 642.342 173.976 644.545 175.116 646.451C176.256 648.361 177.827 649.974 179.823 651.295C181.815 652.62 184.383 653.644 187.231 654.233C190.083 654.965 193.362 655.262 196.924 655.262C201.2 655.262 204.904 654.819 208.471 653.79Z" fill="#58595B"/>
<path d="M301.96 647.625C300.39 647.625 298.966 647.479 297.542 647.333C295.972 647.04 294.831 646.601 293.691 645.866C292.693 645.13 291.837 643.956 291.269 642.635C290.555 641.314 290.271 639.408 290.271 637.206V582.448H310.367V575.108H290.271V566.302C290.271 563.071 290.413 560.283 290.839 557.934C291.127 555.585 291.695 553.529 292.551 551.915C293.407 550.298 294.548 548.977 295.83 548.099C297.254 547.364 298.966 546.925 300.962 546.925C302.812 546.925 304.24 547.217 305.522 547.953C306.662 548.538 307.661 549.42 308.37 550.594C309.085 551.623 309.657 552.943 309.941 554.411C310.225 555.731 310.367 557.198 310.367 558.665C312.079 558.665 313.645 558.519 315.069 558.08C316.497 557.788 317.637 557.198 318.777 556.613C319.775 555.878 320.632 554.996 321.199 553.972C321.772 552.943 322.056 551.769 322.056 550.448C322.056 548.977 321.772 547.51 321.057 546.335C320.343 545.161 319.203 544.279 317.637 543.401C316.067 542.519 314.075 541.934 311.507 541.491C308.943 541.052 305.806 540.76 302.102 540.76C298.11 540.76 294.689 541.345 291.553 542.519C288.417 543.694 285.853 545.453 283.573 547.656C281.435 550.005 279.722 552.797 278.582 556.17C277.442 559.547 276.874 563.363 276.874 567.769V575.108H263.903V582.448H276.874V637.206C276.874 639.408 276.586 641.314 275.876 642.635C275.304 643.956 274.452 645.13 273.454 645.866C272.456 646.601 271.174 647.04 269.746 647.333C268.322 647.479 266.756 647.625 265.185 647.625H263.331V653.79H307.372V647.625H301.96Z" fill="#58595B"/>
<path d="M384.219 596.395C382.795 591.258 380.515 586.999 377.662 583.622C374.81 580.245 371.39 577.75 367.26 576.136C363.267 574.523 358.565 573.641 353.433 573.641C342.316 573.641 334.047 577.018 328.347 583.622C322.788 590.376 319.94 600.65 319.94 614.305C319.94 621.201 320.65 627.22 322.221 632.361C323.645 637.498 325.925 641.753 328.777 645.13C331.625 648.507 335.045 651.003 339.18 652.766C343.172 654.38 347.874 655.262 353.007 655.262C363.982 655.262 372.246 651.884 377.946 645.13C383.651 638.38 386.499 628.102 386.499 614.305C386.499 607.404 385.785 601.386 384.219 596.395ZM334.761 599.772C335.476 595.513 336.616 592.136 338.182 589.348C339.752 586.56 341.744 584.504 344.17 583.037C346.592 581.716 349.587 580.981 353.149 580.981C356.711 580.981 359.847 581.716 362.269 583.037C364.691 584.504 366.688 586.56 368.258 589.348C369.824 592.136 370.964 595.513 371.678 599.772C372.246 603.881 372.676 608.725 372.676 614.305C372.676 619.734 372.246 624.579 371.678 628.838C370.964 632.946 369.824 636.47 368.4 639.408C366.83 642.196 364.833 644.252 362.411 645.719C359.847 647.187 356.853 647.922 353.291 647.922C349.729 647.922 346.734 647.187 344.312 645.719C341.744 644.252 339.752 642.196 338.182 639.408C336.616 636.47 335.476 632.946 334.761 628.838C334.193 624.579 333.763 619.734 333.763 614.305C333.763 608.725 334.193 603.881 334.761 599.772Z" fill="#58595B"/>
<path d="M440.249 647.625H436.261C434.691 647.625 433.267 647.479 431.843 647.333C430.415 647.04 429.133 646.601 428.135 646.012C426.994 645.276 426.138 644.252 425.57 642.927C424.856 641.607 424.572 639.993 424.572 637.791V614.598C424.572 612.687 424.714 610.635 424.856 608.286C424.998 605.937 425.428 603.735 425.854 601.386C426.285 599.037 426.852 596.834 427.567 594.485C428.276 592.282 429.133 590.376 430.131 588.613C431.271 586.999 432.411 585.679 433.835 584.65C435.263 583.476 436.829 583.037 438.541 583.037C441.389 583.037 443.244 583.915 444.384 585.825C445.524 587.584 446.096 590.669 446.096 594.778C448.518 594.778 450.514 594.485 452.222 594.046C453.793 593.457 455.217 592.872 456.357 591.843C457.355 590.962 458.065 589.787 458.637 588.613C459.063 587.292 459.351 585.825 459.351 584.358C459.351 580.981 458.065 578.339 455.501 576.429C453.078 574.523 449.228 573.641 443.958 573.641C440.822 573.641 438.253 574.08 436.119 574.962C434.123 575.698 432.269 576.872 430.845 578.339C429.417 579.806 428.276 581.419 427.278 583.476C426.285 585.386 425.428 587.438 424.43 589.641H423.716L421.01 575.108H399.061V581.273H399.486C401.057 581.273 402.623 581.419 403.905 581.566C405.329 581.863 406.615 582.301 407.755 583.037C408.753 583.768 409.605 584.797 410.177 586.117C410.891 587.438 411.175 589.202 411.175 591.258V637.059C411.175 639.408 410.891 641.168 410.177 642.635C409.605 643.956 408.753 645.13 407.755 645.866C406.757 646.601 405.475 647.04 404.047 647.333C402.623 647.479 401.057 647.625 399.486 647.625H399.061V653.79H440.249V647.625Z" fill="#58595B"/>
<path d="M524.623 607.112V565.712C524.623 563.363 524.907 561.604 525.621 560.137C526.189 558.816 527.045 557.641 528.043 556.906C529.183 556.17 530.323 555.731 531.747 555.439C533.175 555.292 534.741 555.146 536.307 555.146H538.162V548.977H496.685V555.146H498.539C500.109 555.146 501.675 555.292 502.957 555.439C504.381 555.731 505.667 556.17 506.808 556.906C507.806 557.641 508.657 558.665 509.23 559.84C509.94 561.165 510.228 562.924 510.228 565.127V637.791C510.228 639.993 509.94 641.753 509.23 642.927C508.657 644.252 507.806 645.276 506.808 646.012C505.667 646.601 504.381 647.04 502.957 647.333C501.675 647.479 500.109 647.625 498.539 647.625H496.685V653.79H538.162V647.625H536.307C534.741 647.625 533.175 647.479 531.747 647.333C530.323 647.04 529.183 646.601 528.043 645.866C527.045 645.13 526.189 643.956 525.621 642.635C524.907 641.168 524.623 639.408 524.623 637.059V614.451L536.738 604.32L561.251 640.583C563.106 643.224 564.672 645.427 566.242 647.04C567.808 648.8 569.662 650.121 571.8 651.149C573.796 652.177 576.361 652.766 579.497 653.205C582.491 653.644 586.479 653.79 591.181 653.79H592.752V647.625H592.468C589.757 647.625 587.193 646.601 584.771 644.691C582.203 642.635 579.497 639.701 576.786 635.885L546.714 592.725L567.382 568.797C569.232 566.594 570.944 564.684 572.656 562.924C574.222 561.311 575.788 559.84 577.217 558.665C578.783 557.491 580.207 556.613 581.777 556.024C583.343 555.292 584.913 554.996 586.479 554.996V548.977H554.979V554.996C557.263 554.996 559.113 555.292 560.253 555.731C561.393 556.17 561.965 557.052 561.965 558.226C561.965 558.962 561.824 559.694 561.682 560.575C561.393 561.457 560.967 562.486 560.395 563.66C559.827 564.684 558.971 566.009 557.973 567.476C556.975 568.797 555.693 570.41 554.127 572.32L524.623 607.112Z" fill="#58595B"/>
<path d="M594.318 647.625V653.79H634.797V647.625H632.943C631.377 647.625 629.953 647.479 628.525 647.333C626.959 647.04 625.819 646.601 624.679 645.866C623.681 645.13 622.824 643.956 622.257 642.635C621.542 641.168 621.259 639.408 621.259 637.059V575.108H595.747V581.273H596.173C597.739 581.273 599.309 581.419 600.591 581.566C602.015 581.863 603.297 582.301 604.437 583.037C605.435 583.768 606.291 584.797 606.863 586.117C607.573 587.438 607.862 589.202 607.862 591.258V637.791C607.862 639.993 607.573 641.753 606.863 643.078C606.291 644.253 605.435 645.276 604.437 646.012C603.297 646.601 602.015 647.04 600.591 647.333C599.309 647.479 597.739 647.625 596.173 647.625H594.318ZM606.433 555.585C606.863 556.76 607.431 557.641 608.288 558.373C609.002 559.108 609.853 559.694 610.852 559.99C611.85 560.283 612.848 560.429 613.988 560.429C615.128 560.429 616.126 560.283 617.124 559.99C618.122 559.694 618.978 559.108 619.688 558.373C620.402 557.641 620.975 556.76 621.4 555.585C621.826 554.411 622.115 553.09 622.115 551.326C622.115 549.566 621.826 548.099 621.4 546.925C620.975 545.75 620.402 544.868 619.688 544.133C618.978 543.401 618.122 542.958 617.124 542.666C616.126 542.373 615.128 542.227 613.988 542.227C612.848 542.227 611.85 542.373 610.852 542.666C609.853 542.958 609.002 543.401 608.288 544.133C607.431 544.868 606.863 545.75 606.433 546.925C606.007 548.099 605.865 549.566 605.865 551.326C605.865 553.09 606.007 554.411 606.433 555.585Z" fill="#58595B"/>
<path d="M708.769 542.227H682.401V548.392H683.687C685.253 548.392 686.677 548.538 688.106 548.684C689.53 548.977 690.812 549.42 691.81 550.151C692.95 550.887 693.806 551.915 694.374 553.09C695.088 554.411 695.372 556.17 695.372 558.373V570.41C695.372 571.292 695.372 572.613 695.514 574.373C695.514 576.136 695.656 578.047 695.802 579.806C695.944 581.863 696.086 584.212 696.228 586.561H695.372C694.374 584.65 693.092 582.891 691.668 581.273C690.386 579.66 688.673 578.339 686.965 577.165C685.111 576.136 683.115 575.254 680.977 574.523C678.697 573.934 676.275 573.641 673.564 573.641C668.862 573.641 664.728 574.373 661.023 575.99C657.461 577.603 654.325 580.099 651.903 583.476C649.476 586.853 647.627 591.108 646.344 596.249C645.058 601.386 644.49 607.551 644.49 614.598C644.49 621.645 645.058 627.663 646.344 632.8C647.627 637.937 649.476 642.196 651.903 645.427C654.325 648.8 657.461 651.295 661.023 652.913C664.728 654.526 668.862 655.262 673.564 655.262C676.275 655.262 678.839 654.965 680.977 654.233C683.257 653.498 685.253 652.62 686.965 651.295C688.815 649.974 690.386 648.507 691.668 646.748C693.092 644.838 694.232 642.927 695.372 640.583H695.944L697.368 653.79H721.598V647.625H720.458C718.892 647.625 717.321 647.479 716.039 647.333C714.615 647.04 713.333 646.601 712.193 645.866C711.195 645.13 710.339 644.102 709.767 642.927C709.057 641.607 708.769 639.847 708.769 637.644V542.227ZM662.447 638.083C659.741 632.946 658.317 625.168 658.317 614.744C658.317 609.607 658.601 605.056 659.311 601.093C660.025 597.127 661.023 593.9 662.447 591.258C663.876 588.466 665.584 586.561 667.864 585.089C670.002 583.768 672.712 583.037 675.844 583.037C679.553 583.037 682.689 583.768 685.253 585.089C687.675 586.561 689.671 588.466 691.237 591.108C692.666 593.9 693.806 597.127 694.374 601.093C695.088 604.909 695.372 609.461 695.372 614.598C695.372 619.881 695.088 624.579 694.374 628.395C693.806 632.361 692.666 635.588 691.237 638.234C689.671 640.729 687.675 642.635 685.253 643.956C682.831 645.276 679.695 645.866 675.991 645.866C669.718 645.866 665.158 643.224 662.447 638.083Z" fill="#58595B"/>
<path d="M765.64 653.79C769.06 652.913 772.054 651.446 774.476 649.536C776.899 647.479 778.753 645.13 780.177 642.342C781.463 639.408 782.173 636.031 782.173 632.215C782.173 629.13 781.747 626.489 781.033 624.14C780.177 621.791 778.895 619.734 777.329 617.829C775.616 615.918 773.62 614.305 771.056 612.687C768.492 611.074 765.356 609.461 761.794 607.843C758.799 606.523 756.235 605.348 754.097 604.174C751.959 603.145 750.247 601.971 748.823 600.947C747.541 599.772 746.542 598.452 745.97 597.127C745.26 595.806 744.972 594.192 744.972 592.282C744.972 590.523 745.26 588.759 745.686 587.292C746.259 585.825 746.968 584.504 747.967 583.476C748.965 582.301 750.247 581.419 751.817 580.834C753.383 580.245 755.379 579.952 757.517 579.952C761.505 579.952 764.358 581.419 766.212 584.211C767.92 586.999 768.918 590.962 768.918 596.103C772.196 596.103 774.76 595.367 776.473 593.754C778.327 592.136 779.179 589.933 779.179 587.292C779.179 585.532 778.753 583.768 777.897 582.009C777.045 580.391 775.616 578.924 773.909 577.75C772.196 576.575 769.916 575.547 767.352 574.816C764.784 574.08 761.794 573.787 758.373 573.787C754.381 573.787 750.677 574.226 747.399 575.108C744.12 575.99 741.268 577.457 738.988 579.07C736.566 580.834 734.712 583.037 733.43 585.678C732.147 588.174 731.575 591.108 731.575 594.485C731.575 597.716 732.005 600.504 732.857 602.853C733.713 605.055 734.995 607.258 736.566 609.018C738.274 610.782 740.412 612.541 742.98 614.008C745.544 615.626 748.539 617.239 752.101 618.852C755.379 620.47 758.085 621.791 760.223 622.965C762.362 624.14 764.074 625.314 765.356 626.489C766.638 627.663 767.494 628.838 767.92 630.159C768.492 631.479 768.776 633.093 768.776 634.857C768.776 636.909 768.35 638.673 767.778 640.286C767.064 641.904 766.212 643.371 764.93 644.545C763.644 645.719 762.078 646.601 760.365 647.333C758.515 647.922 756.377 648.215 753.955 648.215C751.245 648.215 748.965 647.772 747.11 646.748C745.26 645.72 743.832 644.399 742.692 642.781C741.552 641.022 740.696 639.111 740.27 636.762C739.844 634.564 739.556 632.215 739.556 629.569C738.704 629.569 737.848 629.715 736.708 630.012C735.71 630.305 734.712 630.89 733.855 631.626C732.857 632.361 732.147 633.39 731.575 634.71C730.865 636.031 730.577 637.791 730.577 639.701C730.577 642.342 731.149 644.545 732.289 646.451C733.43 648.361 734.996 649.974 736.992 651.295C738.988 652.62 741.552 653.644 744.404 654.233C747.252 654.965 750.531 655.262 754.097 655.262C758.373 655.262 762.078 654.819 765.64 653.79Z" fill="#58595B"/>
<path d="M56.287 502.032C57.7713 501.576 59.0533 500.862 60.0944 499.997C61.1786 499.132 61.9702 498.061 62.5639 496.787C63.1059 495.518 63.4028 494.09 63.4028 492.464C63.4028 491.139 63.2049 489.969 62.8091 488.949C62.366 487.882 61.7723 486.966 61.0323 486.148C60.2407 485.283 59.3028 484.522 58.2144 483.859C57.1259 483.197 55.8439 482.534 54.4586 481.923C53.026 481.313 51.8386 480.753 50.9007 480.194C49.9628 479.635 49.1713 479.024 48.5776 478.413C47.9839 477.802 47.5881 477.088 47.3428 476.326C47.0933 475.561 46.947 474.644 46.947 473.681C46.947 472.764 47.0933 471.998 47.3428 471.284C47.5881 470.574 47.9839 469.963 48.4786 469.456C48.9733 468.944 49.6144 468.54 50.307 468.281C51.047 467.976 51.8386 467.877 52.7765 467.877C53.766 467.877 54.6565 468.079 55.2975 468.436C55.9902 468.845 56.5322 469.301 56.9797 469.912C57.3755 470.523 57.6723 471.237 57.8702 471.998C58.0681 472.764 58.1154 473.526 58.1154 474.339C59.3028 474.339 60.2923 474.085 60.9807 473.526C61.6733 472.966 62.0218 472.153 62.0218 471.03C62.0218 470.321 61.8239 469.555 61.4281 468.892C60.9807 468.182 60.387 467.623 59.5997 467.06C58.8081 466.552 57.8702 466.096 56.7301 465.79C55.547 465.485 54.2607 465.33 52.7765 465.33C51.1976 465.33 49.7649 465.532 48.427 465.941C47.1449 466.35 46.0092 466.961 45.0197 467.774C44.0775 468.539 43.2902 469.503 42.7438 470.626C42.2018 471.796 41.9565 473.07 41.9565 474.545C41.9565 475.918 42.1501 477.191 42.4986 478.31C42.8428 479.381 43.4365 480.396 44.1764 481.313C44.9207 482.229 45.8586 483.046 46.947 483.756C48.0828 484.522 49.3691 485.185 50.9007 485.843C52.3333 486.454 53.5207 487.017 54.4586 487.577C55.3965 488.136 56.1881 488.695 56.7818 489.306C57.3755 489.917 57.7713 490.579 58.0165 491.289C58.266 492.003 58.4123 492.817 58.4123 493.733C58.4123 495.819 57.8186 497.398 56.5839 498.521C55.3491 499.588 53.667 500.147 51.4944 500.147C50.3543 500.147 49.4165 499.945 48.5776 499.485C47.786 499.029 47.1449 498.47 46.5986 497.704C46.1038 496.994 45.7123 496.125 45.4628 495.161C45.1659 494.193 45.0197 493.174 44.968 492.107C43.8323 492.107 42.9417 492.412 42.348 493.075C41.707 493.686 41.4102 494.499 41.4102 495.518C41.4102 496.585 41.6081 497.553 42.0512 498.47C42.447 499.334 43.0923 500.096 43.9312 500.707C44.7228 501.318 45.7596 501.83 46.9944 502.182C48.2291 502.539 49.666 502.694 51.2449 502.694C53.0733 502.694 54.7555 502.488 56.287 502.032Z" fill="#58595B"/>
<path d="M82.5282 468.385H87.3208C88.0651 468.385 88.7061 468.488 89.2009 468.69C89.6956 468.944 90.0914 469.249 90.3883 469.606C90.7324 470.015 90.9303 470.419 91.1282 470.931C91.2745 471.439 91.3734 471.998 91.4251 472.558L91.6703 474.747H94.243L93.9935 465.838H66.1671L65.9219 474.747H68.4903L68.7398 472.558C68.7871 471.998 68.9377 471.439 69.084 470.931C69.2345 470.419 69.4798 470.015 69.7766 469.606C70.0735 469.249 70.4693 468.944 70.964 468.69C71.4588 468.488 72.0998 468.385 72.7924 468.385H77.5377V496.637C77.5377 497.398 77.4388 498.009 77.1892 498.418C76.9913 498.874 76.6945 499.231 76.3503 499.485C75.9545 499.691 75.5114 499.842 75.0166 499.945C74.5692 499.997 74.0271 500.048 73.4851 500.048H72.345V502.187H87.7166V500.048H86.5808C86.0388 500.048 85.4924 499.997 84.9976 499.945C84.5029 499.842 84.1114 499.691 83.7156 499.438C83.3671 499.179 83.0703 498.775 82.8724 498.315C82.6272 497.807 82.5282 497.196 82.5282 496.383V468.385Z" fill="#58595B"/>
<path d="M111.479 502.187V500.048H110.833C110.291 500.048 109.749 499.997 109.255 499.945C108.76 499.842 108.364 499.691 107.968 499.438C107.624 499.179 107.327 498.775 107.129 498.315C106.88 497.807 106.781 497.196 106.781 496.383V471.641C106.781 470.828 106.88 470.217 107.129 469.71C107.327 469.249 107.624 468.845 107.968 468.587C108.364 468.333 108.76 468.182 109.255 468.079C109.749 468.027 110.291 467.976 110.833 467.976H111.479V465.838H97.0967V467.976H97.7377C98.2841 467.976 98.8261 468.027 99.3209 468.079C99.8156 468.182 100.259 468.333 100.603 468.587C100.999 468.845 101.248 469.249 101.493 469.71C101.691 470.217 101.79 470.828 101.79 471.641V496.383C101.79 497.196 101.691 497.807 101.493 498.315C101.248 498.775 100.999 499.179 100.603 499.438C100.259 499.691 99.8156 499.842 99.3209 499.945C98.8261 499.997 98.2841 500.048 97.7377 500.048H97.0967V502.187H111.479Z" fill="#58595B"/>
<path d="M133.036 468.385C133.827 468.385 134.468 468.488 135.015 468.69C135.557 468.944 136.004 469.249 136.396 469.606C136.744 469.963 137.041 470.419 137.239 470.931C137.385 471.439 137.536 471.998 137.583 472.558L137.832 474.747H140.401L140.156 465.838H115.246V467.976H115.887C116.429 467.976 116.976 468.027 117.419 468.079C117.913 468.182 118.357 468.333 118.752 468.587C119.101 468.845 119.398 469.198 119.596 469.606C119.841 470.067 119.94 470.678 119.94 471.439V496.637C119.94 497.398 119.841 498.009 119.596 498.418C119.398 498.874 119.101 499.231 118.752 499.485C118.357 499.691 117.913 499.842 117.419 499.945C116.976 499.997 116.429 500.048 115.887 500.048H115.246V502.187H130.613V500.048H128.983C128.441 500.048 127.899 499.997 127.404 499.945C126.909 499.842 126.513 499.691 126.118 499.438C125.773 499.179 125.477 498.775 125.279 498.315C125.029 497.859 124.93 497.196 124.93 496.383V485.641H136.843V483.098H124.93V468.385H133.036Z" fill="#58595B"/>
<path d="M160.109 468.385H164.902C165.646 468.385 166.287 468.488 166.782 468.69C167.277 468.944 167.672 469.249 167.969 469.606C168.313 470.015 168.511 470.419 168.709 470.931C168.86 471.439 168.955 471.998 169.006 472.558L169.251 474.747H171.824L171.575 465.838H143.752L143.503 474.747H146.076L146.321 472.558C146.372 471.998 146.519 471.439 146.665 470.931C146.816 470.419 147.061 470.015 147.358 469.606C147.655 469.249 148.05 468.944 148.545 468.69C149.04 468.488 149.681 468.385 150.373 468.385H155.119V496.637C155.119 497.398 155.02 498.009 154.77 498.418C154.577 498.874 154.28 499.231 153.931 499.485C153.536 499.691 153.092 499.842 152.598 499.945C152.155 499.997 151.608 500.048 151.066 500.048H149.93V502.187H165.298V500.048H164.162C163.62 500.048 163.073 499.997 162.583 499.945C162.088 499.842 161.692 499.691 161.297 499.438C160.948 499.179 160.656 498.775 160.458 498.315C160.208 497.807 160.109 497.196 160.109 496.383V468.385Z" fill="#58595B"/>
<path d="M195.886 501.928C197.417 501.472 198.704 500.707 199.693 499.79C200.73 498.874 201.521 497.704 202.016 496.383C202.558 495.006 202.808 493.479 202.808 491.801V471.641C202.808 470.828 202.907 470.217 203.152 469.71C203.35 469.249 203.647 468.892 203.991 468.587C204.339 468.333 204.782 468.182 205.277 468.079C205.772 468.027 206.314 467.976 206.86 467.976H207.501V465.838H195.098V467.976H195.739C196.281 467.976 196.776 468.027 197.271 468.079C197.766 468.182 198.209 468.333 198.605 468.587C198.953 468.845 199.25 469.198 199.444 469.658C199.693 470.114 199.792 470.725 199.792 471.491V491.9C199.792 493.075 199.641 494.193 199.297 495.161C198.953 496.129 198.458 496.994 197.766 497.704C197.073 498.418 196.234 498.977 195.193 499.334C194.156 499.743 192.921 499.945 191.489 499.945C190.301 499.945 189.166 499.79 188.176 499.485C187.187 499.179 186.3 498.723 185.556 498.061C184.816 497.398 184.274 496.585 183.878 495.518C183.431 494.499 183.233 493.225 183.233 491.75V471.641C183.233 470.88 183.332 470.217 183.581 469.761C183.779 469.249 184.076 468.892 184.42 468.638C184.816 468.333 185.212 468.182 185.707 468.079C186.201 468.027 186.744 467.976 187.286 467.976H187.931V465.838H173.549V467.976H174.19C174.736 467.976 175.278 468.027 175.721 468.079C176.216 468.182 176.664 468.333 177.055 468.587C177.404 468.845 177.7 469.198 177.898 469.606C178.144 470.067 178.242 470.678 178.242 471.439V491.19C178.242 493.277 178.539 495.058 179.081 496.482C179.628 497.958 180.467 499.132 181.555 500.048C182.592 500.965 183.926 501.623 185.457 502.083C186.993 502.492 188.77 502.694 190.697 502.694C192.676 502.694 194.406 502.44 195.886 501.928Z" fill="#58595B"/>
<path d="M239.862 502.187V471.641C239.862 470.828 239.961 470.217 240.159 469.71C240.404 469.249 240.654 468.845 241.05 468.587C241.394 468.333 241.841 468.182 242.336 468.079C242.826 468.027 243.373 467.976 243.915 467.976H244.556V465.838H232.153V467.976H232.794C233.34 467.976 233.835 468.027 234.325 468.079C234.82 468.182 235.267 468.333 235.663 468.587C236.007 468.845 236.304 469.198 236.502 469.606C236.747 470.067 236.846 470.678 236.846 471.439V493.991L219.156 465.838H210.108V467.976H210.754C211.296 467.976 211.838 468.027 212.285 468.079C212.78 468.182 213.223 468.333 213.619 468.587C213.963 468.845 214.26 469.198 214.458 469.606C214.707 470.067 214.806 470.678 214.806 471.439V496.383C214.806 497.196 214.707 497.807 214.51 498.315C214.26 498.775 214.015 499.179 213.619 499.438C213.275 499.691 212.827 499.842 212.333 499.945C211.838 499.997 211.296 500.048 210.754 500.048H210.108V502.187H222.516V500.048H221.875C221.328 500.048 220.786 499.997 220.292 499.945C219.797 499.842 219.401 499.691 219.005 499.438C218.661 499.179 218.364 498.775 218.166 498.315C217.917 497.807 217.822 497.196 217.822 496.383V472.863L236.352 502.187H239.862Z" fill="#58595B"/>
<path d="M271.554 502.135C273.335 501.726 275.013 501.167 276.695 500.354V491.289C276.695 490.476 276.794 489.865 276.94 489.358C277.138 488.897 277.387 488.493 277.684 488.239C277.981 487.981 278.377 487.83 278.768 487.727C279.164 487.675 279.612 487.628 280.106 487.628H280.304V485.49H267.454V487.628H267.652C268.194 487.628 268.689 487.675 269.183 487.727C269.678 487.83 270.121 487.981 270.517 488.239C270.861 488.493 271.158 488.85 271.356 489.306C271.605 489.766 271.704 490.326 271.704 491.087V499.334C271.012 499.536 270.22 499.691 269.33 499.79C268.439 499.894 267.501 499.945 266.563 499.945C264.287 499.945 262.412 499.588 260.828 498.926C259.297 498.216 258.011 497.196 257.025 495.824C256.036 494.499 255.343 492.817 254.9 490.833C254.453 488.85 254.255 486.609 254.255 484.062C254.255 481.519 254.453 479.226 254.9 477.243C255.296 475.255 255.984 473.577 256.926 472.201C257.817 470.88 259.052 469.809 260.532 469.15C261.969 468.436 263.797 468.079 265.871 468.079C267.058 468.079 268.095 468.281 268.934 468.638C269.777 469.047 270.418 469.555 270.96 470.166C271.455 470.777 271.851 471.491 272.049 472.252C272.294 473.018 272.393 473.78 272.393 474.597C273.038 474.597 273.632 474.494 274.225 474.339C274.767 474.188 275.262 473.934 275.658 473.629C276.054 473.323 276.398 472.966 276.643 472.506C276.893 472.102 276.992 471.59 276.992 471.03C276.992 470.217 276.742 469.456 276.299 468.793C275.856 468.079 275.163 467.468 274.273 466.961C273.382 466.449 272.246 466.044 270.861 465.79C269.527 465.485 267.897 465.33 266.069 465.33C263.251 465.33 260.73 465.79 258.557 466.707C256.432 467.623 254.603 468.892 253.171 470.523C251.686 472.153 250.598 474.137 249.858 476.43C249.118 478.718 248.77 481.214 248.77 483.963C248.77 486.759 249.118 489.306 249.806 491.646C250.499 493.939 251.54 495.923 252.973 497.553C254.354 499.179 256.135 500.453 258.26 501.369C260.385 502.234 262.906 502.694 265.772 502.694C267.897 502.694 269.824 502.492 271.554 502.135Z" fill="#58595B"/>
<path d="M469.323 426.546C460.242 429.48 455.393 481.072 446.251 502.234H488.451C480.449 475.75 477.872 423.78 469.323 426.546Z" fill="#8CC140"/>
<path d="M467.752 164.36C501.49 164.36 528.821 192.513 528.821 227.253C528.821 261.993 501.49 290.15 467.752 290.15C434.032 290.15 406.679 261.993 406.679 227.253C406.679 192.513 434.032 164.36 467.752 164.36ZM417.12 294.289C433.046 287.341 453.813 301.882 469.322 299.71C484.836 297.537 507.9 287.698 523.396 292.112C534.38 295.24 541.177 301.478 545.217 309.304C540.278 270.545 521.641 199.556 588.69 170.31C614.068 159.24 647.161 182.42 671.915 178.961C696.648 175.489 733.415 159.804 758.109 166.846C767.191 169.432 775.972 174.237 781.866 179.189V0H720.956C742.866 16.7569 757.089 43.5636 757.089 73.8293C757.089 124.599 717.135 165.758 667.824 165.758C618.534 165.758 578.584 124.599 578.584 73.8293C578.584 43.5636 592.807 16.7569 614.718 0H294.237V502.234H423.965C405.822 474.889 391.84 401.52 390.266 384.948C388.063 361.644 373.001 313.533 417.12 294.289Z" fill="#8CC140"/>
<path d="M545.019 376.258C542.386 393.247 531.131 469.482 514.104 502.234H602.702C577.737 465.803 558.463 387.358 550.13 342.538C549.209 355.599 546.284 368.162 545.019 376.258Z" fill="#8CC140"/>
<path d="M671.917 381.18C658.275 385.589 652.66 465.244 639.212 502.234H702.983C690.111 463.493 685.628 376.744 671.917 381.18Z" fill="#8CC140"/>
<path d="M781.867 363.051C770.854 411.076 753.125 471.788 734.909 502.234H781.867V363.051Z" fill="#8CC140"/>
</svg>
