<svg width="28" height="29" viewBox="0 0 28 29" fill="none" xmlns="http://www.w3.org/2000/svg">
<path d="M14 18C15.2081 18 16.1875 17.0206 16.1875 15.8125C16.1875 14.6044 15.2081 13.625 14 13.625C12.7919 13.625 11.8125 14.6044 11.8125 15.8125C11.8125 17.0206 12.7919 18 14 18Z" stroke="#000004" stroke-width="1.5" stroke-linecap="round" stroke-linejoin="round"/>
<path d="M14 18V20.625" stroke="#000004" stroke-width="1.5" stroke-linecap="round" stroke-linejoin="round"/>
<path d="M22.75 10.125H5.25C4.76675 10.125 4.375 10.5168 4.375 11V23.25C4.375 23.7332 4.76675 24.125 5.25 24.125H22.75C23.2332 24.125 23.625 23.7332 23.625 23.25V11C23.625 10.5168 23.2332 10.125 22.75 10.125Z" stroke="#000004" stroke-width="1.5" stroke-linecap="round" stroke-linejoin="round"/>
<path d="M10.0625 10.125V6.1875C10.0625 5.14321 10.4773 4.14169 11.2158 3.40327C11.9542 2.66484 12.9557 2.25 14 2.25C15.0443 2.25 16.0458 2.66484 16.7842 3.40327C17.5227 4.14169 17.9375 5.14321 17.9375 6.1875" stroke="#000004" stroke-width="1.5" stroke-linecap="round" stroke-linejoin="round"/>
</svg>
