<svg width="157" height="32" viewBox="0 0 157 32" fill="none" xmlns="http://www.w3.org/2000/svg">
<path d="M41.2101 7.21853C42.8396 7.21853 44.281 7.60524 45.5345 8.37865C46.8088 9.15207 47.7802 10.2585 48.4487 11.6979C49.1381 13.1373 49.4724 14.813 49.4515 16.7251H35.7262C35.8098 18.3364 36.3947 19.6469 37.4811 20.6566C38.5674 21.6448 39.9044 22.139 41.4921 22.139C42.7455 22.139 43.8005 21.8489 44.657 21.2689C45.5345 20.6673 46.1716 19.9261 46.5686 19.0453L48.9814 19.3353C48.5427 20.7962 47.634 22.0208 46.2552 23.0091C44.8973 23.9973 43.2991 24.4914 41.4608 24.4914C39.8522 24.4914 38.4003 24.137 37.105 23.428C35.8307 22.6975 34.8279 21.6878 34.0968 20.3988C33.3656 19.0883 33 17.5737 33 15.855C33 14.2437 33.3551 12.7828 34.0654 11.4723C34.7757 10.1618 35.7471 9.13058 36.9797 8.37865C38.2331 7.60524 39.6433 7.21853 41.2101 7.21853ZM41.2101 9.53877C39.7268 9.53877 38.4629 10.0114 37.4184 10.9567C36.3947 11.902 35.8307 13.1051 35.7262 14.566H46.5999C46.579 13.6207 46.3283 12.7721 45.8478 12.0201C45.3882 11.2467 44.7511 10.6452 43.9363 10.2155C43.1425 9.76435 42.2337 9.53877 41.2101 9.53877Z" fill="#000004"/>
<path d="M52.105 0H54.8313V24.1692H52.105V0Z" fill="#000004"/>
<path d="M66.1074 24.4914C64.4988 24.4914 63.0364 24.1155 61.7203 23.3635C60.4042 22.6116 59.3701 21.5804 58.618 20.2699C57.866 18.9379 57.4899 17.4663 57.4899 15.855C57.4899 14.2437 57.866 12.7828 58.618 11.4723C59.3701 10.1403 60.4042 9.09836 61.7203 8.34643C63.0364 7.5945 64.4988 7.21853 66.1074 7.21853C67.716 7.21853 69.1679 7.5945 70.4631 8.34643C71.7792 9.09836 72.8133 10.1403 73.5654 11.4723C74.3174 12.7828 74.6935 14.2437 74.6935 15.855C74.6935 17.4663 74.3174 18.9379 73.5654 20.2699C72.8133 21.5804 71.7792 22.6116 70.4631 23.3635C69.1679 24.1155 67.716 24.4914 66.1074 24.4914ZM66.1074 21.9456C67.2146 21.9456 68.2173 21.6771 69.1156 21.14C70.0139 20.6029 70.7242 19.8724 71.2465 18.9486C71.7688 18.0034 72.0299 16.9614 72.0299 15.8228C72.0299 14.6841 71.7688 13.6529 71.2465 12.7291C70.7242 11.8053 70.0139 11.0856 69.1156 10.57C68.2173 10.0329 67.2146 9.76435 66.1074 9.76435C65.0002 9.76435 63.987 10.0329 63.0678 10.57C62.1695 11.0856 61.4592 11.8053 60.9369 12.7291C60.4146 13.6529 60.1535 14.6841 60.1535 15.8228C60.1535 16.9614 60.4146 18.0034 60.9369 18.9486C61.4592 19.8724 62.1695 20.6029 63.0678 21.14C63.987 21.6771 65.0002 21.9456 66.1074 21.9456Z" fill="#000004"/>
<path d="M86.5101 7.25076C88.1187 7.25076 89.5289 7.63746 90.7405 8.41088C91.9731 9.16281 92.9236 10.2048 93.5921 11.5368C94.2606 12.8473 94.5949 14.3082 94.5949 15.9194C94.5949 17.5522 94.2502 19.0238 93.5608 20.3343C92.8923 21.6234 91.9313 22.6438 90.6778 23.3958C89.4453 24.1262 88.0143 24.4914 86.3848 24.4914C84.9851 24.4914 83.7108 24.1477 82.5618 23.4602C81.4337 22.7513 80.5563 21.7738 79.9296 20.5277V31.5811H77.2033V7.57301H79.5222L79.9296 11.3756V11.4401C80.4518 10.1511 81.2874 9.13058 82.4364 8.37865C83.5854 7.62672 84.9433 7.25076 86.5101 7.25076ZM85.8521 21.9778C87.0011 21.9778 88.0247 21.72 88.923 21.2044C89.8422 20.6673 90.5525 19.9369 91.0539 19.0131C91.5762 18.0893 91.8373 17.0473 91.8373 15.8872C91.8373 14.7056 91.5762 13.6529 91.0539 12.7291C90.5525 11.8053 89.8422 11.0856 88.923 10.57C88.0247 10.0329 87.0011 9.76435 85.8521 9.76435C84.724 9.76435 83.7108 10.0329 82.8125 10.57C81.9142 11.1071 81.2143 11.8483 80.713 12.7936C80.2116 13.7174 79.9609 14.7486 79.9609 15.8872C79.9609 17.0258 80.2116 18.0571 80.713 18.9809C81.2143 19.9047 81.9142 20.6351 82.8125 21.1722C83.7108 21.7093 84.724 21.9778 85.8521 21.9778Z" fill="#000004"/>
<path d="M111.776 7.57301H114.126V24.1692H111.368V20.2699C110.867 21.5589 110.031 22.5901 108.861 23.3635C107.712 24.1155 106.354 24.4914 104.788 24.4914C103.2 24.4914 101.79 24.1155 100.557 23.3635C99.3248 22.5901 98.3742 21.5482 97.7057 20.2377C97.0372 18.9057 96.703 17.434 96.703 15.8228C96.703 14.19 97.0372 12.7184 97.7057 11.4079C98.3951 10.0973 99.3665 9.07687 100.62 8.34643C101.873 7.5945 103.315 7.21853 104.944 7.21853C106.323 7.21853 107.577 7.57301 108.705 8.28197C109.854 8.99094 110.742 9.9577 111.368 11.1823V11.3434L111.776 7.57301ZM105.446 21.9778C106.574 21.9778 107.587 21.7093 108.485 21.1722C109.384 20.6351 110.084 19.9047 110.585 18.9809C111.086 18.0356 111.337 16.9936 111.337 15.855C111.337 14.7163 111.086 13.6851 110.585 12.7613C110.084 11.8375 109.384 11.1071 108.485 10.57C107.587 10.0329 106.574 9.76435 105.446 9.76435C104.297 9.76435 103.273 10.0329 102.375 10.57C101.477 11.0856 100.766 11.8053 100.244 12.7291C99.7426 13.6529 99.4919 14.6949 99.4919 15.855C99.4919 17.0366 99.7426 18.0893 100.244 19.0131C100.766 19.9369 101.477 20.6673 102.375 21.2044C103.273 21.72 104.297 21.9778 105.446 21.9778Z" fill="#000004"/>
<path d="M131.745 7.57301H134.032V22.6868C134.032 25.673 133.291 27.9718 131.807 29.5831C130.345 31.1944 128.287 32 125.634 32C124.339 32 123.054 31.8174 121.78 31.4522C120.526 31.0869 119.45 30.5713 118.552 29.9053V27.3595C119.346 27.9181 120.307 28.423 121.435 28.8741C122.563 29.3253 123.796 29.5509 125.133 29.5509C127.096 29.5509 128.611 28.9923 129.676 27.8751C130.763 26.758 131.306 25.0285 131.306 22.6868V20.2699C130.805 21.5589 129.969 22.5901 128.799 23.3635C127.65 24.1155 126.292 24.4914 124.725 24.4914C123.138 24.4914 121.727 24.1155 120.495 23.3635C119.262 22.5901 118.312 21.5482 117.643 20.2377C116.975 18.9057 116.641 17.434 116.641 15.8228C116.641 14.19 116.975 12.7184 117.643 11.4079C118.333 10.0973 119.304 9.07687 120.558 8.34643C121.811 7.5945 123.253 7.21853 124.882 7.21853C126.261 7.21853 127.514 7.57301 128.642 8.28197C129.791 8.99094 130.679 9.9577 131.306 11.1823V11.3756L131.745 7.57301ZM125.383 21.9778C126.511 21.9778 127.525 21.7093 128.423 21.1722C129.321 20.6351 130.021 19.9047 130.522 18.9809C131.024 18.0356 131.275 16.9936 131.275 15.855C131.275 14.7163 131.024 13.6851 130.522 12.7613C130.021 11.8375 129.321 11.1071 128.423 10.57C127.525 10.0329 126.511 9.76435 125.383 9.76435C124.234 9.76435 123.211 10.0329 122.312 10.57C121.414 11.0856 120.704 11.8053 120.182 12.7291C119.68 13.6529 119.43 14.6949 119.43 15.855C119.43 17.0366 119.68 18.0893 120.182 19.0131C120.704 19.9369 121.414 20.6673 122.312 21.2044C123.211 21.72 124.234 21.9778 125.383 21.9778Z" fill="#000004"/>
<path d="M144.758 7.21853C146.387 7.21853 147.829 7.60524 149.082 8.37865C150.356 9.15207 151.328 10.2585 151.996 11.6979C152.686 13.1373 153.02 14.813 152.999 16.7251H139.274C139.357 18.3364 139.942 19.6469 141.029 20.6566C142.115 21.6448 143.452 22.139 145.04 22.139C146.293 22.139 147.348 21.8489 148.205 21.2689C149.082 20.6673 149.719 19.9261 150.116 19.0453L152.529 19.3353C152.09 20.7962 151.182 22.0208 149.803 23.0091C148.445 23.9973 146.847 24.4914 145.008 24.4914C143.4 24.4914 141.948 24.137 140.653 23.428C139.378 22.6975 138.376 21.6878 137.644 20.3988C136.913 19.0883 136.548 17.5737 136.548 15.855C136.548 14.2437 136.903 12.7828 137.613 11.4723C138.323 10.1618 139.295 9.13058 140.527 8.37865C141.781 7.60524 143.191 7.21853 144.758 7.21853ZM144.758 9.53877C143.274 9.53877 142.011 10.0114 140.966 10.9567C139.942 11.902 139.378 13.1051 139.274 14.566H150.147C150.127 13.6207 149.876 12.7721 149.395 12.0201C148.936 11.2467 148.299 10.6452 147.484 10.2155C146.69 9.76435 145.781 9.53877 144.758 9.53877Z" fill="#000004"/>
<g clip-path="url(#clip0_702_25282)">
<path d="M19.8194 25.8196C19.1084 26.5305 18.1258 26.9705 17.0404 26.9698C16.3958 26.9698 15.7882 26.8148 15.2511 26.5396C14.5164 26.1632 13.9157 25.5625 13.5393 24.8278C13.2655 24.2907 13.1104 23.6838 13.1104 23.0399V22.9372C13.1195 22.567 13.1803 22.2094 13.285 21.8728C13.285 21.8714 13.2857 21.87 13.285 21.8693C13.4736 21.2582 13.5749 20.6087 13.5756 19.9354C13.5756 19.0763 13.4101 18.2557 13.1097 17.5028C12.7766 16.6661 12.2758 15.9146 11.6501 15.2881C11.0243 14.6616 10.2721 14.1609 9.43537 13.8284C8.68248 13.5281 7.86184 13.3633 7.00278 13.3626C6.32951 13.3626 5.67998 13.4646 5.06887 13.6531C5.06887 13.6531 5.06677 13.6531 5.06538 13.6531C4.72874 13.7579 4.37185 13.8187 4.00099 13.8277H3.89832C3.25508 13.8277 2.64746 13.6734 2.11037 13.3989C1.37564 13.0225 0.775001 12.4218 0.398555 11.6871C0.124775 11.1521 -0.0302734 10.5445 -0.0302734 9.89914C-0.0302734 8.8138 0.409031 7.83113 1.12002 7.12014C1.83101 6.40915 2.81438 5.96985 3.89902 5.96985L20.83 5.96985C20.9069 5.96985 20.9697 6.03271 20.9697 6.10953V23.0406C20.9697 24.1259 20.5304 25.1086 19.8187 25.8203L19.8194 25.8196Z" fill="#2BFF99"/>
<path d="M7.2185 23.3636C9.17186 23.3636 10.7554 21.7801 10.7554 19.8267C10.7554 17.8734 9.17186 16.2899 7.2185 16.2899C5.26515 16.2899 3.68164 17.8734 3.68164 19.8267C3.68164 21.7801 5.26515 23.3636 7.2185 23.3636Z" fill="#2BFF99"/>
</g>
<defs>
<clipPath id="clip0_702_25282">
<rect width="21" height="21" fill="white" transform="translate(0 6)"/>
</clipPath>
</defs>
</svg>
