<svg width="324" height="94" viewBox="0 0 324 94" fill="none" xmlns="http://www.w3.org/2000/svg">
<path d="M203.629 75.5205H209.189V81.1205H203.629V75.5205Z" fill="white"/>
<path d="M169.676 60.3203H174.876L180.876 75.2403L186.636 60.3203H191.716L179.716 89.7203H174.756L178.356 80.8003L169.676 60.3203Z" fill="white"/>
<path d="M140.528 59.4805C146.648 59.4805 150.488 63.8405 150.488 70.2005C150.488 70.8005 150.448 71.3205 150.368 72.0405H134.928C135.408 76.0005 137.768 77.7205 140.928 77.7205C143.848 77.7205 145.728 76.5605 146.848 74.0005L150.168 76.9605C148.208 80.1205 144.648 81.6005 140.808 81.6005C134.248 81.6005 130.088 77.0805 130.088 70.6405C130.088 64.2005 134.488 59.4805 140.528 59.4805ZM134.968 68.6805H145.528C145.528 65.4805 143.648 63.3605 140.448 63.3605C137.728 63.3605 135.528 65.0805 134.968 68.6805Z" fill="white"/>
<path d="M121.098 51.5996H125.698V80.9996H121.098V51.5996Z" fill="white"/>
<path d="M94.3398 51.5996H98.9398V62.7196C100.58 60.7596 102.98 59.4796 106.18 59.4796C112.46 59.4796 116.7 64.3196 116.7 70.5996C116.7 76.8396 112.42 81.5996 106.18 81.5996C102.94 81.5996 100.54 80.3196 98.8998 78.3596V80.9996H94.3398V51.5996ZM98.7798 70.5996C98.7798 74.6396 101.58 77.3996 105.34 77.3996C109.26 77.3996 111.94 74.5596 111.94 70.5996C111.94 66.5596 109.26 63.6396 105.34 63.6396C101.58 63.6396 98.7798 66.5196 98.7798 70.5996Z" fill="white"/>
<path d="M70.3301 75.5595C70.3301 71.9995 73.0501 69.9595 77.2501 69.1995C83.2501 68.1595 84.1701 67.9995 84.1701 66.0795C84.1701 64.0395 82.2901 63.1195 79.8501 63.1195C76.8901 63.1195 74.8101 64.7995 74.8101 67.7595L70.7301 66.1595C71.3301 62.2395 75.0101 59.5195 79.8501 59.5195C85.2501 59.5195 88.6501 62.0395 88.6501 66.6795V76.8795L89.3701 80.9995H85.2901L84.4101 78.4395C82.8901 80.5195 80.2901 81.5595 77.4101 81.5595C73.2501 81.5595 70.3301 79.2795 70.3301 75.5595ZM75.1701 75.3195C75.1701 76.8795 76.3701 78.0795 78.4501 78.0795C82.2101 78.0795 84.1701 75.7195 84.1701 72.6395V70.8395C83.5301 71.3995 82.3301 71.5595 78.5301 72.2795C76.5701 72.6795 75.1701 73.4795 75.1701 75.3195Z" fill="white"/>
<path d="M42.1504 60.1997H46.7504V63.4797C48.2704 60.4797 50.7504 59.7197 52.6704 59.7197C53.3904 59.7197 53.8704 59.7597 54.5104 59.9997V64.5597C53.7104 64.3197 53.0304 64.1997 52.1504 64.1997C48.9504 64.1997 46.7504 66.3597 46.7504 70.9597V80.9997H42.1504V60.1997Z" fill="white"/>
<path d="M36.7202 60.2005V81.0005H32.1202V78.4805C30.7202 80.6805 28.5202 81.6005 25.8802 81.6005C21.0802 81.6005 18.1602 78.5205 18.1602 73.4405V60.2005H22.7602V72.8405C22.7602 76.0405 24.1602 77.6405 26.9602 77.6405C30.3202 77.6405 32.1202 75.2805 32.1202 71.5205V60.2005H36.7202ZM21.0002 57.2805V52.4805H25.8002V57.2805H21.0002ZM29.1202 57.2805V52.4805H33.9202V57.2805H29.1202Z" fill="white"/>
<path d="M10.48 50.8799C11.6 50.8799 12.8 50.9599 13.84 51.2399V55.1599C13.08 54.9999 12.2 54.9199 11.4 54.9199C9.47999 54.9199 8.36002 55.8799 8.36002 58.0799V60.1999H14.36V64.1199H8.36002V80.9999H3.76001V64.1199H0V60.1999H3.76001V57.9599C3.76001 53.8399 6.40001 50.8799 10.48 50.8799Z" fill="white"/>
<path d="M312.491 2.95996H317.091V9.19996H323.012V13.16H317.091V23.28C317.091 25.84 318.091 26.36 320.171 26.36C320.811 26.36 322.011 26.2 322.691 26.04V30.08C322.011 30.36 320.171 30.52 319.491 30.52C314.971 30.52 312.491 28.64 312.491 23.88V13.16H308.771V9.19996H312.491V2.95996Z" fill="white"/>
<path d="M300.491 9.19961H305.091V29.9996H300.491V9.19961ZM300.291 5.43961V0.599609H305.251V5.43961H300.291Z" fill="white"/>
<path d="M286.02 8.48047C292.14 8.48047 295.98 12.8405 295.98 19.2005C295.98 19.8005 295.94 20.3205 295.86 21.0405H280.42C280.9 25.0005 283.26 26.7205 286.42 26.7205C289.34 26.7205 291.22 25.5605 292.34 23.0005L295.66 25.9605C293.7 29.1205 290.14 30.6005 286.3 30.6005C279.74 30.6005 275.58 26.0805 275.58 19.6405C275.58 13.2005 279.98 8.48047 286.02 8.48047ZM280.46 17.6805H291.02C291.02 14.4805 289.14 12.3605 285.94 12.3605C283.22 12.3605 281.02 14.0805 280.46 17.6805Z" fill="white"/>
<path d="M261.508 9.19973H266.108V12.4797C267.628 9.47973 270.108 8.71973 272.028 8.71973C272.748 8.71973 273.228 8.75973 273.868 8.99973V13.5597C273.068 13.3197 272.388 13.1997 271.508 13.1997C268.308 13.1997 266.108 15.3597 266.108 19.9597V29.9997H261.508V9.19973Z" fill="white"/>
<path d="M247.036 8.48047C253.156 8.48047 256.996 12.8405 256.996 19.2005C256.996 19.8005 256.956 20.3205 256.876 21.0405H241.436C241.916 25.0005 244.276 26.7205 247.436 26.7205C250.356 26.7205 252.236 25.5605 253.356 23.0005L256.676 25.9605C254.716 29.1205 251.156 30.6005 247.316 30.6005C240.756 30.6005 236.596 26.0805 236.596 19.6405C236.596 13.2005 240.996 8.48047 247.036 8.48047ZM241.476 17.6805H252.036C252.036 14.4805 250.156 12.3605 246.956 12.3605C244.236 12.3605 242.036 14.0805 241.476 17.6805Z" fill="white"/>
<path d="M211.277 0.599609H215.877V11.7196C217.517 9.75961 219.917 8.47961 223.117 8.47961C229.397 8.47961 233.637 13.3196 233.637 19.5996C233.637 25.8396 229.357 30.5996 223.117 30.5996C219.877 30.5996 217.477 29.3196 215.837 27.3596V29.9996H211.277V0.599609ZM215.717 19.5996C215.717 23.6396 218.517 26.3996 222.277 26.3996C226.197 26.3996 228.877 23.5596 228.877 19.5996C228.877 15.5596 226.197 12.6396 222.277 12.6396C218.517 12.6396 215.717 15.5196 215.717 19.5996Z" fill="white"/>
<path d="M188.922 8.47961C194.002 8.47961 196.722 11.7196 196.722 17.5596V29.9996H192.122V18.1996C192.122 14.4396 190.722 12.7196 187.642 12.7196C184.362 12.7196 182.362 14.9596 182.362 18.9196V29.9996H177.762V0.599609H182.362V11.9196C183.642 9.75961 185.762 8.47961 188.922 8.47961Z" fill="white"/>
<path d="M163.889 8.48047C168.369 8.48047 172.129 10.9605 173.489 14.2805L169.409 16.6805C168.849 14.1605 166.489 12.6805 163.889 12.6805C160.089 12.6805 157.489 15.2805 157.489 19.5605C157.489 23.8005 160.009 26.3605 163.889 26.3605C166.529 26.3605 168.809 24.6805 169.449 22.4805L173.409 24.8405C172.009 28.1205 168.369 30.6005 163.889 30.6005C157.249 30.6005 152.729 26.1205 152.729 19.5605C152.729 13.0405 157.409 8.48047 163.889 8.48047Z" fill="white"/>
<path d="M143.929 9.19961H148.529V29.9996H143.929V9.19961ZM143.729 5.43961V0.599609H148.689V5.43961H143.729Z" fill="white"/>
<path d="M138.292 0.599609V29.9996H133.732V27.3596C132.092 29.3196 129.692 30.5996 126.452 30.5996C120.212 30.5996 115.932 25.8396 115.932 19.5996C115.932 13.3196 120.172 8.47961 126.452 8.47961C129.652 8.47961 132.052 9.75961 133.692 11.7196V0.599609H138.292ZM120.692 19.5996C120.692 23.5596 123.372 26.3996 127.292 26.3996C131.052 26.3996 133.852 23.6396 133.852 19.5996C133.852 15.5196 131.052 12.6396 127.292 12.6396C123.372 12.6396 120.692 15.5596 120.692 19.5996Z" fill="white"/>
<path d="M95.0155 8.47961C100.095 8.47961 102.815 11.7196 102.815 17.5596V29.9996H98.2155V18.1996C98.2155 14.4396 96.8155 12.7196 93.7355 12.7196C90.4555 12.7196 88.4555 14.9596 88.4555 18.9196V29.9996H83.8555V0.599609H88.4555V11.9196C89.7355 9.75961 91.8555 8.47961 95.0155 8.47961Z" fill="white"/>
<path d="M69.9823 8.48047C74.4623 8.48047 78.2223 10.9605 79.5823 14.2805L75.5023 16.6805C74.9423 14.1605 72.5823 12.6805 69.9823 12.6805C66.1823 12.6805 63.5823 15.2805 63.5823 19.5605C63.5823 23.8005 66.1023 26.3605 69.9823 26.3605C72.6223 26.3605 74.9023 24.6805 75.5423 22.4805L79.5023 24.8405C78.1023 28.1205 74.4623 30.6005 69.9823 30.6005C63.3423 30.6005 58.8223 26.1205 58.8223 19.5605C58.8223 13.0405 63.5023 8.48047 69.9823 8.48047Z" fill="white"/>
<path d="M36.252 24.5595C36.252 20.9995 38.972 18.9595 43.172 18.1995C49.172 17.1595 50.092 16.9995 50.092 15.0795C50.092 13.0395 48.212 12.1195 45.772 12.1195C42.812 12.1195 40.732 13.7995 40.732 16.7595L36.652 15.1595C37.252 11.2395 40.932 8.51953 45.772 8.51953C51.172 8.51953 54.572 11.0395 54.572 15.6795V25.8795L55.292 29.9995H51.212L50.332 27.4395C48.812 29.5195 46.212 30.5595 43.332 30.5595C39.172 30.5595 36.252 28.2795 36.252 24.5595ZM41.092 24.3195C41.092 25.8795 42.292 27.0795 44.372 27.0795C48.132 27.0795 50.092 24.7195 50.092 21.6395V19.8395C49.452 20.3995 48.252 20.5595 44.452 21.2795C42.492 21.6795 41.092 22.4795 41.092 24.3195Z" fill="white"/>
<path d="M0 0.599609H7.4L15.56 24.3596L23.72 0.599609H31.04V29.9996H26.36V5.71961L18.16 29.7196H12.8L4.68 5.75961V29.9996H0V0.599609Z" fill="white"/>
<rect x="61.2138" y="46.5849" width="136.83" height="46.8301" rx="23.4151" stroke="white" stroke-width="1.16987"/>
<path d="M163.72 51C164.84 51 166.04 51.08 167.08 51.36V55.28C166.32 55.12 165.44 55.04 164.64 55.04C162.72 55.04 161.6 56 161.6 58.2V60.32H167.6V64.24H161.6V81.12H157V64.24H153.24V60.32H157V58.08C157 53.96 159.64 51 163.72 51Z" fill="white"/>
</svg>
