<svg width="32" height="32" viewBox="0 0 32 32" fill="none" xmlns="http://www.w3.org/2000/svg">
<path d="M10.932 26.9519C14.22 26.9519 16.8855 24.2865 16.8855 20.9984C16.8855 17.7103 14.22 15.0449 10.932 15.0449C7.64402 15.0449 4.97852 17.7105 4.97852 20.9984C4.97852 24.2863 7.64398 26.9519 10.932 26.9519Z" fill="#2BFF99"/>
<path d="M30.2472 30.2472C29.1638 31.3306 27.6664 32.0011 26.0125 32C25.0302 32 24.1043 31.7637 23.2858 31.3444C22.1663 30.7707 21.251 29.8555 20.6775 28.7359C20.2602 27.9175 20.0239 26.9927 20.0239 26.0114V25.855C20.0378 25.2909 20.1304 24.746 20.29 24.2331C20.29 24.2309 20.2911 24.2288 20.29 24.2277C20.5774 23.2965 20.7317 22.3067 20.7328 21.2809C20.7328 19.9718 20.4805 18.7212 20.0228 17.5741C19.5153 16.299 18.7521 15.1539 17.7986 14.1993C16.845 13.2447 15.6989 12.4816 14.4238 11.9749C13.2765 11.5174 12.0261 11.2662 10.717 11.2651C9.6911 11.2651 8.70135 11.4205 7.77012 11.7079H7.7648C7.25183 11.8675 6.70799 11.9601 6.14287 11.974H5.98643C5.00625 11.974 4.08035 11.7387 3.26194 11.3204C2.14234 10.7468 1.22708 9.83156 0.653452 8.71194C0.236264 7.89681 0 6.97091 0 5.98747C0 4.33364 0.669415 2.83622 1.75283 1.75283C2.83624 0.66942 4.33471 0 5.9875 0H31.7872C31.9042 0 32 0.0957771 32 0.21285V26.0125C32 27.6664 31.3306 29.1638 30.2461 30.2482L30.2472 30.2472Z" fill="#2BFF99"/>
</svg>
