<svg width="131" height="25" viewBox="0 0 131 25" fill="none" xmlns="http://www.w3.org/2000/svg">
<g clip-path="url(#clip0_8838_4352)">
<path d="M22.0906 6.90352V3.00037H24.4824V6.83309C24.4824 7.91599 24.8991 8.32098 25.5682 8.32098C26.2374 8.32098 26.6512 7.91599 26.6512 6.83309V3.00037H28.9989V6.90352C28.9989 9.03118 27.7223 10.2579 25.5448 10.2579C23.3672 10.2579 22.0906 9.03118 22.0906 6.90352ZM43.2528 3.00037V10.0935H41.2865L38.5925 6.86537V10.0935H36.2623V3.00037H38.2286L40.9226 6.22854V3.00037H43.2528ZM50.5719 3.00037H52.9637V8.24175H56.1655V10.0935H50.5719V3.00037ZM62.8008 3.00037H65.1809V10.0935H62.7891L62.8008 3.00037ZM78.8302 10.0935L78.8096 6.86537L77.2689 9.45965H76.2153L74.6746 6.97689V10.0935H72.4941V3.00037H74.4604L76.7729 6.78026L79.0209 3.00037H80.9872L81.0077 10.0935H78.8302ZM88.3269 3.00037H90.7128V10.0935H88.321L88.3269 3.00037ZM99.4024 4.8551H97.3247V3.00037H103.872V4.8551H101.794V10.0935H99.4024V4.8551ZM116.386 8.29164V10.0935H110.487V3.00037H116.245V4.80521H112.838V5.63573H115.837V7.3584H112.838V8.29164H116.386ZM123.499 3.00917H126.997C129.369 3.00917 131 4.35913 131 6.55723C131 8.75532 129.369 10.1023 126.997 10.1023H123.499V3.00917ZM126.895 8.23881C127.898 8.23881 128.588 7.65187 128.588 6.55723C128.588 5.46258 127.898 4.87564 126.895 4.87564H125.891V8.23001L126.895 8.23881ZM22.3107 15.9277H25.128C27.1589 15.9277 28.5499 17.1515 28.5499 19.0297C28.5499 20.9079 27.1589 22.1317 25.128 22.1317H22.3107V15.9277ZM25.0576 20.9519C26.2902 20.9519 27.0972 20.2183 27.0972 19.0297C27.0972 17.8412 26.2902 17.1075 25.0576 17.1075H23.7458V20.9519H25.0576ZM35.2029 17.2865V18.5631C35.0855 18.5631 34.9974 18.5455 34.8918 18.5455C34.1288 18.5455 33.624 18.9622 33.624 19.8749V22.1258H32.2418V17.354H33.5624V17.985C33.8999 17.5242 34.4663 17.2865 35.2029 17.2865ZM43.7282 21.2924L44.1185 20.8492C44.4002 21.3188 44.9079 21.6093 45.4567 21.6123C46.2198 21.6123 46.6101 21.1603 46.6101 20.2476V16.4853H44.3445V15.9189H47.2586V20.2212C47.2586 21.5301 46.6394 22.1787 45.4509 22.1787C44.7641 22.1875 44.1185 21.8558 43.7282 21.2894V21.2924ZM51.2029 19.7986C51.2029 18.4897 52.2682 17.4274 53.5771 17.4303C54.8859 17.4332 55.9483 18.4956 55.9454 19.8045C55.9454 21.1104 54.883 22.1698 53.5771 22.1728C52.3093 22.2168 51.2469 21.2278 51.2029 19.96C51.2029 19.9043 51.2029 19.8514 51.2029 19.7957V19.7986ZM55.3115 19.7986C55.3115 18.7069 54.5778 17.982 53.5829 17.982C52.5793 18.0378 51.8133 18.8977 51.8691 19.9013C51.9219 20.8258 52.6585 21.5624 53.5829 21.6152C54.5719 21.6152 55.3056 20.8844 55.3056 19.7957H55.3115V19.7986ZM63.96 19.9952H60.0539C60.1097 20.949 60.9285 21.6739 61.8823 21.6181H61.8911C62.434 21.6328 62.9564 21.4098 63.3173 21.0048L63.6724 21.4127C63.2175 21.9233 62.5572 22.2021 61.8735 22.1757C60.4061 22.1757 59.4259 21.1838 59.4259 19.8015C59.4259 18.4193 60.3914 17.4332 61.7032 17.4332C63.0151 17.4332 63.963 18.3988 63.963 19.8015C63.963 19.8514 63.9542 19.9336 63.9542 19.9923H63.96V19.9952ZM60.0598 19.5286H63.3614C63.2939 18.6159 62.5015 17.9292 61.5859 17.9967C60.7641 18.0554 60.1126 18.7098 60.0539 19.5286H60.0598ZM73.1486 15.9307H75.6754C77.6622 15.9307 79.0004 17.2073 79.0004 19.0326C79.0004 20.858 77.6622 22.1346 75.6754 22.1346H73.1486V15.9307ZM75.6402 21.5682C77.2895 21.5682 78.3518 20.5205 78.3518 19.0326C78.3518 17.5448 77.2895 16.4971 75.6402 16.4971H73.806V21.5682H75.6402ZM82.8008 15.9923C82.8067 15.7428 83.0121 15.5462 83.2616 15.5492C83.5081 15.5286 83.7253 15.7135 83.7458 15.96C83.7663 16.2065 83.5815 16.4237 83.3349 16.4442C83.3115 16.4442 83.288 16.4442 83.2616 16.4442C83.0092 16.453 82.7979 16.2594 82.7891 16.007V15.9982L82.8008 15.9923ZM82.9417 17.4596H83.5727V22.1229H82.9358L82.9417 17.4596ZM87.2821 21.5917L87.5756 21.0928C88.0569 21.4391 88.6379 21.624 89.2308 21.6181C90.1112 21.6181 90.4809 21.3247 90.4809 20.8551C90.4809 19.6401 87.4582 20.5968 87.4582 18.7539C87.4582 17.9938 88.1156 17.4244 89.3012 17.4244C89.8793 17.4156 90.4516 17.5653 90.9505 17.8588L90.6746 18.3635C90.2667 18.0935 89.7884 17.9556 89.3012 17.9674C88.4619 17.9674 88.0892 18.2931 88.0892 18.7362C88.0892 19.9952 91.109 19.0473 91.109 20.8375C91.109 21.6445 90.4017 22.1669 89.1867 22.1669C88.5059 22.1904 87.8338 21.9938 87.2762 21.6005L87.2821 21.5917ZM99.5726 19.7927C99.6372 21.0371 98.6834 22.0994 97.4362 22.164C97.3746 22.1669 97.3129 22.1669 97.2513 22.164C96.544 22.1845 95.8779 21.8353 95.4905 21.2425V23.8397H94.8595V17.4655H95.4641V18.387C95.8485 17.7678 96.5352 17.4039 97.263 17.4303C98.5074 17.401 99.5404 18.387 99.5697 19.6313C99.5697 19.6871 99.5697 19.7428 99.5697 19.7986L99.5756 19.7898L99.5726 19.7927ZM98.9446 19.7927C98.9035 18.8331 98.0906 18.0877 97.131 18.1317C96.1713 18.1728 95.4259 18.9857 95.4699 19.9453C95.511 20.8756 96.277 21.6093 97.2102 21.6093C98.1581 21.6152 98.93 20.8492 98.9358 19.9013C98.9358 19.869 98.9358 19.8338 98.9358 19.8015L98.9505 19.7927H98.9446ZM107.581 19.9864H103.678C103.734 20.9373 104.55 21.6651 105.501 21.6093H105.512C106.055 21.624 106.578 21.401 106.939 20.996L107.294 21.4039C106.839 21.9145 106.179 22.1933 105.495 22.1669C104.042 22.1669 103.047 21.175 103.047 19.7927C103.047 18.4105 104.016 17.4244 105.325 17.4244C106.634 17.4244 107.584 18.3899 107.584 19.7927C107.584 19.8544 107.576 19.9365 107.576 19.9952L107.581 19.9864ZM103.684 19.5169H106.989C106.933 18.6042 106.149 17.9087 105.237 17.9644C104.4 18.0143 103.734 18.6805 103.684 19.5169ZM115.716 19.42V22.1229H115.071V19.4817C115.071 18.4985 114.557 17.9938 113.671 17.9938C112.67 17.9938 112.039 18.613 112.039 19.6753V22.1229H111.411V17.4685H112.013V18.3283C112.4 17.7414 113.072 17.4039 113.774 17.4479C114.921 17.4332 115.702 18.0906 115.702 19.4288L115.716 19.42ZM123.179 21.6005V22.1229H119.373V21.7062L122.308 17.9938H119.429V17.4596H123.112V17.8822L120.177 21.6064L123.179 21.6005ZM130.484 19.2322V22.1229H129.879V21.4039C129.586 21.8822 129.046 22.1757 128.277 22.1757C127.22 22.1757 126.575 21.6269 126.575 20.8199C126.575 20.1009 127.036 19.4993 128.374 19.4993H129.841V19.2058C129.841 18.4105 129.389 17.9762 128.521 17.9762C127.954 17.9674 127.405 18.164 126.971 18.5249L126.678 18.0554C127.218 17.6328 127.887 17.4098 128.573 17.4244C129.785 17.4332 130.469 18.0378 130.469 19.241L130.484 19.2322ZM129.853 20.723V19.96H128.386C127.482 19.96 127.188 20.3151 127.188 20.7935C127.188 21.3335 127.623 21.6739 128.362 21.6739C129.005 21.712 129.601 21.3335 129.838 20.7318L129.853 20.723ZM0.491211 24.5H4.16839L12.6145 0.5H8.93729L0.491211 24.5Z" fill="#9B9B9F"/>
</g>
<defs>
<clipPath id="clip0_8838_4352">
<rect width="130.509" height="24" fill="white" transform="translate(0.491211 0.5)"/>
</clipPath>
</defs>
</svg>
