<svg width="79" height="33" viewBox="0 0 79 33" fill="none" xmlns="http://www.w3.org/2000/svg">
<path d="M77.397 20.9895C74.6495 29.2038 58.9781 28.5222 48.738 29.9703C31.6815 32.3865 10.8874 33.6081 3.83874 22.0283C-0.0780033 15.6096 1.03471 2.80913 9.69865 1.64734C19.4558 0.340727 29.8132 5.14252 38.0212 6.8335C33.1057 6.7943 26.2091 5.75445 19.7152 6.1399C18.0608 6.05933 19.9812 4.91387 19.7152 4.0711C10.3326 2.10683 4.12099 4.67214 4.17744 13.3927C4.26102 28.0855 22.1697 30.3231 38.0212 29.623C53.9487 28.9272 66.6933 21.6918 77.397 20.9895Z" fill="#9B9B9B"/>
<path d="M10.7944 11.0419V14.1996H12.1676C12.4825 14.1996 12.713 14.127 12.8591 13.9818C13.0057 13.8337 13.1023 13.5463 13.1512 13.1031H13.3563V15.8252H13.1512C13.1608 15.5908 13.122 15.3569 13.0372 15.1382C12.9715 15.0017 12.8669 14.888 12.7365 14.8115C12.5589 14.7281 12.3633 14.6907 12.1676 14.7026H10.7944V17.2135C10.7944 17.6207 10.8183 17.8886 10.8671 18.0193C10.9133 18.1286 10.9958 18.2187 11.1005 18.274C11.2552 18.3663 11.4318 18.4152 11.6118 18.4156H11.8843V18.6334H8.65039V18.4156H8.91636C9.22828 18.4156 9.45444 18.319 9.59484 18.126C9.68385 17.9997 9.72836 17.6955 9.72836 17.2135V12.0252C9.72836 11.619 9.70339 11.3501 9.65563 11.2194C9.61003 11.1114 9.5298 11.0218 9.42766 10.9646C9.2733 10.8715 9.09648 10.8226 8.91636 10.8231H8.65039V10.6053H14.2563L14.3258 12.3682H14.1314C14.0697 12.0746 13.9557 11.7947 13.7949 11.5417C13.676 11.3728 13.5125 11.2404 13.3227 11.1595C13.1345 11.0804 12.845 11.0409 12.4542 11.0409L10.7944 11.0419ZM17.1917 13.0498V17.4051C17.1917 17.7449 17.2148 17.9706 17.2611 18.0824C17.2998 18.187 17.372 18.2759 17.4663 18.335C17.6229 18.4025 17.7935 18.4309 17.9635 18.4178V18.6355H15.4906V18.4178C15.7392 18.4178 15.9063 18.3916 15.991 18.3405C16.0844 18.2798 16.1556 18.1904 16.194 18.0857C16.244 17.9674 16.2689 17.7405 16.2689 17.4051V15.3178C16.2802 14.9364 16.2635 14.5546 16.219 14.1756C16.207 14.077 16.164 13.9847 16.0963 13.9121C16.0325 13.8593 15.951 13.8328 15.8684 13.8381C15.7381 13.8441 15.6101 13.874 15.4906 13.9263L15.4135 13.7085L16.9474 13.0454L17.1917 13.0498ZM16.7303 10.2133C16.8051 10.2124 16.8792 10.2275 16.9477 10.2575C17.0162 10.2876 17.0775 10.3319 17.1276 10.3876C17.2356 10.5017 17.2945 10.6538 17.2915 10.8111C17.2941 10.9693 17.2353 11.1223 17.1276 11.2379C17.0779 11.2943 17.0167 11.3392 16.9481 11.3699C16.8796 11.4005 16.8053 11.416 16.7303 11.4154C16.6548 11.4158 16.5801 11.4002 16.5111 11.3697C16.442 11.3391 16.3802 11.2942 16.3297 11.2379C16.2205 11.1231 16.1609 10.9698 16.1636 10.8111C16.1602 10.6537 16.2192 10.5014 16.3275 10.3876C16.3784 10.3314 16.4406 10.2867 16.5101 10.2567C16.5796 10.2266 16.6547 10.2118 16.7303 10.2133ZM22.1712 13.0498V14.9008H21.9877C21.843 14.3201 21.662 13.9252 21.4449 13.7161C21.2165 13.504 20.9136 13.3912 20.6025 13.4026C20.3733 13.3918 20.1487 13.4698 19.9751 13.6203C19.903 13.6794 19.8443 13.7534 19.8031 13.8372C19.7619 13.9209 19.7391 14.0126 19.7362 14.106C19.731 14.3103 19.7936 14.5106 19.9143 14.6754C20.0293 14.8366 20.2617 15.0086 20.6145 15.1904L21.4254 15.6107C22.1781 16.0013 22.554 16.5167 22.5533 17.1569C22.5618 17.3834 22.519 17.6089 22.428 17.8164C22.3369 18.0239 22.2001 18.2079 22.0279 18.3546C21.7056 18.6459 21.2872 18.8073 20.8533 18.8076C20.491 18.799 20.1318 18.7393 19.7862 18.6301C19.6898 18.5955 19.5888 18.5753 19.4866 18.5702C19.4414 18.5725 19.398 18.5885 19.3621 18.6161C19.3262 18.6437 19.2996 18.6816 19.2857 18.7248H19.1023V16.7812H19.2857C19.3899 17.3344 19.5882 17.751 19.8806 18.0312C20.0089 18.1628 20.1618 18.2676 20.3306 18.3397C20.4994 18.4118 20.6807 18.4498 20.8641 18.4515C20.9791 18.456 21.0938 18.4371 21.2012 18.3959C21.3087 18.3547 21.4067 18.2922 21.4894 18.212C21.5672 18.1374 21.6288 18.0476 21.6704 17.9481C21.7121 17.8487 21.7329 17.7417 21.7315 17.6338C21.7346 17.507 21.7122 17.3808 21.6658 17.2628C21.6194 17.1448 21.5498 17.0373 21.4612 16.9467C21.2817 16.7616 20.9235 16.5268 20.3865 16.2423C19.8495 15.9577 19.4974 15.7011 19.3302 15.4724C19.1566 15.2231 19.069 14.9238 19.0806 14.6199C19.075 14.4137 19.1106 14.2085 19.1851 14.0163C19.2597 13.8241 19.3718 13.6488 19.5148 13.5006C19.6577 13.3519 19.83 13.235 20.0208 13.1574C20.2115 13.0797 20.4163 13.0431 20.6221 13.0498C20.8699 13.0585 21.1151 13.1044 21.3494 13.1859C21.4716 13.2309 21.5988 13.2609 21.7283 13.2752C21.7776 13.278 21.8264 13.2634 21.8661 13.2338C21.9166 13.1805 21.9563 13.1181 21.9834 13.0498H22.1712ZM25.0892 10.2133V14.1811C25.5003 13.6998 25.8259 13.3909 26.0662 13.2545C26.2849 13.1243 26.5338 13.0537 26.7881 13.0498C27.0586 13.0433 27.3226 13.1336 27.5328 13.3046C27.7653 13.5167 27.9265 13.7959 27.9942 14.1038C28.0666 14.3564 28.1027 14.8184 28.1027 15.4899V17.4095C28.1027 17.7521 28.1288 17.987 28.1809 18.114C28.2172 18.208 28.2837 18.2873 28.3698 18.3394C28.5233 18.4069 28.6911 18.4353 28.8583 18.4221V18.6399H26.3615V18.4221H26.4787C26.7154 18.4221 26.8804 18.3829 26.9727 18.3067C27.0724 18.2171 27.1406 18.0976 27.167 17.9659C27.1837 17.7809 27.1895 17.5951 27.1843 17.4095V15.4899C27.1843 14.8975 27.1554 14.5088 27.0975 14.3237C27.0538 14.1581 26.9574 14.0112 26.8228 13.9056C26.69 13.8107 26.53 13.7617 26.3669 13.7662C26.1683 13.7706 25.9737 13.8237 25.8002 13.9208C25.531 14.0857 25.2923 14.296 25.0946 14.5426V17.4095C25.0946 17.7797 25.1142 18.0116 25.1532 18.102C25.1988 18.1997 25.2751 18.2796 25.3704 18.3296C25.5413 18.4034 25.7274 18.4351 25.9131 18.4221V18.6399H23.3892V18.4221C23.5733 18.4327 23.7569 18.3952 23.9222 18.3132C24.0053 18.2601 24.0668 18.179 24.0959 18.0846C24.1404 17.9757 24.1621 17.7492 24.1621 17.4095V12.4988C24.1735 12.1172 24.1597 11.7353 24.1209 11.3555C24.111 11.247 24.0678 11.1443 23.9971 11.0615C23.9328 11.0077 23.8506 10.9801 23.767 10.9842C23.637 10.9964 23.5096 11.0283 23.3892 11.079L23.311 10.8721L24.8308 10.209L25.0892 10.2133ZM31.3247 13.0498V17.4051C31.3247 17.7449 31.3479 17.9706 31.3942 18.0824C31.4336 18.1866 31.5056 18.2752 31.5994 18.335C31.7564 18.4025 31.9273 18.4309 32.0976 18.4178V18.6355H29.6247V18.4178C29.8722 18.4178 30.0394 18.3916 30.1241 18.3405C30.2174 18.2798 30.2886 18.1904 30.3271 18.0857C30.377 17.9674 30.402 17.7405 30.402 17.4051V15.3178C30.4132 14.9364 30.3966 14.5546 30.352 14.1756C30.3399 14.0772 30.2974 13.9851 30.2305 13.9121C30.1666 13.8593 30.0851 13.8328 30.0025 13.8381C29.8722 13.8439 29.7441 13.8738 29.6247 13.9263L29.5465 13.7085L31.0805 13.0454L31.3247 13.0498ZM30.8633 10.2133C30.9381 10.2123 31.0123 10.2273 31.0808 10.2573C31.1493 10.2874 31.2107 10.3318 31.2607 10.3876C31.3691 10.5014 31.428 10.6537 31.4246 10.8111C31.4276 10.9694 31.3687 11.1226 31.2607 11.2379C31.211 11.2944 31.1498 11.3394 31.0813 11.3701C31.0127 11.4007 30.9384 11.4161 30.8633 11.4154C30.788 11.4159 30.7135 11.4003 30.6446 11.3697C30.5757 11.3391 30.5141 11.2942 30.4639 11.2379C30.3574 11.1221 30.2982 10.9703 30.2982 10.8127C30.2982 10.6552 30.3574 10.5034 30.4639 10.3876C30.5144 10.3318 30.5761 10.2875 30.645 10.2575C30.7138 10.2274 30.7883 10.2124 30.8633 10.2133ZM34.4989 14.1985C35.0953 13.4327 35.6637 13.0498 36.2044 13.0498C36.4605 13.0418 36.7122 13.1183 36.9208 13.2675C37.1217 13.4156 37.2802 13.6595 37.3996 13.9992C37.4813 14.2359 37.5219 14.5988 37.5212 15.0881V17.4095C37.5212 17.7521 37.5472 17.9848 37.5993 18.1075C37.6379 18.2045 37.7074 18.286 37.7969 18.3394C37.9553 18.4072 38.1278 18.4356 38.2995 18.4221V18.6399H35.7821V18.4221H35.8906C36.1284 18.4221 36.2934 18.3829 36.3878 18.3067C36.4894 18.2181 36.5588 18.0983 36.5854 17.9659C36.6073 17.7813 36.6149 17.5953 36.6082 17.4095V15.1883C36.6082 14.6939 36.5478 14.3353 36.4269 14.1125C36.368 14.005 36.2794 13.9167 36.1718 13.8584C36.0641 13.8001 35.942 13.7741 35.8201 13.7837C35.3793 13.7837 34.9404 14.0403 34.5033 14.5535V17.4095C34.5033 17.7764 34.5228 18.0029 34.5641 18.09C34.608 18.1948 34.6841 18.2829 34.7812 18.3416C34.8724 18.3949 35.0558 18.4221 35.3337 18.4221V18.6399H32.8098V18.4221H32.9183C33.1778 18.4221 33.3526 18.3514 33.4437 18.212C33.5349 18.0726 33.5794 17.8037 33.5794 17.4095V15.3951C33.5906 14.998 33.5769 14.6005 33.5382 14.205C33.5265 14.0972 33.4817 13.9956 33.4101 13.9143C33.3456 13.8609 33.2635 13.8337 33.18 13.8381C33.0514 13.8436 32.925 13.8736 32.8076 13.9263L32.724 13.7085L34.2579 13.0454H34.4967L34.4989 14.1985ZM40.3512 16.6571C40.0514 16.5057 39.8021 16.27 39.6337 15.9788C39.4257 15.6055 39.3443 15.1746 39.4019 14.7509C39.4594 14.3273 39.6528 13.9339 39.9528 13.6301C40.1431 13.4379 40.3709 13.2871 40.6219 13.1872C40.873 13.0873 41.1419 13.0406 41.4118 13.0498C41.8617 13.039 42.3034 13.1717 42.6733 13.4287H43.7512C43.8442 13.424 43.9373 13.4291 44.0291 13.4439C44.0413 13.448 44.0525 13.4546 44.062 13.4632C44.0716 13.4718 44.0792 13.4823 44.0845 13.494C44.1119 13.5532 44.1235 13.6185 44.1182 13.6835C44.1232 13.7572 44.1136 13.8312 44.0899 13.9013C44.0766 13.9233 44.0558 13.9399 44.0313 13.9481C43.9391 13.966 43.845 13.9722 43.7512 13.9666H43.0934C43.3114 14.2864 43.4206 14.6683 43.4049 15.0554C43.4083 15.2974 43.3618 15.5375 43.2684 15.7606C43.175 15.9838 43.0367 16.1852 42.8622 16.3522C42.5003 16.7152 42.0132 16.8948 41.401 16.8912C41.1389 16.8898 40.8785 16.8498 40.6281 16.7725C40.4984 16.8849 40.3884 17.0181 40.3024 17.1667C40.2516 17.2544 40.2218 17.3529 40.2155 17.4541C40.2196 17.5288 40.2527 17.5988 40.3078 17.649C40.4107 17.7298 40.5356 17.7773 40.666 17.7852C40.7692 17.8015 41.0286 17.8146 41.4444 17.8265C42.2065 17.8469 42.7008 17.8744 42.9273 17.9093C43.2413 17.9458 43.5329 18.0905 43.7523 18.3187C43.9584 18.5399 44.0692 18.8337 44.0606 19.1364C44.0606 19.5814 43.8645 19.9999 43.4722 20.3918C42.8933 20.9675 42.1395 21.2557 41.211 21.2564C40.496 21.2564 39.892 21.0847 39.3992 20.7414C39.1213 20.5432 38.9823 20.3385 38.9823 20.1251C38.9832 20.0272 39.0039 19.9305 39.0431 19.8409C39.1506 19.624 39.2812 19.4196 39.4328 19.2311C39.4589 19.1948 39.6478 18.9814 39.9995 18.5909C39.8478 18.5033 39.7101 18.3932 39.5913 18.2642C39.5136 18.1733 39.4712 18.0573 39.4719 17.9376C39.4824 17.7649 39.5366 17.5978 39.6293 17.452C39.7292 17.2618 39.9698 16.9968 40.3512 16.6571ZM40.2948 18.6355C40.1421 18.8068 40.0098 18.9953 39.9007 19.1974C39.819 19.3446 39.7732 19.5092 39.7672 19.6776C39.7672 19.867 39.8758 20.0329 40.0929 20.1752C40.4634 20.4205 40.9986 20.5428 41.6984 20.5421C42.365 20.5421 42.8567 20.4169 43.1737 20.1665C43.4907 19.9149 43.6492 19.6482 43.6492 19.364C43.6528 19.2709 43.6274 19.179 43.5767 19.101C43.5259 19.0229 43.4523 18.9627 43.3659 18.9284C43.1726 18.8413 42.7916 18.7902 42.2206 18.7749C41.5766 18.7641 40.9337 18.7175 40.2948 18.6355ZM41.3174 13.334C41.1831 13.3335 41.0507 13.3649 40.9309 13.4257C40.811 13.4864 40.7073 13.5748 40.6281 13.6835C40.4435 13.9165 40.3512 14.274 40.3512 14.756C40.3512 15.3799 40.4761 15.8633 40.729 16.2063C40.8093 16.3272 40.9184 16.4262 41.0462 16.4945C41.1741 16.5627 41.3169 16.598 41.4618 16.5972C41.5959 16.5996 41.7286 16.5703 41.8493 16.5117C41.97 16.453 42.0753 16.3667 42.1565 16.2597C42.3375 16.0354 42.4283 15.6822 42.429 15.2002C42.429 14.5723 42.3013 14.0805 42.0458 13.7249C41.9663 13.6042 41.8581 13.5052 41.7309 13.437C41.6037 13.3687 41.4616 13.3333 41.3174 13.334Z" fill="#9B9B9B"/>
<path d="M45.0693 15.4661H47.9418V16.3611H45.0693V15.4661ZM52.0832 14.1812L54.8612 17.1211C55.3171 17.6067 55.7061 17.9374 56.0282 18.113C56.3251 18.281 56.6546 18.3828 56.9943 18.4114V18.6292H53.4065V18.4114C53.5695 18.4257 53.7327 18.3851 53.8701 18.296C53.9121 18.2673 53.9469 18.2291 53.9716 18.1844C53.9963 18.1398 54.0102 18.09 54.0123 18.039C54.0139 17.9511 53.9957 17.864 53.9591 17.7842C53.8613 17.6301 53.7446 17.4888 53.6117 17.3639L51.0183 14.6255V17.2137C51.0183 17.6209 51.0421 17.8887 51.0899 18.0194C51.1365 18.1285 51.2188 18.2184 51.3233 18.2742C51.4759 18.3668 51.6508 18.4157 51.8292 18.4157H52.0854V18.6335H48.871V18.4157H49.1381C49.4485 18.4157 49.6754 18.3188 49.8155 18.1261C49.9045 17.9998 49.949 17.6957 49.949 17.2137V12.0253C49.949 11.6192 49.9251 11.3481 49.8773 11.2141C49.8297 11.1088 49.7498 11.0215 49.6494 10.9648C49.4947 10.8725 49.3181 10.8236 49.1381 10.8232H48.871V10.6055H52.0832V10.8232H51.827C51.6495 10.8243 51.4753 10.8712 51.3211 10.9593C51.2086 11.0204 51.1232 11.1219 51.0823 11.2435C51.0382 11.3698 51.0161 11.6304 51.0161 12.0253V14.4828C51.0899 14.4088 51.3418 14.1562 51.776 13.7315C52.8768 12.6572 53.5419 11.9404 53.7713 11.5811C53.8583 11.4608 53.9105 11.3187 53.9222 11.1706C53.9215 11.1244 53.9106 11.079 53.8903 11.0376C53.87 10.9962 53.8409 10.9598 53.8049 10.931C53.6905 10.8493 53.5509 10.8107 53.4109 10.8221H53.2383V10.6044H56.0054V10.8221C55.8547 10.8237 55.7051 10.8475 55.5614 10.8929C55.3885 10.9564 55.2241 11.0409 55.0718 11.1444C54.8163 11.3217 54.5782 11.5229 54.3607 11.7455C54.2797 11.8246 53.9037 12.2293 53.2328 12.9595L52.0832 14.1812ZM59.2957 13.0499V17.4053C59.2825 17.6333 59.3059 17.862 59.3652 18.0826C59.4047 18.187 59.4771 18.2757 59.5715 18.3352C59.7281 18.4028 59.8987 18.4312 60.0687 18.4179V18.6357H57.5957V18.4179C57.8443 18.4179 58.0104 18.3918 58.0962 18.3406C58.1893 18.2796 58.2604 18.1903 58.2992 18.0858C58.3491 17.9675 58.3741 17.7407 58.3741 17.4053V15.318C58.3848 14.9365 58.3681 14.5548 58.3242 14.1758C58.3117 14.0773 58.2688 13.9851 58.2015 13.9123C58.1376 13.8594 58.0561 13.833 57.9735 13.8382C57.8433 13.8443 57.7152 13.8742 57.5957 13.9264L57.5187 13.7087L59.0515 13.0499H59.2957ZM58.8344 10.2135C58.9091 10.2126 58.9832 10.2276 59.0517 10.2577C59.1203 10.2877 59.1816 10.332 59.2317 10.3877C59.3397 10.5018 59.3986 10.654 59.3956 10.8113C59.3981 10.9695 59.3394 11.1225 59.2317 11.2381C59.1819 11.2944 59.1207 11.3394 59.0522 11.37C58.9837 11.4006 58.9094 11.4162 58.8344 11.4156C58.7589 11.4162 58.6841 11.4007 58.615 11.3701C58.546 11.3395 58.4842 11.2945 58.4338 11.2381C58.3246 11.1233 58.265 10.9699 58.2677 10.8113C58.2643 10.6539 58.3232 10.5016 58.4316 10.3877C58.4825 10.3315 58.5447 10.2869 58.6142 10.2568C58.6837 10.2268 58.7587 10.212 58.8344 10.2135ZM62.47 14.1987C63.067 13.4328 63.6359 13.0499 64.1765 13.0499C64.4326 13.0422 64.6842 13.1187 64.8929 13.2677C65.1216 13.4582 65.288 13.713 65.3706 13.9994C65.4524 14.236 65.4933 14.599 65.4933 15.0882V17.4096C65.4933 17.7526 65.5182 17.9856 65.5703 18.1076C65.6093 18.2044 65.6787 18.2858 65.7679 18.3395C65.9264 18.4072 66.0988 18.4356 66.2705 18.4223V18.64H63.7542V18.4223H63.8627C64.0994 18.4223 64.2655 18.3831 64.3599 18.3069C64.4611 18.2179 64.5305 18.0982 64.5575 17.966C64.5782 17.7814 64.5855 17.5954 64.5792 17.4096V15.1884C64.5792 14.6941 64.5191 14.3355 64.399 14.1126C64.3405 14.0039 64.2518 13.9145 64.1438 13.8552C64.0357 13.7959 63.9129 13.7692 63.79 13.7784C63.3493 13.7784 62.9103 14.035 62.4732 14.5482V17.4096C62.4732 17.7762 62.4935 18.0031 62.534 18.0902C62.5784 18.1947 62.6544 18.2826 62.7511 18.3417C62.8412 18.3951 63.0258 18.4223 63.3037 18.4223V18.64H60.7808V18.4223H60.8894C61.1488 18.4223 61.3236 18.3515 61.4148 18.2121C61.506 18.0728 61.5516 17.8038 61.5516 17.4096V15.3953C61.5632 14.9981 61.5491 14.6005 61.5092 14.2052C61.4978 14.0975 61.4534 13.9959 61.3822 13.9145C61.3174 13.8609 61.2349 13.8337 61.151 13.8382C61.0224 13.8438 60.8961 13.8737 60.7786 13.9264L60.695 13.7087L62.229 13.0456H62.4678L62.47 14.1987ZM68.3223 16.6573C68.0226 16.5061 67.7735 16.2703 67.6058 15.9789C67.3971 15.6059 67.3153 15.1748 67.3729 14.7509C67.4305 14.3271 67.6243 13.9337 67.9249 13.6303C68.1152 13.438 68.343 13.2872 68.5941 13.1874C68.8451 13.0875 69.114 13.0407 69.384 13.0499C69.8335 13.039 70.2748 13.1717 70.6443 13.4288H71.7223C71.8152 13.4241 71.9083 13.4292 72.0002 13.4441C72.0123 13.4482 72.0235 13.4547 72.0331 13.4633C72.0426 13.472 72.0502 13.4825 72.0555 13.4942C72.0829 13.5533 72.0945 13.6186 72.0892 13.6836C72.0944 13.7573 72.0852 13.8313 72.0621 13.9014C72.0481 13.923 72.0276 13.9395 72.0034 13.9482C71.9108 13.966 71.8164 13.9722 71.7223 13.9667H71.0612C71.2792 14.2866 71.3884 14.6684 71.3727 15.0556C71.3763 15.2976 71.33 15.5377 71.2366 15.7609C71.1432 15.9841 71.0047 16.1855 70.8299 16.3524C70.4681 16.7153 69.981 16.895 69.3688 16.8914C69.1071 16.89 68.847 16.85 68.5969 16.7727C68.4671 16.8848 68.357 17.0181 68.2712 17.1668C68.2208 17.2547 68.1915 17.3531 68.1855 17.4543C68.189 17.5288 68.2218 17.5989 68.2767 17.6492C68.3798 17.7296 68.5046 17.777 68.6349 17.7853C68.7435 17.8016 68.9986 17.8147 69.4133 17.8267C70.1761 17.847 70.6707 17.8746 70.8972 17.9094C71.2111 17.9464 71.5026 18.091 71.7223 18.3188C71.928 18.5403 72.0387 18.834 72.0306 19.1366C72.0306 19.5815 71.8341 20 71.4411 20.392C70.8621 20.9676 70.1084 21.2558 69.1799 21.2565C68.4648 21.2565 67.8609 21.0849 67.368 20.7415C67.0912 20.5433 66.9512 20.3386 66.9512 20.1252C66.9519 20.0272 66.973 19.9304 67.0131 19.841C67.12 19.6242 67.2503 19.4197 67.4017 19.2313C67.4278 19.195 67.6166 18.9816 67.9684 18.591C67.8168 18.5032 67.6792 18.3931 67.5602 18.2644C67.483 18.1732 67.4407 18.0574 67.4408 17.9377C67.4512 17.7649 67.5058 17.5977 67.5993 17.4521C67.6999 17.2619 67.9409 16.997 68.3223 16.6573ZM68.2669 18.6357C68.1135 18.8067 67.9809 18.9952 67.8718 19.1975C67.79 19.3447 67.7442 19.5093 67.7382 19.6777C67.7382 19.8672 67.8468 20.033 68.0639 20.1753C68.4344 20.4207 68.97 20.543 69.6705 20.5422C70.3371 20.5422 70.8285 20.417 71.1448 20.1666C71.4617 19.9151 71.6202 19.6483 71.6202 19.3641C71.6238 19.271 71.5985 19.1791 71.5477 19.1011C71.4969 19.0231 71.4233 18.9628 71.3369 18.9286C71.1447 18.8415 70.7626 18.7903 70.1927 18.7751C69.5487 18.7642 68.9058 18.7177 68.2669 18.6357ZM69.2895 13.3341C69.1552 13.3334 69.0227 13.3648 68.9029 13.4256C68.783 13.4863 68.6793 13.5748 68.6002 13.6836C68.4142 13.9166 68.3215 14.2741 68.3223 14.7561C68.3223 15.3797 68.4482 15.8631 68.7 16.2065C68.7805 16.3275 68.8897 16.4266 69.0178 16.4949C69.1459 16.5631 69.2889 16.5983 69.4339 16.5974C69.5678 16.5998 69.7004 16.5704 69.821 16.5118C69.9415 16.4531 70.0465 16.3668 70.1276 16.2598C70.3099 16.0355 70.4008 15.6824 70.4 15.2004C70.4 14.5725 70.2723 14.0807 70.0168 13.725C69.9374 13.6045 69.8294 13.5056 69.7024 13.4374C69.5754 13.3691 69.4336 13.3337 69.2895 13.3341ZM75.6607 8.25684C75.9146 8.25762 76.1659 8.30856 76.4002 8.40674C76.6344 8.50492 76.8471 8.64843 77.0261 8.82906C77.2051 9.00969 77.3468 9.22391 77.4433 9.45949C77.5397 9.69507 77.5889 9.94739 77.5882 10.2021C77.5874 10.4567 77.5366 10.7087 77.4387 10.9437C77.3408 11.1787 77.1977 11.392 77.0177 11.5715C76.8376 11.7511 76.624 11.8932 76.3891 11.99C76.1542 12.0867 75.9027 12.1361 75.6488 12.1353C75.3911 12.139 75.1352 12.0916 74.8959 11.9957C74.6565 11.8999 74.4384 11.7575 74.2542 11.5767C74.0699 11.396 73.9232 11.1804 73.8223 10.9425C73.7215 10.7047 73.6685 10.4491 73.6665 10.1906C73.6665 9.10178 74.548 8.25684 75.652 8.25684H75.6607ZM75.6368 8.64664C74.8031 8.64664 74.1561 9.34132 74.1561 10.1906C74.151 10.3918 74.1862 10.592 74.2596 10.7794C74.333 10.9667 74.4431 11.1374 74.5833 11.2813C74.7236 11.4253 74.8912 11.5395 75.0763 11.6174C75.2613 11.6952 75.4601 11.7351 75.6607 11.7346C76.4955 11.7466 77.1295 11.0508 77.1295 10.2026C77.1295 9.35439 76.4955 8.64664 75.6488 8.64664H75.6368ZM75.3437 11.1924H74.9008V9.25966C75.1459 9.22185 75.3933 9.20184 75.6412 9.19977C76.0059 9.19977 76.1709 9.25966 76.3001 9.3533C76.3646 9.40038 76.4166 9.46265 76.4514 9.53462C76.4862 9.60658 76.5029 9.68603 76.4999 9.76597C76.4999 10.0023 76.3229 10.1547 76.1004 10.2255V10.2494C76.2882 10.3082 76.3815 10.4617 76.4413 10.7209C76.4655 10.8839 76.5127 11.0426 76.5813 11.1924H76.1112C76.0526 11.1216 76.0179 10.9572 75.9593 10.7209C75.9234 10.5205 75.8062 10.4258 75.5598 10.4258H75.3481L75.3437 11.1924ZM75.3557 10.1035H75.5663C75.8138 10.1035 76.0135 10.0208 76.0135 9.82041C76.0135 9.64402 75.8844 9.52643 75.6021 9.52643C75.5194 9.52442 75.4367 9.53209 75.3557 9.54929V10.1035Z" fill="#9B9B9B"/>
</svg>
