<svg width="408" height="320" viewBox="0 0 408 320" fill="none" xmlns="http://www.w3.org/2000/svg">
<path d="M155.39 51.0844C155.39 51.0844 249.823 9.19302 285.249 52.9263C320.675 96.6596 276.577 150.537 315.635 153.599C354.694 156.661 397.314 272.341 303.345 286.052C209.376 299.763 135.41 178.348 91.2421 211.96C47.074 245.573 -33.0156 128.753 155.39 51.0844Z" fill="#F5F3F0"/>
<path d="M305.131 63.468C305.131 63.468 312.358 78.9558 308.403 93.4152C304.448 107.875 320.558 104.953 320.801 82.9201C321.044 60.8875 301.732 52.6411 305.131 63.468Z" fill="#F5F3F0"/>
<path d="M12 245L379.5 245" stroke="#000004" stroke-width="2" stroke-linecap="round"/>
<path d="M77.7206 245C77.3357 245 77.5379 150.851 77.7023 81.9681C77.7128 77.5573 81.2914 74 85.7021 74H178V136.5H239.501V245H77.7206Z" fill="white" stroke="#000004" stroke-width="2" stroke-linecap="round"/>
<path d="M77.5 82C77.5 77.5817 81.0817 74 85.5 74H178.5V94H77.5V82Z" fill="#000004"/>
<circle cx="93" cy="84" r="3" fill="white"/>
<circle cx="103" cy="84" r="3" fill="white"/>
<circle cx="113" cy="84" r="3" fill="white"/>
<path d="M140.5 115C140.5 110.582 144.082 107 148.5 107H178.5V123H148.5C144.082 123 140.5 119.418 140.5 115Z" fill="#000004"/>
<rect x="89.5" y="107" width="16" height="16" fill="#E4E1DD"/>
<path d="M89.5 139H145.5" stroke="#000004" stroke-width="2" stroke-linecap="round"/>
<path d="M89.5 146H152.5" stroke="#000004" stroke-width="2" stroke-linecap="round"/>
<path d="M89.5 153L134 153" stroke="#000004" stroke-width="2" stroke-linecap="round"/>
<path d="M166.053 168H218.073" stroke="#000004" stroke-width="2" stroke-linecap="round"/>
<path d="M166.053 175H218.076" stroke="#000004" stroke-width="2" stroke-linecap="round"/>
<path d="M166.053 182L218.076 182" stroke="#000004" stroke-width="2" stroke-linecap="round"/>
<rect x="89.5" y="166.36" width="63" height="49" fill="#E4E1DD"/>
<rect x="165.5" y="198.36" width="53" height="17" rx="8.5" fill="#17DF87"/>
<path d="M108.5 196L84.5 290.5" stroke="#000004" stroke-width="2" stroke-linecap="round"/>
<path d="M128.5 196L104.5 290.5" stroke="#000004" stroke-width="2" stroke-linecap="round"/>
<path d="M105.5 209C105.9 209 118.667 209 125 209" stroke="#000004" stroke-width="2" stroke-linecap="round"/>
<path d="M102.5 221C102.9 221 115.667 221 122 221" stroke="#000004" stroke-width="2" stroke-linecap="round"/>
<path d="M99.0995 233C99.4995 233 111.666 233 118 233" stroke="#000004" stroke-width="2" stroke-linecap="round"/>
<path d="M96.5 245C96.9 245 109.667 245 116 245" stroke="#000004" stroke-width="2" stroke-linecap="round"/>
<path d="M93.5 257C93.9 257 106.667 257 113 257" stroke="#000004" stroke-width="2" stroke-linecap="round"/>
<path d="M302.5 42H345V68H313L302.5 42Z" stroke="#000004" stroke-width="2" stroke-linecap="round"/>
<path d="M75.5 19L95.5 3L116.5 19L138.5 3L158 19L178.5 3L199.5 19L220 3L240.5 19L261.5 3L282.5 19L302.5 3L323.5 19L344.5 3L365 19L385.5 3L406.5 19V3L385.5 19L365 3L344.5 19L323.5 3L302.5 19L282.5 3L261.5 19L240.5 3L220 19L209.75 11L199.5 3L189 11L178.5 19L158 3L138.5 19L116.5 3L95.5 19H75.5Z" stroke="#000004" stroke-width="2" stroke-linecap="round"/>
<path d="M313 12V42" stroke="#000004" stroke-width="2" stroke-linecap="round"/>
<path d="M334 12V42" stroke="#000004" stroke-width="2" stroke-linecap="round"/>
<path d="M321.47 68L336.015 88.5L320.985 109.5L335.53 130.5L320.5 150.5L336.5 172L320.985 192.5" stroke="#000004" stroke-width="2" stroke-linecap="round"/>
<path d="M335.53 68L320.985 88.5L336.015 109.5L321.47 130.5L336.5 150.5L320.5 172L336.015 192.5L320.5 213.5" stroke="#000004" stroke-width="2" stroke-linecap="round"/>
<path d="M190 64H243C246.866 64 250 67.134 250 71V126H190V64Z" fill="white" stroke="#000004" stroke-width="2" stroke-linecap="round"/>
<path d="M189 63H243C247.418 63 251 66.5817 251 71V83H189V63Z" fill="#000004"/>
<path d="M209.5 11V41.625C209.5 47.355 214.145 52 219.875 52V52C225.605 52 230.25 47.355 230.25 41.625V11" stroke="#000004" stroke-width="2" stroke-linecap="round"/>
<path d="M220 52V65" stroke="#000004" stroke-width="2" stroke-linecap="round"/>
<path d="M220 105C220 100.582 216.418 97 212 97H190V113H212C216.418 113 220 109.418 220 105Z" fill="#000004"/>
<circle cx="210" cy="105" r="3" fill="#17DF87"/>
<path d="M258.5 121.5L285.384 95" stroke="#000004" stroke-width="2" stroke-linecap="round"/>
<path d="M269 126L282.188 113" stroke="#000004" stroke-width="2" stroke-linecap="round"/>
<path d="M352.5 227H364M372 227H393" stroke="#000004" stroke-width="2" stroke-linecap="round"/>
<path d="M1.5 263H42" stroke="#000004" stroke-width="2" stroke-linecap="round"/>
<path fill-rule="evenodd" clip-rule="evenodd" d="M225.38 239.167L236.594 261.087L243.699 260.999L251.871 273.071L250.229 279.67L274.082 290.985L279.321 287.894L283.261 279.366L291.529 282.219C293.396 285.221 297.424 291.11 298.6 290.645C299.776 290.18 316.9 281.599 325.315 277.367L319.64 265.158C322.02 262.291 326.922 256.568 327.485 256.617C328.049 256.667 335.019 257.04 338.434 257.22L343.273 230.316L332.447 228.304L329.008 214.872L337.051 208.123L334.727 202.241L319.115 185.969L310.689 193.04L298.7 188.087L298.66 176.372L284.251 174.756L271.003 176.081L264.915 192.939L261.146 195.448L250.875 187.097L238.556 198.086L233.221 210.396L238.896 222.604L233.547 231.008L225.503 237.758L225.38 239.167ZM284.5 254.36C297.755 254.36 308.5 243.839 308.5 230.86C308.5 217.882 297.755 207.36 284.5 207.36C271.245 207.36 260.5 217.882 260.5 230.86C260.5 243.839 271.245 254.36 284.5 254.36Z" fill="white"/>
<path d="M274.384 207.741C271.241 209.204 268.424 211.282 266.099 213.853C263.774 216.424 261.988 219.436 260.846 222.711C259.704 225.987 259.229 229.461 259.45 232.927C259.67 236.394 260.581 239.783 262.128 242.897C265.463 249.265 271.185 254.056 278.035 256.215C284.886 258.374 292.305 257.724 298.659 254.408C305.013 251.092 309.783 245.383 311.918 238.535C314.054 231.687 313.38 224.262 310.046 217.893C308.373 214.876 306.121 212.218 303.419 210.073C300.717 207.928 297.619 206.337 294.304 205.394C290.989 204.45 287.522 204.171 284.103 204.574C280.684 204.977 277.381 206.053 274.384 207.741ZM300.801 222.564C303.313 227.72 303.9 233.599 302.458 239.138C301.015 244.677 297.638 249.51 292.937 252.764C287.617 254.554 281.83 254.407 276.595 252.35C271.36 250.292 267.012 246.455 264.316 241.515C261.646 236.315 260.933 230.334 262.306 224.665C263.679 218.996 267.048 214.017 271.795 210.639C277.244 208.923 283.13 209.187 288.416 211.384C293.702 213.582 298.051 217.572 300.695 222.653L300.801 222.564Z" fill="#000004"/>
<path d="M316.444 185.623C313.435 186.785 310.767 188.695 308.696 191.172C305.761 189.724 302.685 188.58 299.514 187.757C299.941 184.721 301.057 176.341 298.182 175.259C289.98 173.833 281.59 173.746 273.338 175.001C269.996 175.648 266.809 176.949 263.962 178.829C262.444 180.512 263.926 190.569 264.264 192.827C263.673 193.323 261.019 194.415 260.791 194.471C259.182 192.553 252.808 186.102 250.391 186.768C247.841 187.694 245.401 188.903 243.118 190.375C240.965 191.682 226.415 209.201 227.074 212.551C227.538 214.794 234.366 219.004 236.293 220.155C235.508 222.161 234.864 224.218 234.365 226.312C233.265 230.457 233.923 229.768 233.261 229.961C232.445 230.175 231.667 230.52 230.961 230.984C227.768 231.537 224.857 233.177 222.725 235.625C220.924 238.498 226.135 256.545 228.033 260.717C228.441 261.828 229.127 262.814 230.026 263.583C232.145 264.8 237.628 262.605 239.897 261.654C242.275 265.498 245.195 268.978 248.568 271.987C246.74 274.61 243.031 280.173 245.311 282.345C247.591 284.516 267.151 295.062 270.807 294.127C272.898 293.721 274.885 292.883 276.641 291.669C278.396 290.454 279.881 288.888 281 287.072C281.51 285.907 281.943 284.71 282.296 283.489C284.041 283.386 285.772 283.158 287.508 282.882C288.396 285.631 290.387 291.767 292.721 293.349C293.932 294.193 295.109 293.795 296.725 293.211C301.164 291.574 323.203 280.524 325.594 277.701C326.508 276.662 326.156 275.097 325.606 273.787C324.219 270.923 322.541 268.21 320.598 265.691C321.864 264.398 323.064 263.043 324.194 261.63C326.238 262.381 328.394 262.795 330.577 262.854C332.751 262.664 333.504 261.215 334.235 258.922C335.792 259.25 338.037 259.635 339.358 258.754C342.684 256.553 345.395 234.309 344.673 230.83C344.072 227.931 337.155 227.653 334.091 227.546C333.615 223.143 332.525 218.833 330.853 214.741C333.034 213.405 335.084 211.867 336.977 210.147C337.864 209.404 338.616 208.227 338.3 207.086C336.832 202.009 324.571 188.38 320.422 185.78C319.389 184.877 317.599 185.198 316.444 185.623ZM319.145 187.532C322.964 190.228 334.232 203.057 335.727 207.566C333.595 209.742 331.161 211.6 328.501 213.084C328.222 213.248 328.013 213.51 327.916 213.818C327.819 214.126 327.841 214.459 327.977 214.75C329.928 219.248 331.121 224.043 331.508 228.942C331.523 229.276 331.667 229.589 331.909 229.818C332.152 230.046 332.475 230.17 332.809 230.165C335.936 230.064 339.051 230.525 342.006 231.525C342.496 234.835 339.993 253.183 337.763 256.416C337.333 256.777 334.81 256.171 334.157 255.992C331.924 255.347 329.736 254.561 327.605 253.639C327.294 253.505 326.943 253.492 326.621 253.602C326.299 253.713 326.029 253.94 325.864 254.237C320.51 263.677 316.125 264.452 317.734 266.369C320.146 269.237 322.068 272.485 323.421 275.984C316.538 280.6 309.167 284.441 301.445 287.435C299.349 284.348 297.826 280.907 296.948 277.275C296.257 274.815 293.458 278.025 282.346 277.002C282.003 276.987 281.666 277.101 281.402 277.323C281.138 277.544 280.966 277.856 280.922 278.196C280.068 282.634 278.364 287.695 277.375 287.935C275.447 288.419 257.223 279.52 254.433 276.959C255.236 274.036 256.644 271.309 258.565 268.954C258.751 268.681 258.833 268.351 258.794 268.024C258.756 267.698 258.6 267.397 258.356 267.178C254.533 263.959 251.298 260.103 248.791 255.779C248.637 255.512 248.387 255.315 248.092 255.226C247.797 255.137 247.477 255.163 247.199 255.3C244.732 256.473 242.129 257.33 239.452 257.851C238.504 257.921 238.58 257.903 238.254 257.405C234.776 249.729 232.63 241.509 231.907 233.094C233.023 231.477 239.336 231.036 241.528 230.921C241.782 230.938 242.033 230.856 242.228 230.692C242.424 230.528 242.549 230.295 242.576 230.042C242.745 227.737 243.088 225.447 243.601 223.191C245.114 216.702 246.551 216.177 245.308 215.405C241.831 213.769 238.715 211.464 236.137 208.622C236.266 207.93 236.511 207.263 236.864 206.651C238.546 203.564 240.451 200.6 242.562 197.785C245.006 194.236 247.834 190.965 250.994 188.032C251.759 187.798 254.303 189.794 255.063 190.427C260.527 194.919 260.771 196.575 261.617 196.001C269.899 190.323 273.222 191.12 272.977 189.737C272.3 185.904 271.993 182.013 272.061 178.116C272.155 177.083 271.905 176.839 274.402 176.378C282.206 175.411 290.102 175.626 297.822 177.013C298.806 177.367 298.398 183.973 297.656 188.271C297.418 189.788 298.971 189.075 304.946 191.504C310.921 193.933 311.412 195.609 312.424 194.306C314.332 191.742 316.595 189.461 319.145 187.532Z" fill="#000004"/>
</svg>
