<svg width="335" height="30" viewBox="0 0 335 30" fill="none" xmlns="http://www.w3.org/2000/svg">
<path d="M0.818084 0.765312V28.6953H3.97208V4.83131L13.0921 28.4293H16.7021L25.8601 4.90731V28.6953H29.0141V0.765312H24.4161L14.9161 25.1613L5.45408 0.765312H0.818084ZM37.5124 28.6953H40.9704L44.2004 20.6773H57.2724L60.4644 28.6953H63.9224L52.4464 0.765312H49.0644L37.5124 28.6953ZM45.3404 17.9033L50.7744 4.48931L56.1324 17.9033H45.3404ZM81.6643 0.157311C76.3823 0.157311 71.5183 3.04531 71.5183 8.09931C71.5183 18.9673 89.0743 12.7733 89.0743 21.2093C89.0743 24.4773 86.0723 26.4913 81.8543 26.4913C76.7243 26.4913 73.9503 23.2993 73.9503 18.5873L70.9103 20.1833C71.4423 25.7313 75.6603 29.2653 81.8543 29.2653C87.9723 29.2653 92.3423 26.1873 92.3423 20.9813C92.3423 9.92331 74.7863 15.5473 74.7863 7.90931C74.7863 4.75531 77.6363 2.93131 81.6643 2.93131C86.2243 2.93131 88.9223 5.66731 88.9223 9.39131L91.9243 8.09931C91.6963 3.88131 87.7823 0.157311 81.6643 0.157311ZM100.05 0.765312V3.69131H109.284V28.6953H112.476V3.69131H121.71V0.765312H100.05ZM130.943 28.6953H149.373V25.8073H134.135V15.9273H148.195V13.0393H134.135V3.65331H149.297V0.765312H130.943V28.6953ZM160.069 28.6953H163.261V16.4213H169.835L178.157 28.6953H181.957L174.015 17.3713L170.709 16.4213H172.077C177.891 16.4213 180.969 13.1153 180.969 8.63131C180.969 4.14731 177.777 0.765312 172.077 0.765312H160.069V28.6953ZM163.261 13.5713V3.65331H172.001C175.725 3.65331 177.777 5.62931 177.777 8.63131C177.777 11.5953 175.687 13.5713 172.001 13.5713H163.261ZM203.964 0.157311C196.44 0.157311 189.562 5.55331 189.562 14.6733C189.562 23.8313 196.326 29.2653 203.888 29.2653C209.246 29.2653 213.692 26.6433 216.124 22.5393L213.502 20.6773C211.868 24.3253 208.22 26.3773 204.04 26.3773C198.036 26.3773 192.792 22.2353 192.792 14.7113C192.792 7.07331 198.188 3.04531 204.04 3.04531C208.106 3.04531 211.754 5.02131 213.464 8.66931L216.01 6.76931C213.616 2.43731 208.866 0.157311 203.964 0.157311ZM225.633 28.6953H243.113V25.7693H228.825V0.765312H225.633V28.6953ZM249.153 28.6953H252.611L255.841 20.6773H268.913L272.105 28.6953H275.563L264.087 0.765312H260.705L249.153 28.6953ZM256.981 17.9033L262.415 4.48931L267.773 17.9033H256.981ZM293.305 0.157311C288.023 0.157311 283.159 3.04531 283.159 8.09931C283.159 18.9673 300.715 12.7733 300.715 21.2093C300.715 24.4773 297.713 26.4913 293.495 26.4913C288.365 26.4913 285.591 23.2993 285.591 18.5873L282.551 20.1833C283.083 25.7313 287.301 29.2653 293.495 29.2653C299.613 29.2653 303.983 26.1873 303.983 20.9813C303.983 9.92331 286.427 15.5473 286.427 7.90931C286.427 4.75531 289.277 2.93131 293.305 2.93131C297.865 2.93131 300.563 5.66731 300.563 9.39131L303.565 8.09931C303.337 3.88131 299.423 0.157311 293.305 0.157311ZM323.47 0.157311C318.188 0.157311 313.324 3.04531 313.324 8.09931C313.324 18.9673 330.88 12.7733 330.88 21.2093C330.88 24.4773 327.878 26.4913 323.66 26.4913C318.53 26.4913 315.756 23.2993 315.756 18.5873L312.716 20.1833C313.248 25.7313 317.466 29.2653 323.66 29.2653C329.778 29.2653 334.148 26.1873 334.148 20.9813C334.148 9.92331 316.592 15.5473 316.592 7.90931C316.592 4.75531 319.442 2.93131 323.47 2.93131C328.03 2.93131 330.728 5.66731 330.728 9.39131L333.73 8.09931C333.502 3.88131 329.588 0.157311 323.47 0.157311Z" fill="#2BFF99"/>
<path d="M0.818085 0.765312V0.265312C0.541943 0.265312 0.318085 0.48917 0.318085 0.765312H0.818085ZM0.818085 28.6953H0.318085C0.318085 28.9715 0.541943 29.1953 0.818085 29.1953V28.6953ZM3.97208 28.6953V29.1953C4.24823 29.1953 4.47208 28.9715 4.47208 28.6953H3.97208ZM3.97208 4.83131L4.43847 4.65107C4.35167 4.42647 4.11711 4.29564 3.88041 4.33979C3.6437 4.38394 3.47208 4.59052 3.47208 4.83131H3.97208ZM13.0921 28.4293L12.6257 28.6096C12.7002 28.8023 12.8855 28.9293 13.0921 28.9293V28.4293ZM16.7021 28.4293V28.9293C16.9082 28.9293 17.0932 28.8028 17.168 28.6107L16.7021 28.4293ZM25.8601 4.90731H26.3601C26.3601 4.66676 26.1888 4.4603 25.9524 4.4159C25.716 4.3715 25.4814 4.50174 25.3942 4.72591L25.8601 4.90731ZM25.8601 28.6953H25.3601C25.3601 28.9715 25.5839 29.1953 25.8601 29.1953V28.6953ZM29.0141 28.6953V29.1953C29.2902 29.1953 29.5141 28.9715 29.5141 28.6953H29.0141ZM29.0141 0.765312H29.5141C29.5141 0.48917 29.2902 0.265312 29.0141 0.265312V0.765312ZM24.4161 0.765312V0.265312C24.21 0.265312 24.025 0.391803 23.9502 0.583879L24.4161 0.765312ZM14.9161 25.1613L14.4499 25.3421C14.5245 25.5344 14.7095 25.6612 14.9157 25.6613C15.122 25.6615 15.3072 25.5349 15.382 25.3427L14.9161 25.1613ZM5.45409 0.765312L5.92025 0.584509C5.84563 0.392103 5.66046 0.265312 5.45409 0.265312V0.765312ZM0.318085 0.765312V28.6953H1.31808V0.765312H0.318085ZM0.818085 29.1953H3.97208V28.1953H0.818085V29.1953ZM4.47208 28.6953V4.83131H3.47208V28.6953H4.47208ZM3.5057 5.01156L12.6257 28.6096L13.5585 28.2491L4.43847 4.65107L3.5057 5.01156ZM13.0921 28.9293H16.7021V27.9293H13.0921V28.9293ZM17.168 28.6107L26.326 5.08872L25.3942 4.72591L16.2362 28.2479L17.168 28.6107ZM25.3601 4.90731V28.6953H26.3601V4.90731H25.3601ZM25.8601 29.1953H29.0141V28.1953H25.8601V29.1953ZM29.5141 28.6953V0.765312H28.5141V28.6953H29.5141ZM29.0141 0.265312H24.4161V1.26531H29.0141V0.265312ZM23.9502 0.583879L14.4502 24.9799L15.382 25.3427L24.882 0.946745L23.9502 0.583879ZM15.3823 24.9805L5.92025 0.584509L4.98792 0.946115L14.4499 25.3421L15.3823 24.9805ZM5.45409 0.265312H0.818085V1.26531H5.45409V0.265312ZM37.5124 28.6953L37.0504 28.5042C36.9866 28.6585 37.004 28.8344 37.0968 28.9732C37.1896 29.112 37.3455 29.1953 37.5124 29.1953V28.6953ZM40.9704 28.6953V29.1953C41.1744 29.1953 41.358 29.0714 41.4342 28.8821L40.9704 28.6953ZM44.2004 20.6773V20.1773C43.9964 20.1773 43.8129 20.3013 43.7366 20.4905L44.2004 20.6773ZM57.2724 20.6773L57.737 20.4924C57.6612 20.3021 57.4772 20.1773 57.2724 20.1773V20.6773ZM60.4644 28.6953L59.9999 28.8802C60.0756 29.0705 60.2597 29.1953 60.4644 29.1953V28.6953ZM63.9224 28.6953V29.1953C64.0892 29.1953 64.2449 29.1122 64.3378 28.9737C64.4306 28.8352 64.4483 28.6595 64.3849 28.5053L63.9224 28.6953ZM52.4464 0.765312L52.9089 0.575285C52.8319 0.38775 52.6492 0.265312 52.4464 0.265312V0.765312ZM49.0644 0.765312V0.265312C48.8621 0.265312 48.6797 0.387246 48.6024 0.57421L49.0644 0.765312ZM45.3404 17.9033L44.877 17.7156C44.8146 17.8697 44.8328 18.0448 44.9258 18.1827C45.0187 18.3206 45.1741 18.4033 45.3404 18.4033V17.9033ZM50.7744 4.48931L51.2388 4.30384C51.163 4.11431 50.9797 3.98981 50.7756 3.98931C50.5715 3.98882 50.3876 4.11242 50.311 4.30158L50.7744 4.48931ZM56.1324 17.9033V18.4033C56.2983 18.4033 56.4534 18.3211 56.5464 18.1837C56.6394 18.0464 56.6583 17.8719 56.5968 17.7178L56.1324 17.9033ZM37.5124 29.1953H40.9704V28.1953H37.5124V29.1953ZM41.4342 28.8821L44.6642 20.8641L43.7366 20.4905L40.5066 28.5085L41.4342 28.8821ZM44.2004 21.1773H57.2724V20.1773H44.2004V21.1773ZM56.8079 20.8622L59.9999 28.8802L60.929 28.5104L57.737 20.4924L56.8079 20.8622ZM60.4644 29.1953H63.9224V28.1953H60.4644V29.1953ZM64.3849 28.5053L52.9089 0.575285L51.9839 0.955338L63.4599 28.8853L64.3849 28.5053ZM52.4464 0.265312H49.0644V1.26531H52.4464V0.265312ZM48.6024 0.57421L37.0504 28.5042L37.9745 28.8864L49.5265 0.956414L48.6024 0.57421ZM45.8038 18.091L51.2378 4.67704L50.311 4.30158L44.877 17.7156L45.8038 18.091ZM50.3101 4.67478L55.6681 18.0888L56.5968 17.7178L51.2388 4.30384L50.3101 4.67478ZM56.1324 17.4033H45.3404V18.4033H56.1324V17.4033ZM73.9503 18.5873H74.4503C74.4503 18.4123 74.3587 18.25 74.2089 18.1594C74.0591 18.0689 73.8728 18.0632 73.7179 18.1446L73.9503 18.5873ZM70.9103 20.1833L70.6779 19.7406C70.498 19.835 70.3932 20.0289 70.4126 20.231L70.9103 20.1833ZM88.9223 9.39131H88.4223C88.4223 9.55952 88.5069 9.71645 88.6473 9.80894C88.7878 9.90143 88.9654 9.91708 89.1199 9.85058L88.9223 9.39131ZM91.9243 8.09931L92.1219 8.55858C92.3145 8.47573 92.4349 8.2816 92.4235 8.07232L91.9243 8.09931ZM81.6643 -0.34269C78.9392 -0.34269 76.2949 0.401157 74.318 1.82759C72.3295 3.26228 71.0183 5.39061 71.0183 8.09931H72.0183C72.0183 5.75401 73.139 3.91134 74.9031 2.63854C76.6786 1.35746 79.1073 0.65731 81.6643 0.65731V-0.34269ZM71.0183 8.09931C71.0183 9.52675 71.3071 10.7031 71.8329 11.6749C72.3589 12.647 73.1074 13.3875 73.9872 13.9645C75.7261 15.105 78.015 15.6266 80.1996 16.0569C82.4326 16.4967 84.5437 16.8408 86.118 17.5826C86.8927 17.9475 87.5004 18.3937 87.9157 18.964C88.3263 19.5278 88.5743 20.2476 88.5743 21.2093H89.5743C89.5743 20.0621 89.2737 19.13 88.7241 18.3754C88.1793 17.6272 87.4155 17.0884 86.5443 16.6779C84.8269 15.8688 82.5489 15.5004 80.3929 15.0757C78.1886 14.6416 76.0884 14.1467 74.5356 13.1283C73.7695 12.6258 73.1465 12.0013 72.7124 11.199C72.2781 10.3964 72.0183 9.38887 72.0183 8.09931H71.0183ZM88.5743 21.2093C88.5743 22.6697 87.912 23.8434 86.7555 24.6688C85.5851 25.5043 83.8906 25.9913 81.8543 25.9913V26.9913C84.0359 26.9913 85.9515 26.4713 87.3365 25.4828C88.7356 24.4842 89.5743 23.0169 89.5743 21.2093H88.5743ZM81.8543 25.9913C79.3955 25.9913 77.5605 25.2291 76.3388 23.9596C75.114 22.6869 74.4503 20.8467 74.4503 18.5873H73.4503C73.4503 21.0399 74.1735 23.1517 75.6182 24.653C77.0661 26.1575 79.1831 26.9913 81.8543 26.9913V25.9913ZM73.7179 18.1446L70.6779 19.7406L71.1427 20.626L74.1827 19.03L73.7179 18.1446ZM70.4126 20.231C70.6901 23.1258 71.9347 25.5213 73.9392 27.1892C75.94 28.854 78.6627 29.7653 81.8543 29.7653V28.7653C78.8519 28.7653 76.3685 27.9096 74.5788 26.4205C72.7928 24.9344 71.6624 22.7889 71.408 20.1356L70.4126 20.231ZM81.8543 29.7653C84.9909 29.7653 87.7293 28.9769 89.6963 27.4727C91.6768 25.9582 92.8423 23.7406 92.8423 20.9813H91.8423C91.8423 23.4281 90.8228 25.3524 89.0888 26.6784C87.3413 28.0147 84.8357 28.7653 81.8543 28.7653V29.7653ZM92.8423 20.9813C92.8423 18.0532 91.665 16.1782 89.885 14.9376C88.1467 13.7261 85.859 13.1385 83.668 12.6737C81.4297 12.1989 79.3143 11.8538 77.7297 11.1609C76.949 10.8196 76.3422 10.4109 75.9307 9.89764C75.5272 9.39431 75.2863 8.75931 75.2863 7.90931H74.2863C74.2863 8.96881 74.5939 9.82887 75.1505 10.5231C75.6991 11.2075 76.4639 11.6989 77.3291 12.0772C79.0362 12.8236 81.3099 13.1957 83.4605 13.6519C85.6585 14.1182 87.7598 14.6753 89.3133 15.758C90.8251 16.8117 91.8423 18.3804 91.8423 20.9813H92.8423ZM75.2863 7.90931C75.2863 6.50496 75.9112 5.40955 77.0013 4.64733C78.1085 3.87314 79.7177 3.43131 81.6643 3.43131V2.43131C79.5829 2.43131 77.753 2.90148 76.4283 3.82779C75.0864 4.76607 74.2863 6.15966 74.2863 7.90931H75.2863ZM81.6643 3.43131C83.8443 3.43131 85.5292 4.08393 86.664 5.13211C87.7963 6.17792 88.4223 7.6549 88.4223 9.39131H89.4223C89.4223 7.40373 88.6993 5.65071 87.3425 4.39752C85.9883 3.14669 84.0443 2.43131 81.6643 2.43131V3.43131ZM89.1199 9.85058L92.1219 8.55858L91.7266 7.64004L88.7246 8.93204L89.1199 9.85058ZM92.4235 8.07232C92.1779 3.52749 87.9816 -0.34269 81.6643 -0.34269V0.65731C87.583 0.65731 91.2147 4.23513 91.425 8.1263L92.4235 8.07232ZM100.05 0.765312V0.265312C99.7736 0.265312 99.5497 0.48917 99.5497 0.765312H100.05ZM100.05 3.69131H99.5497C99.5497 3.96745 99.7736 4.19131 100.05 4.19131V3.69131ZM109.284 3.69131H109.784C109.784 3.41517 109.56 3.19131 109.284 3.19131V3.69131ZM109.284 28.6953H108.784C108.784 28.9715 109.008 29.1953 109.284 29.1953V28.6953ZM112.476 28.6953V29.1953C112.752 29.1953 112.976 28.9715 112.976 28.6953H112.476ZM112.476 3.69131V3.19131C112.2 3.19131 111.976 3.41517 111.976 3.69131H112.476ZM121.71 3.69131V4.19131C121.986 4.19131 122.21 3.96745 122.21 3.69131H121.71ZM121.71 0.765312H122.21C122.21 0.48917 121.986 0.265312 121.71 0.265312V0.765312ZM99.5497 0.765312V3.69131H100.55V0.765312H99.5497ZM100.05 4.19131H109.284V3.19131H100.05V4.19131ZM108.784 3.69131V28.6953H109.784V3.69131H108.784ZM109.284 29.1953H112.476V28.1953H109.284V29.1953ZM112.976 28.6953V3.69131H111.976V28.6953H112.976ZM112.476 4.19131H121.71V3.19131H112.476V4.19131ZM122.21 3.69131V0.765312H121.21V3.69131H122.21ZM121.71 0.265312H100.05V1.26531H121.71V0.265312ZM130.943 28.6953H130.443C130.443 28.9715 130.667 29.1953 130.943 29.1953V28.6953ZM149.373 28.6953V29.1953C149.649 29.1953 149.873 28.9715 149.873 28.6953H149.373ZM149.373 25.8073H149.873C149.873 25.5312 149.649 25.3073 149.373 25.3073V25.8073ZM134.135 25.8073H133.635C133.635 26.0835 133.859 26.3073 134.135 26.3073V25.8073ZM134.135 15.9273V15.4273C133.859 15.4273 133.635 15.6512 133.635 15.9273H134.135ZM148.195 15.9273V16.4273C148.471 16.4273 148.695 16.2035 148.695 15.9273H148.195ZM148.195 13.0393H148.695C148.695 12.7632 148.471 12.5393 148.195 12.5393V13.0393ZM134.135 13.0393H133.635C133.635 13.3155 133.859 13.5393 134.135 13.5393V13.0393ZM134.135 3.65331V3.15331C133.859 3.15331 133.635 3.37717 133.635 3.65331H134.135ZM149.297 3.65331V4.15331C149.573 4.15331 149.797 3.92945 149.797 3.65331H149.297ZM149.297 0.765312H149.797C149.797 0.48917 149.573 0.265312 149.297 0.265312V0.765312ZM130.943 0.765312V0.265312C130.667 0.265312 130.443 0.48917 130.443 0.765312H130.943ZM130.943 29.1953H149.373V28.1953H130.943V29.1953ZM149.873 28.6953V25.8073H148.873V28.6953H149.873ZM149.373 25.3073H134.135V26.3073H149.373V25.3073ZM134.635 25.8073V15.9273H133.635V25.8073H134.635ZM134.135 16.4273H148.195V15.4273H134.135V16.4273ZM148.695 15.9273V13.0393H147.695V15.9273H148.695ZM148.195 12.5393H134.135V13.5393H148.195V12.5393ZM134.635 13.0393V3.65331H133.635V13.0393H134.635ZM134.135 4.15331H149.297V3.15331H134.135V4.15331ZM149.797 3.65331V0.765312H148.797V3.65331H149.797ZM149.297 0.265312H130.943V1.26531H149.297V0.265312ZM130.443 0.765312V28.6953H131.443V0.765312H130.443ZM160.069 28.6953H159.569C159.569 28.9715 159.793 29.1953 160.069 29.1953V28.6953ZM163.261 28.6953V29.1953C163.537 29.1953 163.761 28.9715 163.761 28.6953H163.261ZM163.261 16.4213V15.9213C162.985 15.9213 162.761 16.1452 162.761 16.4213H163.261ZM169.835 16.4213L170.249 16.1407C170.156 16.0035 170.001 15.9213 169.835 15.9213V16.4213ZM178.157 28.6953L177.743 28.9759C177.836 29.1131 177.991 29.1953 178.157 29.1953V28.6953ZM181.957 28.6953V29.1953C182.144 29.1953 182.315 29.0915 182.401 28.926C182.487 28.7605 182.474 28.5609 182.367 28.4082L181.957 28.6953ZM174.015 17.3713L174.425 17.0842C174.359 16.9906 174.263 16.9223 174.153 16.8908L174.015 17.3713ZM170.709 16.4213V15.9213C170.46 15.9213 170.249 16.1048 170.214 16.3516C170.179 16.5984 170.332 16.833 170.571 16.9019L170.709 16.4213ZM160.069 0.765312V0.265312C159.793 0.265312 159.569 0.48917 159.569 0.765312H160.069ZM163.261 13.5713H162.761C162.761 13.8475 162.985 14.0713 163.261 14.0713V13.5713ZM163.261 3.65331V3.15331C162.985 3.15331 162.761 3.37717 162.761 3.65331H163.261ZM160.069 29.1953H163.261V28.1953H160.069V29.1953ZM163.761 28.6953V16.4213H162.761V28.6953H163.761ZM163.261 16.9213H169.835V15.9213H163.261V16.9213ZM169.421 16.7019L177.743 28.9759L178.571 28.4147L170.249 16.1407L169.421 16.7019ZM178.157 29.1953H181.957V28.1953H178.157V29.1953ZM182.367 28.4082L174.425 17.0842L173.606 17.6584L181.548 28.9824L182.367 28.4082ZM174.153 16.8908L170.847 15.9408L170.571 16.9019L173.877 17.8519L174.153 16.8908ZM170.709 16.9213H172.077V15.9213H170.709V16.9213ZM172.077 16.9213C175.078 16.9213 177.433 16.0669 179.043 14.5745C180.656 13.0794 181.469 10.9913 181.469 8.63131H180.469C180.469 10.7553 179.743 12.5622 178.364 13.8411C176.981 15.1227 174.891 15.9213 172.077 15.9213V16.9213ZM181.469 8.63131C181.469 6.26666 180.625 4.16189 179.001 2.65083C177.38 1.14165 175.026 0.265312 172.077 0.265312V1.26531C174.828 1.26531 176.92 2.07997 178.32 3.3828C179.718 4.68373 180.469 6.51196 180.469 8.63131H181.469ZM172.077 0.265312H160.069V1.26531H172.077V0.265312ZM159.569 0.765312V28.6953H160.569V0.765312H159.569ZM163.761 13.5713V3.65331H162.761V13.5713H163.761ZM163.261 4.15331H172.001V3.15331H163.261V4.15331ZM172.001 4.15331C173.779 4.15331 175.091 4.62438 175.954 5.39037C176.809 6.15021 177.277 7.24976 177.277 8.63131H178.277C178.277 7.01086 177.719 5.62141 176.618 4.64276C175.523 3.67024 173.948 3.15331 172.001 3.15331V4.15331ZM177.277 8.63131C177.277 9.98929 176.803 11.08 175.941 11.8373C175.073 12.6008 173.758 13.0713 172.001 13.0713V14.0713C173.93 14.0713 175.504 13.5538 176.602 12.5883C177.707 11.6166 178.277 10.2373 178.277 8.63131H177.277ZM172.001 13.0713H163.261V14.0713H172.001V13.0713ZM216.124 22.5393L216.554 22.7942C216.687 22.5704 216.626 22.2823 216.414 22.1316L216.124 22.5393ZM213.502 20.6773L213.792 20.2696C213.669 20.183 213.515 20.1555 213.371 20.1949C213.226 20.2343 213.107 20.3363 213.046 20.4729L213.502 20.6773ZM213.464 8.66931L213.011 8.88153C213.075 9.01759 213.197 9.11775 213.342 9.1543C213.488 9.19085 213.643 9.1599 213.763 9.07003L213.464 8.66931ZM216.01 6.76931L216.309 7.17003C216.509 7.02057 216.568 6.74619 216.448 6.52747L216.01 6.76931ZM203.964 -0.34269C196.196 -0.34269 189.062 5.2464 189.062 14.6733H190.062C190.062 5.86023 196.684 0.65731 203.964 0.65731V-0.34269ZM189.062 14.6733C189.062 24.1315 196.075 29.7653 203.888 29.7653V28.7653C196.577 28.7653 190.062 23.5311 190.062 14.6733H189.062ZM203.888 29.7653C209.417 29.7653 214.029 27.0548 216.554 22.7942L215.694 22.2844C213.355 26.2318 209.075 28.7653 203.888 28.7653V29.7653ZM216.414 22.1316L213.792 20.2696L213.213 21.085L215.835 22.947L216.414 22.1316ZM213.046 20.4729C211.505 23.9124 208.056 25.8773 204.04 25.8773V26.8773C208.384 26.8773 212.231 24.7382 213.958 20.8817L213.046 20.4729ZM204.04 25.8773C201.152 25.8773 198.469 24.8819 196.51 23.0049C194.557 21.1323 193.292 18.3509 193.292 14.7113H192.292C192.292 18.5958 193.649 21.6473 195.819 23.7268C197.983 25.8018 200.924 26.8773 204.04 26.8773V25.8773ZM193.292 14.7113C193.292 11.0174 194.593 8.2368 196.565 6.37784C198.542 4.51324 201.227 3.54531 204.04 3.54531V2.54531C201.001 2.54531 198.062 3.59139 195.878 5.65028C193.689 7.71482 192.292 10.7672 192.292 14.7113H193.292ZM204.04 3.54531C207.944 3.54531 211.396 5.43658 213.011 8.88153L213.917 8.4571C212.112 4.60604 208.268 2.54531 204.04 2.54531V3.54531ZM213.763 9.07003L216.309 7.17003L215.711 6.3686L213.165 8.2686L213.763 9.07003ZM216.448 6.52747C213.949 2.00621 209.011 -0.34269 203.964 -0.34269V0.65731C208.721 0.65731 213.283 2.86841 215.572 7.01115L216.448 6.52747ZM225.633 28.6953H225.133C225.133 28.9715 225.356 29.1953 225.633 29.1953V28.6953ZM243.113 28.6953V29.1953C243.389 29.1953 243.613 28.9715 243.613 28.6953H243.113ZM243.113 25.7693H243.613C243.613 25.4932 243.389 25.2693 243.113 25.2693V25.7693ZM228.825 25.7693H228.325C228.325 26.0455 228.548 26.2693 228.825 26.2693V25.7693ZM228.825 0.765312H229.325C229.325 0.48917 229.101 0.265312 228.825 0.265312V0.765312ZM225.633 0.765312V0.265312C225.356 0.265312 225.133 0.48917 225.133 0.765312H225.633ZM225.633 29.1953H243.113V28.1953H225.633V29.1953ZM243.613 28.6953V25.7693H242.613V28.6953H243.613ZM243.113 25.2693H228.825V26.2693H243.113V25.2693ZM229.325 25.7693V0.765312H228.325V25.7693H229.325ZM228.825 0.265312H225.633V1.26531H228.825V0.265312ZM225.133 0.765312V28.6953H226.133V0.765312H225.133ZM249.153 28.6953L248.691 28.5042C248.627 28.6585 248.645 28.8344 248.737 28.9732C248.83 29.112 248.986 29.1953 249.153 29.1953V28.6953ZM252.611 28.6953V29.1953C252.815 29.1953 252.999 29.0714 253.075 28.8821L252.611 28.6953ZM255.841 20.6773V20.1773C255.637 20.1773 255.454 20.3013 255.377 20.4905L255.841 20.6773ZM268.913 20.6773L269.378 20.4924C269.302 20.3021 269.118 20.1773 268.913 20.1773V20.6773ZM272.105 28.6953L271.641 28.8802C271.716 29.0705 271.9 29.1953 272.105 29.1953V28.6953ZM275.563 28.6953V29.1953C275.73 29.1953 275.886 29.1122 275.978 28.9737C276.071 28.8352 276.089 28.6595 276.026 28.5053L275.563 28.6953ZM264.087 0.765312L264.55 0.575285C264.473 0.38775 264.29 0.265312 264.087 0.265312V0.765312ZM260.705 0.765312V0.265312C260.503 0.265312 260.32 0.387246 260.243 0.57421L260.705 0.765312ZM256.981 17.9033L256.518 17.7156C256.455 17.8697 256.474 18.0448 256.566 18.1827C256.659 18.3206 256.815 18.4033 256.981 18.4033V17.9033ZM262.415 4.48931L262.879 4.30384C262.804 4.11431 262.62 3.98981 262.416 3.98931C262.212 3.98882 262.028 4.11242 261.952 4.30158L262.415 4.48931ZM267.773 17.9033V18.4033C267.939 18.4033 268.094 18.3211 268.187 18.1837C268.28 18.0464 268.299 17.8719 268.237 17.7178L267.773 17.9033ZM249.153 29.1953H252.611V28.1953H249.153V29.1953ZM253.075 28.8821L256.305 20.8641L255.377 20.4905L252.147 28.5085L253.075 28.8821ZM255.841 21.1773H268.913V20.1773H255.841V21.1773ZM268.449 20.8622L271.641 28.8802L272.57 28.5104L269.378 20.4924L268.449 20.8622ZM272.105 29.1953H275.563V28.1953H272.105V29.1953ZM276.026 28.5053L264.55 0.575285L263.625 0.955338L275.101 28.8853L276.026 28.5053ZM264.087 0.265312H260.705V1.26531H264.087V0.265312ZM260.243 0.57421L248.691 28.5042L249.615 28.8864L261.167 0.956414L260.243 0.57421ZM257.445 18.091L262.879 4.67704L261.952 4.30158L256.518 17.7156L257.445 18.091ZM261.951 4.67478L267.309 18.0888L268.237 17.7178L262.879 4.30384L261.951 4.67478ZM267.773 17.4033H256.981V18.4033H267.773V17.4033ZM285.591 18.5873H286.091C286.091 18.4123 285.999 18.25 285.85 18.1594C285.7 18.0689 285.514 18.0632 285.359 18.1446L285.591 18.5873ZM282.551 20.1833L282.319 19.7406C282.139 19.835 282.034 20.0289 282.053 20.231L282.551 20.1833ZM300.563 9.39131H300.063C300.063 9.55952 300.148 9.71645 300.288 9.80894C300.429 9.90143 300.606 9.91708 300.761 9.85058L300.563 9.39131ZM303.565 8.09931L303.763 8.55858C303.955 8.47573 304.076 8.2816 304.064 8.07232L303.565 8.09931ZM293.305 -0.34269C290.58 -0.34269 287.936 0.401157 285.959 1.82759C283.97 3.26228 282.659 5.39061 282.659 8.09931H283.659C283.659 5.75401 284.78 3.91134 286.544 2.63854C288.319 1.35746 290.748 0.65731 293.305 0.65731V-0.34269ZM282.659 8.09931C282.659 9.52675 282.948 10.7031 283.474 11.6749C284 12.647 284.748 13.3875 285.628 13.9645C287.367 15.105 289.656 15.6266 291.84 16.0569C294.073 16.4967 296.184 16.8408 297.759 17.5826C298.533 17.9475 299.141 18.3937 299.556 18.964C299.967 19.5278 300.215 20.2476 300.215 21.2093H301.215C301.215 20.0621 300.914 19.13 300.365 18.3754C299.82 17.6272 299.056 17.0884 298.185 16.6779C296.468 15.8688 294.19 15.5004 292.034 15.0757C289.829 14.6416 287.729 14.1467 286.176 13.1283C285.41 12.6258 284.787 12.0013 284.353 11.199C283.919 10.3964 283.659 9.38887 283.659 8.09931H282.659ZM300.215 21.2093C300.215 22.6697 299.553 23.8434 298.396 24.6688C297.226 25.5043 295.531 25.9913 293.495 25.9913V26.9913C295.677 26.9913 297.592 26.4713 298.977 25.4828C300.376 24.4842 301.215 23.0169 301.215 21.2093H300.215ZM293.495 25.9913C291.036 25.9913 289.201 25.2291 287.98 23.9596C286.755 22.6869 286.091 20.8467 286.091 18.5873H285.091C285.091 21.0399 285.814 23.1517 287.259 24.653C288.707 26.1575 290.824 26.9913 293.495 26.9913V25.9913ZM285.359 18.1446L282.319 19.7406L282.783 20.626L285.823 19.03L285.359 18.1446ZM282.053 20.231C282.331 23.1258 283.575 25.5213 285.58 27.1892C287.581 28.854 290.303 29.7653 293.495 29.7653V28.7653C290.493 28.7653 288.009 27.9096 286.22 26.4205C284.434 24.9344 283.303 22.7889 283.049 20.1356L282.053 20.231ZM293.495 29.7653C296.632 29.7653 299.37 28.9769 301.337 27.4727C303.318 25.9582 304.483 23.7406 304.483 20.9813H303.483C303.483 23.4281 302.463 25.3524 300.73 26.6784C298.982 28.0147 296.476 28.7653 293.495 28.7653V29.7653ZM304.483 20.9813C304.483 18.0532 303.306 16.1782 301.526 14.9376C299.787 13.7261 297.5 13.1385 295.309 12.6737C293.07 12.1989 290.955 11.8538 289.37 11.1609C288.59 10.8196 287.983 10.4109 287.571 9.89764C287.168 9.39431 286.927 8.75931 286.927 7.90931H285.927C285.927 8.96881 286.235 9.82887 286.791 10.5231C287.34 11.2075 288.105 11.6989 288.97 12.0772C290.677 12.8236 292.951 13.1957 295.101 13.6519C297.299 14.1182 299.401 14.6753 300.954 15.758C302.466 16.8117 303.483 18.3804 303.483 20.9813H304.483ZM286.927 7.90931C286.927 6.50496 287.552 5.40955 288.642 4.64733C289.749 3.87314 291.358 3.43131 293.305 3.43131V2.43131C291.224 2.43131 289.394 2.90148 288.069 3.82779C286.727 4.76607 285.927 6.15966 285.927 7.90931H286.927ZM293.305 3.43131C295.485 3.43131 297.17 4.08393 298.305 5.13211C299.437 6.17792 300.063 7.6549 300.063 9.39131H301.063C301.063 7.40373 300.34 5.65071 298.983 4.39752C297.629 3.14669 295.685 2.43131 293.305 2.43131V3.43131ZM300.761 9.85058L303.763 8.55858L303.367 7.64004L300.365 8.93204L300.761 9.85058ZM304.064 8.07232C303.819 3.52749 299.622 -0.34269 293.305 -0.34269V0.65731C299.224 0.65731 302.855 4.23513 303.066 8.1263L304.064 8.07232ZM315.756 18.5873H316.256C316.256 18.4123 316.165 18.25 316.015 18.1594C315.865 18.0689 315.679 18.0632 315.524 18.1446L315.756 18.5873ZM312.716 20.1833L312.484 19.7406C312.304 19.835 312.199 20.0289 312.219 20.231L312.716 20.1833ZM330.728 9.39131H330.228C330.228 9.55952 330.313 9.71645 330.454 9.80894C330.594 9.90143 330.772 9.91708 330.926 9.85058L330.728 9.39131ZM333.73 8.09931L333.928 8.55858C334.121 8.47573 334.241 8.2816 334.23 8.07232L333.73 8.09931ZM323.47 -0.34269C320.745 -0.34269 318.101 0.401157 316.124 1.82759C314.136 3.26228 312.824 5.39061 312.824 8.09931H313.824C313.824 5.75401 314.945 3.91134 316.709 2.63854C318.485 1.35746 320.914 0.65731 323.47 0.65731V-0.34269ZM312.824 8.09931C312.824 9.52675 313.113 10.7031 313.639 11.6749C314.165 12.647 314.914 13.3875 315.793 13.9645C317.532 15.105 319.821 15.6266 322.006 16.0569C324.239 16.4967 326.35 16.8408 327.924 17.5826C328.699 17.9475 329.307 18.3937 329.722 18.964C330.132 19.5278 330.38 20.2476 330.38 21.2093H331.38C331.38 20.0621 331.08 19.13 330.53 18.3754C329.986 17.6272 329.222 17.0884 328.35 16.6779C326.633 15.8688 324.355 15.5004 322.199 15.0757C319.995 14.6416 317.895 14.1467 316.342 13.1283C315.576 12.6258 314.953 12.0013 314.519 11.199C314.084 10.3964 313.824 9.38887 313.824 8.09931H312.824ZM330.38 21.2093C330.38 22.6697 329.718 23.8434 328.562 24.6688C327.391 25.5043 325.697 25.9913 323.66 25.9913V26.9913C325.842 26.9913 327.758 26.4713 329.143 25.4828C330.542 24.4842 331.38 23.0169 331.38 21.2093H330.38ZM323.66 25.9913C321.202 25.9913 319.367 25.2291 318.145 23.9596C316.92 22.6869 316.256 20.8467 316.256 18.5873H315.256C315.256 21.0399 315.98 23.1517 317.424 24.653C318.872 26.1575 320.989 26.9913 323.66 26.9913V25.9913ZM315.524 18.1446L312.484 19.7406L312.949 20.626L315.989 19.03L315.524 18.1446ZM312.219 20.231C312.496 23.1258 313.741 25.5213 315.745 27.1892C317.746 28.854 320.469 29.7653 323.66 29.7653V28.7653C320.658 28.7653 318.175 27.9096 316.385 26.4205C314.599 24.9344 313.469 22.7889 313.214 20.1356L312.219 20.231ZM323.66 29.7653C326.797 29.7653 329.535 28.9769 331.502 27.4727C333.483 25.9582 334.648 23.7406 334.648 20.9813H333.648C333.648 23.4281 332.629 25.3524 330.895 26.6784C329.147 28.0147 326.642 28.7653 323.66 28.7653V29.7653ZM334.648 20.9813C334.648 18.0532 333.471 16.1782 331.691 14.9376C329.953 13.7261 327.665 13.1385 325.474 12.6737C323.236 12.1989 321.121 11.8538 319.536 11.1609C318.755 10.8196 318.148 10.4109 317.737 9.89764C317.333 9.39431 317.092 8.75931 317.092 7.90931H316.092C316.092 8.96881 316.4 9.82887 316.957 10.5231C317.505 11.2075 318.27 11.6989 319.135 12.0772C320.842 12.8236 323.116 13.1957 325.267 13.6519C327.465 14.1182 329.566 14.6753 331.119 15.758C332.631 16.8117 333.648 18.3804 333.648 20.9813H334.648ZM317.092 7.90931C317.092 6.50496 317.717 5.40955 318.807 4.64733C319.915 3.87314 321.524 3.43131 323.47 3.43131V2.43131C321.389 2.43131 319.559 2.90148 318.234 3.82779C316.893 4.76607 316.092 6.15966 316.092 7.90931H317.092ZM323.47 3.43131C325.65 3.43131 327.335 4.08393 328.47 5.13211C329.602 6.17792 330.228 7.6549 330.228 9.39131H331.228C331.228 7.40373 330.505 5.65071 329.149 4.39752C327.795 3.14669 325.85 2.43131 323.47 2.43131V3.43131ZM330.926 9.85058L333.928 8.55858L333.533 7.64004L330.531 8.93204L330.926 9.85058ZM334.23 8.07232C333.984 3.52749 329.788 -0.34269 323.47 -0.34269V0.65731C329.389 0.65731 333.021 4.23513 333.231 8.1263L334.23 8.07232Z" fill="#141619"/>
</svg>
