<svg width="429" height="71" viewBox="0 0 429 71" fill="none" xmlns="http://www.w3.org/2000/svg">
<path d="M404.927 14C413.648 14 419.227 19.3084 419.552 25.321L415.273 27.1627C415.273 21.8543 411.427 17.9542 404.927 17.9542C399.185 17.9542 395.123 20.5543 395.123 25.0502C395.123 35.9378 420.148 27.921 420.148 43.6838C420.148 51.1047 413.919 55.4923 405.198 55.4923C396.369 55.4923 390.356 50.4547 389.598 42.5463L393.931 40.2712C393.931 46.988 397.885 51.5381 405.198 51.5381C411.21 51.5381 415.49 48.6672 415.49 44.0088C415.49 31.9836 390.464 40.8129 390.464 25.321C390.464 18.1167 397.398 14 404.927 14Z" fill="#000004"/>
<path d="M368.427 14C377.148 14 382.727 19.3084 383.052 25.321L378.773 27.1627C378.773 21.8543 374.927 17.9542 368.427 17.9542C362.685 17.9542 358.623 20.5543 358.623 25.0502C358.623 35.9378 383.648 27.921 383.648 43.6838C383.648 51.1047 377.419 55.4923 368.698 55.4923C359.869 55.4923 353.856 50.4547 353.098 42.5463L357.431 40.2712C357.431 46.988 361.385 51.5381 368.698 51.5381C374.71 51.5381 378.99 48.6672 378.99 44.0088C378.99 31.9836 353.964 40.8129 353.964 25.321C353.964 18.1167 360.898 14 368.427 14Z" fill="#000004"/>
<path d="M311.991 54.6803L328.458 14.8672H333.279L349.637 54.6803H344.708L340.158 43.251H321.524L316.92 54.6803H311.991ZM323.149 39.2967H338.533L330.895 20.1756L323.149 39.2967Z" fill="#000004"/>
<path d="M284.963 54.6803V14.8672H289.513V50.5094H309.88V54.6803H284.963Z" fill="#000004"/>
<path d="M260.576 14C267.563 14 274.334 17.25 277.747 23.4251L274.118 26.1335C271.68 20.9334 266.48 18.1167 260.684 18.1167C252.342 18.1167 244.651 23.8585 244.651 34.7461C244.651 45.4713 252.126 51.3756 260.684 51.3756C266.643 51.3756 271.843 48.4505 274.172 43.2504L277.909 45.9047C274.443 51.7547 268.105 55.4923 260.468 55.4923C249.688 55.4923 240.046 47.7464 240.046 34.692C240.046 21.6918 249.851 14 260.576 14Z" fill="#000004"/>
<path d="M204.506 54.6803V14.8672H221.623C229.748 14.8672 234.298 19.6881 234.298 26.0799C234.298 32.4716 229.911 37.1842 221.623 37.1842H219.673L224.386 38.5384L235.707 54.6803H230.29L218.427 37.1842H209.056V54.6803H204.506ZM209.056 33.1216H221.515C226.769 33.1216 229.748 30.3049 229.748 26.0799C229.748 21.8006 226.823 18.9839 221.515 18.9839H209.056V33.1216Z" fill="#000004"/>
<path d="M169.487 54.6803V14.8672H195.65V18.9839H174.037V32.3633H194.079V36.48H174.037V50.5636H195.758V54.6803H169.487Z" fill="#000004"/>
<path d="M131.95 14.8672H162.825V19.0381H149.663V54.6803H145.113V19.0381H131.95V14.8672Z" fill="#000004"/>
<path d="M112.242 14C120.963 14 126.543 19.3084 126.868 25.321L122.588 27.1627C122.588 21.8543 118.743 17.9542 112.242 17.9542C106.501 17.9542 102.438 20.5543 102.438 25.0502C102.438 35.9378 127.464 27.921 127.464 43.6838C127.464 51.1047 121.234 55.4923 112.513 55.4923C103.684 55.4923 97.6714 50.4547 96.9131 42.5463L101.246 40.2712C101.246 46.988 105.201 51.5381 112.513 51.5381C118.526 51.5381 122.805 48.6672 122.805 44.0088C122.805 31.9836 97.7798 40.8129 97.7798 25.321C97.7798 18.1167 104.713 14 112.242 14Z" fill="#000004"/>
<path d="M55.8064 54.6803L72.2733 14.8672H77.0942L93.4528 54.6803H88.5236L83.9735 43.2509H65.3399L60.7356 54.6803H55.8064ZM66.9649 39.2967H82.3485L74.7109 20.1756L66.9649 39.2967Z" fill="#000004"/>
<path d="M10 14.8672H16.6084L30.0961 49.6427L43.638 14.8672H50.1923V54.6803H45.6964V20.7714L32.642 54.3011H27.4961L14.4959 20.6631V54.6803H10V14.8672Z" fill="#000004"/>
</svg>
