<svg width="605" height="66" viewBox="0 0 605 66" fill="none" xmlns="http://www.w3.org/2000/svg">
<path d="M5.7 9.9H13.02L27.96 48.42L42.96 9.9H50.22V54H45.24V16.44L30.78 53.58H25.08L10.68 16.32V54H5.7V9.9ZM68.4384 54L86.6784 9.9H92.0184L110.138 54H104.678L99.6384 41.34H78.9984L73.8984 54H68.4384ZM80.7984 36.96H97.8384L89.3784 15.78L80.7984 36.96ZM142.952 8.94C152.612 8.94 158.792 14.82 159.152 21.48L154.412 23.52C154.412 17.64 150.152 13.32 142.952 13.32C136.592 13.32 132.092 16.2 132.092 21.18C132.092 33.24 159.812 24.36 159.812 41.82C159.812 50.04 152.912 54.9 143.252 54.9C133.472 54.9 126.812 49.32 125.972 40.56L130.772 38.04C130.772 45.48 135.152 50.52 143.252 50.52C149.912 50.52 154.652 47.34 154.652 42.18C154.652 28.86 126.932 38.64 126.932 21.48C126.932 13.5 134.612 8.94 142.952 8.94ZM176.782 9.9H210.982V14.52H196.402V54H191.362V14.52H176.782V9.9ZM230.36 54V9.9H259.34V14.46H235.4V29.28H257.6V33.84H235.4V49.44H259.46V54H230.36ZM281.149 54V9.9H300.109C309.109 9.9 314.149 15.24 314.149 22.32C314.149 29.4 309.289 34.62 300.109 34.62H297.949L303.169 36.12L315.709 54H309.709L296.569 34.62H286.189V54H281.149ZM286.189 30.12H299.989C305.809 30.12 309.109 27 309.109 22.32C309.109 17.58 305.869 14.46 299.989 14.46H286.189V30.12ZM355.257 8.94C362.997 8.94 370.497 12.54 374.277 19.38L370.257 22.38C367.557 16.62 361.797 13.5 355.377 13.5C346.137 13.5 337.617 19.86 337.617 31.92C337.617 43.8 345.897 50.34 355.377 50.34C361.977 50.34 367.737 47.1 370.317 41.34L374.457 44.28C370.617 50.76 363.597 54.9 355.137 54.9C343.197 54.9 332.517 46.32 332.517 31.86C332.517 17.46 343.377 8.94 355.257 8.94ZM394.27 54V9.9H399.31V49.38H421.87V54H394.27ZM436.208 54L454.448 9.9H459.788L477.908 54H472.448L467.408 41.34H446.768L441.668 54H436.208ZM448.568 36.96H465.608L457.148 15.78L448.568 36.96ZM510.721 8.94C520.381 8.94 526.561 14.82 526.921 21.48L522.181 23.52C522.181 17.64 517.921 13.32 510.721 13.32C504.361 13.32 499.861 16.2 499.861 21.18C499.861 33.24 527.581 24.36 527.581 41.82C527.581 50.04 520.681 54.9 511.021 54.9C501.241 54.9 494.581 49.32 493.741 40.56L498.541 38.04C498.541 45.48 502.921 50.52 511.021 50.52C517.681 50.52 522.421 47.34 522.421 42.18C522.421 28.86 494.701 38.64 494.701 21.48C494.701 13.5 502.381 8.94 510.721 8.94ZM563.151 8.94C572.811 8.94 578.991 14.82 579.351 21.48L574.611 23.52C574.611 17.64 570.351 13.32 563.151 13.32C556.791 13.32 552.291 16.2 552.291 21.18C552.291 33.24 580.011 24.36 580.011 41.82C580.011 50.04 573.111 54.9 563.451 54.9C553.671 54.9 547.011 49.32 546.171 40.56L550.971 38.04C550.971 45.48 555.351 50.52 563.451 50.52C570.111 50.52 574.851 47.34 574.851 42.18C574.851 28.86 547.131 38.64 547.131 21.48C547.131 13.5 554.811 8.94 563.151 8.94Z" fill="#2BFF99"/>
<path d="M5.7 9.9V8.9C5.14772 8.9 4.7 9.34771 4.7 9.9H5.7ZM13.02 9.9L13.9523 9.53839C13.8031 9.15358 13.4327 8.9 13.02 8.9V9.9ZM27.96 48.42L27.0277 48.7816C27.1768 49.1662 27.5468 49.4197 27.9593 49.42C28.3718 49.4203 28.7422 49.1672 28.8918 48.7829L27.96 48.42ZM42.96 9.9V8.9C42.5478 8.9 42.1778 9.15298 42.0282 9.53713L42.96 9.9ZM50.22 9.9H51.22C51.22 9.34771 50.7723 8.9 50.22 8.9V9.9ZM50.22 54V55C50.7723 55 51.22 54.5523 51.22 54H50.22ZM45.24 54H44.24C44.24 54.5523 44.6877 55 45.24 55V54ZM45.24 16.44H46.24C46.24 15.9589 45.8974 15.546 45.4246 15.4572C44.9517 15.3684 44.4827 15.6289 44.3081 16.0772L45.24 16.44ZM30.78 53.58V54.58C31.1923 54.58 31.5623 54.327 31.7119 53.9428L30.78 53.58ZM25.08 53.58L24.1472 53.9405C24.2962 54.3259 24.6668 54.58 25.08 54.58V53.58ZM10.68 16.32L11.6128 15.9595C11.4392 15.5103 10.9701 15.2487 10.4966 15.337C10.0232 15.4252 9.68 15.8384 9.68 16.32H10.68ZM10.68 54V55C11.2323 55 11.68 54.5523 11.68 54H10.68ZM5.7 54H4.7C4.7 54.5523 5.14772 55 5.7 55V54ZM5.7 10.9H13.02V8.9H5.7V10.9ZM12.0877 10.2616L27.0277 48.7816L28.8923 48.0584L13.9523 9.53839L12.0877 10.2616ZM28.8918 48.7829L43.8918 10.2629L42.0282 9.53713L27.0282 48.0571L28.8918 48.7829ZM42.96 10.9H50.22V8.9H42.96V10.9ZM49.22 9.9V54H51.22V9.9H49.22ZM50.22 53H45.24V55H50.22V53ZM46.24 54V16.44H44.24V54H46.24ZM44.3081 16.0772L29.8481 53.2172L31.7119 53.9428L46.1719 16.8028L44.3081 16.0772ZM30.78 52.58H25.08V54.58H30.78V52.58ZM26.0128 53.2195L11.6128 15.9595L9.74724 16.6805L24.1472 53.9405L26.0128 53.2195ZM9.68 16.32V54H11.68V16.32H9.68ZM10.68 53H5.7V55H10.68V53ZM6.7 54V9.9H4.7V54H6.7ZM68.4384 54L67.5144 53.6178C67.3867 53.9263 67.4215 54.2782 67.6071 54.5558C67.7927 54.8334 68.1045 55 68.4384 55V54ZM86.6784 9.9V8.9C86.2738 8.9 85.909 9.14387 85.7544 9.5178L86.6784 9.9ZM92.0184 9.9L92.9434 9.51995C92.7893 9.14487 92.4239 8.9 92.0184 8.9V9.9ZM110.138 54V55C110.472 55 110.783 54.8338 110.969 54.5568C111.155 54.2797 111.19 53.9284 111.063 53.6199L110.138 54ZM104.678 54L103.749 54.3699C103.901 54.7503 104.269 55 104.678 55V54ZM99.6384 41.34L100.568 40.9701C100.416 40.5897 100.048 40.34 99.6384 40.34V41.34ZM78.9984 41.34V40.34C78.5904 40.34 78.2233 40.5879 78.0709 40.9663L78.9984 41.34ZM73.8984 54V55C74.3064 55 74.6735 54.7521 74.826 54.3737L73.8984 54ZM80.7984 36.96L79.8716 36.5845C79.7467 36.8928 79.7833 37.243 79.9691 37.5188C80.155 37.7946 80.4658 37.96 80.7984 37.96V36.96ZM97.8384 36.96V37.96C98.1702 37.96 98.4803 37.7955 98.6664 37.5208C98.8524 37.2462 98.8901 36.8971 98.7671 36.5891L97.8384 36.96ZM89.3784 15.78L90.3071 15.4091C90.1557 15.03 89.7891 14.781 89.3809 14.78C88.9727 14.779 88.6049 15.0262 88.4516 15.4045L89.3784 15.78ZM69.3625 54.3822L87.6025 10.2822L85.7544 9.5178L67.5144 53.6178L69.3625 54.3822ZM86.6784 10.9H92.0184V8.9H86.6784V10.9ZM91.0935 10.2801L109.213 54.3801L111.063 53.6199L92.9434 9.51995L91.0935 10.2801ZM110.138 53H104.678V55H110.138V53ZM105.608 53.6301L100.568 40.9701L98.7094 41.7099L103.749 54.3699L105.608 53.6301ZM99.6384 40.34H78.9984V42.34H99.6384V40.34ZM78.0709 40.9663L72.9709 53.6263L74.826 54.3737L79.926 41.7137L78.0709 40.9663ZM73.8984 53H68.4384V55H73.8984V53ZM80.7984 37.96H97.8384V35.96H80.7984V37.96ZM98.7671 36.5891L90.3071 15.4091L88.4498 16.1509L96.9098 37.3309L98.7671 36.5891ZM88.4516 15.4045L79.8716 36.5845L81.7253 37.3355L90.3053 16.1555L88.4516 15.4045ZM159.152 21.48L159.547 22.3985C159.932 22.2328 160.173 21.8446 160.15 21.426L159.152 21.48ZM154.412 23.52H153.412C153.412 23.8564 153.581 24.1703 153.862 24.3553C154.143 24.5402 154.498 24.5715 154.807 24.4385L154.412 23.52ZM125.972 40.56L125.507 39.6746C125.147 39.8634 124.938 40.2511 124.976 40.6555L125.972 40.56ZM130.772 38.04H131.772C131.772 37.6899 131.589 37.3653 131.289 37.1842C130.99 37.0031 130.617 36.9919 130.307 37.1546L130.772 38.04ZM142.952 9.94C152.213 9.94 157.829 15.5276 158.153 21.534L160.15 21.426C159.755 14.1124 153.01 7.94 142.952 7.94V9.94ZM158.757 20.5615L154.017 22.6015L154.807 24.4385L159.547 22.3985L158.757 20.5615ZM155.412 23.52C155.412 20.3288 154.25 17.5028 152.06 15.4804C149.876 13.4628 146.752 12.32 142.952 12.32V14.32C146.352 14.32 148.958 15.3372 150.703 16.9496C152.444 18.5572 153.412 20.8312 153.412 23.52H155.412ZM142.952 12.32C139.637 12.32 136.701 13.0683 134.564 14.563C132.392 16.0815 131.092 18.3447 131.092 21.18H133.092C133.092 19.0353 134.042 17.3685 135.71 16.202C137.412 15.0117 139.907 14.32 142.952 14.32V12.32ZM131.092 21.18C131.092 22.897 131.592 24.3024 132.503 25.4388C133.398 26.5553 134.639 27.3487 136.023 27.9537C138.744 29.1436 142.367 29.7368 145.744 30.4532C149.216 31.1897 152.495 32.063 154.909 33.7454C157.239 35.3698 158.812 37.7822 158.812 41.82H160.812C160.812 37.1278 158.919 34.1027 156.052 32.1046C153.269 30.1645 149.617 29.2303 146.159 28.4968C142.607 27.7432 139.3 27.2039 136.824 26.1212C135.609 25.5901 134.684 24.9622 134.063 24.1878C133.458 23.4332 133.092 22.478 133.092 21.18H131.092ZM158.812 41.82C158.812 45.6175 157.233 48.5942 154.547 50.6481C151.834 52.7228 147.927 53.9 143.252 53.9V55.9C148.237 55.9 152.61 54.6472 155.762 52.2369C158.941 49.8058 160.812 46.2425 160.812 41.82H158.812ZM143.252 53.9C138.551 53.9 134.68 52.5606 131.899 50.2463C129.125 47.9381 127.364 44.6031 126.967 40.4645L124.976 40.6555C125.42 45.2769 127.409 49.1119 130.62 51.7837C133.823 54.4494 138.173 55.9 143.252 55.9V53.9ZM126.437 41.4454L131.237 38.9254L130.307 37.1546L125.507 39.6746L126.437 41.4454ZM129.772 38.04C129.772 41.9533 130.926 45.3448 133.254 47.7634C135.587 50.1884 138.989 51.52 143.252 51.52V49.52C139.414 49.52 136.576 48.3316 134.695 46.3766C132.807 44.4152 131.772 41.5667 131.772 38.04H129.772ZM143.252 51.52C146.727 51.52 149.798 50.692 152.03 49.0989C154.291 47.4857 155.652 45.1072 155.652 42.18H153.652C153.652 44.4128 152.643 46.2043 150.868 47.4711C149.065 48.758 146.437 49.52 143.252 49.52V51.52ZM155.652 42.18C155.652 40.3295 155.166 38.8132 154.269 37.5814C153.382 36.3627 152.143 35.4924 150.747 34.8347C148.005 33.543 144.373 32.9562 140.985 32.2889C137.5 31.6025 134.224 30.8267 131.812 29.2444C130.626 28.4668 129.669 27.5051 129.002 26.274C128.336 25.0423 127.932 23.4871 127.932 21.48H125.932C125.932 23.7629 126.394 25.6558 127.243 27.2258C128.093 28.7964 129.302 29.9901 130.715 30.9168C133.5 32.7433 137.153 33.5725 140.599 34.2511C144.141 34.9488 147.439 35.487 149.894 36.644C151.097 37.2107 152.024 37.8957 152.652 38.7587C153.271 39.6087 153.652 40.7005 153.652 42.18H155.652ZM127.932 21.48C127.932 17.8534 129.661 15.0041 132.399 13.0284C135.161 11.0363 138.95 9.94 142.952 9.94V7.94C138.614 7.94 134.393 9.12369 131.229 11.4065C128.042 13.7059 125.932 17.1266 125.932 21.48H127.932ZM176.782 9.9V8.9C176.229 8.9 175.782 9.34771 175.782 9.9H176.782ZM210.982 9.9H211.982C211.982 9.34771 211.534 8.9 210.982 8.9V9.9ZM210.982 14.52V15.52C211.534 15.52 211.982 15.0723 211.982 14.52H210.982ZM196.402 14.52V13.52C195.849 13.52 195.402 13.9677 195.402 14.52H196.402ZM196.402 54V55C196.954 55 197.402 54.5523 197.402 54H196.402ZM191.362 54H190.362C190.362 54.5523 190.809 55 191.362 55V54ZM191.362 14.52H192.362C192.362 13.9677 191.914 13.52 191.362 13.52V14.52ZM176.782 14.52H175.782C175.782 15.0723 176.229 15.52 176.782 15.52V14.52ZM176.782 10.9H210.982V8.9H176.782V10.9ZM209.982 9.9V14.52H211.982V9.9H209.982ZM210.982 13.52H196.402V15.52H210.982V13.52ZM195.402 14.52V54H197.402V14.52H195.402ZM196.402 53H191.362V55H196.402V53ZM192.362 54V14.52H190.362V54H192.362ZM191.362 13.52H176.782V15.52H191.362V13.52ZM177.782 14.52V9.9H175.782V14.52H177.782ZM230.36 54H229.36C229.36 54.5523 229.808 55 230.36 55V54ZM230.36 9.9V8.9C229.808 8.9 229.36 9.34771 229.36 9.9H230.36ZM259.34 9.9H260.34C260.34 9.34771 259.892 8.9 259.34 8.9V9.9ZM259.34 14.46V15.46C259.892 15.46 260.34 15.0123 260.34 14.46H259.34ZM235.4 14.46V13.46C234.848 13.46 234.4 13.9077 234.4 14.46H235.4ZM235.4 29.28H234.4C234.4 29.8323 234.848 30.28 235.4 30.28V29.28ZM257.6 29.28H258.6C258.6 28.7277 258.152 28.28 257.6 28.28V29.28ZM257.6 33.84V34.84C258.152 34.84 258.6 34.3923 258.6 33.84H257.6ZM235.4 33.84V32.84C234.848 32.84 234.4 33.2877 234.4 33.84H235.4ZM235.4 49.44H234.4C234.4 49.9923 234.848 50.44 235.4 50.44V49.44ZM259.46 49.44H260.46C260.46 48.8877 260.012 48.44 259.46 48.44V49.44ZM259.46 54V55C260.012 55 260.46 54.5523 260.46 54H259.46ZM231.36 54V9.9H229.36V54H231.36ZM230.36 10.9H259.34V8.9H230.36V10.9ZM258.34 9.9V14.46H260.34V9.9H258.34ZM259.34 13.46H235.4V15.46H259.34V13.46ZM234.4 14.46V29.28H236.4V14.46H234.4ZM235.4 30.28H257.6V28.28H235.4V30.28ZM256.6 29.28V33.84H258.6V29.28H256.6ZM257.6 32.84H235.4V34.84H257.6V32.84ZM234.4 33.84V49.44H236.4V33.84H234.4ZM235.4 50.44H259.46V48.44H235.4V50.44ZM258.46 49.44V54H260.46V49.44H258.46ZM259.46 53H230.36V55H259.46V53ZM281.149 54H280.149C280.149 54.5523 280.597 55 281.149 55V54ZM281.149 9.9V8.9C280.597 8.9 280.149 9.34771 280.149 9.9H281.149ZM297.949 34.62V33.62C297.451 33.62 297.028 33.987 296.959 34.4805C296.889 34.9741 297.194 35.4435 297.673 35.5811L297.949 34.62ZM303.169 36.12L303.988 35.5458C303.857 35.3586 303.665 35.222 303.445 35.1589L303.169 36.12ZM315.709 54V55C316.082 55 316.424 54.7924 316.596 54.4614C316.769 54.1305 316.742 53.7312 316.528 53.4258L315.709 54ZM309.709 54L308.882 54.5612C309.068 54.8356 309.378 55 309.709 55V54ZM296.569 34.62L297.397 34.0588C297.211 33.7844 296.901 33.62 296.569 33.62V34.62ZM286.189 34.62V33.62C285.637 33.62 285.189 34.0677 285.189 34.62H286.189ZM286.189 54V55C286.742 55 287.189 54.5523 287.189 54H286.189ZM286.189 30.12H285.189C285.189 30.6723 285.637 31.12 286.189 31.12V30.12ZM286.189 14.46V13.46C285.637 13.46 285.189 13.9077 285.189 14.46H286.189ZM282.149 54V9.9H280.149V54H282.149ZM281.149 10.9H300.109V8.9H281.149V10.9ZM300.109 10.9C304.411 10.9 307.66 12.1733 309.823 14.187C311.982 16.1968 313.149 19.0253 313.149 22.32H315.149C315.149 18.5347 313.796 15.1532 311.186 12.723C308.579 10.2967 304.807 8.9 300.109 8.9V10.9ZM313.149 22.32C313.149 25.624 312.021 28.4178 309.892 30.3916C307.757 32.3708 304.512 33.62 300.109 33.62V35.62C304.887 35.62 308.662 34.2592 311.252 31.8584C313.847 29.4522 315.149 26.096 315.149 22.32H313.149ZM300.109 33.62H297.949V35.62H300.109V33.62ZM297.673 35.5811L302.893 37.0811L303.445 35.1589L298.225 33.6589L297.673 35.5811ZM302.351 36.6942L314.891 54.5742L316.528 53.4258L303.988 35.5458L302.351 36.6942ZM315.709 53H309.709V55H315.709V53ZM310.537 53.4388L297.397 34.0588L295.742 35.1812L308.882 54.5612L310.537 53.4388ZM296.569 33.62H286.189V35.62H296.569V33.62ZM285.189 34.62V54H287.189V34.62H285.189ZM286.189 53H281.149V55H286.189V53ZM286.189 31.12H299.989V29.12H286.189V31.12ZM299.989 31.12C303.071 31.12 305.61 30.293 307.392 28.726C309.188 27.1465 310.109 24.908 310.109 22.32H308.109C308.109 24.412 307.38 26.0735 306.071 27.224C304.749 28.387 302.727 29.12 299.989 29.12V31.12ZM310.109 22.32C310.109 19.7111 309.21 17.4562 307.418 15.8649C305.641 14.2859 303.099 13.46 299.989 13.46V15.46C302.76 15.46 304.778 16.1941 306.09 17.3601C307.389 18.5138 308.109 20.1889 308.109 22.32H310.109ZM299.989 13.46H286.189V15.46H299.989V13.46ZM285.189 14.46V30.12H287.189V14.46H285.189ZM374.277 19.38L374.875 20.1814C375.275 19.8825 375.394 19.3338 375.152 18.8963L374.277 19.38ZM370.257 22.38L369.351 22.8044C369.479 23.0766 369.722 23.2769 370.014 23.35C370.305 23.4231 370.614 23.3612 370.855 23.1814L370.257 22.38ZM370.317 41.34L370.896 40.5247C370.652 40.3513 370.343 40.2965 370.054 40.3752C369.765 40.4539 369.526 40.658 369.404 40.9312L370.317 41.34ZM374.457 44.28L375.317 44.7898C375.582 44.3422 375.46 43.7659 375.036 43.4647L374.457 44.28ZM355.257 9.94C362.707 9.94 369.831 13.4022 373.401 19.8637L375.152 18.8963C371.163 11.6778 363.287 7.94 355.257 7.94V9.94ZM373.679 18.5786L369.659 21.5786L370.855 23.1814L374.875 20.1814L373.679 18.5786ZM371.162 21.9556C368.272 15.7895 362.12 12.5 355.377 12.5V14.5C361.473 14.5 366.842 17.4505 369.351 22.8044L371.162 21.9556ZM355.377 12.5C350.531 12.5 345.837 14.1682 342.346 17.4599C338.843 20.763 336.617 25.6398 336.617 31.92H338.617C338.617 26.1402 340.651 21.807 343.718 18.9151C346.797 16.0118 350.982 14.5 355.377 14.5V12.5ZM336.617 31.92C336.617 38.1049 338.779 42.98 342.25 46.3069C345.711 49.6249 350.408 51.34 355.377 51.34V49.34C350.865 49.34 346.682 47.7851 343.634 44.8631C340.595 41.95 338.617 37.6151 338.617 31.92H336.617ZM355.377 51.34C362.304 51.34 368.463 47.9258 371.229 41.7488L369.404 40.9312C367.011 46.2742 361.649 49.34 355.377 49.34V51.34ZM369.738 42.1553L373.878 45.0953L375.036 43.4647L370.896 40.5247L369.738 42.1553ZM373.596 43.7702C369.942 49.9369 363.255 53.9 355.137 53.9V55.9C363.939 55.9 371.291 51.5831 375.317 44.7898L373.596 43.7702ZM355.137 53.9C343.7 53.9 333.517 45.7196 333.517 31.86H331.517C331.517 46.9204 342.694 55.9 355.137 55.9V53.9ZM333.517 31.86C333.517 18.0738 343.865 9.94 355.257 9.94V7.94C342.888 7.94 331.517 16.8462 331.517 31.86H333.517ZM394.27 54H393.27C393.27 54.5523 393.718 55 394.27 55V54ZM394.27 9.9V8.9C393.718 8.9 393.27 9.34771 393.27 9.9H394.27ZM399.31 9.9H400.31C400.31 9.34771 399.863 8.9 399.31 8.9V9.9ZM399.31 49.38H398.31C398.31 49.9323 398.758 50.38 399.31 50.38V49.38ZM421.87 49.38H422.87C422.87 48.8277 422.423 48.38 421.87 48.38V49.38ZM421.87 54V55C422.423 55 422.87 54.5523 422.87 54H421.87ZM395.27 54V9.9H393.27V54H395.27ZM394.27 10.9H399.31V8.9H394.27V10.9ZM398.31 9.9V49.38H400.31V9.9H398.31ZM399.31 50.38H421.87V48.38H399.31V50.38ZM420.87 49.38V54H422.87V49.38H420.87ZM421.87 53H394.27V55H421.87V53ZM436.208 54L435.284 53.6178C435.156 53.9263 435.191 54.2782 435.377 54.5558C435.562 54.8334 435.874 55 436.208 55V54ZM454.448 9.9V8.9C454.043 8.9 453.679 9.14387 453.524 9.5178L454.448 9.9ZM459.788 9.9L460.713 9.51995C460.559 9.14487 460.193 8.9 459.788 8.9V9.9ZM477.908 54V55C478.241 55 478.553 54.8338 478.739 54.5568C478.924 54.2797 478.96 53.9284 478.833 53.6199L477.908 54ZM472.448 54L471.519 54.3699C471.67 54.7503 472.038 55 472.448 55V54ZM467.408 41.34L468.337 40.9701C468.186 40.5897 467.817 40.34 467.408 40.34V41.34ZM446.768 41.34V40.34C446.36 40.34 445.993 40.5879 445.84 40.9663L446.768 41.34ZM441.668 54V55C442.076 55 442.443 54.7521 442.596 54.3737L441.668 54ZM448.568 36.96L447.641 36.5845C447.516 36.8928 447.553 37.243 447.739 37.5188C447.925 37.7946 448.235 37.96 448.568 37.96V36.96ZM465.608 36.96V37.96C465.94 37.96 466.25 37.7955 466.436 37.5208C466.622 37.2462 466.66 36.8971 466.537 36.5891L465.608 36.96ZM457.148 15.78L458.077 15.4091C457.925 15.03 457.559 14.781 457.15 14.78C456.742 14.779 456.374 15.0262 456.221 15.4045L457.148 15.78ZM437.132 54.3822L455.372 10.2822L453.524 9.5178L435.284 53.6178L437.132 54.3822ZM454.448 10.9H459.788V8.9H454.448V10.9ZM458.863 10.2801L476.983 54.3801L478.833 53.6199L460.713 9.51995L458.863 10.2801ZM477.908 53H472.448V55H477.908V53ZM473.377 53.6301L468.337 40.9701L466.479 41.7099L471.519 54.3699L473.377 53.6301ZM467.408 40.34H446.768V42.34H467.408V40.34ZM445.84 40.9663L440.74 53.6263L442.596 54.3737L447.696 41.7137L445.84 40.9663ZM441.668 53H436.208V55H441.668V53ZM448.568 37.96H465.608V35.96H448.568V37.96ZM466.537 36.5891L458.077 15.4091L456.219 16.1509L464.679 37.3309L466.537 36.5891ZM456.221 15.4045L447.641 36.5845L449.495 37.3355L458.075 16.1555L456.221 15.4045ZM526.921 21.48L527.317 22.3985C527.702 22.2328 527.943 21.8446 527.92 21.426L526.921 21.48ZM522.181 23.52H521.181C521.181 23.8564 521.351 24.1703 521.632 24.3553C521.913 24.5402 522.268 24.5715 522.577 24.4385L522.181 23.52ZM493.741 40.56L493.277 39.6746C492.917 39.8634 492.707 40.2511 492.746 40.6555L493.741 40.56ZM498.541 38.04H499.541C499.541 37.6899 499.358 37.3653 499.059 37.1842C498.759 37.0031 498.387 36.9919 498.077 37.1546L498.541 38.04ZM510.721 9.94C519.983 9.94 525.598 15.5276 525.923 21.534L527.92 21.426C527.525 14.1124 520.78 7.94 510.721 7.94V9.94ZM526.526 20.5615L521.786 22.6015L522.577 24.4385L527.317 22.3985L526.526 20.5615ZM523.181 23.52C523.181 20.3288 522.019 17.5028 519.83 15.4804C517.646 13.4628 514.521 12.32 510.721 12.32V14.32C514.121 14.32 516.727 15.3372 518.473 16.9496C520.213 18.5572 521.181 20.8312 521.181 23.52H523.181ZM510.721 12.32C507.407 12.32 504.471 13.0683 502.333 14.563C500.162 16.0815 498.861 18.3447 498.861 21.18H500.861C500.861 19.0353 501.811 17.3685 503.479 16.202C505.182 15.0117 507.676 14.32 510.721 14.32V12.32ZM498.861 21.18C498.861 22.897 499.361 24.3024 500.272 25.4388C501.167 26.5553 502.408 27.3487 503.792 27.9537C506.513 29.1436 510.137 29.7368 513.514 30.4532C516.986 31.1897 520.264 32.063 522.678 33.7454C525.009 35.3698 526.581 37.7822 526.581 41.82H528.581C528.581 37.1278 526.689 34.1027 523.822 32.1046C521.038 30.1645 517.387 29.2303 513.929 28.4968C510.376 27.7432 507.069 27.2039 504.593 26.1212C503.378 25.5901 502.454 24.9622 501.833 24.1878C501.228 23.4332 500.861 22.478 500.861 21.18H498.861ZM526.581 41.82C526.581 45.6175 525.002 48.5942 522.316 50.6481C519.603 52.7228 515.696 53.9 511.021 53.9V55.9C516.007 55.9 520.379 54.6472 523.531 52.2369C526.71 49.8058 528.581 46.2425 528.581 41.82H526.581ZM511.021 53.9C506.321 53.9 502.45 52.5606 499.669 50.2463C496.895 47.9381 495.134 44.6031 494.737 40.4645L492.746 40.6555C493.189 45.2769 495.178 49.1119 498.389 51.7837C501.593 54.4494 505.942 55.9 511.021 55.9V53.9ZM494.206 41.4454L499.006 38.9254L498.077 37.1546L493.277 39.6746L494.206 41.4454ZM497.541 38.04C497.541 41.9533 498.696 45.3448 501.023 47.7634C503.357 50.1884 506.759 51.52 511.021 51.52V49.52C507.184 49.52 504.346 48.3316 502.464 46.3766C500.577 44.4152 499.541 41.5667 499.541 38.04H497.541ZM511.021 51.52C514.497 51.52 517.568 50.692 519.8 49.0989C522.06 47.4857 523.421 45.1072 523.421 42.18H521.421C521.421 44.4128 520.413 46.2043 518.638 47.4711C516.835 48.758 514.206 49.52 511.021 49.52V51.52ZM523.421 42.18C523.421 40.3295 522.936 38.8132 522.039 37.5814C521.151 36.3627 519.912 35.4924 518.516 34.8347C515.775 33.543 512.143 32.9562 508.755 32.2889C505.27 31.6025 501.994 30.8267 499.581 29.2444C498.395 28.4668 497.438 27.5051 496.772 26.274C496.106 25.0423 495.701 23.4871 495.701 21.48H493.701C493.701 23.7629 494.163 25.6558 495.013 27.2258C495.863 28.7964 497.071 29.9901 498.484 30.9168C501.269 32.7433 504.923 33.5725 508.368 34.2511C511.91 34.9488 515.208 35.487 517.664 36.644C518.867 37.2107 519.793 37.8957 520.422 38.7587C521.041 39.6087 521.421 40.7005 521.421 42.18H523.421ZM495.701 21.48C495.701 17.8534 497.431 15.0041 500.169 13.0284C502.93 11.0363 506.72 9.94 510.721 9.94V7.94C506.383 7.94 502.163 9.12369 498.999 11.4065C495.812 13.7059 493.701 17.1266 493.701 21.48H495.701ZM579.351 21.48L579.746 22.3985C580.131 22.2328 580.372 21.8446 580.35 21.426L579.351 21.48ZM574.611 23.52H573.611C573.611 23.8564 573.78 24.1703 574.061 24.3553C574.342 24.5402 574.697 24.5715 575.006 24.4385L574.611 23.52ZM546.171 40.56L545.706 39.6746C545.347 39.8634 545.137 40.2511 545.176 40.6555L546.171 40.56ZM550.971 38.04H551.971C551.971 37.6899 551.788 37.3653 551.488 37.1842C551.189 37.0031 550.816 36.9919 550.506 37.1546L550.971 38.04ZM563.151 9.94C572.413 9.94 578.028 15.5276 578.353 21.534L580.35 21.426C579.954 14.1124 573.21 7.94 563.151 7.94V9.94ZM578.956 20.5615L574.216 22.6015L575.006 24.4385L579.746 22.3985L578.956 20.5615ZM575.611 23.52C575.611 20.3288 574.449 17.5028 572.26 15.4804C570.075 13.4628 566.951 12.32 563.151 12.32V14.32C566.551 14.32 569.157 15.3372 570.903 16.9496C572.643 18.5572 573.611 20.8312 573.611 23.52H575.611ZM563.151 12.32C559.836 12.32 556.901 13.0683 554.763 14.563C552.591 16.0815 551.291 18.3447 551.291 21.18H553.291C553.291 19.0353 554.241 17.3685 555.909 16.202C557.612 15.0117 560.106 14.32 563.151 14.32V12.32ZM551.291 21.18C551.291 22.897 551.791 24.3024 552.702 25.4388C553.597 26.5553 554.838 27.3487 556.222 27.9537C558.943 29.1436 562.566 29.7368 565.944 30.4532C569.416 31.1897 572.694 32.063 575.108 33.7454C577.439 35.3698 579.011 37.7822 579.011 41.82H581.011C581.011 37.1278 579.119 34.1027 576.252 32.1046C573.468 30.1645 569.817 29.2303 566.359 28.4968C562.806 27.7432 559.499 27.2039 557.023 26.1212C555.808 25.5901 554.883 24.9622 554.262 24.1878C553.658 23.4332 553.291 22.478 553.291 21.18H551.291ZM579.011 41.82C579.011 45.6175 577.432 48.5942 574.746 50.6481C572.033 52.7228 568.126 53.9 563.451 53.9V55.9C568.436 55.9 572.809 54.6472 575.961 52.2369C579.14 49.8058 581.011 46.2425 581.011 41.82H579.011ZM563.451 53.9C558.75 53.9 554.88 52.5606 552.098 50.2463C549.324 47.9381 547.563 44.6031 547.167 40.4645L545.176 40.6555C545.619 45.2769 547.608 49.1119 550.819 51.7837C554.023 54.4494 558.372 55.9 563.451 55.9V53.9ZM546.636 41.4454L551.436 38.9254L550.506 37.1546L545.706 39.6746L546.636 41.4454ZM549.971 38.04C549.971 41.9533 551.126 45.3448 553.453 47.7634C555.787 50.1884 559.189 51.52 563.451 51.52V49.52C559.614 49.52 556.776 48.3316 554.894 46.3766C553.007 44.4152 551.971 41.5667 551.971 38.04H549.971ZM563.451 51.52C566.926 51.52 569.998 50.692 572.23 49.0989C574.49 47.4857 575.851 45.1072 575.851 42.18H573.851C573.851 44.4128 572.842 46.2043 571.068 47.4711C569.265 48.758 566.636 49.52 563.451 49.52V51.52ZM575.851 42.18C575.851 40.3295 575.365 38.8132 574.468 37.5814C573.581 36.3627 572.342 35.4924 570.946 34.8347C568.204 33.543 564.572 32.9562 561.184 32.2889C557.7 31.6025 554.423 30.8267 552.011 29.2444C550.825 28.4668 549.868 27.5051 549.202 26.274C548.535 25.0423 548.131 23.4871 548.131 21.48H546.131C546.131 23.7629 546.593 25.6558 547.443 27.2258C548.293 28.7964 549.501 29.9901 550.914 30.9168C553.699 32.7433 557.352 33.5725 560.798 34.2511C564.34 34.9488 567.638 35.487 570.094 36.644C571.296 37.2107 572.223 37.8957 572.852 38.7587C573.471 39.6087 573.851 40.7005 573.851 42.18H575.851ZM548.131 21.48C548.131 17.8534 549.861 15.0041 552.599 13.0284C555.36 11.0363 559.149 9.94 563.151 9.94V7.94C558.813 7.94 554.592 9.12369 551.428 11.4065C548.242 13.7059 546.131 17.1266 546.131 21.48H548.131Z" fill="black"/>
</svg>
