<svg width="1460" height="1460" viewBox="0 0 1460 1460" fill="none" xmlns="http://www.w3.org/2000/svg">
<rect x="100" y="99" width="1261" height="1261" rx="100" fill="black"/>
<g clip-path="url(#clip0_806_24063)">
<path d="M695.651 804.993C697.298 804.993 698.755 805.368 700.022 806.117C701.31 806.866 702.292 807.938 702.968 809.332C703.665 810.727 704.002 812.35 703.981 814.202H690.109C690.193 815.763 690.784 817.033 691.882 818.011C692.98 818.968 694.332 819.447 695.936 819.447C697.203 819.447 698.27 819.166 699.135 818.604C700.022 818.021 700.666 817.303 701.067 816.45L703.506 816.731C703.063 818.146 702.144 819.333 700.751 820.29C699.378 821.247 697.763 821.726 695.905 821.726C694.279 821.726 692.811 821.383 691.502 820.696C690.214 819.988 689.201 819.01 688.462 817.761C687.723 816.492 687.353 815.025 687.353 813.36C687.353 811.799 687.712 810.383 688.43 809.114C689.148 807.844 690.13 806.845 691.375 806.117C692.642 805.368 694.068 804.993 695.651 804.993ZM695.651 807.241C694.152 807.241 692.875 807.699 691.819 808.614C690.784 809.53 690.214 810.696 690.109 812.111H701.099C701.078 811.195 700.825 810.373 700.339 809.645C699.874 808.895 699.23 808.313 698.407 807.896C697.604 807.459 696.686 807.241 695.651 807.241Z" fill="#FFFEFC"/>
<path d="M705.872 798H708.627V821.414H705.872V798Z" fill="#FFFEFC"/>
<path d="M719.391 821.726C717.765 821.726 716.287 821.362 714.957 820.633C713.626 819.905 712.581 818.906 711.821 817.636C711.061 816.346 710.681 814.92 710.681 813.36C710.681 811.799 711.061 810.383 711.821 809.114C712.581 807.823 713.626 806.814 714.957 806.086C716.287 805.357 717.765 804.993 719.391 804.993C721.017 804.993 722.484 805.357 723.793 806.086C725.124 806.814 726.169 807.823 726.929 809.114C727.689 810.383 728.069 811.799 728.069 813.36C728.069 814.92 727.689 816.346 726.929 817.636C726.169 818.906 725.124 819.905 723.793 820.633C722.484 821.362 721.017 821.726 719.391 821.726ZM719.391 819.26C720.51 819.26 721.524 819 722.431 818.479C723.339 817.959 724.057 817.251 724.585 816.356C725.113 815.441 725.377 814.431 725.377 813.328C725.377 812.225 725.113 811.226 724.585 810.331C724.057 809.436 723.339 808.739 722.431 808.24C721.524 807.719 720.51 807.459 719.391 807.459C718.272 807.459 717.248 807.719 716.319 808.24C715.411 808.739 714.693 809.436 714.165 810.331C713.637 811.226 713.373 812.225 713.373 813.328C713.373 814.431 713.637 815.441 714.165 816.356C714.693 817.251 715.411 817.959 716.319 818.479C717.248 819 718.272 819.26 719.391 819.26Z" fill="#FFFEFC"/>
<path d="M739.379 805.024C741.005 805.024 742.431 805.399 743.655 806.148C744.901 806.876 745.862 807.886 746.537 809.176C747.213 810.446 747.551 811.861 747.551 813.422C747.551 815.004 747.203 816.429 746.506 817.699C745.83 818.948 744.859 819.936 743.592 820.665C742.346 821.372 740.9 821.726 739.253 821.726C737.838 821.726 736.55 821.393 735.389 820.727C734.248 820.04 733.362 819.093 732.728 817.886V828.594H729.973V805.336H732.316L732.728 809.02V809.083C733.256 807.834 734.101 806.845 735.262 806.117C736.423 805.388 737.796 805.024 739.379 805.024ZM738.714 819.291C739.876 819.291 740.91 819.041 741.818 818.542C742.747 818.021 743.465 817.314 743.972 816.419C744.5 815.524 744.764 814.515 744.764 813.391C744.764 812.246 744.5 811.226 743.972 810.331C743.465 809.436 742.747 808.739 741.818 808.24C740.91 807.719 739.876 807.459 738.714 807.459C737.574 807.459 736.55 807.719 735.642 808.24C734.734 808.76 734.027 809.478 733.52 810.394C733.013 811.289 732.76 812.288 732.76 813.391C732.76 814.494 733.013 815.493 733.52 816.388C734.027 817.283 734.734 817.99 735.642 818.511C736.55 819.031 737.574 819.291 738.714 819.291Z" fill="#FFFEFC"/>
<path d="M764.6 805.336H766.975V821.414H764.188V817.636C763.681 818.885 762.837 819.884 761.654 820.633C760.493 821.362 759.12 821.726 757.537 821.726C755.932 821.726 754.507 821.362 753.261 820.633C752.015 819.884 751.054 818.875 750.379 817.605C749.703 816.315 749.365 814.889 749.365 813.328C749.365 811.747 749.703 810.321 750.379 809.051C751.075 807.782 752.057 806.793 753.324 806.086C754.591 805.357 756.048 804.993 757.695 804.993C759.089 804.993 760.356 805.336 761.496 806.023C762.657 806.71 763.554 807.647 764.188 808.833V808.989L764.6 805.336ZM758.202 819.291C759.342 819.291 760.366 819.031 761.274 818.511C762.182 817.99 762.889 817.283 763.396 816.388C763.903 815.472 764.156 814.463 764.156 813.36C764.156 812.256 763.903 811.257 763.396 810.363C762.889 809.468 762.182 808.76 761.274 808.24C760.366 807.719 759.342 807.459 758.202 807.459C757.04 807.459 756.006 807.719 755.098 808.24C754.19 808.739 753.472 809.436 752.944 810.331C752.437 811.226 752.184 812.236 752.184 813.36C752.184 814.504 752.437 815.524 752.944 816.419C753.472 817.314 754.19 818.021 755.098 818.542C756.006 819.041 757.04 819.291 758.202 819.291Z" fill="#FFFEFC"/>
<path d="M784.15 805.336H786.462V819.978C786.462 822.871 785.712 825.098 784.213 826.659C782.735 828.22 780.655 829 777.974 829C776.664 829 775.366 828.823 774.078 828.469C772.811 828.115 771.723 827.616 770.815 826.971V824.505C771.618 825.046 772.589 825.535 773.729 825.972C774.87 826.409 776.115 826.627 777.467 826.627C779.452 826.627 780.982 826.086 782.059 825.004C783.157 823.922 783.706 822.246 783.706 819.978V817.636C783.2 818.885 782.355 819.884 781.173 820.633C780.011 821.362 778.639 821.726 777.055 821.726C775.45 821.726 774.025 821.362 772.779 820.633C771.533 819.884 770.573 818.875 769.897 817.605C769.221 816.315 768.883 814.889 768.883 813.328C768.883 811.747 769.221 810.321 769.897 809.051C770.594 807.782 771.576 806.793 772.843 806.086C774.109 805.357 775.566 804.993 777.213 804.993C778.607 804.993 779.874 805.336 781.014 806.023C782.175 806.71 783.073 807.647 783.706 808.833V809.02L784.15 805.336ZM777.72 819.291C778.86 819.291 779.884 819.031 780.792 818.511C781.7 817.99 782.408 817.283 782.915 816.388C783.421 815.472 783.675 814.463 783.675 813.36C783.675 812.256 783.421 811.257 782.915 810.363C782.408 809.468 781.7 808.76 780.792 808.24C779.884 807.719 778.86 807.459 777.72 807.459C776.559 807.459 775.524 807.719 774.616 808.24C773.708 808.739 772.99 809.436 772.462 810.331C771.956 811.226 771.702 812.236 771.702 813.36C771.702 814.504 771.956 815.524 772.462 816.419C772.99 817.314 773.708 818.021 774.616 818.542C775.524 819.041 776.559 819.291 777.72 819.291Z" fill="#FFFEFC"/>
<path d="M796.669 804.993C798.316 804.993 799.773 805.368 801.04 806.117C802.328 806.866 803.31 807.938 803.986 809.332C804.682 810.727 805.02 812.35 804.999 814.202H791.126C791.211 815.763 791.802 817.033 792.9 818.011C793.998 818.968 795.35 819.447 796.954 819.447C798.221 819.447 799.287 819.166 800.153 818.604C801.04 818.021 801.684 817.303 802.085 816.45L804.524 816.731C804.081 818.146 803.162 819.333 801.769 820.29C800.396 821.247 798.781 821.726 796.923 821.726C795.297 821.726 793.829 821.383 792.52 820.696C791.232 819.988 790.218 819.01 789.479 817.761C788.74 816.492 788.371 815.025 788.371 813.36C788.371 811.799 788.73 810.383 789.448 809.114C790.166 807.844 791.148 806.845 792.393 806.117C793.66 805.368 795.086 804.993 796.669 804.993ZM796.669 807.241C795.17 807.241 793.893 807.699 792.837 808.614C791.802 809.53 791.232 810.696 791.126 812.111H802.117C802.096 811.195 801.842 810.373 801.357 809.645C800.892 808.895 800.248 808.313 799.425 807.896C798.622 807.459 797.704 807.241 796.669 807.241Z" fill="#FFFEFC"/>
<path d="M674.46 823.042C673.763 823.731 672.8 824.157 671.736 824.156C671.104 824.156 670.508 824.006 669.982 823.739C669.261 823.375 668.673 822.793 668.303 822.081C668.035 821.561 667.883 820.973 667.883 820.349V820.25C667.892 819.891 667.952 819.545 668.054 819.218C668.054 819.217 668.055 819.216 668.054 819.215C668.239 818.623 668.338 817.994 668.339 817.342C668.339 816.509 668.177 815.714 667.882 814.985C667.556 814.174 667.065 813.446 666.451 812.84C665.838 812.233 665.1 811.748 664.28 811.426C663.542 811.135 662.737 810.975 661.895 810.974C661.235 810.974 660.598 811.073 659.999 811.256C659.999 811.256 659.997 811.256 659.996 811.256C659.666 811.357 659.316 811.416 658.952 811.425H658.852C658.221 811.425 657.625 811.275 657.099 811.009C656.378 810.645 655.789 810.063 655.42 809.351C655.152 808.833 655 808.244 655 807.619C655 806.568 655.431 805.616 656.128 804.927C656.825 804.238 657.789 803.812 658.852 803.812H675.451C675.527 803.812 675.588 803.873 675.588 803.948V820.35C675.588 821.401 675.158 822.353 674.46 823.043L674.46 823.042Z" fill="#2BFF99"/>
<path d="M662.055 820.992C664.183 820.992 665.908 819.287 665.908 817.185C665.908 815.082 664.183 813.377 662.055 813.377C659.927 813.377 658.202 815.082 658.202 817.185C658.202 819.287 659.927 820.992 662.055 820.992Z" fill="#2BFF99"/>
</g>
<path d="M136.784 862.03V937H145.25V872.944L169.73 936.286H179.42L204.002 873.148V937H212.468V862.03H200.126L174.626 927.514L149.228 862.03H136.784ZM264.86 937H274.142L282.812 915.478H317.9L326.468 937H335.75L304.946 862.03H295.868L264.86 937ZM285.872 908.032L300.458 872.026L314.84 908.032H285.872ZM412.953 860.398C398.775 860.398 385.719 868.15 385.719 881.716C385.719 910.888 432.843 894.262 432.843 916.906C432.843 925.678 424.785 931.084 413.463 931.084C399.693 931.084 392.247 922.516 392.247 909.868L384.087 914.152C385.515 929.044 396.837 938.53 413.463 938.53C429.885 938.53 441.615 930.268 441.615 916.294C441.615 886.612 394.491 901.708 394.491 881.206C394.491 872.74 402.141 867.844 412.953 867.844C425.193 867.844 432.435 875.188 432.435 885.184L440.493 881.716C439.881 870.394 429.375 860.398 412.953 860.398ZM491.883 862.03V869.884H516.669V937H525.237V869.884H550.023V862.03H491.883ZM604.387 937H653.857V929.248H612.955V902.728H650.695V894.976H612.955V869.782H653.653V862.03H604.387V937ZM712.148 937H720.716V904.054H738.362L760.7 937H770.9L749.582 906.604L740.708 904.054H744.38C759.986 904.054 768.248 895.18 768.248 883.144C768.248 871.108 759.68 862.03 744.38 862.03H712.148V937ZM720.716 896.404V869.782H744.176C754.172 869.782 759.68 875.086 759.68 883.144C759.68 891.1 754.07 896.404 744.176 896.404H720.716ZM859.551 860.398C839.355 860.398 820.893 874.882 820.893 899.362C820.893 923.944 839.049 938.53 859.347 938.53C873.729 938.53 885.663 931.492 892.191 920.476L885.153 915.478C880.767 925.27 870.975 930.778 859.755 930.778C843.639 930.778 829.563 919.66 829.563 899.464C829.563 878.962 844.047 868.15 859.755 868.15C870.669 868.15 880.461 873.454 885.051 883.246L891.885 878.146C885.459 866.518 872.709 860.398 859.551 860.398ZM947.294 937H994.214V929.146H955.862V862.03H947.294V937ZM1040.01 937H1049.29L1057.96 915.478H1093.05L1101.62 937H1110.9L1080.09 862.03H1071.02L1040.01 937ZM1061.02 908.032L1075.61 872.026L1089.99 908.032H1061.02ZM1188.1 860.398C1173.92 860.398 1160.87 868.15 1160.87 881.716C1160.87 910.888 1207.99 894.262 1207.99 916.906C1207.99 925.678 1199.93 931.084 1188.61 931.084C1174.84 931.084 1167.39 922.516 1167.39 909.868L1159.23 914.152C1160.66 929.044 1171.98 938.53 1188.61 938.53C1205.03 938.53 1216.76 930.268 1216.76 916.294C1216.76 886.612 1169.64 901.708 1169.64 881.206C1169.64 872.74 1177.29 867.844 1188.1 867.844C1200.34 867.844 1207.58 875.188 1207.58 885.184L1215.64 881.716C1215.03 870.394 1204.52 860.398 1188.1 860.398ZM1298.65 860.398C1284.47 860.398 1271.42 868.15 1271.42 881.716C1271.42 910.888 1318.54 894.262 1318.54 916.906C1318.54 925.678 1310.48 931.084 1299.16 931.084C1285.39 931.084 1277.95 922.516 1277.95 909.868L1269.79 914.152C1271.21 929.044 1282.54 938.53 1299.16 938.53C1315.58 938.53 1327.31 930.268 1327.31 916.294C1327.31 886.612 1280.19 901.708 1280.19 881.206C1280.19 872.74 1287.84 867.844 1298.65 867.844C1310.89 867.844 1318.13 875.188 1318.13 885.184L1326.19 881.716C1325.58 870.394 1315.07 860.398 1298.65 860.398Z" fill="#2BFF99"/>
<path d="M136.784 862.03V861.03C136.232 861.03 135.784 861.478 135.784 862.03H136.784ZM136.784 937H135.784C135.784 937.552 136.232 938 136.784 938V937ZM145.25 937V938C145.803 938 146.25 937.552 146.25 937H145.25ZM145.25 872.944L146.183 872.584C146.01 872.134 145.54 871.873 145.067 871.961C144.594 872.049 144.25 872.462 144.25 872.944H145.25ZM169.73 936.286L168.798 936.646C168.947 937.032 169.317 937.286 169.73 937.286V936.286ZM179.42 936.286V937.286C179.833 937.286 180.203 937.033 180.352 936.649L179.42 936.286ZM204.002 873.148H205.002C205.002 872.667 204.66 872.254 204.187 872.165C203.714 872.076 203.245 872.337 203.07 872.785L204.002 873.148ZM204.002 937H203.002C203.002 937.552 203.45 938 204.002 938V937ZM212.468 937V938C213.021 938 213.468 937.552 213.468 937H212.468ZM212.468 862.03H213.468C213.468 861.478 213.021 861.03 212.468 861.03V862.03ZM200.126 862.03V861.03C199.714 861.03 199.344 861.283 199.195 861.667L200.126 862.03ZM174.626 927.514L173.694 927.876C173.843 928.26 174.213 928.514 174.626 928.514C175.038 928.514 175.409 928.261 175.558 927.877L174.626 927.514ZM149.228 862.03L150.161 861.668C150.011 861.284 149.641 861.03 149.228 861.03V862.03ZM135.784 862.03V937H137.784V862.03H135.784ZM136.784 938H145.25V936H136.784V938ZM146.25 937V872.944H144.25V937H146.25ZM144.318 873.304L168.798 936.646L170.663 935.926L146.183 872.584L144.318 873.304ZM169.73 937.286H179.42V935.286H169.73V937.286ZM180.352 936.649L204.934 873.511L203.07 872.785L178.488 935.923L180.352 936.649ZM203.002 873.148V937H205.002V873.148H203.002ZM204.002 938H212.468V936H204.002V938ZM213.468 937V862.03H211.468V937H213.468ZM212.468 861.03H200.126V863.03H212.468V861.03ZM199.195 861.667L173.695 927.151L175.558 927.877L201.058 862.393L199.195 861.667ZM175.559 927.152L150.161 861.668L148.296 862.392L173.694 927.876L175.559 927.152ZM149.228 861.03H136.784V863.03H149.228V861.03ZM264.86 937L263.936 936.618C263.808 936.926 263.843 937.278 264.028 937.556C264.214 937.833 264.526 938 264.86 938V937ZM274.142 937V938C274.55 938 274.917 937.752 275.069 937.374L274.142 937ZM282.812 915.478V914.478C282.404 914.478 282.037 914.726 281.884 915.104L282.812 915.478ZM317.9 915.478L318.829 915.108C318.677 914.728 318.309 914.478 317.9 914.478V915.478ZM326.468 937L325.539 937.37C325.69 937.75 326.058 938 326.468 938V937ZM335.75 937V938C336.083 938 336.395 937.834 336.58 937.557C336.766 937.28 336.801 936.928 336.675 936.62L335.75 937ZM304.946 862.03L305.871 861.65C305.717 861.275 305.351 861.03 304.946 861.03V862.03ZM295.868 862.03V861.03C295.463 861.03 295.098 861.274 294.944 861.648L295.868 862.03ZM285.872 908.032L284.945 907.657C284.82 907.965 284.857 908.315 285.042 908.591C285.228 908.867 285.539 909.032 285.872 909.032V908.032ZM300.458 872.026L301.386 871.655C301.235 871.276 300.868 871.027 300.46 871.026C300.052 871.025 299.684 871.272 299.531 871.651L300.458 872.026ZM314.84 908.032V909.032C315.171 909.032 315.482 908.867 315.668 908.593C315.854 908.318 315.891 907.969 315.768 907.661L314.84 908.032ZM264.86 938H274.142V936H264.86V938ZM275.069 937.374L283.739 915.852L281.884 915.104L273.214 936.626L275.069 937.374ZM282.812 916.478H317.9V914.478H282.812V916.478ZM316.971 915.848L325.539 937.37L327.397 936.63L318.829 915.108L316.971 915.848ZM326.468 938H335.75V936H326.468V938ZM336.675 936.62L305.871 861.65L304.021 862.41L334.825 937.38L336.675 936.62ZM304.946 861.03H295.868V863.03H304.946V861.03ZM294.944 861.648L263.936 936.618L265.784 937.382L296.792 862.412L294.944 861.648ZM286.799 908.407L301.385 872.401L299.531 871.651L284.945 907.657L286.799 908.407ZM299.529 872.397L313.911 908.403L315.768 907.661L301.386 871.655L299.529 872.397ZM314.84 907.032H285.872V909.032H314.84V907.032ZM392.247 909.868H393.247C393.247 909.518 393.063 909.193 392.764 909.012C392.464 908.831 392.092 908.82 391.782 908.983L392.247 909.868ZM384.087 914.152L383.622 913.267C383.262 913.455 383.052 913.843 383.091 914.247L384.087 914.152ZM432.435 885.184H431.435C431.435 885.52 431.604 885.834 431.885 886.019C432.166 886.204 432.521 886.236 432.83 886.103L432.435 885.184ZM440.493 881.716L440.888 882.635C441.273 882.469 441.514 882.081 441.491 881.662L440.493 881.716ZM412.953 859.398C405.695 859.398 398.671 861.38 393.434 865.159C388.173 868.954 384.719 874.57 384.719 881.716H386.719C386.719 875.296 389.792 870.253 394.604 866.781C399.439 863.292 406.032 861.398 412.953 861.398V859.398ZM384.719 881.716C384.719 885.5 385.484 888.6 386.864 891.151C388.244 893.702 390.211 895.65 392.533 897.173C397.137 900.193 403.216 901.584 409.087 902.74C415.055 903.916 420.778 904.848 425.053 906.862C427.166 907.857 428.85 909.086 430.009 910.678C431.159 912.256 431.843 914.261 431.843 916.906H433.843C433.843 913.89 433.054 911.461 431.626 909.5C430.208 907.553 428.211 906.139 425.906 905.052C421.345 902.903 415.287 901.923 409.474 900.778C403.564 899.614 397.862 898.276 393.63 895.501C391.535 894.127 389.82 892.411 388.623 890.199C387.426 887.987 386.719 885.225 386.719 881.716H384.719ZM431.843 916.906C431.843 920.945 430.004 924.196 426.817 926.471C423.602 928.765 418.978 930.084 413.463 930.084V932.084C419.269 932.084 424.335 930.7 427.979 928.098C431.652 925.477 433.843 921.639 433.843 916.906H431.843ZM413.463 930.084C406.79 930.084 401.768 928.014 398.411 924.526C395.049 921.031 393.247 915.999 393.247 909.868H391.247C391.247 916.385 393.168 921.961 396.97 925.912C400.779 929.87 406.365 932.084 413.463 932.084V930.084ZM391.782 908.983L383.622 913.267L384.551 915.037L392.711 910.753L391.782 908.983ZM383.091 914.247C383.828 921.935 387.13 928.279 392.436 932.694C397.734 937.103 404.96 939.53 413.463 939.53V937.53C405.339 937.53 398.591 935.214 393.715 931.157C388.846 927.106 385.773 921.261 385.082 914.057L383.091 914.247ZM413.463 939.53C421.829 939.53 429.1 937.427 434.304 933.447C439.536 929.446 442.615 923.594 442.615 916.294H440.615C440.615 922.968 437.828 928.234 433.089 931.858C428.324 935.502 421.518 937.53 413.463 937.53V939.53ZM442.615 916.294C442.615 908.546 439.509 903.618 434.823 900.352C430.22 897.144 424.144 895.577 418.26 894.329C412.282 893.061 406.55 892.126 402.254 890.247C400.13 889.319 398.447 888.193 397.296 886.757C396.16 885.341 395.491 883.559 395.491 881.206H393.491C393.491 883.978 394.294 886.21 395.735 888.008C397.161 889.786 399.16 891.077 401.453 892.08C405.993 894.065 412.042 895.055 417.845 896.286C423.743 897.537 429.447 899.043 433.68 901.993C437.829 904.885 440.615 909.201 440.615 916.294H442.615ZM395.491 881.206C395.491 877.318 397.228 874.276 400.24 872.17C403.287 870.04 407.681 868.844 412.953 868.844V866.844C407.412 866.844 402.576 868.096 399.094 870.531C395.578 872.989 393.491 876.628 393.491 881.206H395.491ZM412.953 868.844C418.873 868.844 423.484 870.617 426.605 873.5C429.721 876.378 431.435 880.437 431.435 885.184H433.435C433.435 879.935 431.527 875.324 427.962 872.031C424.402 868.743 419.273 866.844 412.953 866.844V868.844ZM432.83 886.103L440.888 882.635L440.097 880.797L432.039 884.265L432.83 886.103ZM441.491 881.662C440.844 869.686 429.773 859.398 412.953 859.398V861.398C428.976 861.398 438.917 871.102 439.494 881.77L441.491 881.662ZM491.883 862.03V861.03C491.331 861.03 490.883 861.478 490.883 862.03H491.883ZM491.883 869.884H490.883C490.883 870.436 491.331 870.884 491.883 870.884V869.884ZM516.669 869.884H517.669C517.669 869.332 517.221 868.884 516.669 868.884V869.884ZM516.669 937H515.669C515.669 937.552 516.117 938 516.669 938V937ZM525.237 937V938C525.789 938 526.237 937.552 526.237 937H525.237ZM525.237 869.884V868.884C524.685 868.884 524.237 869.332 524.237 869.884H525.237ZM550.023 869.884V870.884C550.575 870.884 551.023 870.436 551.023 869.884H550.023ZM550.023 862.03H551.023C551.023 861.478 550.575 861.03 550.023 861.03V862.03ZM490.883 862.03V869.884H492.883V862.03H490.883ZM491.883 870.884H516.669V868.884H491.883V870.884ZM515.669 869.884V937H517.669V869.884H515.669ZM516.669 938H525.237V936H516.669V938ZM526.237 937V869.884H524.237V937H526.237ZM525.237 870.884H550.023V868.884H525.237V870.884ZM551.023 869.884V862.03H549.023V869.884H551.023ZM550.023 861.03H491.883V863.03H550.023V861.03ZM604.387 937H603.387C603.387 937.552 603.834 938 604.387 938V937ZM653.857 937V938C654.409 938 654.857 937.552 654.857 937H653.857ZM653.857 929.248H654.857C654.857 928.696 654.409 928.248 653.857 928.248V929.248ZM612.955 929.248H611.955C611.955 929.8 612.402 930.248 612.955 930.248V929.248ZM612.955 902.728V901.728C612.402 901.728 611.955 902.176 611.955 902.728H612.955ZM650.695 902.728V903.728C651.247 903.728 651.695 903.28 651.695 902.728H650.695ZM650.695 894.976H651.695C651.695 894.424 651.247 893.976 650.695 893.976V894.976ZM612.955 894.976H611.955C611.955 895.528 612.402 895.976 612.955 895.976V894.976ZM612.955 869.782V868.782C612.402 868.782 611.955 869.23 611.955 869.782H612.955ZM653.653 869.782V870.782C654.205 870.782 654.653 870.334 654.653 869.782H653.653ZM653.653 862.03H654.653C654.653 861.478 654.205 861.03 653.653 861.03V862.03ZM604.387 862.03V861.03C603.834 861.03 603.387 861.478 603.387 862.03H604.387ZM604.387 938H653.857V936H604.387V938ZM654.857 937V929.248H652.857V937H654.857ZM653.857 928.248H612.955V930.248H653.857V928.248ZM613.955 929.248V902.728H611.955V929.248H613.955ZM612.955 903.728H650.695V901.728H612.955V903.728ZM651.695 902.728V894.976H649.695V902.728H651.695ZM650.695 893.976H612.955V895.976H650.695V893.976ZM613.955 894.976V869.782H611.955V894.976H613.955ZM612.955 870.782H653.653V868.782H612.955V870.782ZM654.653 869.782V862.03H652.653V869.782H654.653ZM653.653 861.03H604.387V863.03H653.653V861.03ZM603.387 862.03V937H605.387V862.03H603.387ZM712.148 937H711.148C711.148 937.552 711.596 938 712.148 938V937ZM720.716 937V938C721.268 938 721.716 937.552 721.716 937H720.716ZM720.716 904.054V903.054C720.164 903.054 719.716 903.502 719.716 904.054H720.716ZM738.362 904.054L739.19 903.493C739.004 903.218 738.694 903.054 738.362 903.054V904.054ZM760.7 937L759.872 937.561C760.058 937.836 760.368 938 760.7 938V937ZM770.9 937V938C771.273 938 771.615 937.792 771.787 937.461C771.959 937.13 771.933 936.731 771.719 936.426L770.9 937ZM749.582 906.604L750.401 906.03C750.269 905.843 750.078 905.706 749.858 905.643L749.582 906.604ZM740.708 904.054V903.054C740.21 903.054 739.787 903.421 739.718 903.915C739.648 904.408 739.953 904.877 740.432 905.015L740.708 904.054ZM712.148 862.03V861.03C711.596 861.03 711.148 861.478 711.148 862.03H712.148ZM720.716 896.404H719.716C719.716 896.956 720.164 897.404 720.716 897.404V896.404ZM720.716 869.782V868.782C720.164 868.782 719.716 869.23 719.716 869.782H720.716ZM712.148 938H720.716V936H712.148V938ZM721.716 937V904.054H719.716V937H721.716ZM720.716 905.054H738.362V903.054H720.716V905.054ZM737.534 904.615L759.872 937.561L761.528 936.439L739.19 903.493L737.534 904.615ZM760.7 938H770.9V936H760.7V938ZM771.719 936.426L750.401 906.03L748.763 907.178L770.081 937.574L771.719 936.426ZM749.858 905.643L740.984 903.093L740.432 905.015L749.306 907.565L749.858 905.643ZM740.708 905.054H744.38V903.054H740.708V905.054ZM744.38 905.054C752.37 905.054 758.602 902.78 762.846 898.846C767.096 894.907 769.248 889.398 769.248 883.144H767.248C767.248 888.926 765.269 893.872 761.486 897.379C757.698 900.891 751.996 903.054 744.38 903.054V905.054ZM769.248 883.144C769.248 876.881 767.013 871.326 762.733 867.342C758.457 863.361 752.228 861.03 744.38 861.03V863.03C751.832 863.03 757.537 865.238 761.37 868.805C765.199 872.369 767.248 877.371 767.248 883.144H769.248ZM744.38 861.03H712.148V863.03H744.38V861.03ZM711.148 862.03V937H713.148V862.03H711.148ZM721.716 896.404V869.782H719.716V896.404H721.716ZM720.716 870.782H744.176V868.782H720.716V870.782ZM744.176 870.782C749.005 870.782 752.618 872.062 755.012 874.189C757.393 876.303 758.68 879.354 758.68 883.144H760.68C760.68 878.876 759.213 875.246 756.341 872.694C753.482 870.154 749.343 868.782 744.176 868.782V870.782ZM758.68 883.144C758.68 886.874 757.373 889.9 754.978 892.006C752.568 894.125 748.951 895.404 744.176 895.404V897.404C749.295 897.404 753.43 896.031 756.299 893.508C759.182 890.974 760.68 887.37 760.68 883.144H758.68ZM744.176 895.404H720.716V897.404H744.176V895.404ZM892.191 920.476L893.051 920.986C893.316 920.538 893.194 919.962 892.77 919.661L892.191 920.476ZM885.153 915.478L885.732 914.663C885.488 914.489 885.179 914.434 884.89 914.513C884.601 914.592 884.363 914.796 884.24 915.069L885.153 915.478ZM885.051 883.246L884.145 883.67C884.273 883.943 884.516 884.143 884.808 884.216C885.099 884.289 885.408 884.227 885.649 884.047L885.051 883.246ZM891.885 878.146L892.483 878.947C892.883 878.649 893.002 878.1 892.76 877.662L891.885 878.146ZM859.551 859.398C838.866 859.398 819.893 874.268 819.893 899.362H821.893C821.893 875.496 839.843 861.398 859.551 861.398V859.398ZM819.893 899.362C819.893 924.544 838.546 939.53 859.347 939.53V937.53C839.552 937.53 821.893 923.344 821.893 899.362H819.893ZM859.347 939.53C874.071 939.53 886.337 932.315 893.051 920.986L891.33 919.966C884.988 930.669 873.387 937.53 859.347 937.53V939.53ZM892.77 919.661L885.732 914.663L884.574 916.293L891.612 921.291L892.77 919.661ZM884.24 915.069C880.041 924.444 870.648 929.778 859.755 929.778V931.778C871.302 931.778 881.493 926.096 886.065 915.887L884.24 915.069ZM859.755 929.778C851.925 929.778 844.634 927.079 839.307 921.973C833.99 916.876 830.563 909.317 830.563 899.464H828.563C828.563 909.807 832.174 917.905 837.923 923.416C843.663 928.918 851.469 931.778 859.755 931.778V929.778ZM830.563 899.464C830.563 889.463 834.088 881.906 839.454 876.846C844.833 871.775 852.126 869.15 859.755 869.15V867.15C851.675 867.15 843.873 869.931 838.082 875.391C832.28 880.863 828.563 888.963 828.563 899.464H830.563ZM859.755 869.15C870.345 869.15 879.746 874.285 884.145 883.67L885.956 882.822C881.176 872.623 870.992 867.15 859.755 867.15V869.15ZM885.649 884.047L892.483 878.947L891.287 877.345L884.453 882.445L885.649 884.047ZM892.76 877.662C886.125 865.656 872.999 859.398 859.551 859.398V861.398C872.419 861.398 884.793 867.38 891.01 878.63L892.76 877.662ZM947.294 937H946.294C946.294 937.552 946.742 938 947.294 938V937ZM994.214 937V938C994.766 938 995.214 937.552 995.214 937H994.214ZM994.214 929.146H995.214C995.214 928.594 994.766 928.146 994.214 928.146V929.146ZM955.862 929.146H954.862C954.862 929.698 955.31 930.146 955.862 930.146V929.146ZM955.862 862.03H956.862C956.862 861.478 956.414 861.03 955.862 861.03V862.03ZM947.294 862.03V861.03C946.742 861.03 946.294 861.478 946.294 862.03H947.294ZM947.294 938H994.214V936H947.294V938ZM995.214 937V929.146H993.214V937H995.214ZM994.214 928.146H955.862V930.146H994.214V928.146ZM956.862 929.146V862.03H954.862V929.146H956.862ZM955.862 861.03H947.294V863.03H955.862V861.03ZM946.294 862.03V937H948.294V862.03H946.294ZM1040.01 937L1039.08 936.618C1038.96 936.926 1038.99 937.278 1039.18 937.556C1039.36 937.833 1039.67 938 1040.01 938V937ZM1049.29 937V938C1049.7 938 1050.07 937.752 1050.22 937.374L1049.29 937ZM1057.96 915.478V914.478C1057.55 914.478 1057.18 914.726 1057.03 915.104L1057.96 915.478ZM1093.05 915.478L1093.98 915.108C1093.83 914.728 1093.46 914.478 1093.05 914.478V915.478ZM1101.62 937L1100.69 937.37C1100.84 937.75 1101.21 938 1101.62 938V937ZM1110.9 937V938C1111.23 938 1111.54 937.834 1111.73 937.557C1111.91 937.28 1111.95 936.928 1111.82 936.62L1110.9 937ZM1080.09 862.03L1081.02 861.65C1080.86 861.275 1080.5 861.03 1080.09 861.03V862.03ZM1071.02 862.03V861.03C1070.61 861.03 1070.25 861.274 1070.09 861.648L1071.02 862.03ZM1061.02 908.032L1060.09 907.657C1059.97 907.965 1060 908.315 1060.19 908.591C1060.38 908.867 1060.69 909.032 1061.02 909.032V908.032ZM1075.61 872.026L1076.53 871.655C1076.38 871.276 1076.02 871.027 1075.61 871.026C1075.2 871.025 1074.83 871.272 1074.68 871.651L1075.61 872.026ZM1089.99 908.032V909.032C1090.32 909.032 1090.63 908.867 1090.82 908.593C1091 908.318 1091.04 907.969 1090.92 907.661L1089.99 908.032ZM1040.01 938H1049.29V936H1040.01V938ZM1050.22 937.374L1058.89 915.852L1057.03 915.104L1048.36 936.626L1050.22 937.374ZM1057.96 916.478H1093.05V914.478H1057.96V916.478ZM1092.12 915.848L1100.69 937.37L1102.54 936.63L1093.98 915.108L1092.12 915.848ZM1101.62 938H1110.9V936H1101.62V938ZM1111.82 936.62L1081.02 861.65L1079.17 862.41L1109.97 937.38L1111.82 936.62ZM1080.09 861.03H1071.02V863.03H1080.09V861.03ZM1070.09 861.648L1039.08 936.618L1040.93 937.382L1071.94 862.412L1070.09 861.648ZM1061.95 908.407L1076.53 872.401L1074.68 871.651L1060.09 907.657L1061.95 908.407ZM1074.68 872.397L1089.06 908.403L1090.92 907.661L1076.53 871.655L1074.68 872.397ZM1089.99 907.032H1061.02V909.032H1089.99V907.032ZM1167.39 909.868H1168.39C1168.39 909.518 1168.21 909.193 1167.91 909.012C1167.61 908.831 1167.24 908.82 1166.93 908.983L1167.39 909.868ZM1159.23 914.152L1158.77 913.267C1158.41 913.455 1158.2 913.843 1158.24 914.247L1159.23 914.152ZM1207.58 885.184H1206.58C1206.58 885.52 1206.75 885.834 1207.03 886.019C1207.31 886.204 1207.67 886.236 1207.98 886.103L1207.58 885.184ZM1215.64 881.716L1216.04 882.635C1216.42 882.469 1216.66 882.081 1216.64 881.662L1215.64 881.716ZM1188.1 859.398C1180.84 859.398 1173.82 861.38 1168.58 865.159C1163.32 868.954 1159.87 874.57 1159.87 881.716H1161.87C1161.87 875.296 1164.94 870.253 1169.75 866.781C1174.59 863.292 1181.18 861.398 1188.1 861.398V859.398ZM1159.87 881.716C1159.87 885.5 1160.63 888.6 1162.01 891.151C1163.39 893.702 1165.36 895.65 1167.68 897.173C1172.29 900.193 1178.36 901.584 1184.24 902.74C1190.2 903.916 1195.93 904.848 1200.2 906.862C1202.31 907.857 1204 909.086 1205.16 910.678C1206.31 912.256 1206.99 914.261 1206.99 916.906H1208.99C1208.99 913.89 1208.2 911.461 1206.77 909.5C1205.36 907.553 1203.36 906.139 1201.05 905.052C1196.49 902.903 1190.44 901.923 1184.62 900.778C1178.71 899.614 1173.01 898.276 1168.78 895.501C1166.68 894.127 1164.97 892.411 1163.77 890.199C1162.57 887.987 1161.87 885.225 1161.87 881.716H1159.87ZM1206.99 916.906C1206.99 920.945 1205.15 924.196 1201.97 926.471C1198.75 928.765 1194.13 930.084 1188.61 930.084V932.084C1194.42 932.084 1199.48 930.7 1203.13 928.098C1206.8 925.477 1208.99 921.639 1208.99 916.906H1206.99ZM1188.61 930.084C1181.94 930.084 1176.92 928.014 1173.56 924.526C1170.2 921.031 1168.39 915.999 1168.39 909.868H1166.39C1166.39 916.385 1168.32 921.961 1172.12 925.912C1175.93 929.87 1181.51 932.084 1188.61 932.084V930.084ZM1166.93 908.983L1158.77 913.267L1159.7 915.037L1167.86 910.753L1166.93 908.983ZM1158.24 914.247C1158.98 921.935 1162.28 928.279 1167.58 932.694C1172.88 937.103 1180.11 939.53 1188.61 939.53V937.53C1180.49 937.53 1173.74 935.214 1168.86 931.157C1163.99 927.106 1160.92 921.261 1160.23 914.057L1158.24 914.247ZM1188.61 939.53C1196.98 939.53 1204.25 937.427 1209.45 933.447C1214.68 929.446 1217.76 923.594 1217.76 916.294H1215.76C1215.76 922.968 1212.98 928.234 1208.24 931.858C1203.47 935.502 1196.67 937.53 1188.61 937.53V939.53ZM1217.76 916.294C1217.76 908.546 1214.66 903.618 1209.97 900.352C1205.37 897.144 1199.29 895.577 1193.41 894.329C1187.43 893.061 1181.7 892.126 1177.4 890.247C1175.28 889.319 1173.6 888.193 1172.44 886.757C1171.31 885.341 1170.64 883.559 1170.64 881.206H1168.64C1168.64 883.978 1169.44 886.21 1170.88 888.008C1172.31 889.786 1174.31 891.077 1176.6 892.08C1181.14 894.065 1187.19 895.055 1192.99 896.286C1198.89 897.537 1204.59 899.043 1208.83 901.993C1212.98 904.885 1215.76 909.201 1215.76 916.294H1217.76ZM1170.64 881.206C1170.64 877.318 1172.38 874.276 1175.39 872.17C1178.43 870.04 1182.83 868.844 1188.1 868.844V866.844C1182.56 866.844 1177.72 868.096 1174.24 870.531C1170.73 872.989 1168.64 876.628 1168.64 881.206H1170.64ZM1188.1 868.844C1194.02 868.844 1198.63 870.617 1201.75 873.5C1204.87 876.378 1206.58 880.437 1206.58 885.184H1208.58C1208.58 879.935 1206.68 875.324 1203.11 872.031C1199.55 868.743 1194.42 866.844 1188.1 866.844V868.844ZM1207.98 886.103L1216.04 882.635L1215.25 880.797L1207.19 884.265L1207.98 886.103ZM1216.64 881.662C1215.99 869.686 1204.92 859.398 1188.1 859.398V861.398C1204.12 861.398 1214.07 871.102 1214.64 881.77L1216.64 881.662ZM1277.95 909.868H1278.95C1278.95 909.518 1278.76 909.193 1278.46 909.012C1278.16 908.831 1277.79 908.82 1277.48 908.983L1277.95 909.868ZM1269.79 914.152L1269.32 913.267C1268.96 913.455 1268.75 913.843 1268.79 914.247L1269.79 914.152ZM1318.13 885.184H1317.13C1317.13 885.52 1317.3 885.834 1317.58 886.019C1317.86 886.204 1318.22 886.236 1318.53 886.103L1318.13 885.184ZM1326.19 881.716L1326.59 882.635C1326.97 882.469 1327.21 882.081 1327.19 881.662L1326.19 881.716ZM1298.65 859.398C1291.39 859.398 1284.37 861.38 1279.13 865.159C1273.87 868.954 1270.42 874.57 1270.42 881.716H1272.42C1272.42 875.296 1275.49 870.253 1280.3 866.781C1285.14 863.292 1291.73 861.398 1298.65 861.398V859.398ZM1270.42 881.716C1270.42 885.5 1271.18 888.6 1272.56 891.151C1273.94 893.702 1275.91 895.65 1278.23 897.173C1282.84 900.193 1288.92 901.584 1294.79 902.74C1300.75 903.916 1306.48 904.848 1310.75 906.862C1312.86 907.857 1314.55 909.086 1315.71 910.678C1316.86 912.256 1317.54 914.261 1317.54 916.906H1319.54C1319.54 913.89 1318.75 911.461 1317.32 909.5C1315.91 907.553 1313.91 906.139 1311.6 905.052C1307.04 902.903 1300.99 901.923 1295.17 900.778C1289.26 899.614 1283.56 898.276 1279.33 895.501C1277.23 894.127 1275.52 892.411 1274.32 890.199C1273.12 887.987 1272.42 885.225 1272.42 881.716H1270.42ZM1317.54 916.906C1317.54 920.945 1315.7 924.196 1312.52 926.471C1309.3 928.765 1304.68 930.084 1299.16 930.084V932.084C1304.97 932.084 1310.03 930.7 1313.68 928.098C1317.35 925.477 1319.54 921.639 1319.54 916.906H1317.54ZM1299.16 930.084C1292.49 930.084 1287.47 928.014 1284.11 924.526C1280.75 921.031 1278.95 915.999 1278.95 909.868H1276.95C1276.95 916.385 1278.87 921.961 1282.67 925.912C1286.48 929.87 1292.06 932.084 1299.16 932.084V930.084ZM1277.48 908.983L1269.32 913.267L1270.25 915.037L1278.41 910.753L1277.48 908.983ZM1268.79 914.247C1269.53 921.935 1272.83 928.279 1278.13 932.694C1283.43 937.103 1290.66 939.53 1299.16 939.53V937.53C1291.04 937.53 1284.29 935.214 1279.41 931.157C1274.54 927.106 1271.47 921.261 1270.78 914.057L1268.79 914.247ZM1299.16 939.53C1307.53 939.53 1314.8 937.427 1320 933.447C1325.23 929.446 1328.31 923.594 1328.31 916.294H1326.31C1326.31 922.968 1323.53 928.234 1318.79 931.858C1314.02 935.502 1307.22 937.53 1299.16 937.53V939.53ZM1328.31 916.294C1328.31 908.546 1325.21 903.618 1320.52 900.352C1315.92 897.144 1309.84 895.577 1303.96 894.329C1297.98 893.061 1292.25 892.126 1287.95 890.247C1285.83 889.319 1284.15 888.193 1282.99 886.757C1281.86 885.341 1281.19 883.559 1281.19 881.206H1279.19C1279.19 883.978 1279.99 886.21 1281.43 888.008C1282.86 889.786 1284.86 891.077 1287.15 892.08C1291.69 894.065 1297.74 895.055 1303.54 896.286C1309.44 897.537 1315.15 899.043 1319.38 901.993C1323.53 904.885 1326.31 909.201 1326.31 916.294H1328.31ZM1281.19 881.206C1281.19 877.318 1282.93 874.276 1285.94 872.17C1288.99 870.04 1293.38 868.844 1298.65 868.844V866.844C1293.11 866.844 1288.27 868.096 1284.79 870.531C1281.28 872.989 1279.19 876.628 1279.19 881.206H1281.19ZM1298.65 868.844C1304.57 868.844 1309.18 870.617 1312.3 873.5C1315.42 876.378 1317.13 880.437 1317.13 885.184H1319.13C1319.13 879.935 1317.23 875.324 1313.66 872.031C1310.1 868.743 1304.97 866.844 1298.65 866.844V868.844ZM1318.53 886.103L1326.59 882.635L1325.8 880.797L1317.74 884.265L1318.53 886.103ZM1327.19 881.662C1326.54 869.686 1315.47 859.398 1298.65 859.398V861.398C1314.67 861.398 1324.62 871.102 1325.19 881.77L1327.19 881.662Z" fill="#141619"/>
<path d="M532.677 973.972C528.785 973.972 525.201 976.1 525.201 979.824C525.201 987.832 538.137 983.268 538.137 989.484C538.137 991.892 535.925 993.376 532.817 993.376C529.037 993.376 526.993 991.024 526.993 987.552L524.753 988.728C525.145 992.816 528.253 995.42 532.817 995.42C537.325 995.42 540.545 993.152 540.545 989.316C540.545 981.168 527.609 985.312 527.609 979.684C527.609 977.36 529.709 976.016 532.677 976.016C536.037 976.016 538.025 978.032 538.025 980.776L540.237 979.824C540.069 976.716 537.185 973.972 532.677 973.972ZM551.74 995H565.32V992.872H554.092V985.592H564.452V983.464H554.092V976.548H565.264V974.42H551.74V995ZM574.434 995H576.982L579.362 989.092H588.994L591.346 995H593.894L585.438 974.42H582.946L574.434 995ZM580.202 987.048L584.206 977.164L588.154 987.048H580.202ZM610.607 973.972C606.715 973.972 603.131 976.1 603.131 979.824C603.131 987.832 616.067 983.268 616.067 989.484C616.067 991.892 613.855 993.376 610.747 993.376C606.967 993.376 604.923 991.024 604.923 987.552L602.683 988.728C603.075 992.816 606.183 995.42 610.747 995.42C615.255 995.42 618.475 993.152 618.475 989.316C618.475 981.168 605.539 985.312 605.539 979.684C605.539 977.36 607.639 976.016 610.607 976.016C613.967 976.016 615.955 978.032 615.955 980.776L618.167 979.824C617.999 976.716 615.115 973.972 610.607 973.972ZM639.106 973.972C633.562 973.972 628.354 977.976 628.354 984.696C628.354 991.36 633.506 995.42 639.106 995.42C644.734 995.42 649.858 991.36 649.858 984.696C649.858 977.976 644.678 973.972 639.106 973.972ZM630.734 984.696C630.734 979.096 634.822 976.128 639.106 976.128C643.39 976.128 647.45 979.096 647.45 984.696C647.45 990.24 643.474 993.264 639.106 993.264C634.738 993.264 630.734 990.24 630.734 984.696ZM660.842 974.42V995H663.166V977.668L673.694 995H676.606V974.42H674.282V991.752L663.754 974.42H660.842ZM707.559 973.972C703.611 973.972 700.979 976.744 700.979 980.048C700.979 980.384 701.007 980.832 701.063 981.224L703.387 981.616C703.331 981.196 703.303 980.776 703.303 980.412C703.303 977.948 704.759 976.1 707.503 976.1C709.967 976.1 711.395 977.612 711.395 979.74C711.395 982.288 709.323 984.752 706.831 987.216L701.147 992.9V995H713.943V992.872H704.255L708.875 988.308C711.619 985.564 713.747 982.932 713.747 979.796C713.747 976.436 711.283 973.972 707.559 973.972ZM738.361 995H751.941V992.872H740.713V985.592H751.073V983.464H740.713V976.548H751.885V974.42H738.361V995ZM763.463 995H765.815V986.432H771.863C775.363 986.432 778.331 984.36 778.331 980.44C778.331 976.856 775.867 974.42 771.667 974.42H763.463V995ZM765.815 984.304V976.548H771.779C774.495 976.548 775.979 978.172 775.979 980.44C775.979 982.792 774.327 984.304 771.695 984.304H765.815ZM789.056 974.42V995H791.38V974.42H789.056ZM810.517 973.972C806.625 973.972 803.041 976.1 803.041 979.824C803.041 987.832 815.977 983.268 815.977 989.484C815.977 991.892 813.765 993.376 810.657 993.376C806.877 993.376 804.833 991.024 804.833 987.552L802.593 988.728C802.985 992.816 806.093 995.42 810.657 995.42C815.165 995.42 818.385 993.152 818.385 989.316C818.385 981.168 805.449 985.312 805.449 979.684C805.449 977.36 807.549 976.016 810.517 976.016C813.877 976.016 815.865 978.032 815.865 980.776L818.077 979.824C817.909 976.716 815.025 973.972 810.517 973.972ZM839.016 973.972C833.472 973.972 828.264 977.976 828.264 984.696C828.264 991.36 833.416 995.42 839.016 995.42C844.644 995.42 849.768 991.36 849.768 984.696C849.768 977.976 844.588 973.972 839.016 973.972ZM830.644 984.696C830.644 979.096 834.732 976.128 839.016 976.128C843.3 976.128 847.36 979.096 847.36 984.696C847.36 990.24 843.384 993.264 839.016 993.264C834.648 993.264 830.644 990.24 830.644 984.696ZM860.752 995H867.724C873.66 995 877.272 991.08 877.272 984.444C877.272 977.808 873.66 974.42 867.724 974.42H860.752V995ZM863.104 992.872V976.548H867.528C872.064 976.548 874.948 978.9 874.948 984.444C874.948 989.904 872.064 992.872 867.528 992.872H863.104ZM888.287 995H901.867V992.872H890.639V985.592H900.999V983.464H890.639V976.548H901.811V974.42H888.287V995ZM930.988 974.42C930.988 978.004 929.252 978.788 925.444 978.788V980.552H930.568V995H932.892V974.42H930.988Z" fill="#FFFEFC"/>
<g filter="url(#filter0_dd_806_24063)">
<path d="M545 734.223L685.707 734.223C710.247 734.223 730.14 714.329 730.14 689.789L730.14 549.082L589.434 549.082C564.894 549.082 545 568.976 545 593.516L545 734.223Z" fill="#2BFF99"/>
<path d="M545 734.223L685.707 734.223C710.247 734.223 730.14 714.329 730.14 689.789L730.14 549.082L589.434 549.082C564.894 549.082 545 568.976 545 593.516L545 734.223Z" fill="black" fill-opacity="0.45"/>
</g>
<g filter="url(#filter1_dd_806_24063)">
<path d="M476 616.348L597.856 686.701C619.108 698.971 646.283 691.689 658.553 670.437L728.907 548.582L607.051 478.228C585.799 465.958 558.623 473.24 546.353 494.492L476 616.348Z" fill="#2BFF99"/>
<path d="M476 616.348L597.856 686.701C619.108 698.971 646.283 691.689 658.553 670.437L728.907 548.582L607.051 478.228C585.799 465.958 558.623 473.24 546.353 494.492L476 616.348Z" fill="black" fill-opacity="0.35"/>
</g>
<g filter="url(#filter2_dd_806_24063)">
<path d="M476 480.223L546.353 602.079C558.623 623.331 585.799 630.613 607.051 618.343L728.907 547.989L658.553 426.134C646.283 404.881 619.108 397.6 597.856 409.87L476 480.223Z" fill="#2BFF99"/>
<path d="M476 480.223L546.353 602.079C558.623 623.331 585.799 630.613 607.051 618.343L728.907 547.989L658.553 426.134C646.283 404.881 619.108 397.6 597.856 409.87L476 480.223Z" fill="black" fill-opacity="0.25"/>
</g>
<g filter="url(#filter3_dd_806_24063)">
<path d="M545 364L545 504.707C545 529.247 564.894 549.14 589.434 549.14L730.14 549.14L730.14 408.434C730.14 383.894 710.247 364 685.707 364L545 364Z" fill="#2BFF99"/>
</g>
<g filter="url(#filter4_dd_806_24063)">
<path d="M914.566 363L773.859 363C749.319 363 729.425 382.894 729.425 407.434L729.425 548.14L870.132 548.14C894.672 548.14 914.566 528.247 914.566 503.707L914.566 363Z" fill="#2BFF99"/>
<path d="M914.566 363L773.859 363C749.319 363 729.425 382.894 729.425 407.434L729.425 548.14L870.132 548.14C894.672 548.14 914.566 528.247 914.566 503.707L914.566 363Z" fill="black" fill-opacity="0.45"/>
</g>
<g filter="url(#filter5_dd_806_24063)">
<path d="M983.566 480.875L861.71 410.522C840.458 398.252 813.283 405.533 801.013 426.786L730.659 548.641L852.515 618.995C873.767 631.265 900.943 623.983 913.213 602.731L983.566 480.875Z" fill="#2BFF99"/>
<path d="M983.566 480.875L861.71 410.522C840.458 398.252 813.283 405.533 801.013 426.786L730.659 548.641L852.515 618.995C873.767 631.265 900.943 623.983 913.213 602.731L983.566 480.875Z" fill="black" fill-opacity="0.35"/>
</g>
<g filter="url(#filter6_dd_806_24063)">
<path d="M983.566 617L913.213 495.144C900.943 473.892 873.768 466.611 852.515 478.881L730.66 549.234L801.013 671.09C813.283 692.342 840.459 699.623 861.711 687.353L983.566 617Z" fill="#2BFF99"/>
<path d="M983.566 617L913.213 495.144C900.943 473.892 873.768 466.611 852.515 478.881L730.66 549.234L801.013 671.09C813.283 692.342 840.459 699.623 861.711 687.353L983.566 617Z" fill="black" fill-opacity="0.25"/>
</g>
<g filter="url(#filter7_dd_806_24063)">
<path d="M915.207 733.781L915.207 593.074C915.207 568.534 895.313 548.641 870.773 548.641L730.066 548.641L730.066 689.348C730.066 713.888 749.96 733.781 774.5 733.781L915.207 733.781Z" fill="#2BFF99"/>
</g>
<defs>
<filter id="filter0_dd_806_24063" x="521" y="541.082" width="233.141" height="233.141" filterUnits="userSpaceOnUse" color-interpolation-filters="sRGB">
<feFlood flood-opacity="0" result="BackgroundImageFix"/>
<feColorMatrix in="SourceAlpha" type="matrix" values="0 0 0 0 0 0 0 0 0 0 0 0 0 0 0 0 0 0 127 0" result="hardAlpha"/>
<feOffset dy="16"/>
<feGaussianBlur stdDeviation="12"/>
<feComposite in2="hardAlpha" operator="out"/>
<feColorMatrix type="matrix" values="0 0 0 0 0 0 0 0 0 0 0 0 0 0 0 0 0 0 0.12 0"/>
<feBlend mode="normal" in2="BackgroundImageFix" result="effect1_dropShadow_806_24063"/>
<feColorMatrix in="SourceAlpha" type="matrix" values="0 0 0 0 0 0 0 0 0 0 0 0 0 0 0 0 0 0 127 0" result="hardAlpha"/>
<feOffset dy="8"/>
<feGaussianBlur stdDeviation="2.5"/>
<feComposite in2="hardAlpha" operator="out"/>
<feColorMatrix type="matrix" values="0 0 0 0 0 0 0 0 0 0 0 0 0 0 0 0 0 0 0.08 0"/>
<feBlend mode="normal" in2="effect1_dropShadow_806_24063" result="effect2_dropShadow_806_24063"/>
<feBlend mode="normal" in="SourceGraphic" in2="effect2_dropShadow_806_24063" result="shape"/>
</filter>
<filter id="filter1_dd_806_24063" x="452" y="464.268" width="300.907" height="268.394" filterUnits="userSpaceOnUse" color-interpolation-filters="sRGB">
<feFlood flood-opacity="0" result="BackgroundImageFix"/>
<feColorMatrix in="SourceAlpha" type="matrix" values="0 0 0 0 0 0 0 0 0 0 0 0 0 0 0 0 0 0 127 0" result="hardAlpha"/>
<feOffset dy="16"/>
<feGaussianBlur stdDeviation="12"/>
<feComposite in2="hardAlpha" operator="out"/>
<feColorMatrix type="matrix" values="0 0 0 0 0 0 0 0 0 0 0 0 0 0 0 0 0 0 0.12 0"/>
<feBlend mode="normal" in2="BackgroundImageFix" result="effect1_dropShadow_806_24063"/>
<feColorMatrix in="SourceAlpha" type="matrix" values="0 0 0 0 0 0 0 0 0 0 0 0 0 0 0 0 0 0 127 0" result="hardAlpha"/>
<feOffset dy="8"/>
<feGaussianBlur stdDeviation="2.5"/>
<feComposite in2="hardAlpha" operator="out"/>
<feColorMatrix type="matrix" values="0 0 0 0 0 0 0 0 0 0 0 0 0 0 0 0 0 0 0.08 0"/>
<feBlend mode="normal" in2="effect1_dropShadow_806_24063" result="effect2_dropShadow_806_24063"/>
<feBlend mode="normal" in="SourceGraphic" in2="effect2_dropShadow_806_24063" result="shape"/>
</filter>
<filter id="filter2_dd_806_24063" x="452" y="395.909" width="300.907" height="268.394" filterUnits="userSpaceOnUse" color-interpolation-filters="sRGB">
<feFlood flood-opacity="0" result="BackgroundImageFix"/>
<feColorMatrix in="SourceAlpha" type="matrix" values="0 0 0 0 0 0 0 0 0 0 0 0 0 0 0 0 0 0 127 0" result="hardAlpha"/>
<feOffset dy="16"/>
<feGaussianBlur stdDeviation="12"/>
<feComposite in2="hardAlpha" operator="out"/>
<feColorMatrix type="matrix" values="0 0 0 0 0 0 0 0 0 0 0 0 0 0 0 0 0 0 0.12 0"/>
<feBlend mode="normal" in2="BackgroundImageFix" result="effect1_dropShadow_806_24063"/>
<feColorMatrix in="SourceAlpha" type="matrix" values="0 0 0 0 0 0 0 0 0 0 0 0 0 0 0 0 0 0 127 0" result="hardAlpha"/>
<feOffset dy="8"/>
<feGaussianBlur stdDeviation="2.5"/>
<feComposite in2="hardAlpha" operator="out"/>
<feColorMatrix type="matrix" values="0 0 0 0 0 0 0 0 0 0 0 0 0 0 0 0 0 0 0.08 0"/>
<feBlend mode="normal" in2="effect1_dropShadow_806_24063" result="effect2_dropShadow_806_24063"/>
<feBlend mode="normal" in="SourceGraphic" in2="effect2_dropShadow_806_24063" result="shape"/>
</filter>
<filter id="filter3_dd_806_24063" x="521" y="356" width="233.141" height="233.141" filterUnits="userSpaceOnUse" color-interpolation-filters="sRGB">
<feFlood flood-opacity="0" result="BackgroundImageFix"/>
<feColorMatrix in="SourceAlpha" type="matrix" values="0 0 0 0 0 0 0 0 0 0 0 0 0 0 0 0 0 0 127 0" result="hardAlpha"/>
<feOffset dy="16"/>
<feGaussianBlur stdDeviation="12"/>
<feComposite in2="hardAlpha" operator="out"/>
<feColorMatrix type="matrix" values="0 0 0 0 0 0 0 0 0 0 0 0 0 0 0 0 0 0 0.12 0"/>
<feBlend mode="normal" in2="BackgroundImageFix" result="effect1_dropShadow_806_24063"/>
<feColorMatrix in="SourceAlpha" type="matrix" values="0 0 0 0 0 0 0 0 0 0 0 0 0 0 0 0 0 0 127 0" result="hardAlpha"/>
<feOffset dy="8"/>
<feGaussianBlur stdDeviation="2.5"/>
<feComposite in2="hardAlpha" operator="out"/>
<feColorMatrix type="matrix" values="0 0 0 0 0 0 0 0 0 0 0 0 0 0 0 0 0 0 0.08 0"/>
<feBlend mode="normal" in2="effect1_dropShadow_806_24063" result="effect2_dropShadow_806_24063"/>
<feBlend mode="normal" in="SourceGraphic" in2="effect2_dropShadow_806_24063" result="shape"/>
</filter>
<filter id="filter4_dd_806_24063" x="705.425" y="355" width="233.141" height="233.141" filterUnits="userSpaceOnUse" color-interpolation-filters="sRGB">
<feFlood flood-opacity="0" result="BackgroundImageFix"/>
<feColorMatrix in="SourceAlpha" type="matrix" values="0 0 0 0 0 0 0 0 0 0 0 0 0 0 0 0 0 0 127 0" result="hardAlpha"/>
<feOffset dy="16"/>
<feGaussianBlur stdDeviation="12"/>
<feComposite in2="hardAlpha" operator="out"/>
<feColorMatrix type="matrix" values="0 0 0 0 0 0 0 0 0 0 0 0 0 0 0 0 0 0 0.12 0"/>
<feBlend mode="normal" in2="BackgroundImageFix" result="effect1_dropShadow_806_24063"/>
<feColorMatrix in="SourceAlpha" type="matrix" values="0 0 0 0 0 0 0 0 0 0 0 0 0 0 0 0 0 0 127 0" result="hardAlpha"/>
<feOffset dy="8"/>
<feGaussianBlur stdDeviation="2.5"/>
<feComposite in2="hardAlpha" operator="out"/>
<feColorMatrix type="matrix" values="0 0 0 0 0 0 0 0 0 0 0 0 0 0 0 0 0 0 0.08 0"/>
<feBlend mode="normal" in2="effect1_dropShadow_806_24063" result="effect2_dropShadow_806_24063"/>
<feBlend mode="normal" in="SourceGraphic" in2="effect2_dropShadow_806_24063" result="shape"/>
</filter>
<filter id="filter5_dd_806_24063" x="706.659" y="396.561" width="300.907" height="268.394" filterUnits="userSpaceOnUse" color-interpolation-filters="sRGB">
<feFlood flood-opacity="0" result="BackgroundImageFix"/>
<feColorMatrix in="SourceAlpha" type="matrix" values="0 0 0 0 0 0 0 0 0 0 0 0 0 0 0 0 0 0 127 0" result="hardAlpha"/>
<feOffset dy="16"/>
<feGaussianBlur stdDeviation="12"/>
<feComposite in2="hardAlpha" operator="out"/>
<feColorMatrix type="matrix" values="0 0 0 0 0 0 0 0 0 0 0 0 0 0 0 0 0 0 0.12 0"/>
<feBlend mode="normal" in2="BackgroundImageFix" result="effect1_dropShadow_806_24063"/>
<feColorMatrix in="SourceAlpha" type="matrix" values="0 0 0 0 0 0 0 0 0 0 0 0 0 0 0 0 0 0 127 0" result="hardAlpha"/>
<feOffset dy="8"/>
<feGaussianBlur stdDeviation="2.5"/>
<feComposite in2="hardAlpha" operator="out"/>
<feColorMatrix type="matrix" values="0 0 0 0 0 0 0 0 0 0 0 0 0 0 0 0 0 0 0.08 0"/>
<feBlend mode="normal" in2="effect1_dropShadow_806_24063" result="effect2_dropShadow_806_24063"/>
<feBlend mode="normal" in="SourceGraphic" in2="effect2_dropShadow_806_24063" result="shape"/>
</filter>
<filter id="filter6_dd_806_24063" x="706.66" y="464.92" width="300.907" height="268.394" filterUnits="userSpaceOnUse" color-interpolation-filters="sRGB">
<feFlood flood-opacity="0" result="BackgroundImageFix"/>
<feColorMatrix in="SourceAlpha" type="matrix" values="0 0 0 0 0 0 0 0 0 0 0 0 0 0 0 0 0 0 127 0" result="hardAlpha"/>
<feOffset dy="16"/>
<feGaussianBlur stdDeviation="12"/>
<feComposite in2="hardAlpha" operator="out"/>
<feColorMatrix type="matrix" values="0 0 0 0 0 0 0 0 0 0 0 0 0 0 0 0 0 0 0.12 0"/>
<feBlend mode="normal" in2="BackgroundImageFix" result="effect1_dropShadow_806_24063"/>
<feColorMatrix in="SourceAlpha" type="matrix" values="0 0 0 0 0 0 0 0 0 0 0 0 0 0 0 0 0 0 127 0" result="hardAlpha"/>
<feOffset dy="8"/>
<feGaussianBlur stdDeviation="2.5"/>
<feComposite in2="hardAlpha" operator="out"/>
<feColorMatrix type="matrix" values="0 0 0 0 0 0 0 0 0 0 0 0 0 0 0 0 0 0 0.08 0"/>
<feBlend mode="normal" in2="effect1_dropShadow_806_24063" result="effect2_dropShadow_806_24063"/>
<feBlend mode="normal" in="SourceGraphic" in2="effect2_dropShadow_806_24063" result="shape"/>
</filter>
<filter id="filter7_dd_806_24063" x="706.066" y="540.641" width="233.141" height="233.141" filterUnits="userSpaceOnUse" color-interpolation-filters="sRGB">
<feFlood flood-opacity="0" result="BackgroundImageFix"/>
<feColorMatrix in="SourceAlpha" type="matrix" values="0 0 0 0 0 0 0 0 0 0 0 0 0 0 0 0 0 0 127 0" result="hardAlpha"/>
<feOffset dy="16"/>
<feGaussianBlur stdDeviation="12"/>
<feComposite in2="hardAlpha" operator="out"/>
<feColorMatrix type="matrix" values="0 0 0 0 0 0 0 0 0 0 0 0 0 0 0 0 0 0 0.12 0"/>
<feBlend mode="normal" in2="BackgroundImageFix" result="effect1_dropShadow_806_24063"/>
<feColorMatrix in="SourceAlpha" type="matrix" values="0 0 0 0 0 0 0 0 0 0 0 0 0 0 0 0 0 0 127 0" result="hardAlpha"/>
<feOffset dy="8"/>
<feGaussianBlur stdDeviation="2.5"/>
<feComposite in2="hardAlpha" operator="out"/>
<feColorMatrix type="matrix" values="0 0 0 0 0 0 0 0 0 0 0 0 0 0 0 0 0 0 0.08 0"/>
<feBlend mode="normal" in2="effect1_dropShadow_806_24063" result="effect2_dropShadow_806_24063"/>
<feBlend mode="normal" in="SourceGraphic" in2="effect2_dropShadow_806_24063" result="shape"/>
</filter>
<clipPath id="clip0_806_24063">
<rect width="150" height="31" fill="white" transform="translate(655 798)"/>
</clipPath>
</defs>
</svg>
