<svg width="186" height="26" viewBox="0 0 186 26" fill="none" xmlns="http://www.w3.org/2000/svg">
<path d="M179.017 7.60352C182.745 7.60352 185.377 9.54607 185.722 12.3972L183.278 13.3059C183.121 11.144 181.617 9.7654 179.017 9.7654C176.636 9.7654 175.257 10.8933 175.257 12.3659C175.257 16.4077 185.941 13.6192 185.941 19.9482C185.941 23.0187 183.372 24.8672 179.268 24.8672C175.038 24.8672 172.5 22.674 172.03 19.7915L174.599 18.7262C174.693 21.2328 176.479 22.7053 179.268 22.7053C181.492 22.7053 183.153 21.9221 183.153 20.1362C183.153 16.1257 172.594 19.0395 172.594 12.5226C172.594 9.6714 175.539 7.60352 179.017 7.60352Z" fill="black"/>
<path d="M162.403 7.60352C166.131 7.60352 168.763 9.54607 169.108 12.3972L166.664 13.3059C166.507 11.144 165.003 9.7654 162.403 9.7654C160.022 9.7654 158.643 10.8933 158.643 12.3659C158.643 16.4077 169.327 13.6192 169.327 19.9482C169.327 23.0187 166.758 24.8672 162.653 24.8672C158.424 24.8672 155.886 22.674 155.416 19.7915L157.985 18.7262C158.079 21.2328 159.865 22.7053 162.653 22.7053C164.878 22.7053 166.538 21.9221 166.538 20.1362C166.538 16.1257 155.98 19.0395 155.98 12.5226C155.98 9.6714 158.925 7.60352 162.403 7.60352Z" fill="black"/>
<path d="M138.044 20.2615C138.044 17.5043 140.174 15.9377 143.339 15.3738C148.603 14.4338 149.323 14.1831 149.323 12.4286C149.323 10.4547 147.412 9.73406 145.313 9.73406C142.806 9.73406 140.801 11.05 140.801 13.7445L138.451 12.8046C138.702 9.70273 141.647 7.60352 145.313 7.60352C149.386 7.60352 151.861 9.51474 151.861 12.9925V21.4207L152.362 24.3972H150.138L149.417 22.1727C148.07 24.0839 145.846 24.8672 143.496 24.8672C140.3 24.8672 138.044 23.0187 138.044 20.2615ZM140.801 20.1362C140.801 21.6401 141.992 22.7993 144.028 22.7993C147.381 22.7993 149.323 20.6375 149.323 17.8176V15.9064C148.791 16.439 147.757 16.5644 144.06 17.3163C142.211 17.661 140.801 18.3503 140.801 20.1362Z" fill="black"/>
<path d="M131.366 1.36914H133.935V24.3979H131.366V1.36914Z" fill="black"/>
<path d="M117.698 0.868164C121.74 0.868164 125.656 2.74806 127.63 6.31986L125.531 7.88644C124.121 4.87861 121.113 3.24937 117.761 3.24937C112.936 3.24937 108.487 6.57051 108.487 12.8682C108.487 19.0718 112.81 22.487 117.761 22.487C121.207 22.487 124.215 20.7951 125.562 17.7872L127.724 19.3225C125.719 22.7063 122.053 24.8682 117.635 24.8682C111.401 24.8682 105.823 20.3877 105.823 12.8368C105.823 5.31725 111.495 0.868164 117.698 0.868164Z" fill="black"/>
<path d="M93.7974 8.10523H96.3666V10.9251C97.6198 8.51254 99.9697 7.82324 101.756 7.82324C102.132 7.82324 102.382 7.85458 102.758 7.91724V10.5804C102.351 10.4864 101.912 10.4238 101.474 10.4238C98.5284 10.4238 96.3666 11.9903 96.3666 16.5021V24.3977H93.7974V8.10523Z" fill="black"/>
<path d="M81.9095 7.86816C86.8285 7.86816 89.7737 11.252 89.7737 16.2337C89.7737 16.5783 89.7424 16.9857 89.711 17.3616H76.5831C76.8964 20.9961 79.215 22.8447 82.1915 22.8447C84.792 22.8447 86.5779 21.7794 87.5492 19.5235L89.5231 21.1841C88.0818 23.9413 85.074 25.1319 82.1601 25.1319C77.2411 25.1319 73.9199 21.6227 73.9199 16.5157C73.9199 11.5966 77.3037 7.86816 81.9095 7.86816ZM76.6144 15.2938H86.9852C86.9852 12.0979 84.9486 10.1554 81.9095 10.1554C79.2776 10.1554 77.0531 11.9413 76.6144 15.2938Z" fill="black"/>
<path d="M64.2101 3.21777H66.7793V8.1055H71.479V10.4554H66.7793V19.8235C66.7793 22.1421 67.7819 22.424 69.5678 22.424C69.9751 22.424 70.6957 22.33 71.1343 22.236V24.5233C70.6644 24.7112 69.6304 24.8052 69.1605 24.8052C65.9646 24.8052 64.2101 23.552 64.2101 20.1368V10.4554H61.3589V8.1055H64.2101V3.21777Z" fill="black"/>
<path d="M52.1388 7.60352C55.8673 7.60352 58.4991 9.54607 58.8438 12.3972L56.3999 13.3059C56.2432 11.144 54.7393 9.7654 52.1388 9.7654C49.7576 9.7654 48.379 10.8933 48.379 12.3659C48.379 16.4077 59.0631 13.6192 59.0631 19.9482C59.0631 23.0187 56.4939 24.8672 52.3895 24.8672C48.1597 24.8672 45.6218 22.674 45.1519 19.7915L47.721 18.7262C47.815 21.2328 49.6009 22.7053 52.3895 22.7053C54.614 22.7053 56.2746 21.9221 56.2746 20.1362C56.2746 16.1257 45.7158 19.0395 45.7158 12.5226C45.7158 9.6714 48.661 7.60352 52.1388 7.60352Z" fill="black"/>
<path d="M27.7798 20.2615C27.7798 17.5043 29.9103 15.9377 33.0748 15.3738C38.3385 14.4338 39.0592 14.1831 39.0592 12.4286C39.0592 10.4547 37.1479 9.73406 35.0487 9.73406C32.5422 9.73406 30.537 11.05 30.537 13.7445L28.1871 12.8046C28.4377 9.70273 31.3829 7.60352 35.0487 7.60352C39.1218 7.60352 41.597 9.51474 41.597 12.9925V21.4207L42.0983 24.3972H39.8738L39.1532 22.1727C37.8059 24.0839 35.5814 24.8672 33.2315 24.8672C30.0357 24.8672 27.7798 23.0187 27.7798 20.2615ZM30.537 20.1362C30.537 21.6401 31.7276 22.7993 33.7641 22.7993C37.1166 22.7993 39.0592 20.6375 39.0592 17.8176V15.9064C38.5265 16.439 37.4926 16.5644 33.7954 17.3163C31.9469 17.661 30.537 18.3503 30.537 20.1362Z" fill="black"/>
<path d="M0 1.36914H3.82245L11.624 21.484L19.4569 1.36914H23.248V24.3979H20.6475V4.78428L13.0966 24.1785H10.1201L2.60052 4.72162V24.3979H0V1.36914Z" fill="black"/>
</svg>
