<svg width="576" height="47" viewBox="0 0 576 47" fill="none" xmlns="http://www.w3.org/2000/svg">
<path d="M0.7 1.9V46H5.68V8.32L20.08 45.58H25.78L40.24 8.44V46H45.22V1.9H37.96L22.96 40.42L8.02 1.9H0.7ZM63.4384 46H68.8984L73.9984 33.34H94.6384L99.6784 46H105.138L87.0184 1.9H81.6784L63.4384 46ZM75.7984 28.96L84.3784 7.78L92.8384 28.96H75.7984ZM137.952 0.939997C129.612 0.939997 121.932 5.5 121.932 13.48C121.932 30.64 149.652 20.86 149.652 34.18C149.652 39.34 144.912 42.52 138.252 42.52C130.152 42.52 125.772 37.48 125.772 30.04L120.972 32.56C121.812 41.32 128.472 46.9 138.252 46.9C147.912 46.9 154.812 42.04 154.812 33.82C154.812 16.36 127.092 25.24 127.092 13.18C127.092 8.2 131.592 5.32 137.952 5.32C145.152 5.32 149.412 9.64 149.412 15.52L154.152 13.48C153.792 6.82 147.612 0.939997 137.952 0.939997ZM171.782 1.9V6.52H186.362V46H191.402V6.52H205.982V1.9H171.782ZM225.36 46H254.46V41.44H230.4V25.84H252.6V21.28H230.4V6.46H254.34V1.9H225.36V46ZM276.149 46H281.189V26.62H291.569L304.709 46H310.709L298.169 28.12L292.949 26.62H295.109C304.289 26.62 309.149 21.4 309.149 14.32C309.149 7.24 304.109 1.9 295.109 1.9H276.149V46ZM281.189 22.12V6.46H294.989C300.869 6.46 304.109 9.58 304.109 14.32C304.109 19 300.809 22.12 294.989 22.12H281.189ZM350.257 0.939997C338.377 0.939997 327.517 9.46 327.517 23.86C327.517 38.32 338.197 46.9 350.137 46.9C358.597 46.9 365.617 42.76 369.457 36.28L365.317 33.34C362.737 39.1 356.977 42.34 350.377 42.34C340.897 42.34 332.617 35.8 332.617 23.92C332.617 11.86 341.137 5.5 350.377 5.5C356.797 5.5 362.557 8.62 365.257 14.38L369.277 11.38C365.497 4.54 357.997 0.939997 350.257 0.939997ZM389.27 46H416.87V41.38H394.31V1.9H389.27V46ZM431.208 46H436.668L441.768 33.34H462.408L467.448 46H472.908L454.788 1.9H449.448L431.208 46ZM443.568 28.96L452.148 7.78L460.608 28.96H443.568ZM505.721 0.939997C497.381 0.939997 489.701 5.5 489.701 13.48C489.701 30.64 517.421 20.86 517.421 34.18C517.421 39.34 512.681 42.52 506.021 42.52C497.921 42.52 493.541 37.48 493.541 30.04L488.741 32.56C489.581 41.32 496.241 46.9 506.021 46.9C515.681 46.9 522.581 42.04 522.581 33.82C522.581 16.36 494.861 25.24 494.861 13.18C494.861 8.2 499.361 5.32 505.721 5.32C512.921 5.32 517.181 9.64 517.181 15.52L521.921 13.48C521.561 6.82 515.381 0.939997 505.721 0.939997ZM558.151 0.939997C549.811 0.939997 542.131 5.5 542.131 13.48C542.131 30.64 569.851 20.86 569.851 34.18C569.851 39.34 565.111 42.52 558.451 42.52C550.351 42.52 545.971 37.48 545.971 30.04L541.171 32.56C542.011 41.32 548.671 46.9 558.451 46.9C568.111 46.9 575.011 42.04 575.011 33.82C575.011 16.36 547.291 25.24 547.291 13.18C547.291 8.2 551.791 5.32 558.151 5.32C565.351 5.32 569.611 9.64 569.611 15.52L574.351 13.48C573.991 6.82 567.811 0.939997 558.151 0.939997Z" fill="#2BFF99"/>
<path d="M0.7 1.9V0.899999C0.147716 0.899999 -0.3 1.34771 -0.3 1.9H0.7ZM0.7 46H-0.3C-0.3 46.5523 0.147716 47 0.7 47V46ZM5.68 46V47C6.23228 47 6.68 46.5523 6.68 46H5.68ZM5.68 8.32L6.61276 7.95951C6.43916 7.51032 5.97006 7.24865 5.49665 7.33695C5.02324 7.42525 4.68 7.83842 4.68 8.32H5.68ZM20.08 45.58L19.1472 45.9405C19.2962 46.3259 19.6668 46.58 20.08 46.58V45.58ZM25.78 45.58V46.58C26.1923 46.58 26.5623 46.327 26.7119 45.9428L25.78 45.58ZM40.24 8.44H41.24C41.24 7.95889 40.8974 7.54598 40.4246 7.45718C39.9517 7.36838 39.4827 7.62886 39.3081 8.07719L40.24 8.44ZM40.24 46H39.24C39.24 46.5523 39.6877 47 40.24 47V46ZM45.22 46V47C45.7723 47 46.22 46.5523 46.22 46H45.22ZM45.22 1.9H46.22C46.22 1.34771 45.7723 0.899999 45.22 0.899999V1.9ZM37.96 1.9V0.899999C37.5478 0.899999 37.1778 1.15298 37.0282 1.53713L37.96 1.9ZM22.96 40.42L22.0277 40.7816C22.1768 41.1662 22.5468 41.4197 22.9593 41.42C23.3718 41.4203 23.7422 41.1672 23.8918 40.7829L22.96 40.42ZM8.02 1.9L8.95233 1.53839C8.80308 1.15358 8.43274 0.899999 8.02 0.899999V1.9ZM-0.3 1.9V46H1.7V1.9H-0.3ZM0.7 47H5.68V45H0.7V47ZM6.68 46V8.32H4.68V46H6.68ZM4.74724 8.68049L19.1472 45.9405L21.0128 45.2195L6.61276 7.95951L4.74724 8.68049ZM20.08 46.58H25.78V44.58H20.08V46.58ZM26.7119 45.9428L41.1719 8.80281L39.3081 8.07719L24.8481 45.2172L26.7119 45.9428ZM39.24 8.44V46H41.24V8.44H39.24ZM40.24 47H45.22V45H40.24V47ZM46.22 46V1.9H44.22V46H46.22ZM45.22 0.899999H37.96V2.9H45.22V0.899999ZM37.0282 1.53713L22.0282 40.0571L23.8918 40.7829L38.8918 2.26287L37.0282 1.53713ZM23.8923 40.0584L8.95233 1.53839L7.08767 2.2616L22.0277 40.7816L23.8923 40.0584ZM8.02 0.899999H0.7V2.9H8.02V0.899999ZM63.4384 46L62.5144 45.6178C62.3867 45.9263 62.4215 46.2782 62.6071 46.5558C62.7927 46.8334 63.1045 47 63.4384 47V46ZM68.8984 46V47C69.3064 47 69.6735 46.7521 69.826 46.3737L68.8984 46ZM73.9984 33.34V32.34C73.5904 32.34 73.2233 32.5879 73.0709 32.9663L73.9984 33.34ZM94.6384 33.34L95.5675 32.9701C95.4161 32.5897 95.0479 32.34 94.6384 32.34V33.34ZM99.6784 46L98.7494 46.3699C98.9008 46.7503 99.2689 47 99.6784 47V46ZM105.138 46V47C105.472 47 105.783 46.8338 105.969 46.5568C106.155 46.2797 106.19 45.9284 106.063 45.6199L105.138 46ZM87.0184 1.9L87.9434 1.51995C87.7893 1.14487 87.4239 0.899999 87.0184 0.899999V1.9ZM81.6784 1.9V0.899999C81.2738 0.899999 80.909 1.14387 80.7544 1.5178L81.6784 1.9ZM75.7984 28.96L74.8716 28.5845C74.7467 28.8928 74.7833 29.243 74.9691 29.5188C75.155 29.7946 75.4658 29.96 75.7984 29.96V28.96ZM84.3784 7.78L85.3071 7.40906C85.1557 7.02999 84.7891 6.781 84.3809 6.78C83.9727 6.77901 83.6049 7.02621 83.4516 7.40454L84.3784 7.78ZM92.8384 28.96V29.96C93.1702 29.96 93.4803 29.7955 93.6664 29.5208C93.8524 29.2462 93.8901 28.8971 93.7671 28.5891L92.8384 28.96ZM63.4384 47H68.8984V45H63.4384V47ZM69.826 46.3737L74.926 33.7137L73.0709 32.9663L67.9709 45.6263L69.826 46.3737ZM73.9984 34.34H94.6384V32.34H73.9984V34.34ZM93.7094 33.7099L98.7494 46.3699L100.608 45.6301L95.5675 32.9701L93.7094 33.7099ZM99.6784 47H105.138V45H99.6784V47ZM106.063 45.6199L87.9434 1.51995L86.0935 2.28005L104.213 46.3801L106.063 45.6199ZM87.0184 0.899999H81.6784V2.9H87.0184V0.899999ZM80.7544 1.5178L62.5144 45.6178L64.3625 46.3822L82.6025 2.2822L80.7544 1.5178ZM76.7253 29.3355L85.3053 8.15546L83.4516 7.40454L74.8716 28.5845L76.7253 29.3355ZM83.4498 8.15094L91.9098 29.3309L93.7671 28.5891L85.3071 7.40906L83.4498 8.15094ZM92.8384 27.96H75.7984V29.96H92.8384V27.96ZM125.772 30.04H126.772C126.772 29.6899 126.589 29.3653 126.289 29.1842C125.99 29.0031 125.617 28.9919 125.307 29.1546L125.772 30.04ZM120.972 32.56L120.507 31.6746C120.147 31.8634 119.938 32.2511 119.976 32.6555L120.972 32.56ZM149.412 15.52H148.412C148.412 15.8564 148.581 16.1703 148.862 16.3553C149.143 16.5402 149.498 16.5715 149.807 16.4385L149.412 15.52ZM154.152 13.48L154.547 14.3985C154.932 14.2328 155.173 13.8446 155.15 13.426L154.152 13.48ZM137.952 -0.0600028C133.614 -0.0600028 129.393 1.12369 126.229 3.40655C123.042 5.70594 120.932 9.12659 120.932 13.48H122.932C122.932 9.8534 124.661 7.00406 127.399 5.02845C130.161 3.03631 133.95 1.94 137.952 1.94V-0.0600028ZM120.932 13.48C120.932 15.7629 121.394 17.6558 122.243 19.2258C123.093 20.7964 124.302 21.9901 125.715 22.9168C128.5 24.7433 132.153 25.5725 135.599 26.2511C139.141 26.9488 142.439 27.487 144.894 28.644C146.097 29.2107 147.024 29.8957 147.652 30.7587C148.271 31.6087 148.652 32.7005 148.652 34.18H150.652C150.652 32.3295 150.166 30.8132 149.269 29.5814C148.382 28.3627 147.143 27.4924 145.747 26.8347C143.005 25.543 139.373 24.9562 135.985 24.2889C132.5 23.6025 129.224 22.8267 126.812 21.2444C125.626 20.4668 124.669 19.5051 124.002 18.274C123.336 17.0423 122.932 15.4871 122.932 13.48H120.932ZM148.652 34.18C148.652 36.4128 147.643 38.2043 145.868 39.4711C144.065 40.758 141.437 41.52 138.252 41.52V43.52C141.727 43.52 144.798 42.692 147.03 41.0989C149.291 39.4857 150.652 37.1072 150.652 34.18H148.652ZM138.252 41.52C134.414 41.52 131.576 40.3316 129.695 38.3766C127.807 36.4152 126.772 33.5667 126.772 30.04H124.772C124.772 33.9533 125.926 37.3448 128.254 39.7634C130.587 42.1884 133.989 43.52 138.252 43.52V41.52ZM125.307 29.1546L120.507 31.6746L121.437 33.4454L126.237 30.9254L125.307 29.1546ZM119.976 32.6555C120.42 37.2769 122.409 41.1119 125.62 43.7837C128.823 46.4494 133.173 47.9 138.252 47.9V45.9C133.551 45.9 129.68 44.5606 126.899 42.2463C124.125 39.9381 122.364 36.6031 121.967 32.4645L119.976 32.6555ZM138.252 47.9C143.237 47.9 147.61 46.6472 150.762 44.2369C153.941 41.8058 155.812 38.2425 155.812 33.82H153.812C153.812 37.6175 152.233 40.5942 149.547 42.6481C146.834 44.7228 142.927 45.9 138.252 45.9V47.9ZM155.812 33.82C155.812 29.1278 153.919 26.1027 151.052 24.1046C148.269 22.1645 144.617 21.2303 141.159 20.4968C137.607 19.7432 134.3 19.2039 131.824 18.1212C130.609 17.5901 129.684 16.9622 129.063 16.1878C128.458 15.4332 128.092 14.478 128.092 13.18H126.092C126.092 14.897 126.592 16.3024 127.503 17.4388C128.398 18.5553 129.639 19.3487 131.023 19.9537C133.744 21.1436 137.367 21.7368 140.744 22.4532C144.216 23.1897 147.495 24.063 149.909 25.7454C152.239 27.3698 153.812 29.7822 153.812 33.82H155.812ZM128.092 13.18C128.092 11.0353 129.042 9.36848 130.71 8.20203C132.412 7.01166 134.907 6.32 137.952 6.32V4.32C134.637 4.32 131.701 5.06833 129.564 6.56296C127.392 8.08152 126.092 10.3447 126.092 13.18H128.092ZM137.952 6.32C141.352 6.32 143.958 7.33724 145.703 8.94959C147.444 10.5572 148.412 12.8312 148.412 15.52H150.412C150.412 12.3288 149.25 9.50279 147.06 7.48041C144.876 5.46275 141.752 4.32 137.952 4.32V6.32ZM149.807 16.4385L154.547 14.3985L153.757 12.5615L149.017 14.6015L149.807 16.4385ZM155.15 13.426C154.755 6.11236 148.01 -0.0600028 137.952 -0.0600028V1.94C147.213 1.94 152.829 7.52763 153.153 13.534L155.15 13.426ZM171.782 1.9V0.899999C171.229 0.899999 170.782 1.34771 170.782 1.9H171.782ZM171.782 6.52H170.782C170.782 7.07228 171.229 7.52 171.782 7.52V6.52ZM186.362 6.52H187.362C187.362 5.96771 186.914 5.52 186.362 5.52V6.52ZM186.362 46H185.362C185.362 46.5523 185.809 47 186.362 47V46ZM191.402 46V47C191.954 47 192.402 46.5523 192.402 46H191.402ZM191.402 6.52V5.52C190.849 5.52 190.402 5.96771 190.402 6.52H191.402ZM205.982 6.52V7.52C206.534 7.52 206.982 7.07228 206.982 6.52H205.982ZM205.982 1.9H206.982C206.982 1.34771 206.534 0.899999 205.982 0.899999V1.9ZM170.782 1.9V6.52H172.782V1.9H170.782ZM171.782 7.52H186.362V5.52H171.782V7.52ZM185.362 6.52V46H187.362V6.52H185.362ZM186.362 47H191.402V45H186.362V47ZM192.402 46V6.52H190.402V46H192.402ZM191.402 7.52H205.982V5.52H191.402V7.52ZM206.982 6.52V1.9H204.982V6.52H206.982ZM205.982 0.899999H171.782V2.9H205.982V0.899999ZM225.36 46H224.36C224.36 46.5523 224.808 47 225.36 47V46ZM254.46 46V47C255.012 47 255.46 46.5523 255.46 46H254.46ZM254.46 41.44H255.46C255.46 40.8877 255.012 40.44 254.46 40.44V41.44ZM230.4 41.44H229.4C229.4 41.9923 229.848 42.44 230.4 42.44V41.44ZM230.4 25.84V24.84C229.848 24.84 229.4 25.2877 229.4 25.84H230.4ZM252.6 25.84V26.84C253.152 26.84 253.6 26.3923 253.6 25.84H252.6ZM252.6 21.28H253.6C253.6 20.7277 253.152 20.28 252.6 20.28V21.28ZM230.4 21.28H229.4C229.4 21.8323 229.848 22.28 230.4 22.28V21.28ZM230.4 6.46V5.46C229.848 5.46 229.4 5.90771 229.4 6.46H230.4ZM254.34 6.46V7.46C254.892 7.46 255.34 7.01228 255.34 6.46H254.34ZM254.34 1.9H255.34C255.34 1.34771 254.892 0.899999 254.34 0.899999V1.9ZM225.36 1.9V0.899999C224.808 0.899999 224.36 1.34771 224.36 1.9H225.36ZM225.36 47H254.46V45H225.36V47ZM255.46 46V41.44H253.46V46H255.46ZM254.46 40.44H230.4V42.44H254.46V40.44ZM231.4 41.44V25.84H229.4V41.44H231.4ZM230.4 26.84H252.6V24.84H230.4V26.84ZM253.6 25.84V21.28H251.6V25.84H253.6ZM252.6 20.28H230.4V22.28H252.6V20.28ZM231.4 21.28V6.46H229.4V21.28H231.4ZM230.4 7.46H254.34V5.46H230.4V7.46ZM255.34 6.46V1.9H253.34V6.46H255.34ZM254.34 0.899999H225.36V2.9H254.34V0.899999ZM224.36 1.9V46H226.36V1.9H224.36ZM276.149 46H275.149C275.149 46.5523 275.597 47 276.149 47V46ZM281.189 46V47C281.742 47 282.189 46.5523 282.189 46H281.189ZM281.189 26.62V25.62C280.637 25.62 280.189 26.0677 280.189 26.62H281.189ZM291.569 26.62L292.397 26.0588C292.211 25.7844 291.901 25.62 291.569 25.62V26.62ZM304.709 46L303.882 46.5612C304.068 46.8356 304.378 47 304.709 47V46ZM310.709 46V47C311.082 47 311.424 46.7924 311.596 46.4614C311.769 46.1305 311.742 45.7312 311.528 45.4258L310.709 46ZM298.169 28.12L298.988 27.5458C298.857 27.3586 298.665 27.222 298.445 27.1589L298.169 28.12ZM292.949 26.62V25.62C292.451 25.62 292.028 25.987 291.959 26.4805C291.889 26.9741 292.194 27.4435 292.673 27.5811L292.949 26.62ZM276.149 1.9V0.899999C275.597 0.899999 275.149 1.34771 275.149 1.9H276.149ZM281.189 22.12H280.189C280.189 22.6723 280.637 23.12 281.189 23.12V22.12ZM281.189 6.46V5.46C280.637 5.46 280.189 5.90771 280.189 6.46H281.189ZM276.149 47H281.189V45H276.149V47ZM282.189 46V26.62H280.189V46H282.189ZM281.189 27.62H291.569V25.62H281.189V27.62ZM290.742 27.1812L303.882 46.5612L305.537 45.4388L292.397 26.0588L290.742 27.1812ZM304.709 47H310.709V45H304.709V47ZM311.528 45.4258L298.988 27.5458L297.351 28.6942L309.891 46.5742L311.528 45.4258ZM298.445 27.1589L293.225 25.6589L292.673 27.5811L297.893 29.0811L298.445 27.1589ZM292.949 27.62H295.109V25.62H292.949V27.62ZM295.109 27.62C299.887 27.62 303.662 26.2592 306.252 23.8584C308.847 21.4522 310.149 18.096 310.149 14.32H308.149C308.149 17.624 307.021 20.4178 304.892 22.3916C302.757 24.3708 299.512 25.62 295.109 25.62V27.62ZM310.149 14.32C310.149 10.5347 308.796 7.15316 306.186 4.72303C303.579 2.29668 299.807 0.899999 295.109 0.899999V2.9C299.411 2.9 302.66 4.17332 304.823 6.18697C306.982 8.19683 308.149 11.0253 308.149 14.32H310.149ZM295.109 0.899999H276.149V2.9H295.109V0.899999ZM275.149 1.9V46H277.149V1.9H275.149ZM282.189 22.12V6.46H280.189V22.12H282.189ZM281.189 7.46H294.989V5.46H281.189V7.46ZM294.989 7.46C297.76 7.46 299.778 8.19414 301.09 9.36011C302.389 10.5138 303.109 12.1889 303.109 14.32H305.109C305.109 11.7111 304.21 9.4562 302.418 7.86489C300.641 6.28586 298.099 5.46 294.989 5.46V7.46ZM303.109 14.32C303.109 16.412 302.38 18.0735 301.071 19.224C299.749 20.387 297.727 21.12 294.989 21.12V23.12C298.071 23.12 300.61 22.293 302.392 20.726C304.188 19.1465 305.109 16.908 305.109 14.32H303.109ZM294.989 21.12H281.189V23.12H294.989V21.12ZM369.457 36.28L370.317 36.7898C370.582 36.3422 370.46 35.7659 370.036 35.4647L369.457 36.28ZM365.317 33.34L365.896 32.5247C365.652 32.3513 365.343 32.2965 365.054 32.3752C364.765 32.4539 364.526 32.658 364.404 32.9312L365.317 33.34ZM365.257 14.38L364.351 14.8044C364.479 15.0766 364.722 15.2769 365.014 15.35C365.305 15.4231 365.614 15.3612 365.855 15.1814L365.257 14.38ZM369.277 11.38L369.875 12.1814C370.275 11.8825 370.394 11.3338 370.152 10.8963L369.277 11.38ZM350.257 -0.0600028C337.888 -0.0600028 326.517 8.84617 326.517 23.86H328.517C328.517 10.0738 338.865 1.94 350.257 1.94V-0.0600028ZM326.517 23.86C326.517 38.9204 337.694 47.9 350.137 47.9V45.9C338.7 45.9 328.517 37.7196 328.517 23.86H326.517ZM350.137 47.9C358.939 47.9 366.291 43.5831 370.317 36.7898L368.596 35.7702C364.942 41.9369 358.255 45.9 350.137 45.9V47.9ZM370.036 35.4647L365.896 32.5247L364.738 34.1553L368.878 37.0953L370.036 35.4647ZM364.404 32.9312C362.011 38.2742 356.649 41.34 350.377 41.34V43.34C357.304 43.34 363.463 39.9258 366.229 33.7488L364.404 32.9312ZM350.377 41.34C345.865 41.34 341.682 39.7851 338.634 36.8631C335.595 33.95 333.617 29.6151 333.617 23.92H331.617C331.617 30.1049 333.779 34.98 337.25 38.3069C340.711 41.6249 345.408 43.34 350.377 43.34V41.34ZM333.617 23.92C333.617 18.1402 335.651 13.807 338.718 10.9151C341.797 8.01185 345.982 6.5 350.377 6.5V4.5C345.531 4.5 340.837 6.16815 337.346 9.45993C333.843 12.763 331.617 17.6398 331.617 23.92H333.617ZM350.377 6.5C356.473 6.5 361.842 9.45054 364.351 14.8044L366.162 13.9556C363.272 7.78946 357.12 4.5 350.377 4.5V6.5ZM365.855 15.1814L369.875 12.1814L368.679 10.5786L364.659 13.5786L365.855 15.1814ZM370.152 10.8963C366.163 3.67779 358.287 -0.0600028 350.257 -0.0600028V1.94C357.707 1.94 364.831 5.4022 368.401 11.8637L370.152 10.8963ZM389.27 46H388.27C388.27 46.5523 388.718 47 389.27 47V46ZM416.87 46V47C417.423 47 417.87 46.5523 417.87 46H416.87ZM416.87 41.38H417.87C417.87 40.8277 417.423 40.38 416.87 40.38V41.38ZM394.31 41.38H393.31C393.31 41.9323 393.758 42.38 394.31 42.38V41.38ZM394.31 1.9H395.31C395.31 1.34771 394.863 0.899999 394.31 0.899999V1.9ZM389.27 1.9V0.899999C388.718 0.899999 388.27 1.34771 388.27 1.9H389.27ZM389.27 47H416.87V45H389.27V47ZM417.87 46V41.38H415.87V46H417.87ZM416.87 40.38H394.31V42.38H416.87V40.38ZM395.31 41.38V1.9H393.31V41.38H395.31ZM394.31 0.899999H389.27V2.9H394.31V0.899999ZM388.27 1.9V46H390.27V1.9H388.27ZM431.208 46L430.284 45.6178C430.156 45.9263 430.191 46.2782 430.377 46.5558C430.562 46.8334 430.874 47 431.208 47V46ZM436.668 46V47C437.076 47 437.443 46.7521 437.596 46.3737L436.668 46ZM441.768 33.34V32.34C441.36 32.34 440.993 32.5879 440.84 32.9663L441.768 33.34ZM462.408 33.34L463.337 32.9701C463.186 32.5897 462.817 32.34 462.408 32.34V33.34ZM467.448 46L466.519 46.3699C466.67 46.7503 467.038 47 467.448 47V46ZM472.908 46V47C473.241 47 473.553 46.8338 473.739 46.5568C473.924 46.2797 473.96 45.9284 473.833 45.6199L472.908 46ZM454.788 1.9L455.713 1.51995C455.559 1.14487 455.193 0.899999 454.788 0.899999V1.9ZM449.448 1.9V0.899999C449.043 0.899999 448.679 1.14387 448.524 1.5178L449.448 1.9ZM443.568 28.96L442.641 28.5845C442.516 28.8928 442.553 29.243 442.739 29.5188C442.925 29.7946 443.235 29.96 443.568 29.96V28.96ZM452.148 7.78L453.077 7.40906C452.925 7.02999 452.559 6.781 452.15 6.78C451.742 6.77901 451.374 7.02621 451.221 7.40454L452.148 7.78ZM460.608 28.96V29.96C460.94 29.96 461.25 29.7955 461.436 29.5208C461.622 29.2462 461.66 28.8971 461.537 28.5891L460.608 28.96ZM431.208 47H436.668V45H431.208V47ZM437.596 46.3737L442.696 33.7137L440.84 32.9663L435.74 45.6263L437.596 46.3737ZM441.768 34.34H462.408V32.34H441.768V34.34ZM461.479 33.7099L466.519 46.3699L468.377 45.6301L463.337 32.9701L461.479 33.7099ZM467.448 47H472.908V45H467.448V47ZM473.833 45.6199L455.713 1.51995L453.863 2.28005L471.983 46.3801L473.833 45.6199ZM454.788 0.899999H449.448V2.9H454.788V0.899999ZM448.524 1.5178L430.284 45.6178L432.132 46.3822L450.372 2.2822L448.524 1.5178ZM444.495 29.3355L453.075 8.15546L451.221 7.40454L442.641 28.5845L444.495 29.3355ZM451.219 8.15094L459.679 29.3309L461.537 28.5891L453.077 7.40906L451.219 8.15094ZM460.608 27.96H443.568V29.96H460.608V27.96ZM493.541 30.04H494.541C494.541 29.6899 494.358 29.3653 494.059 29.1842C493.759 29.0031 493.387 28.9919 493.077 29.1546L493.541 30.04ZM488.741 32.56L488.277 31.6746C487.917 31.8634 487.707 32.2511 487.746 32.6555L488.741 32.56ZM517.181 15.52H516.181C516.181 15.8564 516.351 16.1703 516.632 16.3553C516.913 16.5402 517.268 16.5715 517.577 16.4385L517.181 15.52ZM521.921 13.48L522.317 14.3985C522.702 14.2328 522.943 13.8446 522.92 13.426L521.921 13.48ZM505.721 -0.0600028C501.383 -0.0600028 497.163 1.12369 493.999 3.40655C490.812 5.70594 488.701 9.12659 488.701 13.48H490.701C490.701 9.8534 492.431 7.00406 495.169 5.02845C497.93 3.03631 501.72 1.94 505.721 1.94V-0.0600028ZM488.701 13.48C488.701 15.7629 489.163 17.6558 490.013 19.2258C490.863 20.7964 492.071 21.9901 493.484 22.9168C496.269 24.7433 499.923 25.5725 503.368 26.2511C506.91 26.9488 510.208 27.487 512.664 28.644C513.867 29.2107 514.793 29.8957 515.422 30.7587C516.041 31.6087 516.421 32.7005 516.421 34.18H518.421C518.421 32.3295 517.936 30.8132 517.039 29.5814C516.151 28.3627 514.912 27.4924 513.516 26.8347C510.775 25.543 507.143 24.9562 503.755 24.2889C500.27 23.6025 496.994 22.8267 494.581 21.2444C493.395 20.4668 492.438 19.5051 491.772 18.274C491.106 17.0423 490.701 15.4871 490.701 13.48H488.701ZM516.421 34.18C516.421 36.4128 515.413 38.2043 513.638 39.4711C511.835 40.758 509.206 41.52 506.021 41.52V43.52C509.497 43.52 512.568 42.692 514.8 41.0989C517.06 39.4857 518.421 37.1072 518.421 34.18H516.421ZM506.021 41.52C502.184 41.52 499.346 40.3316 497.464 38.3766C495.577 36.4152 494.541 33.5667 494.541 30.04H492.541C492.541 33.9533 493.696 37.3448 496.023 39.7634C498.357 42.1884 501.759 43.52 506.021 43.52V41.52ZM493.077 29.1546L488.277 31.6746L489.206 33.4454L494.006 30.9254L493.077 29.1546ZM487.746 32.6555C488.189 37.2769 490.178 41.1119 493.389 43.7837C496.593 46.4494 500.942 47.9 506.021 47.9V45.9C501.321 45.9 497.45 44.5606 494.669 42.2463C491.895 39.9381 490.134 36.6031 489.737 32.4645L487.746 32.6555ZM506.021 47.9C511.007 47.9 515.379 46.6472 518.531 44.2369C521.71 41.8058 523.581 38.2425 523.581 33.82H521.581C521.581 37.6175 520.002 40.5942 517.316 42.6481C514.603 44.7228 510.696 45.9 506.021 45.9V47.9ZM523.581 33.82C523.581 29.1278 521.689 26.1027 518.822 24.1046C516.038 22.1645 512.387 21.2303 508.929 20.4968C505.376 19.7432 502.069 19.2039 499.593 18.1212C498.378 17.5901 497.454 16.9622 496.833 16.1878C496.228 15.4332 495.861 14.478 495.861 13.18H493.861C493.861 14.897 494.361 16.3024 495.272 17.4388C496.167 18.5553 497.408 19.3487 498.792 19.9537C501.513 21.1436 505.137 21.7368 508.514 22.4532C511.986 23.1897 515.264 24.063 517.678 25.7454C520.009 27.3698 521.581 29.7822 521.581 33.82H523.581ZM495.861 13.18C495.861 11.0353 496.811 9.36848 498.479 8.20203C500.182 7.01166 502.676 6.32 505.721 6.32V4.32C502.407 4.32 499.471 5.06833 497.333 6.56296C495.162 8.08152 493.861 10.3447 493.861 13.18H495.861ZM505.721 6.32C509.121 6.32 511.727 7.33724 513.473 8.94959C515.213 10.5572 516.181 12.8312 516.181 15.52H518.181C518.181 12.3288 517.019 9.50279 514.83 7.48041C512.646 5.46275 509.521 4.32 505.721 4.32V6.32ZM517.577 16.4385L522.317 14.3985L521.526 12.5615L516.786 14.6015L517.577 16.4385ZM522.92 13.426C522.525 6.11236 515.78 -0.0600028 505.721 -0.0600028V1.94C514.983 1.94 520.598 7.52763 520.923 13.534L522.92 13.426ZM545.971 30.04H546.971C546.971 29.6899 546.788 29.3653 546.488 29.1842C546.189 29.0031 545.816 28.9919 545.506 29.1546L545.971 30.04ZM541.171 32.56L540.706 31.6746C540.347 31.8634 540.137 32.2511 540.176 32.6555L541.171 32.56ZM569.611 15.52H568.611C568.611 15.8564 568.78 16.1703 569.061 16.3553C569.342 16.5402 569.697 16.5715 570.006 16.4385L569.611 15.52ZM574.351 13.48L574.746 14.3985C575.131 14.2328 575.372 13.8446 575.35 13.426L574.351 13.48ZM558.151 -0.0600028C553.813 -0.0600028 549.592 1.12369 546.428 3.40655C543.242 5.70594 541.131 9.12659 541.131 13.48H543.131C543.131 9.8534 544.861 7.00406 547.599 5.02845C550.36 3.03631 554.149 1.94 558.151 1.94V-0.0600028ZM541.131 13.48C541.131 15.7629 541.593 17.6558 542.443 19.2258C543.293 20.7964 544.501 21.9901 545.914 22.9168C548.699 24.7433 552.352 25.5725 555.798 26.2511C559.34 26.9488 562.638 27.487 565.094 28.644C566.296 29.2107 567.223 29.8957 567.852 30.7587C568.471 31.6087 568.851 32.7005 568.851 34.18H570.851C570.851 32.3295 570.365 30.8132 569.468 29.5814C568.581 28.3627 567.342 27.4924 565.946 26.8347C563.204 25.543 559.572 24.9562 556.184 24.2889C552.7 23.6025 549.423 22.8267 547.011 21.2444C545.825 20.4668 544.868 19.5051 544.202 18.274C543.535 17.0423 543.131 15.4871 543.131 13.48H541.131ZM568.851 34.18C568.851 36.4128 567.842 38.2043 566.068 39.4711C564.265 40.758 561.636 41.52 558.451 41.52V43.52C561.926 43.52 564.998 42.692 567.23 41.0989C569.49 39.4857 570.851 37.1072 570.851 34.18H568.851ZM558.451 41.52C554.614 41.52 551.776 40.3316 549.894 38.3766C548.007 36.4152 546.971 33.5667 546.971 30.04H544.971C544.971 33.9533 546.126 37.3448 548.453 39.7634C550.787 42.1884 554.189 43.52 558.451 43.52V41.52ZM545.506 29.1546L540.706 31.6746L541.636 33.4454L546.436 30.9254L545.506 29.1546ZM540.176 32.6555C540.619 37.2769 542.608 41.1119 545.819 43.7837C549.023 46.4494 553.372 47.9 558.451 47.9V45.9C553.75 45.9 549.88 44.5606 547.098 42.2463C544.324 39.9381 542.563 36.6031 542.167 32.4645L540.176 32.6555ZM558.451 47.9C563.436 47.9 567.809 46.6472 570.961 44.2369C574.14 41.8058 576.011 38.2425 576.011 33.82H574.011C574.011 37.6175 572.432 40.5942 569.746 42.6481C567.033 44.7228 563.126 45.9 558.451 45.9V47.9ZM576.011 33.82C576.011 29.1278 574.119 26.1027 571.252 24.1046C568.468 22.1645 564.817 21.2303 561.359 20.4968C557.806 19.7432 554.499 19.2039 552.023 18.1212C550.808 17.5901 549.883 16.9622 549.262 16.1878C548.658 15.4332 548.291 14.478 548.291 13.18H546.291C546.291 14.897 546.791 16.3024 547.702 17.4388C548.597 18.5553 549.838 19.3487 551.222 19.9537C553.943 21.1436 557.566 21.7368 560.944 22.4532C564.416 23.1897 567.694 24.063 570.108 25.7454C572.439 27.3698 574.011 29.7822 574.011 33.82H576.011ZM548.291 13.18C548.291 11.0353 549.241 9.36848 550.909 8.20203C552.612 7.01166 555.106 6.32 558.151 6.32V4.32C554.836 4.32 551.901 5.06833 549.763 6.56296C547.591 8.08152 546.291 10.3447 546.291 13.18H548.291ZM558.151 6.32C561.551 6.32 564.157 7.33724 565.903 8.94959C567.643 10.5572 568.611 12.8312 568.611 15.52H570.611C570.611 12.3288 569.449 9.50279 567.26 7.48041C565.075 5.46275 561.951 4.32 558.151 4.32V6.32ZM570.006 16.4385L574.746 14.3985L573.956 12.5615L569.216 14.6015L570.006 16.4385ZM575.35 13.426C574.954 6.11236 568.21 -0.0600028 558.151 -0.0600028V1.94C567.413 1.94 573.028 7.52763 573.353 13.534L575.35 13.426Z" fill="#16181A"/>
</svg>
