<svg width="24" height="24" viewBox="0 0 24 24" fill="none" xmlns="http://www.w3.org/2000/svg">
<g clip-path="url(#clip0_8838_4536)">
<path d="M23.5521 6.13623H9.38672V18.1395H23.5521V6.13623Z" fill="white"/>
<path d="M9.14444 5.63379C8.60584 5.63379 8.17188 6.0657 8.17188 6.60328L8.17598 17.7345C8.1493 18.2587 8.44477 18.704 9.03775 18.704H23.0323C23.5565 18.704 24.0008 18.4075 23.9936 17.9304L24.0008 6.60328C24.0008 6.0657 23.5668 5.63379 23.0282 5.63379H9.14444ZM8.94952 6.43708H23.2149L23.219 17.8914H8.95362L8.94952 6.43708Z" fill="#0071C5"/>
<path d="M23.2587 6.93311L16.4199 12.4146V13.1553C16.4719 13.1667 16.5259 13.1659 16.5776 13.1529C16.6292 13.1399 16.6771 13.1151 16.7174 13.0804L23.2587 7.84002V6.93311Z" fill="#0071C5"/>
<path d="M9.67686 6.93311L16.5156 12.4146V13.1553C16.4636 13.1667 16.4096 13.1659 16.358 13.1529C16.3063 13.1399 16.2584 13.1151 16.2181 13.0804L9.67686 7.84002V6.93311Z" fill="#0071C5"/>
<path d="M13.7042 23.3704V0.629883L0 2.90332V21.0959L13.7042 23.3704Z" fill="url(#paint0_linear_8838_4536)"/>
<path d="M6.50142 7.94531C5.2997 7.94531 3.3457 8.95285 3.3457 12.1229C3.3457 15.2258 5.27755 16.2158 6.47017 16.1908C8.6792 16.1445 9.53524 13.908 9.53524 12.0288C9.53524 9.99436 8.69295 7.94531 6.50142 7.94531ZM6.37654 9.53089C7.33859 9.53089 7.92359 10.5077 7.92359 11.9992C7.92359 13.3185 7.43321 14.5718 6.39126 14.5718C5.07976 14.5718 4.76579 12.9827 4.78146 12.0228C4.78146 11.0473 5.20823 9.53089 6.37654 9.53089Z" fill="white"/>
</g>
<defs>
<linearGradient id="paint0_linear_8838_4536" x1="13.704" y1="12.0002" x2="0.000382262" y2="12.0002" gradientUnits="userSpaceOnUse">
<stop stop-color="#006BC2"/>
<stop offset="1" stop-color="#0077C9"/>
</linearGradient>
<clipPath id="clip0_8838_4536">
<rect width="24" height="22.7405" fill="white" transform="translate(0 0.629883)"/>
</clipPath>
</defs>
</svg>
