<svg width="64" height="32" viewBox="0 0 64 32" fill="none" xmlns="http://www.w3.org/2000/svg">
<rect width="64" height="32" rx="4" fill="#17DF87"/>
<path d="M18 11.8398V20.1599H19.1999V13.4359L22.9694 20.1599H24.5655V11.8398H23.3656V18.5751L19.5961 11.8398H18Z" fill="#000004"/>
<path d="M26.1033 20.1599H31.7179V19.0618H27.3259V16.4923H31.3783V15.4056H27.3259V12.9379H31.6953V11.8398H26.1033V20.1599Z" fill="#000004"/>
<path d="M32.5053 11.8398L34.7466 20.1599H36.2068L38.0293 13.7755L39.8405 20.1599H41.2894L43.5307 11.8398H42.2289L40.5197 18.4732L38.6632 11.953H37.3841L35.539 18.4732L33.7957 11.8398H32.5053Z" fill="#000004"/>
<path d="M44.6643 11.8398V14.8396L44.8907 17.5337H45.6264L45.8528 14.8396V11.8398H44.6643ZM44.5284 20.1599H46V18.6883H44.5284V20.1599Z" fill="#000004"/>
</svg>
