<svg width="251" height="77" viewBox="0 0 251 77" fill="none" xmlns="http://www.w3.org/2000/svg">
<path d="M71.0089 56.1214C61.3153 56.1214 53.4741 48.2802 53.4741 38.5866C53.4741 28.8929 61.3153 21.0518 71.0089 21.0518C80.7026 21.0518 88.5437 28.8929 88.5437 38.5866C88.5437 48.2802 80.7026 56.1214 71.0089 56.1214ZM71.0089 47.2905C75.805 47.2905 79.7129 43.408 79.7129 38.5866C79.7129 33.7651 75.8304 29.8826 71.0089 29.8826C66.2129 29.8826 62.305 33.7651 62.305 38.5866C62.305 43.408 66.1875 47.2905 71.0089 47.2905Z" fill="#FFFEFC"/>
<path d="M160.611 23.4878C161.094 21.5593 162.819 20.1636 164.875 20.1636C167.311 20.1636 169.29 22.1429 169.29 24.579V51.7059C169.29 54.142 167.311 56.1214 164.875 56.1214C162.895 56.1214 161.22 54.8272 160.662 53.0255C157.922 54.8018 154.673 55.8168 151.172 55.8168C141.478 55.8168 133.637 47.9757 133.637 38.282C133.637 28.5884 141.478 20.7472 151.172 20.7472C154.673 20.7472 157.871 21.7623 160.611 23.4878ZM151.197 46.986C155.993 46.986 159.901 43.1035 159.901 38.282C159.901 33.4606 156.018 29.5781 151.197 29.5781C146.375 29.5781 142.493 33.4606 142.493 38.282C142.493 43.1035 146.375 46.986 151.197 46.986Z" fill="#FFFEFC"/>
<path d="M102.17 23.4879C104.784 21.9145 107.829 21.0518 111.103 21.0518C120.796 21.0518 128.637 28.8929 128.637 38.5866C128.637 48.2802 120.796 56.1214 111.103 56.1214C108.058 56.1214 105.215 55.3601 102.703 53.9644V71.8799C102.703 74.4175 100.673 76.4476 98.1356 76.4476C95.598 76.4476 93.5679 74.4175 93.5679 71.8799V25.6194C93.5679 23.0818 95.598 21.0518 98.1356 21.0518C99.8611 21.0518 101.384 22.0414 102.17 23.4879ZM111.103 47.2905C115.899 47.2905 119.807 43.408 119.807 38.5866C119.807 33.7651 115.924 29.8826 111.103 29.8826C106.307 29.8826 102.399 33.7651 102.399 38.5866C102.399 43.408 106.281 47.2905 111.103 47.2905Z" fill="#FFFEFC"/>
<path fill-rule="evenodd" clip-rule="evenodd" d="M43.8816 0.700195C46.4192 0.700195 48.4493 2.73027 48.4493 5.26787V51.5537C48.4493 54.0913 46.4192 56.1214 43.8816 56.1214C41.344 56.1214 39.314 54.0913 39.314 51.5537V5.26787C39.314 2.73027 41.344 0.700195 43.8816 0.700195Z" fill="#FFFEFC"/>
<path d="M209.993 58.8112V58.7858V24.579C209.993 22.1429 208.014 20.1636 205.578 20.1636C203.522 20.1636 201.771 21.5846 201.315 23.4878C198.599 21.7369 195.351 20.7472 191.875 20.7472C182.181 20.7472 174.34 28.5884 174.34 38.282C174.34 47.9757 182.181 55.8168 191.875 55.8168C195.3 55.8168 198.472 54.8526 201.162 53.1524V58.8112C200.756 63.2266 197.026 66.7031 192.484 66.7031C187.916 66.7031 184.16 63.2013 183.805 58.7351H183.754C183.526 56.502 181.623 54.7511 179.339 54.7511C176.903 54.7511 174.923 56.7304 174.923 59.1919C174.923 59.6233 174.974 60.0546 175.101 60.4607C176.319 68.987 183.627 75.5594 192.458 75.5594C201.721 75.5594 209.283 68.784 209.917 59.6994C209.942 59.4964 209.968 59.268 209.968 59.0396L209.993 58.8112ZM191.875 46.986C187.079 46.986 183.171 43.1035 183.171 38.282C183.171 33.4606 187.053 29.5781 191.875 29.5781C196.696 29.5781 200.579 33.4606 200.579 38.282C200.579 43.1035 196.671 46.986 191.875 46.986Z" fill="#FFFEFC"/>
<path d="M250.392 36.9117C250.392 36.8863 250.392 36.8356 250.392 36.7848C250.392 36.7087 250.392 36.6072 250.366 36.531C249.706 27.3449 242.043 20.0874 232.705 20.0874C224.305 20.0874 217.251 25.9493 215.449 33.8158C213.622 41.1241 216.768 49.0922 223.645 53.0254C225.955 54.345 228.949 55.2585 231.639 55.4108C231.943 55.4615 232.248 55.4869 232.578 55.4869C235.115 55.4869 237.145 53.5583 237.145 51.2237C237.145 48.8892 235.115 46.9606 232.578 46.9606C232.349 46.9606 232.096 46.986 231.893 47.0113C230.573 46.986 229.228 46.6307 228.035 45.9202C226.817 45.2096 225.853 44.2453 225.142 43.1288H245.545C248.235 43.1288 250.417 40.9465 250.417 38.2566V36.9624C250.392 36.9371 250.392 36.9371 250.392 36.9117ZM232.831 28.6645C236.156 28.6645 239.049 30.6184 240.419 33.4352H225.244C226.614 30.5931 229.507 28.6645 232.831 28.6645Z" fill="#FFFEFC"/>
<path d="M33.5284 29.7049L32.8432 28.563C32.8432 28.5376 32.8178 28.5376 32.8178 28.5376C32.7925 28.5122 32.7925 28.4869 32.7671 28.4615C32.7163 28.4107 32.691 28.3092 32.6148 28.2585C27.3366 20.7218 17.0086 18.438 8.98978 23.2594C1.80837 27.5733 -1.21137 36.2012 1.27547 43.8901C3.48319 51.1223 10.2586 56.299 18.2013 56.1467C20.8657 56.096 23.9109 55.3093 26.2708 54.0913C26.5753 53.9644 26.8545 53.8629 27.1336 53.6852C29.2906 52.3911 30.0519 49.7012 28.8338 47.6711C27.6158 45.641 24.8751 45.0574 22.6928 46.377C22.4898 46.5038 22.3122 46.6307 22.1345 46.783C20.9926 47.4427 19.6477 47.8234 18.2774 47.8234C16.8563 47.8488 15.5368 47.5189 14.3949 46.9098L31.8789 36.4042C34.1881 35.0085 34.924 32.0141 33.5284 29.7049ZM13.5575 30.4916C16.4249 28.7914 19.9015 28.969 22.5152 30.6692L9.52267 38.485C9.21816 35.3638 10.69 32.2171 13.5575 30.4916Z" fill="#FFFEFC"/>
</svg>
