<svg width="80" height="92" viewBox="0 0 80 92" fill="none" xmlns="http://www.w3.org/2000/svg">
<path d="M73.8771 15.4556C74.7151 15.6932 75.3558 16.4675 75.4126 17.4026C75.4157 17.4521 75.4173 17.5034 75.4173 17.553V64.7806C75.4173 66.3908 74.6235 67.878 73.3374 68.6831L42.0814 88.2295C40.7936 89.0346 39.2076 89.0346 37.9199 88.2295L6.66393 68.6831C5.37619 67.878 4.58398 66.3908 4.58398 64.7806V17.553C4.58398 17.5017 4.58398 17.4521 4.58872 17.4026C4.64553 16.4675 5.28782 15.6932 6.12422 15.4556L39.4523 3.07307C39.7979 2.97564 40.1608 2.97564 40.5049 3.07307L73.8771 15.4556Z" fill="white" stroke="#F5C61A" stroke-width="6" stroke-miterlimit="10"/>
<path d="M29.75 70.3237H49.4023" stroke="black" stroke-width="4" stroke-miterlimit="10"/>
<path d="M78.4268 27.249H1.57319C0.704342 27.249 0 28.0345 0 29.0033V40.6133C0 41.5822 0.704342 42.3676 1.57319 42.3676H78.4268C79.2957 42.3676 80 41.5822 80 40.6133V29.0033C80 28.0345 79.2957 27.249 78.4268 27.249Z" fill="#F5C61A"/>
<path d="M36.1113 14.9023H56.4669C56.8067 14.9023 57.082 15.2304 57.082 15.6356V19.8635C57.082 20.2688 56.8067 20.5968 56.4669 20.5968H36.1113" stroke="#F5C61A" stroke-width="2.96" stroke-miterlimit="10"/>
<path d="M38.436 18.1791L39.2288 19.5721H38.2818L37.5093 18.1441L37.3536 19.5721H36.5371L36.9336 15.9792H37.9829C38.3699 15.9792 38.6562 16.0705 38.8418 16.2529C39.0275 16.4354 39.1219 16.7161 39.1219 17.0932C39.1219 17.6318 38.8938 17.9932 38.436 18.1774V18.1791ZM37.6698 16.7003L37.5676 17.623H37.7139C38.093 17.623 38.2834 17.4546 38.2834 17.1178C38.2834 16.9617 38.2487 16.8529 38.1811 16.7915C38.1134 16.7301 37.9923 16.6985 37.8208 16.6985H37.6714L37.6698 16.7003Z" fill="black"/>
<path d="M41.7358 15.981L41.6508 16.7722H40.6991L40.6298 17.388H41.5501L41.462 18.1791H40.5433L40.4772 18.7809H41.4636L41.374 19.5721H39.5742L39.9707 15.9792H41.7358V15.981Z" fill="black"/>
<path d="M45.228 15.9834L43.5007 19.5762H42.81L41.9668 15.9834H42.8383L43.2049 17.6219C43.2285 17.7289 43.2489 17.8359 43.2647 17.943C43.2804 18.05 43.293 18.1622 43.304 18.278C43.3308 18.1903 43.3591 18.1043 43.389 18.0237C43.4189 17.943 43.4519 17.864 43.4865 17.7868L44.3124 15.9834H45.2265H45.228Z" fill="black"/>
<path d="M46.3809 15.9834L45.9845 19.5762H45.168L45.5644 15.9834H46.3809Z" fill="black"/>
<path d="M48.8237 15.981L48.7387 16.7722H47.7869L47.7177 17.388H48.638L48.5499 18.1791H47.6312L47.5651 18.7809H48.5515L48.4618 19.5721H46.6621L47.0586 15.9792H48.8237V15.981Z" fill="black"/>
<path d="M53.9162 15.9834L52.5287 19.5762H51.6131L51.3944 18.1429C51.3708 17.9921 51.3535 17.8394 51.3409 17.6851C51.3283 17.5307 51.3236 17.3728 51.3236 17.2132C51.2811 17.3728 51.2387 17.5237 51.1946 17.664C51.1506 17.8044 51.1049 17.9412 51.0562 18.0728L50.504 19.578H49.6324L49.0566 15.9852H49.8794L50.0839 17.3325C50.1359 17.6798 50.1736 18.0728 50.1972 18.5113C50.257 18.2763 50.3042 18.1096 50.3372 18.0131L50.4599 17.671L51.0719 15.9852H51.8443L52.0819 17.5272C52.1149 17.7395 52.1448 18.0675 52.1716 18.5113C52.2298 18.278 52.2817 18.1008 52.3273 17.9763L52.4248 17.7079L53.0368 15.9834H53.9194H53.9162Z" fill="black"/>
<path d="M56.1676 16.239L55.8105 16.9302C55.6044 16.7512 55.4156 16.6618 55.2457 16.6618C55.1356 16.6618 55.0491 16.6898 54.9846 16.746C54.9201 16.8021 54.887 16.8776 54.887 16.9723C54.887 17.06 54.9138 17.1319 54.9688 17.1881C54.9972 17.2179 55.0381 17.2495 55.0915 17.2846C55.145 17.3196 55.2127 17.3582 55.2945 17.4021C55.5619 17.5424 55.7476 17.6863 55.8514 17.8354C55.9568 17.981 56.0103 18.174 56.0103 18.4126C56.0103 18.7722 55.8954 19.0669 55.6642 19.2967C55.4377 19.5266 55.1435 19.6406 54.7816 19.6406C54.5866 19.6406 54.4104 19.6125 54.2515 19.5564C54.1728 19.5265 54.0863 19.4862 53.9935 19.4353C53.9006 19.3845 53.8 19.3213 53.6914 19.2459L54.058 18.5564C54.316 18.7511 54.5441 18.8494 54.7407 18.8494C54.8713 18.8494 54.9751 18.8161 55.0522 18.7494C55.1309 18.6827 55.1718 18.5968 55.1718 18.4898C55.1718 18.4073 55.1466 18.3406 55.0947 18.288C55.0475 18.2354 54.9484 18.1652 54.7958 18.0793C54.5079 17.9179 54.3112 17.7652 54.2058 17.6196C54.102 17.474 54.0501 17.281 54.0501 17.039C54.0501 16.7144 54.1618 16.4442 54.3868 16.2302C54.6086 16.0162 54.8918 15.9092 55.2363 15.9092C55.5572 15.9092 55.8687 16.0197 56.1708 16.239H56.1676Z" fill="black"/>
<path d="M35.1069 15.2131H23.8066V20.0269H35.1069V15.2131Z" fill="black"/>
<path d="M35.6218 20.1991V15.3169C35.6218 15.3169 35.6218 14.6379 35.013 14.6379H23.8842C23.8842 14.6379 23.2754 14.6379 23.2754 15.3169V20.1991C23.2754 20.1991 23.2754 20.878 23.8842 20.878H33.0371V23.0744L34.5363 20.878H35.0146C35.0146 20.878 35.6234 20.878 35.6234 20.1991" fill="black"/>
<path d="M26.9479 17.7072C26.9479 18.0107 26.8504 18.2686 26.6585 18.4826C26.465 18.6966 26.2337 18.8036 25.9631 18.8036C25.6925 18.8036 25.4597 18.6966 25.2678 18.4826C25.0758 18.2686 24.9799 18.0107 24.9799 17.7072C24.9799 17.4037 25.0758 17.1476 25.2678 16.9318C25.4597 16.716 25.6909 16.6072 25.9631 16.6072C26.2353 16.6072 26.465 16.716 26.6585 16.9318C26.852 17.1476 26.9479 17.4054 26.9479 17.7072ZM27.121 19.0001C27.4419 18.6422 27.6039 18.2124 27.6039 17.7072C27.6039 17.2019 27.4435 16.7739 27.121 16.416C26.8 16.0581 26.413 15.8774 25.9631 15.8774C25.5132 15.8774 25.1246 16.0564 24.8037 16.416C24.4827 16.7739 24.3223 17.2054 24.3223 17.7072C24.3223 18.2089 24.4827 18.6422 24.8037 19.0001C25.1246 19.358 25.5116 19.5369 25.9631 19.5369C26.4146 19.5369 26.8 19.358 27.121 19.0001ZM30.6905 19.5053H31.3702V15.909L29.7167 18.1826L28.0617 15.909V19.5053H28.7414V17.9914L29.7152 19.4439L30.689 17.9914V19.5053H30.6905ZM33.1211 17.6616L34.5559 15.9073H31.7635V16.6283H33.0865L32.1788 17.6616L33.6403 19.5036H34.5811L33.1211 17.6616Z" fill="white"/>
<path d="M28.1699 50.0987C28.1699 49.4408 28.3776 48.8672 28.7929 48.3777C29.2476 47.8409 29.8375 47.5725 30.5627 47.5725C31.288 47.5725 31.8779 47.8409 32.3342 48.3777C32.7479 48.8689 32.9556 49.4566 32.9556 50.1408C32.9556 50.825 32.7479 51.4127 32.3342 51.9021C31.8764 52.4389 31.2927 52.7074 30.5832 52.7074C29.8737 52.7074 29.2932 52.46 28.8448 51.9653C28.3965 51.4706 28.1715 50.8478 28.1715 50.0987H28.1699ZM31.4233 51.0987C31.6608 50.8338 31.7788 50.5145 31.7788 50.1408C31.7788 49.7671 31.6608 49.4479 31.4233 49.1847C31.1857 48.9233 30.8994 48.79 30.5627 48.7882C30.2261 48.79 29.9382 48.9233 29.6991 49.1847C29.4599 49.4461 29.3404 49.7654 29.3435 50.1408C29.3451 50.5162 29.4647 50.8355 29.6991 51.0987C29.935 51.3636 30.2214 51.4951 30.5596 51.4951C30.8978 51.4951 31.1857 51.3636 31.4233 51.0987Z" fill="black"/>
<path d="M33.6699 52.5371V47.7163H34.7932L36.8619 50.667V47.7163H37.9852V52.5371H36.8619L34.7932 49.5864V52.5371H33.6699Z" fill="black"/>
<path d="M40.0123 47.7163V51.4758H41.3621V52.5371H38.8906V47.7163H40.0139H40.0123Z" fill="black"/>
<path d="M43.0608 47.7163V52.5371H41.9375V47.7163H43.0608Z" fill="black"/>
<path d="M43.9727 52.5371V47.7163H45.0959L47.1647 50.667V47.7163H48.2879V52.5371H47.1647L45.0959 49.5864V52.5371H43.9727Z" fill="black"/>
<path d="M51.6538 48.7772H50.315V49.5789H51.5783V50.6403H50.315V51.4736H51.6538V52.5349H49.1934V47.7141H51.6538V48.7755V48.7772Z" fill="black"/>
<path d="M32.9269 54.8175C32.7885 54.8175 32.6736 54.8579 32.5824 54.9368C32.4911 55.0158 32.4455 55.1193 32.4455 55.2438C32.4455 55.3684 32.5147 55.4754 32.6547 55.5631C32.7177 55.6 32.9222 55.6772 33.2683 55.7947C33.6128 55.9122 33.8692 56.0754 34.036 56.2859C34.2028 56.4964 34.2846 56.7754 34.2846 57.1227C34.2846 57.6665 34.1367 58.0893 33.8425 58.3911C33.5467 58.6928 33.133 58.8437 32.5997 58.8437C32.0664 58.8437 31.5645 58.663 31.0957 58.2998L31.5771 57.2894C31.909 57.6174 32.2394 57.7806 32.5682 57.7806C32.8183 57.7806 32.9709 57.7192 33.026 57.5981C33.0811 57.4753 33.1094 57.3788 33.1094 57.3087C33.1094 57.1788 33.0622 57.0753 32.9694 56.9946C32.8766 56.9157 32.661 56.821 32.3228 56.7122C31.9846 56.6034 31.7486 56.4859 31.6117 56.3613C31.3836 56.1491 31.2703 55.814 31.2703 55.3596C31.2703 54.9053 31.4056 54.5263 31.6762 54.2264C31.9468 53.9299 32.3086 53.7808 32.7633 53.7808C33.2179 53.7808 33.6663 53.9106 34.1131 54.1702L33.6647 55.1421C33.4209 54.9228 33.1755 54.814 32.9285 54.814L32.9269 54.8175Z" fill="black"/>
<path d="M37.5327 57.8838H35.9847L35.6874 58.7241H34.498L36.1578 53.9033H37.3833L39.0131 58.7241H37.8128L37.5327 57.8838ZM37.2307 56.9312L36.7666 55.3945L36.2962 56.9312H37.2307Z" fill="black"/>
<path d="M40.6373 53.9033V57.6628H41.9871V58.7241H39.5156V53.9033H40.6389H40.6373Z" fill="black"/>
<path d="M45.0249 54.9645H43.6861V55.7662H44.9494V56.8275H43.6861V57.6608H45.0249V58.7222H42.5645V53.9014H45.0249V54.9627V54.9645Z" fill="black"/>
<path d="M47.3742 54.8175C47.2357 54.8175 47.1209 54.8579 47.0296 54.9368C46.9384 55.0158 46.8928 55.1193 46.8928 55.2438C46.8928 55.3684 46.962 55.4754 47.102 55.5631C47.1649 55.6 47.3694 55.6772 47.7155 55.7947C48.0601 55.9122 48.3165 56.0754 48.4833 56.2859C48.65 56.4964 48.7318 56.7754 48.7318 57.1227C48.7318 57.6665 48.5839 58.0893 48.2898 58.3911C47.994 58.6928 47.5803 58.8437 47.0469 58.8437C46.5136 58.8437 46.0118 58.663 45.543 58.2998L46.0244 57.2894C46.3563 57.6174 46.6867 57.7806 47.0155 57.7806C47.2656 57.7806 47.4182 57.7192 47.4733 57.5981C47.5283 57.4753 47.5567 57.3788 47.5567 57.3087C47.5567 57.1788 47.5095 57.0753 47.4166 56.9946C47.3238 56.9157 47.1083 56.821 46.7701 56.7122C46.4318 56.6034 46.1958 56.4859 46.059 56.3613C45.8309 56.1491 45.7176 55.814 45.7176 55.3596C45.7176 54.9053 45.8529 54.5263 46.1235 54.2264C46.3941 53.9299 46.7559 53.7808 47.2106 53.7808C47.6652 53.7808 48.1136 53.9106 48.5604 54.1702L48.112 55.1421C47.8681 54.9228 47.6227 54.814 47.3757 54.814L47.3742 54.8175Z" fill="black"/>
<path d="M24.9729 63.3067V64.9136H23.8496V60.0928H25.6383C25.9168 60.0928 26.1433 60.1296 26.3195 60.205C26.4957 60.2805 26.653 60.4085 26.7962 60.5892C27.0259 60.8787 27.1407 61.2646 27.1407 61.7506C27.1407 62.2365 27.0149 62.6155 26.7647 62.8926C26.5146 63.1698 26.1528 63.3067 25.6792 63.3067H24.9729ZM24.9729 62.3067H25.3473C25.5612 62.3067 25.7186 62.2593 25.8161 62.1646C25.9136 62.0699 25.9624 61.919 25.9624 61.7102C25.9624 61.3085 25.7579 61.1085 25.3489 61.1085H24.9713V62.3067H24.9729Z" fill="black"/>
<path d="M28.858 60.0928V63.8522H30.2078V64.9136H27.7363V60.0928H28.8596H28.858Z" fill="black"/>
<path d="M33.5835 64.0733H32.0355L31.7382 64.9136H30.5488L32.2085 60.0928H33.4341L35.0639 64.9136H33.8635L33.5835 64.0733ZM33.2815 63.1207L32.8174 61.5839L32.347 63.1207H33.2815Z" fill="black"/>
<path d="M36.999 61.1541V64.9136H35.8758V61.1541H34.957V60.0928H37.9304V61.1541H36.9975H36.999Z" fill="black"/>
<path d="M40.9094 61.1534H39.5549V61.9552H40.7899V63.0165H39.5549V64.9112H38.4316V60.0903H40.9094V61.1517V61.1534Z" fill="black"/>
<path d="M41.3809 62.4749C41.3809 61.8171 41.5885 61.2434 42.0038 60.754C42.4585 60.2171 43.0484 59.9487 43.7737 59.9487C44.4989 59.9487 45.0889 60.2171 45.5451 60.754C45.9588 61.2452 46.1665 61.8329 46.1665 62.517C46.1665 63.2012 45.9588 63.7889 45.5451 64.2783C45.0873 64.8152 44.5036 65.0836 43.7941 65.0836C43.0846 65.0836 42.5041 64.8362 42.0558 64.3415C41.6074 63.8468 41.3824 63.224 41.3824 62.4749H41.3809ZM44.6342 63.4749C44.8718 63.21 44.9898 62.8907 44.9898 62.517C44.9898 62.1434 44.8718 61.8241 44.6342 61.5609C44.3967 61.2995 44.1103 61.1662 43.7737 61.1645C43.437 61.1662 43.1491 61.2995 42.91 61.5609C42.6709 61.8223 42.5513 62.1416 42.5545 62.517C42.556 62.8925 42.6756 63.2117 42.91 63.4749C43.146 63.7398 43.4323 63.8714 43.7705 63.8714C44.1088 63.8714 44.3967 63.7398 44.6342 63.4749Z" fill="black"/>
<path d="M48.0022 64.9136H46.8789V60.0928H48.6409C49.1537 60.0928 49.5329 60.2664 49.7767 60.612C49.9781 60.891 50.0788 61.2138 50.0788 61.5804C50.0788 61.9471 49.997 62.2453 49.8349 62.4751C49.6729 62.7049 49.4338 62.8593 49.1207 62.9383L50.4784 64.9153H49.0782L48.0022 63.0646V64.9153V64.9136ZM48.0022 62.2506H48.2146C48.4348 62.2506 48.6047 62.1979 48.7243 62.0944C48.8438 61.9909 48.9036 61.8436 48.9036 61.6541C48.9036 61.4646 48.8438 61.3173 48.7243 61.2138C48.6047 61.1103 48.4348 61.0576 48.2146 61.0576H48.0022V62.2506Z" fill="black"/>
<path d="M50.75 64.9136L51.4831 60.0928H52.5922L53.4716 62.6663L54.3982 60.0928H55.5152L56.1681 64.9136H55.0432L54.7239 62.1383L53.6793 64.9136H53.2309L52.2367 62.1383L51.867 64.9136H50.75Z" fill="black"/>
<path d="M32.9349 78.9887C32.367 78.9887 31.9296 78.7817 31.6244 78.3694C31.3743 78.0291 31.25 77.6466 31.25 77.2238C31.25 76.8011 31.3774 76.4221 31.6307 76.0871C31.9391 75.6801 32.3591 75.4766 32.8893 75.4766C33.3659 75.4766 33.7592 75.6397 34.0692 75.9713C34.3791 76.3028 34.5333 76.7221 34.5333 77.2291C34.5333 77.6396 34.4043 78.0308 34.1447 78.3992L34.6481 78.9659L33.9402 79.0887L33.7042 78.7782C33.4745 78.9185 33.2196 78.9887 32.9365 78.9887H32.9349ZM33.7262 77.2344C33.7262 76.9835 33.6444 76.766 33.4776 76.5835C33.3093 76.4011 33.1127 76.3099 32.8845 76.3099C32.6564 76.3099 32.4614 76.4011 32.3009 76.5835C32.1389 76.766 32.057 76.987 32.057 77.2467C32.057 77.5063 32.1357 77.7221 32.2946 77.8957C32.4535 78.0694 32.6501 78.1554 32.8861 78.1554C32.9679 78.1554 33.0482 78.1413 33.1268 78.115L32.6549 77.587L33.3833 77.487L33.5862 77.7308C33.679 77.58 33.7262 77.4151 33.7262 77.2344Z" fill="black"/>
<path d="M36.5384 76.2979H36.1152V75.5698H37.3077V78.8767H36.5384V76.2979Z" fill="black"/>
<path d="M40.5688 75.2378H41.132L39.5116 79.6341H38.9531L40.5704 75.2378H40.5688Z" fill="black"/>
<path d="M44.417 78.1478V78.8758H42.0352L42.7903 77.9987C43.3205 77.3794 43.5848 76.9093 43.5848 76.59C43.5848 76.4724 43.5501 76.3724 43.4825 76.2882C43.4148 76.204 43.3346 76.1619 43.2418 76.1619C43.149 76.1619 43.0719 76.1988 43.0105 76.2724C42.9508 76.3461 42.9224 76.4444 42.9224 76.5654C42.9224 76.5952 42.9272 76.6408 42.9335 76.7022H42.1154C42.1154 76.4777 42.1642 76.2584 42.2633 76.0444C42.4521 75.6374 42.7761 75.4321 43.2355 75.4321C43.5722 75.4321 43.849 75.5426 44.0661 75.7654C44.2832 75.9882 44.3902 76.2724 44.3902 76.6215C44.3902 76.9075 44.3352 77.1268 44.2266 77.2794C44.1165 77.4338 44.0237 77.5496 43.9466 77.6303L43.4447 78.1478H44.417Z" fill="black"/>
<path d="M46.7049 76.8505C46.7883 76.8505 46.8607 76.8154 46.9204 76.7452C46.9802 76.6751 47.0117 76.5891 47.0117 76.4874C47.0117 76.3856 46.9834 76.3049 46.9267 76.2417C46.8701 76.1786 46.8072 76.147 46.7379 76.147C46.6215 76.147 46.535 76.1821 46.4784 76.2488C46.4217 76.3172 46.3934 76.4067 46.3934 76.5189H45.6792C45.7169 76.1716 45.8302 75.9049 46.019 75.7172C46.2093 75.5295 46.4548 75.4365 46.7521 75.4365C47.0494 75.4365 47.287 75.5242 47.46 75.6997C47.6331 75.8751 47.7212 76.1137 47.7212 76.4119C47.7212 76.7101 47.6174 76.9365 47.4097 77.0856C47.5607 77.1382 47.6803 77.2417 47.77 77.3961C47.8581 77.5505 47.9021 77.7294 47.9021 77.9364C47.9021 78.2557 47.7936 78.5171 47.5765 78.7188C47.3594 78.9206 47.0793 79.0206 46.7395 79.0206C46.2613 79.0206 45.9073 78.8048 45.6776 78.3732C45.5754 78.1767 45.5234 77.9908 45.5234 77.8136H46.31C46.3195 77.9662 46.3604 78.0838 46.4327 78.1662C46.5051 78.2504 46.6026 78.2908 46.7238 78.2908C46.8449 78.2908 46.944 78.2487 47.0195 78.1645C47.0951 78.0803 47.1328 77.975 47.1328 77.8504C47.1328 77.7259 47.0935 77.6171 47.0133 77.5277C46.933 77.4382 46.8386 77.3926 46.7269 77.3943C46.6955 77.3943 46.6514 77.4013 46.5932 77.4189V76.84C46.6325 76.8435 46.6687 76.847 46.7033 76.847L46.7049 76.8505Z" fill="black"/>
<path d="M24.0223 30.9929V37.1803H26.2437V38.9276H22.1738V30.9929H24.0223Z" fill="white"/>
<path d="M31.2463 32.7402H29.0438V34.0612H31.122V35.8085H29.0438V37.1803H31.2463V38.9276H27.1953V30.9929H31.2463V32.7402Z" fill="white"/>
<path d="M36.7328 37.5452H34.1842L33.695 38.9276H31.7363L34.469 30.9929H36.4874L39.1697 38.9276H37.1922L36.7312 37.5452H36.7328ZM36.2357 35.9769L35.4711 33.4489L34.6971 35.9769H36.2372H36.2357Z" fill="white"/>
<path d="M39.9922 38.9276V30.9929H42.7248C43.7301 30.9929 44.5828 31.4245 45.2828 32.2876C45.9153 33.0753 46.233 33.9665 46.233 34.9594C46.233 35.9523 45.9168 36.8435 45.2828 37.6312C44.5828 38.4943 43.7301 38.9259 42.7248 38.9259H39.9922V38.9276ZM41.8407 37.1803H42.2686C42.9875 37.1803 43.5272 36.9137 43.8858 36.3786C44.1596 35.9716 44.2964 35.498 44.2964 34.9594C44.2964 34.4208 44.1596 33.9489 43.8858 33.5402C43.5256 33.0051 42.9875 32.7384 42.2686 32.7384H41.8407V37.1786V37.1803Z" fill="white"/>
<path d="M51.4611 32.7402H49.2587V34.0612H51.3368V35.8085H49.2587V37.1803H51.4611V38.9276H47.4102V30.9929H51.4611V32.7402Z" fill="white"/>
<path d="M54.4774 38.9276H52.6289V30.9929H55.5299C56.3747 30.9929 56.9977 31.2771 57.4004 31.8455C57.7308 32.3051 57.8975 32.8349 57.8975 33.4384C57.8975 34.0419 57.7638 34.5331 57.4964 34.9103C57.2289 35.2892 56.8356 35.5436 56.3196 35.6734L58.5551 38.9259H56.2488L54.4774 35.8787V38.9259V38.9276ZM54.4774 34.5436H54.8282C55.1901 34.5436 55.4701 34.4577 55.6667 34.2875C55.8634 34.1173 55.9625 33.8752 55.9625 33.563C55.9625 33.2507 55.865 33.0104 55.6667 32.8384C55.4685 32.6665 55.1901 32.5823 54.8282 32.5823H54.4774V34.5454V34.5436Z" fill="white"/>
</svg>
