<svg width="553" height="210" viewBox="0 0 553 210" fill="none" xmlns="http://www.w3.org/2000/svg">
<path d="M174.378 33.1365C176.356 33.6973 177.868 35.525 178.002 37.732C178.01 37.849 178.014 37.9701 178.014 38.0871V149.563C178.014 153.364 176.14 156.874 173.104 158.774L99.3277 204.912C96.2882 206.812 92.5446 206.812 89.505 204.912L15.7286 158.774C12.689 156.874 10.8191 153.364 10.8191 149.563V38.0871C10.8191 37.9661 10.8191 37.849 10.8303 37.732C10.9644 35.525 12.4804 33.6973 14.4546 33.1365L93.122 3.90881C93.9377 3.67883 94.7945 3.67883 95.6065 3.90881L174.378 33.1365Z" fill="white" stroke="#F5C61A" stroke-width="6" stroke-miterlimit="10"/>
<path d="M70.2209 162.648H116.608" stroke="black" stroke-width="4" stroke-miterlimit="10"/>
<path d="M185.118 60.9746H3.71336C1.66253 60.9746 0 62.8285 0 65.1155V92.5196C0 94.8065 1.66253 96.6604 3.71336 96.6604H185.118C187.169 96.6604 188.832 94.8065 188.832 92.5196V65.1155C188.832 62.8285 187.169 60.9746 185.118 60.9746Z" fill="#F5C61A"/>
<path d="M85.2371 31.8301H133.284C134.086 31.8301 134.736 32.6044 134.736 33.561V43.5404C134.736 44.4969 134.086 45.2713 133.284 45.2713H85.2371" stroke="#F5C61A" stroke-width="2.96" stroke-miterlimit="10"/>
<path d="M90.7279 39.5637L92.5994 42.8515H90.364L88.5407 39.4809L88.1731 42.8515H86.2458L87.1816 34.3711H89.6584C90.5719 34.3711 91.2477 34.5864 91.6859 35.0171C92.1241 35.4477 92.3469 36.1102 92.3469 37.0005C92.3469 38.2718 91.8085 39.1248 90.7279 39.5596V39.5637ZM88.9195 36.073L88.6781 38.2511H89.0234C89.9184 38.2511 90.3677 37.8535 90.3677 37.0585C90.3677 36.69 90.286 36.4332 90.1263 36.2883C89.9666 36.1434 89.6807 36.0688 89.2759 36.0688H88.9232L88.9195 36.073Z" fill="black"/>
<path d="M98.515 34.3752L98.3145 36.2428H96.0679L95.9045 37.6962H98.0768L97.8689 39.5637H95.7003L95.5443 40.984H97.8726L97.6609 42.8515H93.4128L94.3486 34.3711H98.515V34.3752Z" fill="black"/>
<path d="M106.76 34.3848L102.683 42.8652H101.053L99.0625 34.3848H101.12L101.985 38.2523C102.041 38.5049 102.089 38.7575 102.126 39.0101C102.163 39.2627 102.193 39.5277 102.219 39.801C102.282 39.5939 102.349 39.391 102.419 39.2006C102.49 39.0101 102.568 38.8237 102.65 38.6416L104.599 34.3848H106.757H106.76Z" fill="black"/>
<path d="M109.482 34.3848L108.546 42.8652H106.619L107.555 34.3848H109.482Z" fill="black"/>
<path d="M115.246 34.3752L115.045 36.2428H112.799L112.635 37.6962H114.808L114.6 39.5637H112.431L112.275 40.984H114.604L114.392 42.8515H110.144L111.08 34.3711H115.246V34.3752Z" fill="black"/>
<path d="M127.269 34.3848L123.994 42.8652H121.833L121.316 39.4821C121.261 39.126 121.22 38.7658 121.19 38.4014C121.16 38.037 121.149 37.6643 121.149 37.2875C121.049 37.6643 120.949 38.0204 120.845 38.3517C120.741 38.683 120.633 39.0059 120.518 39.3165L119.215 42.8694H117.157L115.798 34.3889H117.74L118.223 37.5691C118.346 38.389 118.435 39.3165 118.491 40.3517C118.632 39.7968 118.743 39.4035 118.821 39.1757L119.111 38.3683L120.555 34.3889H122.378L122.939 38.0287C123.017 38.5297 123.088 39.3041 123.151 40.3517C123.288 39.801 123.411 39.3828 123.518 39.0888L123.749 38.4552L125.193 34.3848H127.276H127.269Z" fill="black"/>
<path d="M132.582 34.9855L131.739 36.617C131.253 36.1946 130.807 35.9835 130.406 35.9835C130.146 35.9835 129.942 36.0497 129.79 36.1822C129.637 36.3147 129.559 36.4928 129.559 36.7164C129.559 36.9234 129.623 37.0932 129.753 37.2257C129.819 37.2961 129.916 37.3706 130.042 37.4535C130.168 37.5363 130.328 37.6274 130.521 37.7309C131.152 38.0622 131.591 38.4017 131.836 38.7537C132.085 39.0974 132.211 39.5529 132.211 40.116C132.211 40.9649 131.94 41.6606 131.394 42.203C130.859 42.7455 130.165 43.0146 129.311 43.0146C128.85 43.0146 128.434 42.9484 128.059 42.8158C127.874 42.7454 127.669 42.6502 127.45 42.5301C127.231 42.41 126.994 42.261 126.737 42.0829L127.603 40.4556C128.212 40.9152 128.75 41.1471 129.214 41.1471C129.522 41.1471 129.767 41.0684 129.949 40.9111C130.135 40.7537 130.232 40.5508 130.232 40.2982C130.232 40.1036 130.172 39.9462 130.05 39.822C129.938 39.6978 129.704 39.5322 129.344 39.3293C128.665 38.9483 128.2 38.588 127.952 38.2444C127.706 37.9007 127.584 37.4452 127.584 36.8737C127.584 36.1077 127.848 35.47 128.379 34.9648C128.902 34.4596 129.571 34.207 130.384 34.207C131.141 34.207 131.877 34.4679 132.59 34.9855H132.582Z" fill="black"/>
<path d="M82.8696 32.5645H56.1965V43.9269H82.8696V32.5645Z" fill="black"/>
<path d="M84.0833 44.3315V32.8076C84.0833 32.8076 84.0833 31.2051 82.6463 31.2051H56.378C56.378 31.2051 54.9409 31.2051 54.9409 32.8076V44.3315C54.9409 44.3315 54.9409 45.9341 56.378 45.9341H77.9823V51.1184L81.5211 45.9341H82.65C82.65 45.9341 84.087 45.9341 84.087 44.3315" fill="black"/>
<path d="M63.6075 38.4478C63.6075 39.1642 63.3773 39.7729 62.9242 40.2781C62.4675 40.7832 61.9216 41.0358 61.2829 41.0358C60.6442 41.0358 60.0947 40.7832 59.6416 40.2781C59.1886 39.7729 58.9621 39.1642 58.9621 38.4478C58.9621 37.7314 59.1886 37.1269 59.6416 36.6176C60.0947 36.1082 60.6405 35.8515 61.2829 35.8515C61.9253 35.8515 62.4675 36.1082 62.9242 36.6176C63.381 37.1269 63.6075 37.7356 63.6075 38.4478ZM64.016 41.4996C64.7735 40.6549 65.156 39.6404 65.156 38.4478C65.156 37.2552 64.7772 36.2449 64.016 35.4001C63.2584 34.5554 62.345 34.1289 61.2829 34.1289C60.2209 34.1289 59.3037 34.5513 58.5462 35.4001C57.7887 36.2449 57.4099 37.2635 57.4099 38.4478C57.4099 39.6321 57.7887 40.6549 58.5462 41.4996C59.3037 42.3443 60.2172 42.7667 61.2829 42.7667C62.3487 42.7667 63.2584 42.3443 64.016 41.4996ZM72.4416 42.6922H74.0457V34.2034L70.143 39.57L66.2366 34.2034V42.6922H67.8407V39.1186L70.1393 42.5472L72.4379 39.1186V42.6922H72.4416ZM78.1787 38.3401L81.5653 34.1993H74.9741V35.9012H78.097L75.9544 38.3401L79.4041 42.688H81.6247L78.1787 38.3401Z" fill="white"/>
<path d="M66.4944 114.91C66.4944 113.357 66.9845 112.003 67.9649 110.848C69.038 109.581 70.4305 108.947 72.1424 108.947C73.8543 108.947 75.2468 109.581 76.3236 110.848C77.3002 112.007 77.7904 113.395 77.7904 115.009C77.7904 116.624 77.3002 118.012 76.3236 119.167C75.243 120.434 73.8654 121.068 72.1907 121.068C70.5159 121.068 69.1457 120.484 68.0874 119.316C67.0291 118.148 66.4981 116.678 66.4981 114.91H66.4944ZM74.1736 117.27C74.7343 116.645 75.0128 115.891 75.0128 115.009C75.0128 114.127 74.7343 113.374 74.1736 112.753C73.6129 112.136 72.9371 111.821 72.1424 111.817C71.3477 111.821 70.6682 112.136 70.1038 112.753C69.5393 113.37 69.2571 114.123 69.2645 115.009C69.2683 115.896 69.5505 116.649 70.1038 117.27C70.6608 117.896 71.3366 118.206 72.135 118.206C72.9333 118.206 73.6129 117.896 74.1736 117.27Z" fill="black"/>
<path d="M79.4758 120.666V109.287H82.1272L87.0102 116.252V109.287H89.6616V120.666H87.0102L82.1272 113.701V120.666H79.4758Z" fill="black"/>
<path d="M94.4455 109.287V118.161H97.6315V120.666H91.7979V109.287H94.4492H94.4455Z" fill="black"/>
<path d="M101.644 109.287V120.666H98.9924V109.287H101.644Z" fill="black"/>
<path d="M103.796 120.666V109.287H106.447L111.33 116.252V109.287H113.981V120.666H111.33L106.447 113.701V120.666H103.796Z" fill="black"/>
<path d="M121.928 111.791H118.768V113.683H121.75V116.188H118.768V118.155H121.928V120.66H116.12V109.281H121.928V111.786V111.791Z" fill="black"/>
<path d="M77.7242 126.049C77.3974 126.049 77.1263 126.144 76.911 126.33C76.6956 126.517 76.5879 126.761 76.5879 127.055C76.5879 127.349 76.7513 127.602 77.0818 127.809C77.2303 127.896 77.7131 128.078 78.53 128.355C79.3432 128.633 79.9485 129.018 80.3421 129.515C80.7357 130.012 80.9288 130.67 80.9288 131.49C80.9288 132.774 80.5798 133.771 79.8854 134.484C79.1873 135.196 78.2106 135.552 76.9518 135.552C75.693 135.552 74.5084 135.126 73.4019 134.268L74.5381 131.883C75.3217 132.658 76.1015 133.043 76.8776 133.043C77.468 133.043 77.8282 132.898 77.9581 132.612C78.0881 132.322 78.155 132.094 78.155 131.929C78.155 131.622 78.0436 131.378 77.8245 131.188C77.6054 131.001 77.0966 130.778 76.2983 130.521C75.4999 130.264 74.9429 129.987 74.6198 129.693C74.0814 129.192 73.814 128.401 73.814 127.328C73.814 126.256 74.1334 125.361 74.7721 124.653C75.4108 123.954 76.2649 123.602 77.338 123.602C78.4112 123.602 79.4695 123.908 80.5241 124.521L79.4658 126.815C78.8902 126.297 78.3109 126.041 77.7279 126.041L77.7242 126.049Z" fill="black"/>
<path d="M88.5959 133.286H84.942L84.2402 135.27H81.4329L85.3505 123.891H88.2432L92.0902 135.27H89.2569L88.5959 133.286ZM87.883 131.038L86.7875 127.41L85.6772 131.038H87.883Z" fill="black"/>
<path d="M95.9208 123.891V132.764H99.1069V135.27H93.2732V123.891H95.9245H95.9208Z" fill="black"/>
<path d="M106.279 126.394H103.119V128.286H106.1V130.792H103.119V132.759H106.279V135.264H100.471V123.885H106.279V126.39V126.394Z" fill="black"/>
<path d="M111.825 126.049C111.498 126.049 111.227 126.144 111.012 126.33C110.796 126.517 110.689 126.761 110.689 127.055C110.689 127.349 110.852 127.602 111.183 127.809C111.331 127.896 111.814 128.078 112.631 128.355C113.444 128.633 114.049 129.018 114.443 129.515C114.837 130.012 115.03 130.67 115.03 131.49C115.03 132.774 114.681 133.771 113.986 134.484C113.288 135.196 112.311 135.552 111.053 135.552C109.794 135.552 108.609 135.126 107.503 134.268L108.639 131.883C109.422 132.658 110.202 133.043 110.978 133.043C111.569 133.043 111.929 132.898 112.059 132.612C112.189 132.322 112.256 132.094 112.256 131.929C112.256 131.622 112.144 131.378 111.925 131.188C111.706 131.001 111.197 130.778 110.399 130.521C109.601 130.264 109.044 129.987 108.721 129.693C108.182 129.192 107.915 128.401 107.915 127.328C107.915 126.256 108.234 125.361 108.873 124.653C109.512 123.954 110.366 123.602 111.439 123.602C112.512 123.602 113.57 123.908 114.625 124.521L113.567 126.815C112.991 126.297 112.412 126.041 111.829 126.041L111.825 126.049Z" fill="black"/>
<path d="M58.948 146.086V149.879H56.2966V138.5H60.5187C61.176 138.5 61.7107 138.587 62.1266 138.765C62.5425 138.943 62.9138 139.245 63.2517 139.672C63.7939 140.355 64.065 141.266 64.065 142.413C64.065 143.56 63.7679 144.455 63.1775 145.109C62.5871 145.763 61.733 146.086 60.6153 146.086H58.948ZM58.948 143.726H59.8317C60.3368 143.726 60.7081 143.614 60.9383 143.39C61.1686 143.167 61.2837 142.811 61.2837 142.318C61.2837 141.37 60.8009 140.898 59.8355 140.898H58.9443V143.726H58.948Z" fill="black"/>
<path d="M68.1183 138.5V147.374H71.3044V149.879H65.4707V138.5H68.122H68.1183Z" fill="black"/>
<path d="M79.2741 147.896H75.6202L74.9184 149.879H72.1111L76.0287 138.5H78.9214L82.7684 149.879H79.9351L79.2741 147.896ZM78.5612 145.647L77.4657 142.02L76.3555 145.647H78.5612Z" fill="black"/>
<path d="M87.3336 141.005V149.879H84.6823V141.005H82.5137V138.5H89.5319V141.005H87.3299H87.3336Z" fill="black"/>
<path d="M96.5656 141.003H93.3684V142.896H96.2834V145.401H93.3684V149.873H90.717V138.494H96.5656V140.999V141.003Z" fill="black"/>
<path d="M97.6743 144.123C97.6743 142.57 98.1645 141.216 99.1448 140.061C100.218 138.794 101.61 138.16 103.322 138.16C105.034 138.16 106.427 138.794 107.504 140.061C108.48 141.22 108.97 142.607 108.97 144.222C108.97 145.837 108.48 147.224 107.504 148.38C106.423 149.647 105.045 150.28 103.371 150.28C101.696 150.28 100.326 149.697 99.2673 148.529C98.209 147.361 97.678 145.891 97.678 144.123H97.6743ZM105.354 146.483C105.914 145.858 106.193 145.104 106.193 144.222C106.193 143.34 105.914 142.587 105.354 141.966C104.793 141.349 104.117 141.034 103.322 141.03C102.528 141.034 101.848 141.349 101.284 141.966C100.719 142.583 100.437 143.336 100.444 144.222C100.448 145.108 100.73 145.862 101.284 146.483C101.841 147.109 102.517 147.419 103.315 147.419C104.113 147.419 104.793 147.109 105.354 146.483Z" fill="black"/>
<path d="M113.304 149.879H110.653V138.5H114.812C116.023 138.5 116.918 138.91 117.493 139.726C117.968 140.384 118.206 141.146 118.206 142.011C118.206 142.877 118.013 143.581 117.63 144.123C117.248 144.666 116.684 145.03 115.945 145.216L119.149 149.883H115.844L113.304 145.515V149.883V149.879ZM113.304 143.593H113.806C114.326 143.593 114.727 143.469 115.009 143.225C115.291 142.98 115.432 142.633 115.432 142.185C115.432 141.738 115.291 141.39 115.009 141.146C114.727 140.902 114.326 140.777 113.806 140.777H113.304V143.593Z" fill="black"/>
<path d="M119.792 149.879L121.523 138.5H124.141L126.217 144.575L128.404 138.5H131.04L132.581 149.879H129.926L129.172 143.328L126.707 149.879H125.648L123.302 143.328L122.429 149.879H119.792Z" fill="black"/>
<path d="M77.738 183.101C76.3975 183.101 75.3652 182.612 74.6448 181.639C74.0543 180.835 73.761 179.933 73.761 178.935C73.761 177.937 74.0618 177.042 74.6596 176.252C75.3874 175.291 76.3789 174.811 77.6303 174.811C78.7555 174.811 79.6838 175.196 80.4153 175.978C81.1469 176.761 81.5108 177.751 81.5108 178.947C81.5108 179.916 81.2063 180.84 80.5936 181.709L81.7818 183.047L80.1108 183.337L79.5538 182.604C79.0117 182.935 78.4101 183.101 77.7417 183.101H77.738ZM79.6058 178.96C79.6058 178.368 79.4127 177.854 79.0191 177.423C78.6218 176.993 78.1576 176.777 77.6192 176.777C77.0807 176.777 76.6203 176.993 76.2415 177.423C75.859 177.854 75.6659 178.376 75.6659 178.989C75.6659 179.601 75.8516 180.111 76.2267 180.521C76.6017 180.931 77.0659 181.134 77.6229 181.134C77.816 181.134 78.0054 181.1 78.191 181.038L77.077 179.792L78.7963 179.556L79.2753 180.132C79.4944 179.775 79.6058 179.386 79.6058 178.96Z" fill="black"/>
<path d="M86.246 176.748H85.2471V175.029H88.0618V182.835H86.246V176.748Z" fill="black"/>
<path d="M95.7589 174.246H97.0883L93.2636 184.623H91.9453L95.7626 174.246H95.7589Z" fill="black"/>
<path d="M104.839 181.115V182.834H99.2168L100.999 180.763C102.251 179.301 102.874 178.192 102.874 177.438C102.874 177.161 102.793 176.925 102.633 176.726C102.473 176.527 102.284 176.428 102.065 176.428C101.846 176.428 101.664 176.515 101.519 176.689C101.378 176.862 101.311 177.094 101.311 177.38C101.311 177.45 101.322 177.558 101.337 177.703H99.4062C99.4062 177.173 99.5213 176.655 99.7552 176.15C100.201 175.19 100.966 174.705 102.05 174.705C102.845 174.705 103.498 174.966 104.011 175.492C104.523 176.018 104.776 176.689 104.776 177.513C104.776 178.188 104.646 178.705 104.39 179.065C104.13 179.43 103.91 179.703 103.729 179.894L102.544 181.115H104.839Z" fill="black"/>
<path d="M110.239 178.052C110.436 178.052 110.607 177.97 110.748 177.804C110.889 177.638 110.963 177.435 110.963 177.195C110.963 176.955 110.896 176.765 110.763 176.615C110.629 176.466 110.48 176.392 110.317 176.392C110.042 176.392 109.838 176.475 109.704 176.632C109.571 176.794 109.504 177.005 109.504 177.27H107.818C107.907 176.45 108.174 175.82 108.62 175.377C109.069 174.934 109.649 174.715 110.35 174.715C111.052 174.715 111.613 174.922 112.021 175.336C112.43 175.75 112.638 176.313 112.638 177.017C112.638 177.721 112.393 178.255 111.903 178.607C112.259 178.731 112.541 178.976 112.753 179.34C112.961 179.705 113.065 180.127 113.065 180.616C113.065 181.369 112.809 181.986 112.296 182.462C111.784 182.939 111.123 183.175 110.321 183.175C109.192 183.175 108.356 182.665 107.814 181.647C107.573 181.183 107.45 180.744 107.45 180.326H109.307C109.329 180.686 109.426 180.963 109.597 181.158C109.767 181.357 109.998 181.452 110.283 181.452C110.569 181.452 110.803 181.353 110.982 181.154C111.16 180.955 111.249 180.707 111.249 180.413C111.249 180.119 111.156 179.862 110.967 179.651C110.777 179.44 110.555 179.332 110.291 179.336C110.217 179.336 110.113 179.353 109.975 179.394V178.028C110.068 178.036 110.154 178.044 110.235 178.044L110.239 178.052Z" fill="black"/>
<path d="M56.7003 69.8105V84.4153H61.9436V88.5396H52.3372V69.8105H56.7003Z" fill="white"/>
<path d="M73.7494 73.9348H68.5507V77.0529H73.456V81.1772H68.5507V84.4153H73.7494V88.5396H64.1875V69.8105H73.7494V73.9348Z" fill="white"/>
<path d="M86.703 85.2766H80.6874L79.5325 88.5396H74.9094L81.3595 69.8105H86.1238L92.455 88.5396H87.7873L86.6993 85.2766H86.703ZM85.5296 81.5747L83.7249 75.6077L81.898 81.5747H85.5333H85.5296Z" fill="white"/>
<path d="M94.394 88.5396V69.8105H100.844C103.217 69.8105 105.23 70.8292 106.882 72.8665C108.375 74.7257 109.125 76.8293 109.125 79.173C109.125 81.5167 108.379 83.6203 106.882 85.4795C105.23 87.5168 103.217 88.5354 100.844 88.5354H94.394V88.5396ZM98.7572 84.4153H99.7673C101.464 84.4153 102.738 83.7859 103.585 82.5229C104.231 81.5623 104.554 80.4442 104.554 79.173C104.554 77.9018 104.231 76.7879 103.585 75.8231C102.734 74.5601 101.464 73.9307 99.7673 73.9307H98.7572V84.4112V84.4153Z" fill="white"/>
<path d="M121.466 73.9348H116.267V77.0529H121.172V81.1772H116.267V84.4153H121.466V88.5396H111.904V69.8105H121.466V73.9348Z" fill="white"/>
<path d="M128.584 88.5396H124.221V69.8105H131.069C133.063 69.8105 134.533 70.4814 135.484 71.823C136.264 72.9079 136.657 74.1584 136.657 75.5829C136.657 77.0073 136.342 78.1668 135.71 79.057C135.079 79.9515 134.151 80.5519 132.933 80.8583L138.209 88.5354H132.766L128.584 81.3428V88.5354V88.5396ZM128.584 78.1916H129.412C130.267 78.1916 130.928 77.9887 131.392 77.587C131.856 77.1854 132.09 76.614 132.09 75.8769C132.09 75.1398 131.86 74.5725 131.392 74.1667C130.924 73.7609 130.267 73.5621 129.412 73.5621H128.584V78.1958V78.1916Z" fill="white"/>
<path d="M241.655 48.4395L247.798 67.345H267.677L251.595 79.0292L257.737 97.9347L241.655 86.2505L225.573 97.9347L231.716 79.0292L215.634 67.345H235.513L241.655 48.4395Z" fill="#F5C61A"/>
<path d="M312.542 48.4395L318.685 67.345H338.563L322.481 79.0292L328.624 97.9347L312.542 86.2505L296.46 97.9347L302.603 79.0292L286.521 67.345H306.399L312.542 48.4395Z" fill="#F5C61A"/>
<path d="M383.428 48.4395L389.571 67.345H409.449L393.367 79.0292L399.51 97.9347L383.428 86.2505L367.346 97.9347L373.489 79.0292L357.407 67.345H377.285L383.428 48.4395Z" fill="#F5C61A"/>
<path d="M454.315 48.4395L460.457 67.345H480.336L464.254 79.0292L470.397 97.9347L454.315 86.2505L438.233 97.9347L444.375 79.0292L428.293 67.345H448.172L454.315 48.4395Z" fill="#F5C61A"/>
<path d="M525.201 50.0575L530.868 67.4995L530.98 67.845H531.343H549.683L534.846 78.6247L534.552 78.8382L534.664 79.1837L540.332 96.6257L525.495 85.846L525.201 85.6324L524.907 85.846L510.07 96.6257L515.737 79.1837L515.849 78.8382L515.555 78.6247L500.718 67.845H519.058H519.421L519.533 67.4995L525.201 50.0575Z" stroke="#F5C61A"/>
<path d="M525.201 85.1519V50.7891L519.929 67.822H500.783L516.05 78.4675L510.546 95.5872L525.201 85.1519Z" fill="#F5C61A"/>
<path d="M219.839 141.643V139.325L230.066 123.143H231.748V126.734H230.611L222.884 138.961V139.143H236.657V141.643H219.839ZM230.793 146.416V140.939V139.859V123.143H233.475V146.416H230.793ZM243.867 143.234L243.685 144.461C243.557 145.325 243.36 146.249 243.094 147.234C242.837 148.219 242.568 149.147 242.288 150.018C242.007 150.89 241.776 151.583 241.594 152.098H239.549C239.647 151.613 239.776 150.973 239.935 150.177C240.094 149.382 240.254 148.492 240.413 147.507C240.579 146.53 240.716 145.53 240.822 144.507L240.958 143.234H243.867ZM255.705 146.734C254.751 146.719 253.796 146.537 252.842 146.189C251.887 145.84 251.016 145.253 250.228 144.427C249.44 143.594 248.807 142.469 248.33 141.052C247.853 139.628 247.614 137.84 247.614 135.689C247.614 133.628 247.807 131.802 248.194 130.211C248.58 128.613 249.141 127.268 249.876 126.177C250.611 125.079 251.497 124.246 252.535 123.677C253.58 123.109 254.758 122.825 256.069 122.825C257.372 122.825 258.531 123.086 259.546 123.609C260.569 124.124 261.402 124.844 262.046 125.768C262.69 126.693 263.107 127.757 263.296 128.961H260.523C260.266 127.916 259.766 127.049 259.023 126.359C258.281 125.67 257.296 125.325 256.069 125.325C254.266 125.325 252.845 126.109 251.807 127.677C250.777 129.246 250.258 131.446 250.251 134.28H250.432C250.857 133.636 251.361 133.086 251.944 132.632C252.535 132.17 253.186 131.814 253.898 131.564C254.611 131.314 255.364 131.189 256.16 131.189C257.493 131.189 258.713 131.522 259.819 132.189C260.925 132.848 261.811 133.761 262.478 134.927C263.145 136.086 263.478 137.416 263.478 138.916C263.478 140.355 263.156 141.674 262.512 142.871C261.868 144.06 260.963 145.007 259.796 145.711C258.637 146.408 257.273 146.749 255.705 146.734ZM255.705 144.234C256.66 144.234 257.516 143.996 258.273 143.518C259.039 143.041 259.641 142.401 260.08 141.598C260.527 140.795 260.751 139.901 260.751 138.916C260.751 137.954 260.535 137.079 260.103 136.291C259.679 135.496 259.092 134.863 258.342 134.393C257.599 133.924 256.751 133.689 255.796 133.689C255.076 133.689 254.406 133.833 253.785 134.121C253.164 134.401 252.618 134.787 252.148 135.28C251.686 135.772 251.323 136.336 251.057 136.973C250.792 137.602 250.66 138.265 250.66 138.961C250.66 139.886 250.876 140.749 251.307 141.552C251.747 142.355 252.345 143.003 253.103 143.496C253.868 143.988 254.736 144.234 255.705 144.234ZM277.947 134.78C277.947 131.916 278.318 129.283 279.06 126.882C279.81 124.473 280.879 122.257 282.265 120.234H284.629C284.083 120.984 283.572 121.908 283.094 123.007C282.625 124.098 282.212 125.299 281.856 126.609C281.5 127.912 281.219 129.261 281.015 130.655C280.818 132.049 280.719 133.424 280.719 134.78C280.719 136.583 280.894 138.412 281.242 140.268C281.591 142.124 282.06 143.848 282.651 145.439C283.242 147.03 283.901 148.325 284.629 149.325H282.265C280.879 147.302 279.81 145.09 279.06 142.689C278.318 140.28 277.947 137.643 277.947 134.78ZM287.995 141.643V139.325L298.222 123.143H299.904V126.734H298.768L291.04 138.961V139.143H304.813V141.643H287.995ZM298.95 146.416V140.939V139.859V123.143H301.631V146.416H298.95ZM309.072 146.416V144.371L316.754 135.961C317.655 134.977 318.397 134.121 318.981 133.393C319.564 132.658 319.996 131.969 320.276 131.325C320.564 130.674 320.708 129.992 320.708 129.28C320.708 128.461 320.511 127.753 320.117 127.155C319.731 126.556 319.2 126.094 318.526 125.768C317.852 125.443 317.094 125.28 316.254 125.28C315.36 125.28 314.579 125.465 313.913 125.836C313.254 126.2 312.742 126.711 312.379 127.371C312.022 128.03 311.844 128.802 311.844 129.689H309.163C309.163 128.325 309.477 127.128 310.106 126.098C310.735 125.068 311.591 124.264 312.674 123.689C313.765 123.113 314.988 122.825 316.344 122.825C317.708 122.825 318.916 123.113 319.969 123.689C321.022 124.264 321.848 125.041 322.447 126.018C323.045 126.996 323.344 128.083 323.344 129.28C323.344 130.136 323.189 130.973 322.879 131.791C322.575 132.602 322.045 133.507 321.288 134.507C320.538 135.499 319.496 136.711 318.163 138.143L312.935 143.734V143.916H323.754V146.416H309.072ZM337.856 146.416V123.143H345.992C347.613 123.143 348.95 123.424 350.004 123.984C351.057 124.537 351.841 125.283 352.356 126.223C352.871 127.155 353.129 128.189 353.129 129.325C353.129 130.325 352.95 131.151 352.594 131.802C352.246 132.454 351.784 132.969 351.208 133.348C350.64 133.727 350.022 134.007 349.356 134.189V134.416C350.068 134.461 350.784 134.711 351.504 135.166C352.223 135.621 352.825 136.272 353.31 137.121C353.795 137.969 354.038 139.007 354.038 140.234C354.038 141.401 353.772 142.45 353.242 143.382C352.712 144.314 351.875 145.052 350.731 145.598C349.587 146.143 348.098 146.416 346.265 146.416H337.856ZM340.674 143.916H346.265C348.106 143.916 349.413 143.56 350.185 142.848C350.966 142.128 351.356 141.257 351.356 140.234C351.356 139.446 351.155 138.719 350.754 138.052C350.352 137.378 349.78 136.84 349.038 136.439C348.295 136.03 347.416 135.825 346.401 135.825H340.674V143.916ZM340.674 133.371H345.901C346.75 133.371 347.515 133.204 348.197 132.871C348.886 132.537 349.432 132.068 349.833 131.461C350.242 130.855 350.447 130.143 350.447 129.325C350.447 128.302 350.091 127.435 349.379 126.723C348.666 126.003 347.538 125.643 345.992 125.643H340.674V133.371ZM365.623 146.78C363.941 146.78 362.49 146.408 361.271 145.666C360.058 144.916 359.123 143.871 358.464 142.53C357.812 141.181 357.486 139.613 357.486 137.825C357.486 136.037 357.812 134.461 358.464 133.098C359.123 131.727 360.039 130.658 361.214 129.893C362.396 129.121 363.774 128.734 365.35 128.734C366.259 128.734 367.157 128.886 368.043 129.189C368.93 129.492 369.736 129.984 370.464 130.666C371.191 131.34 371.771 132.234 372.202 133.348C372.634 134.461 372.85 135.833 372.85 137.461V138.598H359.396V136.28H370.123C370.123 135.295 369.926 134.416 369.532 133.643C369.146 132.871 368.593 132.261 367.873 131.814C367.161 131.367 366.32 131.143 365.35 131.143C364.282 131.143 363.358 131.408 362.577 131.939C361.805 132.461 361.21 133.143 360.793 133.984C360.377 134.825 360.168 135.727 360.168 136.689V138.234C360.168 139.552 360.396 140.67 360.85 141.586C361.312 142.496 361.952 143.189 362.771 143.666C363.589 144.136 364.539 144.371 365.623 144.371C366.327 144.371 366.964 144.272 367.532 144.075C368.108 143.871 368.604 143.568 369.021 143.166C369.437 142.757 369.759 142.249 369.986 141.643L372.577 142.371C372.305 143.249 371.846 144.022 371.202 144.689C370.558 145.348 369.763 145.863 368.816 146.234C367.869 146.598 366.805 146.78 365.623 146.78ZM380.884 146.416L375.566 128.961H378.384L382.157 142.325H382.339L386.066 128.961H388.93L392.611 142.28H392.793L396.566 128.961H399.384L394.066 146.416H391.43L387.611 133.007H387.339L383.521 146.416H380.884ZM409.654 146.78C407.972 146.78 406.521 146.408 405.302 145.666C404.09 144.916 403.154 143.871 402.495 142.53C401.843 141.181 401.518 139.613 401.518 137.825C401.518 136.037 401.843 134.461 402.495 133.098C403.154 131.727 404.071 130.658 405.245 129.893C406.427 129.121 407.806 128.734 409.381 128.734C410.29 128.734 411.188 128.886 412.075 129.189C412.961 129.492 413.768 129.984 414.495 130.666C415.222 131.34 415.802 132.234 416.234 133.348C416.665 134.461 416.881 135.833 416.881 137.461V138.598H403.427V136.28H414.154C414.154 135.295 413.957 134.416 413.563 133.643C413.177 132.871 412.624 132.261 411.904 131.814C411.192 131.367 410.351 131.143 409.381 131.143C408.313 131.143 407.389 131.408 406.609 131.939C405.836 132.461 405.241 133.143 404.825 133.984C404.408 134.825 404.2 135.727 404.2 136.689V138.234C404.2 139.552 404.427 140.67 404.881 141.586C405.343 142.496 405.984 143.189 406.802 143.666C407.62 144.136 408.571 144.371 409.654 144.371C410.359 144.371 410.995 144.272 411.563 144.075C412.139 143.871 412.635 143.568 413.052 143.166C413.468 142.757 413.79 142.249 414.018 141.643L416.609 142.371C416.336 143.249 415.878 144.022 415.234 144.689C414.59 145.348 413.794 145.863 412.847 146.234C411.9 146.598 410.836 146.78 409.654 146.78ZM420.961 146.416V128.961H423.552V131.598H423.734C424.052 130.734 424.628 130.033 425.461 129.496C426.294 128.958 427.234 128.689 428.279 128.689C428.476 128.689 428.722 128.693 429.018 128.7C429.313 128.708 429.537 128.719 429.688 128.734V131.461C429.597 131.439 429.389 131.405 429.063 131.359C428.745 131.306 428.408 131.28 428.052 131.28C427.203 131.28 426.446 131.458 425.779 131.814C425.12 132.162 424.597 132.647 424.211 133.268C423.832 133.882 423.643 134.583 423.643 135.371V146.416H420.961ZM441.552 128.961V131.234H432.506V128.961H441.552ZM435.143 124.78H437.825V141.416C437.825 142.174 437.934 142.742 438.154 143.121C438.381 143.492 438.669 143.742 439.018 143.871C439.374 143.992 439.749 144.052 440.143 144.052C440.438 144.052 440.681 144.037 440.87 144.007C441.059 143.969 441.211 143.939 441.325 143.916L441.87 146.325C441.688 146.393 441.434 146.461 441.109 146.53C440.783 146.605 440.37 146.643 439.87 146.643C439.112 146.643 438.37 146.48 437.643 146.155C436.923 145.829 436.325 145.333 435.847 144.666C435.378 143.999 435.143 143.158 435.143 142.143V124.78ZM456.586 139.28V128.961H459.268V146.416H456.586V143.461H456.404C455.995 144.348 455.359 145.102 454.495 145.723C453.631 146.336 452.54 146.643 451.222 146.643C450.131 146.643 449.162 146.405 448.313 145.927C447.465 145.443 446.798 144.715 446.313 143.746C445.828 142.768 445.586 141.537 445.586 140.052V128.961H448.268V139.871C448.268 141.143 448.624 142.158 449.336 142.916C450.056 143.674 450.972 144.052 452.086 144.052C452.753 144.052 453.431 143.882 454.12 143.541C454.817 143.2 455.4 142.677 455.87 141.973C456.347 141.268 456.586 140.371 456.586 139.28ZM466.861 135.916V146.416H464.18V128.961H466.771V131.689H466.998C467.407 130.802 468.028 130.09 468.861 129.552C469.695 129.007 470.771 128.734 472.089 128.734C473.271 128.734 474.305 128.977 475.191 129.461C476.077 129.939 476.767 130.666 477.259 131.643C477.752 132.613 477.998 133.84 477.998 135.325V146.416H475.316V135.507C475.316 134.136 474.96 133.068 474.248 132.302C473.536 131.53 472.558 131.143 471.316 131.143C470.46 131.143 469.695 131.329 469.021 131.7C468.354 132.071 467.827 132.613 467.441 133.325C467.055 134.037 466.861 134.901 466.861 135.916ZM489.944 153.325C488.648 153.325 487.535 153.158 486.603 152.825C485.671 152.499 484.895 152.068 484.273 151.53C483.66 150.999 483.171 150.431 482.807 149.825L484.944 148.325C485.186 148.643 485.493 149.007 485.864 149.416C486.236 149.833 486.743 150.193 487.387 150.496C488.039 150.806 488.891 150.961 489.944 150.961C491.353 150.961 492.516 150.621 493.432 149.939C494.349 149.257 494.807 148.189 494.807 146.734V143.189H494.58C494.383 143.507 494.103 143.901 493.739 144.371C493.383 144.833 492.868 145.246 492.194 145.609C491.527 145.965 490.626 146.143 489.489 146.143C488.08 146.143 486.815 145.81 485.694 145.143C484.58 144.477 483.698 143.507 483.046 142.234C482.402 140.961 482.08 139.416 482.08 137.598C482.08 135.81 482.395 134.253 483.023 132.927C483.652 131.594 484.527 130.564 485.648 129.836C486.77 129.102 488.065 128.734 489.535 128.734C490.671 128.734 491.573 128.924 492.239 129.302C492.914 129.674 493.429 130.098 493.785 130.575C494.148 131.045 494.429 131.431 494.626 131.734H494.898V128.961H497.489V146.916C497.489 148.416 497.148 149.636 496.467 150.575C495.792 151.522 494.883 152.215 493.739 152.655C492.603 153.102 491.338 153.325 489.944 153.325ZM489.853 143.734C490.929 143.734 491.838 143.488 492.58 142.996C493.323 142.503 493.887 141.795 494.273 140.871C494.66 139.946 494.853 138.84 494.853 137.552C494.853 136.295 494.664 135.185 494.285 134.223C493.906 133.261 493.345 132.507 492.603 131.961C491.861 131.416 490.944 131.143 489.853 131.143C488.717 131.143 487.77 131.431 487.012 132.007C486.262 132.583 485.698 133.355 485.319 134.325C484.948 135.295 484.762 136.371 484.762 137.552C484.762 138.764 484.951 139.836 485.33 140.768C485.717 141.693 486.285 142.42 487.035 142.95C487.792 143.473 488.732 143.734 489.853 143.734ZM509.717 146.78C508.035 146.78 506.584 146.408 505.364 145.666C504.152 144.916 503.217 143.871 502.557 142.53C501.906 141.181 501.58 139.613 501.58 137.825C501.58 136.037 501.906 134.461 502.557 133.098C503.217 131.727 504.133 130.658 505.307 129.893C506.489 129.121 507.868 128.734 509.444 128.734C510.353 128.734 511.251 128.886 512.137 129.189C513.023 129.492 513.83 129.984 514.557 130.666C515.285 131.34 515.864 132.234 516.296 133.348C516.728 134.461 516.944 135.833 516.944 137.461V138.598H503.489V136.28H514.217C514.217 135.295 514.02 134.416 513.626 133.643C513.239 132.871 512.686 132.261 511.967 131.814C511.254 131.367 510.414 131.143 509.444 131.143C508.376 131.143 507.451 131.408 506.671 131.939C505.898 132.461 505.304 133.143 504.887 133.984C504.47 134.825 504.262 135.727 504.262 136.689V138.234C504.262 139.552 504.489 140.67 504.944 141.586C505.406 142.496 506.046 143.189 506.864 143.666C507.682 144.136 508.633 144.371 509.717 144.371C510.421 144.371 511.057 144.272 511.626 144.075C512.201 143.871 512.698 143.568 513.114 143.166C513.531 142.757 513.853 142.249 514.08 141.643L516.671 142.371C516.398 143.249 515.94 144.022 515.296 144.689C514.652 145.348 513.857 145.863 512.91 146.234C511.963 146.598 510.898 146.78 509.717 146.78ZM523.705 135.916V146.416H521.023V128.961H523.614V131.689H523.842C524.251 130.802 524.872 130.09 525.705 129.552C526.539 129.007 527.614 128.734 528.932 128.734C530.114 128.734 531.148 128.977 532.035 129.461C532.921 129.939 533.611 130.666 534.103 131.643C534.595 132.613 534.842 133.84 534.842 135.325V146.416H532.16V135.507C532.16 134.136 531.804 133.068 531.092 132.302C530.379 131.53 529.402 131.143 528.16 131.143C527.304 131.143 526.539 131.329 525.864 131.7C525.198 132.071 524.671 132.613 524.285 133.325C523.898 134.037 523.705 134.901 523.705 135.916ZM545.469 136.598C545.469 139.461 545.094 142.098 544.344 144.507C543.602 146.908 542.538 149.121 541.151 151.143H538.788C539.333 150.393 539.841 149.469 540.31 148.371C540.788 147.28 541.204 146.083 541.56 144.78C541.916 143.469 542.193 142.117 542.39 140.723C542.594 139.321 542.697 137.946 542.697 136.598C542.697 134.795 542.522 132.965 542.174 131.109C541.825 129.253 541.356 127.53 540.765 125.939C540.174 124.348 539.515 123.052 538.788 122.052H541.151C542.538 124.075 543.602 126.291 544.344 128.7C545.094 131.102 545.469 133.734 545.469 136.598Z" fill="white"/>
</svg>
