<svg width="215" height="39" viewBox="0 0 215 39" fill="none" xmlns="http://www.w3.org/2000/svg">
<g clip-path="url(#clip0_1761_54597)">
<path d="M44.1737 12.6697C45.9635 12.6697 47.5467 13.0806 48.9234 13.9023C50.323 14.7241 51.39 15.8996 52.1242 17.429C52.8814 18.9584 53.2486 20.7388 53.2256 22.7704H38.1506C38.2424 24.4824 38.8848 25.8748 40.078 26.9476C41.2712 27.9976 42.7396 28.5227 44.4835 28.5227C45.8602 28.5227 47.0189 28.2145 47.9597 27.5982C48.9234 26.959 49.6232 26.1715 50.0592 25.2356L52.7094 25.5438C52.2275 27.096 51.2294 28.3971 49.715 29.4471C48.2236 30.4971 46.4682 31.0222 44.4491 31.0222C42.6823 31.0222 41.0876 30.6455 39.665 29.8922C38.2653 29.1161 37.164 28.0433 36.3609 26.6737C35.5578 25.2813 35.1562 23.672 35.1562 21.8459C35.1562 20.1339 35.5463 18.5817 36.3265 17.1893C37.1066 15.7969 38.1735 14.7012 39.5273 13.9023C40.904 13.0806 42.4528 12.6697 44.1737 12.6697ZM44.1737 15.1349C42.5446 15.1349 41.1564 15.6371 40.0092 16.6415C38.8848 17.6459 38.2653 18.9241 38.1506 20.4763H50.0936C50.0706 19.472 49.7953 18.5703 49.2676 17.7714C48.7628 16.9496 48.0629 16.3105 47.1681 15.854C46.2962 15.3746 45.298 15.1349 44.1737 15.1349Z" fill="#000004"/>
<path d="M55.2797 5H58.274V30.6798H55.2797V5Z" fill="#000004"/>
<path d="M69.9707 31.0222C68.2039 31.0222 66.5978 30.6227 65.1522 29.8238C63.7067 29.0248 62.5709 27.9292 61.7448 26.5368C60.9188 25.1215 60.5058 23.5579 60.5058 21.8459C60.5058 20.1339 60.9188 18.5817 61.7448 17.1893C62.5709 15.7741 63.7067 14.667 65.1522 13.8681C66.5978 13.0692 68.2039 12.6697 69.9707 12.6697C71.7375 12.6697 73.3322 13.0692 74.7548 13.8681C76.2003 14.667 77.3361 15.7741 78.1621 17.1893C78.9882 18.5817 79.4012 20.1339 79.4012 21.8459C79.4012 23.5579 78.9882 25.1215 78.1621 26.5368C77.3361 27.9292 76.2003 29.0248 74.7548 29.8238C73.3322 30.6227 71.7375 31.0222 69.9707 31.0222ZM69.9707 28.3172C71.1868 28.3172 72.2882 28.0319 73.2748 27.4612C74.2615 26.8906 75.0416 26.1145 75.6152 25.1329C76.1889 24.1286 76.4757 23.0215 76.4757 21.8117C76.4757 20.6019 76.1889 19.5062 75.6152 18.5247C75.0416 17.5431 74.2615 16.7784 73.2748 16.2306C72.2882 15.66 71.1868 15.3746 69.9707 15.3746C68.7546 15.3746 67.6418 15.66 66.6322 16.2306C65.6455 16.7784 64.8654 17.5431 64.2918 18.5247C63.7181 19.5062 63.4313 20.6019 63.4313 21.8117C63.4313 23.0215 63.7181 24.1286 64.2918 25.1329C64.8654 26.1145 65.6455 26.8906 66.6322 27.4612C67.6418 28.0319 68.7546 28.3172 69.9707 28.3172Z" fill="#000004"/>
<path d="M91.6916 12.7039C93.4584 12.7039 95.0072 13.1148 96.338 13.9366C97.6918 14.7355 98.7358 15.8426 99.47 17.2578C100.204 18.6502 100.571 20.2024 100.571 21.9144C100.571 23.6492 100.193 25.2128 99.4356 26.6052C98.7014 27.9748 97.6459 29.0591 96.2692 29.858C94.9154 30.6341 93.3436 31.0222 91.5539 31.0222C90.0166 31.0222 88.6169 30.6569 87.3549 29.9265C86.1159 29.1732 85.1522 28.1346 84.4638 26.8107V38.5549H81.4695V13.0463H84.0164L84.4638 17.0866V17.1551C85.0375 15.7855 85.9553 14.7012 87.2173 13.9023C88.4793 13.1034 89.9707 12.7039 91.6916 12.7039ZM90.9688 28.3515C92.2308 28.3515 93.3551 28.0775 94.3418 27.5297C95.3514 26.959 96.1315 26.1829 96.6822 25.2014C97.2558 24.2199 97.5426 23.1128 97.5426 21.8802C97.5426 20.6247 97.2558 19.5062 96.6822 18.5247C96.1315 17.5431 95.3514 16.7784 94.3418 16.2306C93.3551 15.66 92.2308 15.3746 90.9688 15.3746C89.7298 15.3746 88.6169 15.66 87.6303 16.2306C86.6436 16.8013 85.875 17.5888 85.3243 18.5932C84.7736 19.5747 84.4983 20.6704 84.4983 21.8802C84.4983 23.09 84.7736 24.1856 85.3243 25.1672C85.875 26.1487 86.6436 26.9248 87.6303 27.4955C88.6169 28.0661 89.7298 28.3515 90.9688 28.3515Z" fill="#000004"/>
<path d="M119.098 13.0463H121.679V30.6798H118.65V26.5368C118.099 27.9063 117.182 29.002 115.897 29.8238C114.635 30.6227 113.143 31.0222 111.422 31.0222C109.679 31.0222 108.13 30.6227 106.776 29.8238C105.422 29.002 104.378 27.8949 103.644 26.5025C102.91 25.0873 102.543 23.5237 102.543 21.8117C102.543 20.0769 102.91 18.5133 103.644 17.1208C104.401 15.7284 105.468 14.6442 106.845 13.8681C108.222 13.0692 109.805 12.6697 111.595 12.6697C113.109 12.6697 114.486 13.0463 115.725 13.7996C116.987 14.5529 117.962 15.5801 118.65 16.8812V17.0524L119.098 13.0463ZM112.145 28.3515C113.384 28.3515 114.497 28.0661 115.484 27.4955C116.47 26.9248 117.239 26.1487 117.79 25.1672C118.34 24.1628 118.616 23.0557 118.616 21.8459C118.616 20.6361 118.34 19.5404 117.79 18.5589C117.239 17.5774 116.47 16.8013 115.484 16.2306C114.497 15.66 113.384 15.3746 112.145 15.3746C110.883 15.3746 109.759 15.66 108.772 16.2306C107.786 16.7784 107.005 17.5431 106.432 18.5247C105.881 19.5062 105.606 20.6133 105.606 21.8459C105.606 23.1014 105.881 24.2199 106.432 25.2014C107.005 26.1829 107.786 26.959 108.772 27.5297C109.759 28.0775 110.883 28.3515 112.145 28.3515Z" fill="#000004"/>
<path d="M140.342 13.0463H142.855V29.1047C142.855 32.2776 142.04 34.72 140.411 36.432C138.805 38.144 136.545 39 133.631 39C132.208 39 130.797 38.806 129.397 38.4179C128.02 38.0299 126.839 37.482 125.852 36.7744V34.0695C126.724 34.663 127.78 35.1994 129.019 35.6787C130.258 36.1581 131.611 36.3978 133.08 36.3978C135.237 36.3978 136.9 35.8043 138.07 34.6173C139.264 33.4303 139.86 31.5928 139.86 29.1047V26.5368C139.309 27.9063 138.392 29.002 137.107 29.8238C135.845 30.6227 134.353 31.0222 132.632 31.0222C130.889 31.0222 129.34 30.6227 127.986 29.8238C126.632 29.002 125.588 27.8949 124.854 26.5025C124.12 25.0873 123.753 23.5237 123.753 21.8117C123.753 20.0769 124.12 18.5133 124.854 17.1208C125.611 15.7284 126.678 14.6442 128.055 13.8681C129.432 13.0692 131.015 12.6697 132.805 12.6697C134.319 12.6697 135.696 13.0463 136.935 13.7996C138.197 14.5529 139.172 15.5801 139.86 16.8812V17.0866L140.342 13.0463ZM133.355 28.3515C134.594 28.3515 135.707 28.0661 136.694 27.4955C137.68 26.9248 138.449 26.1487 139 25.1672C139.55 24.1628 139.826 23.0557 139.826 21.8459C139.826 20.6361 139.55 19.5404 139 18.5589C138.449 17.5774 137.68 16.8013 136.694 16.2306C135.707 15.66 134.594 15.3746 133.355 15.3746C132.093 15.3746 130.969 15.66 129.982 16.2306C128.996 16.7784 128.215 17.5431 127.642 18.5247C127.091 19.5062 126.816 20.6133 126.816 21.8459C126.816 23.1014 127.091 24.2199 127.642 25.2014C128.215 26.1829 128.996 26.959 129.982 27.5297C130.969 28.0775 132.093 28.3515 133.355 28.3515Z" fill="#000004"/>
<path d="M153.946 12.6697C155.736 12.6697 157.319 13.0806 158.696 13.9023C160.096 14.7241 161.163 15.8996 161.897 17.429C162.654 18.9584 163.021 20.7388 162.998 22.7704H147.923C148.015 24.4824 148.658 25.8748 149.851 26.9476C151.044 27.9976 152.512 28.5227 154.256 28.5227C155.633 28.5227 156.792 28.2145 157.732 27.5982C158.696 26.959 159.396 26.1715 159.832 25.2356L162.482 25.5438C162 27.096 161.002 28.3971 159.488 29.4471C157.996 30.4971 156.241 31.0222 154.222 31.0222C152.455 31.0222 150.86 30.6455 149.438 29.8922C148.038 29.1161 146.937 28.0433 146.134 26.6737C145.331 25.2813 144.929 23.672 144.929 21.8459C144.929 20.1339 145.319 18.5817 146.099 17.1893C146.879 15.7969 147.946 14.7012 149.3 13.9023C150.677 13.0806 152.226 12.6697 153.946 12.6697ZM153.946 15.1349C152.317 15.1349 150.929 15.6371 149.782 16.6415C148.658 17.6459 148.038 18.9241 147.923 20.4763H159.866C159.843 19.472 159.568 18.5703 159.04 17.7714C158.536 16.9496 157.836 16.3105 156.941 15.854C156.069 15.3746 155.071 15.1349 153.946 15.1349Z" fill="#000004"/>
<path d="M21.1471 32.4653C20.3896 33.2207 19.3427 33.6882 18.1864 33.6875C17.4997 33.6875 16.8523 33.5228 16.2801 33.2304C15.4974 32.8304 14.8575 32.1922 14.4564 31.4116C14.1648 30.8409 13.9996 30.1961 13.9996 29.5119V29.4028C14.0093 29.0095 14.074 28.6296 14.1856 28.2719C14.1856 28.2704 14.1863 28.2689 14.1856 28.2682C14.3865 27.6189 14.4944 26.9287 14.4951 26.2134C14.4951 25.3006 14.3188 24.4287 13.9988 23.6288C13.6439 22.7398 13.1104 21.9413 12.4437 21.2757C11.7771 20.61 10.9757 20.078 10.0843 19.7247C9.28221 19.4057 8.40794 19.2305 7.49274 19.2298C6.77546 19.2298 6.08348 19.3381 5.43242 19.5385C5.43242 19.5385 5.43019 19.5385 5.4287 19.5385C5.07006 19.6498 4.68984 19.7144 4.29474 19.724H4.18537C3.50008 19.724 2.85275 19.56 2.28056 19.2684C1.4978 18.8684 0.857907 18.2302 0.456856 17.4496C0.165182 16.8811 0 16.2355 0 15.5499C0 14.3967 0.468017 13.3526 1.22548 12.5972C1.98293 11.8418 3.03058 11.375 4.18611 11.375H22.2237C22.3056 11.375 22.3725 11.4418 22.3725 11.5234V29.5126C22.3725 30.6658 21.9045 31.7099 21.1463 32.4661L21.1471 32.4653Z" fill="#2BFF99"/>
<path d="M7.66537 30.2169C9.97771 30.2169 11.8522 28.3474 11.8522 26.0412C11.8522 23.7351 9.97771 21.8656 7.66537 21.8656C5.35303 21.8656 3.47852 23.7351 3.47852 26.0412C3.47852 28.3474 5.35303 30.2169 7.66537 30.2169Z" fill="#2BFF99"/>
</g>
<path d="M167 8C167 3.58172 170.582 0 175 0H215V9C215 13.4183 211.418 17 207 17H167V8Z" fill="#2BFF99"/>
<path d="M173.996 12V4.72727H176.589C177.154 4.72727 177.623 4.83026 177.995 5.03622C178.367 5.24219 178.645 5.52391 178.829 5.88139C179.014 6.23651 179.106 6.6366 179.106 7.08168C179.106 7.52912 179.013 7.93158 178.826 8.28906C178.641 8.64418 178.362 8.9259 177.988 9.13423C177.616 9.3402 177.148 9.44318 176.585 9.44318H174.802V8.51278H176.486C176.843 8.51278 177.133 8.45123 177.356 8.32812C177.578 8.20265 177.742 8.0322 177.846 7.81676C177.95 7.60133 178.002 7.3563 178.002 7.08168C178.002 6.80705 177.95 6.56321 177.846 6.35014C177.742 6.13707 177.577 5.97017 177.352 5.84943C177.13 5.72869 176.836 5.66832 176.471 5.66832H175.094V12H173.996ZM181.846 12.1207C181.5 12.1207 181.188 12.0568 180.909 11.929C180.629 11.7988 180.408 11.6106 180.244 11.3643C180.084 11.1181 180.003 10.8163 180.003 10.4588C180.003 10.151 180.062 9.89773 180.181 9.69886C180.299 9.5 180.459 9.34257 180.66 9.22656C180.861 9.11056 181.086 9.02296 181.335 8.96378C181.583 8.90459 181.837 8.85961 182.095 8.82884C182.421 8.79096 182.686 8.76018 182.89 8.73651C183.094 8.71046 183.242 8.66903 183.334 8.61222C183.426 8.5554 183.472 8.46307 183.472 8.33523V8.31037C183.472 8.00024 183.385 7.75994 183.21 7.58949C183.037 7.41903 182.779 7.33381 182.436 7.33381C182.078 7.33381 181.796 7.41312 181.59 7.57173C181.387 7.72798 181.246 7.90199 181.168 8.09375L180.17 7.86648C180.288 7.53504 180.461 7.26752 180.688 7.06392C180.918 6.85795 181.182 6.70881 181.48 6.61648C181.779 6.52178 182.092 6.47443 182.421 6.47443C182.639 6.47443 182.87 6.50047 183.114 6.55256C183.36 6.60227 183.59 6.6946 183.803 6.82955C184.018 6.96449 184.195 7.15743 184.332 7.40838C184.469 7.65696 184.538 7.98011 184.538 8.37784V12H183.501V11.2543H183.458C183.39 11.3916 183.287 11.5265 183.149 11.6591C183.012 11.7917 182.836 11.9018 182.62 11.9893C182.405 12.0769 182.147 12.1207 181.846 12.1207ZM182.077 11.2685C182.37 11.2685 182.621 11.2105 182.83 11.0945C183.04 10.9785 183.2 10.8269 183.309 10.6399C183.42 10.4505 183.476 10.2481 183.476 10.0327V9.32955C183.438 9.36742 183.365 9.40294 183.256 9.43608C183.149 9.46686 183.027 9.49408 182.89 9.51776C182.753 9.53906 182.619 9.55919 182.489 9.57812C182.359 9.5947 182.25 9.6089 182.162 9.62074C181.956 9.64678 181.768 9.69058 181.597 9.75213C181.429 9.81368 181.294 9.90246 181.193 10.0185C181.093 10.1321 181.044 10.2836 181.044 10.473C181.044 10.7358 181.141 10.9347 181.335 11.0696C181.529 11.2022 181.776 11.2685 182.077 11.2685ZM185.952 12V6.54545H186.978V7.41193H187.035C187.135 7.11837 187.31 6.88755 187.561 6.71946C187.814 6.54901 188.1 6.46378 188.42 6.46378C188.486 6.46378 188.565 6.46615 188.654 6.47088C188.747 6.47562 188.819 6.48153 188.871 6.48864V7.50426C188.828 7.49242 188.753 7.4794 188.644 7.4652C188.535 7.44863 188.426 7.44034 188.317 7.44034C188.066 7.44034 187.842 7.49361 187.646 7.60014C187.452 7.70431 187.298 7.84991 187.184 8.03693C187.071 8.22159 187.014 8.43229 187.014 8.66903V12H185.952ZM192.658 6.54545V7.39773H189.679V6.54545H192.658ZM190.478 5.23864H191.54V10.3984C191.54 10.6044 191.571 10.7595 191.632 10.8636C191.694 10.9654 191.773 11.0353 191.87 11.0732C191.969 11.1087 192.077 11.1264 192.193 11.1264C192.278 11.1264 192.353 11.1205 192.417 11.1087C192.481 11.0968 192.531 11.0874 192.566 11.0803L192.758 11.9574C192.696 11.9811 192.609 12.0047 192.495 12.0284C192.381 12.0545 192.239 12.0687 192.069 12.071C191.79 12.0758 191.529 12.026 191.288 11.9219C191.046 11.8177 190.851 11.6567 190.702 11.4389C190.553 11.2211 190.478 10.9477 190.478 10.6186V5.23864ZM194.895 8.76136V12H193.833V6.54545H194.852V7.43324H194.92C195.045 7.14441 195.242 6.91241 195.509 6.73722C195.779 6.56203 196.119 6.47443 196.528 6.47443C196.9 6.47443 197.225 6.55256 197.505 6.70881C197.784 6.86269 198.001 7.09233 198.155 7.39773C198.309 7.70312 198.385 8.08073 198.385 8.53054V12H197.324V8.65838C197.324 8.26302 197.221 7.95407 197.015 7.73153C196.809 7.50663 196.526 7.39418 196.166 7.39418C195.92 7.39418 195.701 7.44744 195.509 7.55398C195.32 7.66051 195.169 7.81676 195.058 8.02273C194.949 8.22633 194.895 8.47254 194.895 8.76136ZM202.16 12.1101C201.623 12.1101 201.16 11.9953 200.772 11.7656C200.386 11.5336 200.088 11.2081 199.877 10.7891C199.669 10.3677 199.564 9.87405 199.564 9.30824C199.564 8.74953 199.669 8.2571 199.877 7.83097C200.088 7.40483 200.381 7.07221 200.758 6.8331C201.136 6.59399 201.579 6.47443 202.086 6.47443C202.394 6.47443 202.692 6.52533 202.981 6.62713C203.269 6.72893 203.529 6.88873 203.758 7.10653C203.988 7.32434 204.169 7.60724 204.302 7.95526C204.434 8.3009 204.501 8.72112 204.501 9.21591V9.59233H200.165V8.79688H203.46C203.46 8.51752 203.403 8.27012 203.29 8.05469C203.176 7.83688 203.016 7.66525 202.81 7.53977C202.607 7.4143 202.367 7.35156 202.093 7.35156C201.795 7.35156 201.534 7.42495 201.312 7.57173C201.091 7.71615 200.921 7.90554 200.8 8.13991C200.682 8.37192 200.623 8.62405 200.623 8.89631V9.51776C200.623 9.88234 200.687 10.1925 200.814 10.4482C200.945 10.7038 201.126 10.8991 201.358 11.0341C201.59 11.1667 201.861 11.233 202.171 11.233C202.372 11.233 202.556 11.2045 202.721 11.1477C202.887 11.0885 203.03 11.0009 203.151 10.8849C203.272 10.7689 203.364 10.6257 203.428 10.4553L204.433 10.6364C204.353 10.9323 204.208 11.1915 204 11.4141C203.794 11.6342 203.535 11.8059 203.222 11.929C202.912 12.0497 202.558 12.1101 202.16 12.1101ZM205.679 12V6.54545H206.705V7.41193H206.762C206.861 7.11837 207.036 6.88755 207.287 6.71946C207.541 6.54901 207.827 6.46378 208.147 6.46378C208.213 6.46378 208.291 6.46615 208.381 6.47088C208.473 6.47562 208.546 6.48153 208.598 6.48864V7.50426C208.555 7.49242 208.479 7.4794 208.37 7.4652C208.261 7.44863 208.153 7.44034 208.044 7.44034C207.793 7.44034 207.569 7.49361 207.373 7.60014C207.178 7.70431 207.025 7.84991 206.911 8.03693C206.797 8.22159 206.74 8.43229 206.74 8.66903V12H205.679Z" fill="black"/>
<defs>
<clipPath id="clip0_1761_54597">
<rect width="163" height="34" fill="white" transform="translate(0 5)"/>
</clipPath>
</defs>
</svg>
