<svg width="25" height="26" viewBox="0 0 25 26" fill="none" xmlns="http://www.w3.org/2000/svg">
<g clip-path="url(#clip0_14715_34990)">
<path d="M13.0539 21.8615L7.92483 21.7639C6.26416 21.7299 4.59936 21.7978 2.97126 21.4456C0.494535 20.9194 0.319075 18.3393 0.135475 16.1751C-0.117507 13.1325 -0.0195703 10.0347 0.45784 7.01747C0.727354 5.3245 1.788 4.31429 3.42825 4.20436C8.96531 3.80541 14.5392 3.85269 20.064 4.03882C20.6475 4.05588 21.235 4.14914 21.8103 4.25529C24.6504 4.77303 24.7196 7.69684 24.9037 10.1581C25.0873 12.6448 25.0098 15.1443 24.6589 17.6141C24.3773 19.659 23.8387 21.3738 21.5655 21.5394C18.7173 21.7559 15.9345 21.9301 13.0783 21.8746C13.0784 21.8615 13.062 21.8615 13.0539 21.8615ZM10.0385 16.6844C12.1848 15.4027 14.2902 14.1424 16.4243 12.8694C14.2739 11.5878 12.1726 10.3275 10.0385 9.05442V16.6844Z" fill="#FF0000"/>
</g>
<defs>
<clipPath id="clip0_14715_34990">
<rect width="25" height="26" fill="white"/>
</clipPath>
</defs>
</svg>
