<svg width="25" height="25" viewBox="0 0 25 25" fill="none" xmlns="http://www.w3.org/2000/svg">
<g clip-path="url(#clip0_14715_34963)">
<path d="M12.4717 4.00318C15.1417 4.00318 15.4583 4.01318 16.5133 4.06152C19.2233 4.18485 20.4892 5.47068 20.6125 8.16068C20.6608 9.21485 20.67 9.53152 20.67 12.2015C20.67 14.8724 20.66 15.1882 20.6125 16.2424C20.4883 18.9298 19.2258 20.2182 16.5133 20.3415C15.4583 20.3898 15.1433 20.3999 12.4717 20.3999C9.80168 20.3999 9.48501 20.3898 8.43085 20.3415C5.71418 20.2174 4.45501 18.9257 4.33168 16.2415C4.28335 15.1874 4.27335 14.8715 4.27335 12.2007C4.27335 9.53068 4.28418 9.21485 4.33168 8.15985C4.45585 5.47068 5.71835 4.18402 8.43085 4.06068C9.48585 4.01318 9.80168 4.00318 12.4717 4.00318ZM12.4717 2.20068C9.75585 2.20068 9.41585 2.21235 8.34918 2.26068C4.71751 2.42735 2.69918 4.44235 2.53251 8.07735C2.48335 9.14485 2.47168 9.48485 2.47168 12.2007C2.47168 14.9165 2.48335 15.2573 2.53168 16.324C2.69835 19.9557 4.71335 21.974 8.34835 22.1407C9.41585 22.189 9.75585 22.2007 12.4717 22.2007C15.1875 22.2007 15.5283 22.189 16.595 22.1407C20.2233 21.974 22.2467 19.959 22.4108 16.324C22.46 15.2573 22.4717 14.9165 22.4717 12.2007C22.4717 9.48485 22.46 9.14485 22.4117 8.07818C22.2483 4.44985 20.2308 2.42818 16.5958 2.26152C15.5283 2.21235 15.1875 2.20068 12.4717 2.20068V2.20068ZM12.4717 7.06568C9.63585 7.06568 7.33668 9.36485 7.33668 12.2007C7.33668 15.0365 9.63585 17.3365 12.4717 17.3365C15.3075 17.3365 17.6067 15.0373 17.6067 12.2007C17.6067 9.36485 15.3075 7.06568 12.4717 7.06568ZM12.4717 15.534C10.6308 15.534 9.13835 14.0423 9.13835 12.2007C9.13835 10.3598 10.6308 8.86735 12.4717 8.86735C14.3125 8.86735 15.805 10.3598 15.805 12.2007C15.805 14.0423 14.3125 15.534 12.4717 15.534ZM17.81 5.66318C17.1467 5.66318 16.6092 6.20068 16.6092 6.86318C16.6092 7.52568 17.1467 8.06318 17.81 8.06318C18.4725 8.06318 19.0092 7.52568 19.0092 6.86318C19.0092 6.20068 18.4725 5.66318 17.81 5.66318Z" fill="url(#paint0_radial_14715_34963)"/>
<path d="M12.4717 4.00318C15.1417 4.00318 15.4583 4.01318 16.5133 4.06152C19.2233 4.18485 20.4892 5.47068 20.6125 8.16068C20.6608 9.21485 20.67 9.53152 20.67 12.2015C20.67 14.8724 20.66 15.1882 20.6125 16.2424C20.4883 18.9298 19.2258 20.2182 16.5133 20.3415C15.4583 20.3898 15.1433 20.3999 12.4717 20.3999C9.80168 20.3999 9.48501 20.3898 8.43085 20.3415C5.71418 20.2174 4.45501 18.9257 4.33168 16.2415C4.28335 15.1874 4.27335 14.8715 4.27335 12.2007C4.27335 9.53068 4.28418 9.21485 4.33168 8.15985C4.45585 5.47068 5.71835 4.18402 8.43085 4.06068C9.48585 4.01318 9.80168 4.00318 12.4717 4.00318ZM12.4717 2.20068C9.75585 2.20068 9.41585 2.21235 8.34918 2.26068C4.71751 2.42735 2.69918 4.44235 2.53251 8.07735C2.48335 9.14485 2.47168 9.48485 2.47168 12.2007C2.47168 14.9165 2.48335 15.2573 2.53168 16.324C2.69835 19.9557 4.71335 21.974 8.34835 22.1407C9.41585 22.189 9.75585 22.2007 12.4717 22.2007C15.1875 22.2007 15.5283 22.189 16.595 22.1407C20.2233 21.974 22.2467 19.959 22.4108 16.324C22.46 15.2573 22.4717 14.9165 22.4717 12.2007C22.4717 9.48485 22.46 9.14485 22.4117 8.07818C22.2483 4.44985 20.2308 2.42818 16.5958 2.26152C15.5283 2.21235 15.1875 2.20068 12.4717 2.20068V2.20068ZM12.4717 7.06568C9.63585 7.06568 7.33668 9.36485 7.33668 12.2007C7.33668 15.0365 9.63585 17.3365 12.4717 17.3365C15.3075 17.3365 17.6067 15.0373 17.6067 12.2007C17.6067 9.36485 15.3075 7.06568 12.4717 7.06568ZM12.4717 15.534C10.6308 15.534 9.13835 14.0423 9.13835 12.2007C9.13835 10.3598 10.6308 8.86735 12.4717 8.86735C14.3125 8.86735 15.805 10.3598 15.805 12.2007C15.805 14.0423 14.3125 15.534 12.4717 15.534ZM17.81 5.66318C17.1467 5.66318 16.6092 6.20068 16.6092 6.86318C16.6092 7.52568 17.1467 8.06318 17.81 8.06318C18.4725 8.06318 19.0092 7.52568 19.0092 6.86318C19.0092 6.20068 18.4725 5.66318 17.81 5.66318Z" fill="url(#paint1_radial_14715_34963)"/>
</g>
<defs>
<radialGradient id="paint0_radial_14715_34963" cx="0" cy="0" r="1" gradientUnits="userSpaceOnUse" gradientTransform="translate(7.78421 23.7411) rotate(-90) scale(19.8215 18.4355)">
<stop stop-color="#FFDD55"/>
<stop offset="0.1" stop-color="#FFDD55"/>
<stop offset="0.5" stop-color="#FF543E"/>
<stop offset="1" stop-color="#C837AB"/>
</radialGradient>
<radialGradient id="paint1_radial_14715_34963" cx="0" cy="0" r="1" gradientUnits="userSpaceOnUse" gradientTransform="translate(-0.878426 3.64145) rotate(78.6806) scale(8.86028 36.5225)">
<stop stop-color="#3771C8"/>
<stop offset="0.128" stop-color="#3771C8"/>
<stop offset="1" stop-color="#6600FF" stop-opacity="0"/>
</radialGradient>
<clipPath id="clip0_14715_34963">
<rect width="20" height="20" fill="white" transform="translate(2.47168 2.20068)"/>
</clipPath>
</defs>
</svg>
