<svg width="32" height="32" viewBox="0 0 32 32" fill="none" xmlns="http://www.w3.org/2000/svg">
<path fill-rule="evenodd" clip-rule="evenodd" d="M16.2 5.4C10.2353 5.4 5.4 10.2353 5.4 16.2C5.4 22.1647 10.2353 27 16.2 27C22.1647 27 27 22.1647 27 16.2C27 10.2353 22.1647 5.4 16.2 5.4ZM3 16.2C3 8.90984 8.90984 3 16.2 3C23.4902 3 29.4 8.90984 29.4 16.2C29.4 23.4902 23.4902 29.4 16.2 29.4C8.90984 29.4 3 23.4902 3 16.2ZM17.4 9.2C17.4 8.53726 16.8627 8 16.2 8C15.5373 8 15 8.53726 15 9.2V10H14.7C13.7187 10 12.7776 10.3898 12.0837 11.0837C11.3898 11.7776 11 12.7187 11 13.7C11 14.6813 11.3898 15.6224 12.0837 16.3163C12.7776 17.0102 13.7187 17.4 14.7 17.4H17.7C18.0448 17.4 18.3754 17.537 18.6192 17.7808C18.863 18.0246 19 18.3552 19 18.7C19 19.0448 18.863 19.3754 18.6192 19.6192C18.3754 19.863 18.0448 20 17.7 20H13.2C12.5373 20 12 20.5373 12 21.2C12 21.8627 12.5373 22.4 13.2 22.4H15V23.2C15 23.8627 15.5373 24.4 16.2 24.4C16.8627 24.4 17.4 23.8627 17.4 23.2V22.4H17.7C18.6813 22.4 19.6224 22.0102 20.3163 21.3163C21.0102 20.6224 21.4 19.6813 21.4 18.7C21.4 17.7187 21.0102 16.7776 20.3163 16.0837C19.6224 15.3898 18.6813 15 17.7 15H14.7C14.3552 15 14.0246 14.863 13.7808 14.6192C13.537 14.3754 13.4 14.0448 13.4 13.7C13.4 13.3552 13.537 13.0246 13.7808 12.7808C14.0246 12.537 14.3552 12.4 14.7 12.4H16.2H19.2C19.8627 12.4 20.4 11.8627 20.4 11.2C20.4 10.5373 19.8627 10 19.2 10H17.4V9.2Z" fill="#000004"/>
</svg>
