<svg width="28" height="29" viewBox="0 0 28 29" fill="none" xmlns="http://www.w3.org/2000/svg">
<path d="M14 25C19.799 25 24.5 20.299 24.5 14.5C24.5 8.70101 19.799 4 14 4C8.20101 4 3.5 8.70101 3.5 14.5C3.5 20.299 8.20101 25 14 25Z" stroke="#000004" stroke-width="1.5" stroke-linecap="round" stroke-linejoin="round"/>
<path d="M10.0625 13.4062C10.6666 13.4062 11.1562 12.9166 11.1562 12.3125C11.1562 11.7084 10.6666 11.2188 10.0625 11.2188C9.45844 11.2188 8.96875 11.7084 8.96875 12.3125C8.96875 12.9166 9.45844 13.4062 10.0625 13.4062Z" fill="#000004"/>
<path d="M17.9375 13.4062C18.5416 13.4062 19.0312 12.9166 19.0312 12.3125C19.0312 11.7084 18.5416 11.2188 17.9375 11.2188C17.3334 11.2188 16.8438 11.7084 16.8438 12.3125C16.8438 12.9166 17.3334 13.4062 17.9375 13.4062Z" fill="#000004"/>
<path d="M18.5502 17.125C18.0876 17.9219 17.4239 18.5833 16.6254 19.0431C15.8269 19.5029 14.9216 19.7449 14.0002 19.7449C13.0788 19.7449 12.1735 19.5029 11.375 19.0431C10.5765 18.5833 9.91275 17.9219 9.4502 17.125" stroke="#000004" stroke-width="1.5" stroke-linecap="round" stroke-linejoin="round"/>
</svg>
