<svg width="48" height="48" viewBox="0 0 48 48" fill="none" xmlns="http://www.w3.org/2000/svg">
<g clip-path="url(#clip0_534_5078)">
<circle cx="24" cy="24" r="24" fill="#F0F1F6"/>
<path d="M24 33C28.9706 33 33 28.9706 33 24C33 19.0294 28.9706 15 24 15C19.0294 15 15 19.0294 15 24C15 28.9706 19.0294 33 24 33Z" stroke="#21282E" stroke-width="1.5" stroke-linecap="round" stroke-linejoin="round"/>
<path d="M21.5 22.125C21.5 22.6082 21.1082 23 20.625 23C20.1418 23 19.75 22.6082 19.75 22.125C19.75 21.6418 20.1418 21.25 20.625 21.25C21.1082 21.25 21.5 21.6418 21.5 22.125Z" fill="#21282E" stroke="#21282E" stroke-width="0.125"/>
<path d="M28.25 22.125C28.25 22.6082 27.8582 23 27.375 23C26.8918 23 26.5 22.6082 26.5 22.125C26.5 21.6418 26.8918 21.25 27.375 21.25C27.8582 21.25 28.25 21.6418 28.25 22.125Z" fill="#21282E" stroke="#21282E" stroke-width="0.125"/>
<path d="M27.8996 26.25C27.5031 26.9331 26.9342 27.5 26.2498 27.8941C25.5653 28.2882 24.7894 28.4956 23.9996 28.4956C23.2098 28.4956 22.4339 28.2882 21.7494 27.8941C21.065 27.5 20.4961 26.9331 20.0996 26.25" stroke="#21282E" stroke-width="1.5" stroke-linecap="round" stroke-linejoin="round"/>
</g>
<defs>
<clipPath id="clip0_534_5078">
<rect width="48" height="48" fill="white"/>
</clipPath>
</defs>
</svg>
