<svg xmlns="http://www.w3.org/2000/svg" width="111" height="28" viewBox="0 0 111 28" fill="none"><path d="M0.419922 22.6255L1.50334 18.5867H15.8562C16.5354 18.5867 17.1682 18.0334 17.2643 17.3509C17.3107 17.0129 17.2146 16.675 16.9959 16.4265C16.7971 16.1979 16.5254 16.072 16.2273 16.072H7.04635C5.63823 16.072 4.41234 15.5352 3.59398 14.5644C2.77893 13.5904 2.46417 12.2883 2.71267 10.8934C3.28585 7.70278 5.97618 5.68172 8.85205 5.68172H23.8609L22.7775 9.72052H8.22917C7.59966 9.72052 7.02316 10.2274 6.82768 10.953C6.75147 11.2479 6.81111 11.5428 6.99665 11.788C7.19544 12.0464 7.5102 12.1988 7.83489 12.1988H17.0622C18.4769 12.1988 19.6995 12.7355 20.5146 13.7129C21.3263 14.687 21.6079 15.9924 21.376 17.3972C20.8525 20.5481 18.404 22.6255 15.1836 22.6255H0.419922Z" fill="#454B50"></path><path d="M77.5388 5.68172C72.5027 5.68172 70.4088 8.2859 69.0271 13.4545L66.5654 22.6255H70.9322L73.3708 13.4545C73.8876 11.5196 75.1301 9.72052 77.5388 9.72052H82.671L83.7345 5.68172H77.5388Z" fill="#454B50"></path><path d="M96.559 5.6822H89.8034L91.3241 4.19617e-05H86.9606L80.8975 22.626H85.2643L88.7166 9.7177H95.4789L96.559 5.6822Z" fill="#454B50"></path><path d="M40.0521 13.1005L39.4193 15.4661C38.972 17.1293 37.4977 18.5872 35.4435 18.5872H27.2466L29.6221 9.721H37.7031C40.5789 9.721 40.2609 12.3418 40.0521 13.1005ZM37.7031 5.68219H30.7056H26.3387L20.3584 28H24.7252L26.1665 22.626H35.4435C39.4293 22.626 42.4642 20.1112 43.4382 16.5131L44.0744 14.1441C45.0385 10.5692 44.0446 5.68219 37.7031 5.68219Z" fill="#454B50"></path><path d="M62.9639 13.1L62.3311 15.4656C61.8838 17.1289 60.4094 18.5867 58.3552 18.5867H52.1264C49.2538 18.5867 49.5719 15.9692 49.7806 15.2072L50.4134 12.8416C50.8574 11.1783 52.4014 9.72052 54.3893 9.72052H60.6148C63.4907 9.72052 63.1726 12.3413 62.9639 13.1ZM60.6148 5.68172H54.3893C50.6553 5.68172 47.3686 8.19644 46.3912 11.7979L45.7584 14.1635C44.7909 17.7418 45.6855 22.6255 52.1264 22.6255H58.3552C62.341 22.6255 65.3759 20.1108 66.35 16.5126L66.9861 14.1437C67.9503 10.5687 66.9563 5.68172 60.6148 5.68172Z" fill="#454B50"></path><path d="M106.134 0.00286865C105.021 3.36909 101.847 5.68172 98.2687 5.68172L97.2383 9.72052H102.095L98.6331 22.6255H104.415L110.557 0.00286865H106.134Z" fill="#454B50"></path></svg>