<svg width="566" height="566" viewBox="0 0 566 566" fill="none" xmlns="http://www.w3.org/2000/svg">
<g clip-path="url(#clip0_1067_25648)">
<circle cx="283" cy="283" r="283" fill="#21282E"/>
<path d="M156.994 250.288C155.713 255.65 154.193 260.932 152.512 266.134L91.6906 266.694C88.8096 267.254 86.9689 269.975 87.5291 272.856C87.9292 274.937 89.6099 276.618 91.6906 277.018L133.305 276.538C138.107 277.098 142.349 279.819 144.83 283.9C147.39 288.142 147.631 293.504 146.51 298.305C144.99 304.388 141.468 309.83 136.427 313.591C134.026 315.432 131.385 316.872 128.504 317.832H62L66.8017 301.026L126.583 301.106C129.064 300.546 130.504 298.065 129.944 295.665C129.544 293.984 128.264 292.703 126.583 292.303H85.8485C80.6467 291.103 76.165 287.742 73.5241 283.1C71.7635 279.899 70.8832 276.298 71.1232 272.616C71.4434 266.534 74.5645 260.692 79.0461 256.531C83.1275 252.769 88.2494 250.288 93.6913 249.408L157.234 249.168C157.154 249.648 157.074 249.968 156.994 250.288Z" fill="white"/>
<path d="M166.597 249.968L142.589 339.2H160.275L166.597 317.432L206.612 317.672C215.175 317.112 222.057 313.831 227.499 307.268C231.901 301.907 235.182 294.384 238.063 284.62C240.064 277.738 239.823 269.735 236.862 263.173C235.422 260.052 233.341 257.251 230.62 255.01C227.099 252.209 222.457 250.368 216.535 249.968H166.597ZM214.694 265.654C218.536 266.214 220.777 268.535 221.817 271.816C222.777 274.937 222.617 278.938 221.737 283.02C221.177 286.221 220.136 289.262 218.616 292.063C217.896 293.343 216.935 294.544 215.895 295.584C214.214 297.265 210.933 300.866 206.211 301.346L170.999 301.426L179.962 265.894L214.694 265.654Z" fill="white"/>
<path d="M275.516 249.568C272.875 250.048 270.314 250.848 267.833 251.889C263.272 254.049 259.11 256.931 255.589 260.532C250.627 266.614 247.106 273.736 245.105 281.339C242.865 289.822 242.945 298.545 246.786 305.428C249.747 310.79 254.949 315.191 262.952 317.512H297.684C303.126 318.152 308.888 315.912 313.69 312.23C317.691 309.189 321.773 305.908 323.773 301.907C325.934 297.185 327.855 292.303 329.455 287.341C331.936 279.579 332.416 271.656 329.055 264.613C326.014 258.211 320.492 252.689 310.889 249.648L275.516 249.568ZM276.316 265.494H306.807C309.368 266.294 311.529 268.134 312.809 270.615C314.25 273.336 314.57 276.778 314.17 280.299C313.29 286.381 310.729 291.983 306.807 296.625C305.767 297.745 304.647 298.785 303.366 299.666C302.166 300.546 300.725 301.106 299.285 301.426L267.113 301.586C265.433 301.506 263.832 300.706 262.712 299.346C261.591 297.905 260.951 296.225 260.711 294.464C260.071 290.623 260.791 285.661 262.552 280.939C263.832 277.338 265.833 273.977 268.394 271.096C270.474 268.535 273.195 266.614 276.316 265.494Z" fill="white"/>
<path d="M328.735 317.592L345.141 317.752L356.105 277.898C358.186 272.056 362.987 267.654 368.909 265.894L392.038 265.734L396.279 250.848L366.589 250.608C356.345 251.569 347.462 257.971 343.38 267.334L328.735 317.592Z" fill="white"/>
<path d="M386.516 317.672L410.844 227.88H426.85L421.408 249.568L449.098 249.808L444.376 265.654L417.567 265.494L402.762 317.672H386.516Z" fill="white"/>
<path d="M457.581 317.592L480.309 317.752L504.638 227.16L487.752 227C483.59 238.764 473.427 247.487 461.102 249.728H455.82L452.139 265.574L471.666 265.734L457.581 317.592Z" fill="white"/>
</g>
<defs>
<clipPath id="clip0_1067_25648">
<rect width="566" height="566" fill="white"/>
</clipPath>
</defs>
</svg>
