<svg width="111" height="28" viewBox="0 0 111 28" fill="none" xmlns="http://www.w3.org/2000/svg">
<path d="M0.419922 22.6257L1.50334 18.5869H15.8562C16.5354 18.5869 17.1682 18.0336 17.2643 17.351C17.3107 17.0131 17.2146 16.6751 16.9959 16.4266C16.7971 16.198 16.5254 16.0721 16.2273 16.0721H7.04635C5.63823 16.0721 4.41234 15.5354 3.59398 14.5646C2.77893 13.5905 2.46417 12.2884 2.71267 10.8936C3.28585 7.70296 5.97618 5.6819 8.85205 5.6819H23.8609L22.7775 9.72071H8.22917C7.59966 9.72071 7.02316 10.2276 6.82768 10.9532C6.75147 11.2481 6.81111 11.543 6.99665 11.7882C7.19544 12.0466 7.5102 12.199 7.83489 12.199H17.0622C18.4769 12.199 19.6995 12.7357 20.5146 13.7131C21.3263 14.6872 21.6079 15.9926 21.376 17.3974C20.8525 20.5483 18.404 22.6257 15.1836 22.6257H0.419922Z" fill="#9B9B9F"/>
<path d="M77.5388 5.6819C72.5027 5.6819 70.4088 8.28609 69.0271 13.4547L66.5654 22.6257H70.9322L73.3708 13.4547C73.8876 11.5198 75.1301 9.72071 77.5388 9.72071H82.671L83.7345 5.6819H77.5388Z" fill="#9B9B9F"/>
<path d="M96.559 5.68208H89.8034L91.3241 -8.01086e-05H86.9606L80.8975 22.6259H85.2643L88.7166 9.71758H95.4789L96.559 5.68208Z" fill="#9B9B9F"/>
<path d="M40.0521 13.1005L39.4193 15.4661C38.972 17.1293 37.4977 18.5872 35.4435 18.5872H27.2466L29.6221 9.721H37.7031C40.5789 9.721 40.2609 12.3418 40.0521 13.1005ZM37.7031 5.68219H30.7056H26.3387L20.3584 28H24.7252L26.1665 22.626H35.4435C39.4293 22.626 42.4642 20.1112 43.4382 16.5131L44.0744 14.1441C45.0385 10.5692 44.0446 5.68219 37.7031 5.68219Z" fill="#9B9B9F"/>
<path d="M62.9634 13.1002L62.3306 15.4658C61.8833 17.1291 60.4089 18.5869 58.3547 18.5869H52.1259C49.2533 18.5869 49.5714 15.9694 49.7801 15.2074L50.413 12.8418C50.8569 11.1785 52.4009 9.72071 54.3888 9.72071H60.6143C63.4902 9.72071 63.1721 12.3415 62.9634 13.1002ZM60.6143 5.6819H54.3888C50.6548 5.6819 47.3681 8.19663 46.3907 11.7981L45.7579 14.1637C44.7904 17.742 45.685 22.6257 52.1259 22.6257H58.3547C62.3405 22.6257 65.3754 20.1109 66.3495 16.5128L66.9857 14.1438C67.9498 10.5689 66.9558 5.6819 60.6143 5.6819Z" fill="#9B9B9F"/>
<path d="M106.134 0.00305176C105.021 3.36928 101.847 5.6819 98.2687 5.6819L97.2383 9.72071H102.095L98.6331 22.6257H104.415L110.557 0.00305176H106.134Z" fill="#9B9B9F"/>
</svg>
