<svg width="24" height="25" viewBox="0 0 24 25" fill="none" xmlns="http://www.w3.org/2000/svg">
<path d="M9 5.66174V19.1617" stroke="#FAFAFC" stroke-width="1.5" stroke-linecap="round" stroke-linejoin="round"/>
<path d="M2.25001 16.0867C2.24906 15.914 2.3085 15.7464 2.41807 15.6129C2.52763 15.4793 2.68042 15.3883 2.85001 15.3555C3.52456 15.2123 4.12946 14.8417 4.56349 14.3059C4.99752 13.77 5.23435 13.1013 5.23435 12.4117C5.23435 11.7222 4.99752 11.0535 4.56349 10.5176C4.12946 9.98176 3.52456 9.61122 2.85001 9.46799C2.68042 9.4352 2.52763 9.34416 2.41807 9.21063C2.3085 9.0771 2.24906 8.90947 2.25001 8.73674V6.41174C2.25001 6.21283 2.32903 6.02207 2.46968 5.88141C2.61033 5.74076 2.8011 5.66174 3.00001 5.66174H21C21.1989 5.66174 21.3897 5.74076 21.5303 5.88141C21.671 6.02207 21.75 6.21283 21.75 6.41174V8.73674C21.751 8.90947 21.6915 9.0771 21.582 9.21063C21.4724 9.34416 21.3196 9.4352 21.15 9.46799C20.4755 9.61122 19.8706 9.98176 19.4365 10.5176C19.0025 11.0535 18.7657 11.7222 18.7657 12.4117C18.7657 13.1013 19.0025 13.77 19.4365 14.3059C19.8706 14.8417 20.4755 15.2123 21.15 15.3555C21.3196 15.3883 21.4724 15.4793 21.582 15.6129C21.6915 15.7464 21.751 15.914 21.75 16.0867V18.4117C21.75 18.6107 21.671 18.8014 21.5303 18.9421C21.3897 19.0827 21.1989 19.1617 21 19.1617H3.00001C2.8011 19.1617 2.61033 19.0827 2.46968 18.9421C2.32903 18.8014 2.25001 18.6107 2.25001 18.4117V16.0867Z" stroke="#FAFAFC" stroke-width="1.5" stroke-linecap="round" stroke-linejoin="round"/>
</svg>
