<svg width="20" height="21" viewBox="0 0 20 21" fill="none" xmlns="http://www.w3.org/2000/svg">
<path d="M7.5 4.875V16.125" stroke="#21282E" stroke-width="1.5" stroke-linecap="round" stroke-linejoin="round"/>
<path d="M1.87501 13.5625C1.87421 13.4186 1.92375 13.2789 2.01506 13.1676C2.10636 13.0563 2.23369 12.9805 2.37501 12.9531C2.93713 12.8338 3.44122 12.525 3.80291 12.0784C4.1646 11.6319 4.36196 11.0747 4.36196 10.5C4.36196 9.92534 4.1646 9.36812 3.80291 8.92157C3.44122 8.47502 2.93713 8.16623 2.37501 8.04687C2.23369 8.01955 2.10636 7.94368 2.01506 7.83241C1.92375 7.72113 1.87421 7.58144 1.87501 7.4375V5.5C1.87501 5.33424 1.94086 5.17527 2.05807 5.05806C2.17528 4.94085 2.33425 4.875 2.50001 4.875H17.5C17.6658 4.875 17.8247 4.94085 17.942 5.05806C18.0592 5.17527 18.125 5.33424 18.125 5.5V7.4375C18.1258 7.58144 18.0763 7.72113 17.985 7.83241C17.8937 7.94368 17.7663 8.01955 17.625 8.04687C17.0629 8.16623 16.5588 8.47502 16.1971 8.92157C15.8354 9.36812 15.6381 9.92534 15.6381 10.5C15.6381 11.0747 15.8354 11.6319 16.1971 12.0784C16.5588 12.525 17.0629 12.8338 17.625 12.9531C17.7663 12.9805 17.8937 13.0563 17.985 13.1676C18.0763 13.2789 18.1258 13.4186 18.125 13.5625V15.5C18.125 15.6658 18.0592 15.8247 17.942 15.9419C17.8247 16.0592 17.6658 16.125 17.5 16.125H2.50001C2.33425 16.125 2.17528 16.0592 2.05807 15.9419C1.94086 15.8247 1.87501 15.6658 1.87501 15.5V13.5625Z" stroke="#21282E" stroke-width="1.5" stroke-linecap="round" stroke-linejoin="round"/>
</svg>
