<svg width="32" height="32" viewBox="0 0 32 32" fill="none" xmlns="http://www.w3.org/2000/svg">
<path d="M16 23.5032C18.7614 23.5032 21 21.1946 21 18.3469C21 15.4992 18.7614 13.1907 16 13.1907C13.2386 13.1907 11 15.4992 11 18.3469C11 21.1946 13.2386 23.5032 16 23.5032Z" stroke="#000004" stroke-width="2.4" stroke-linecap="round" stroke-linejoin="round"/>
<path d="M24.5 15.2532C25.6647 15.2512 26.8137 15.5299 27.8554 16.067C28.8972 16.6041 29.8028 17.3849 30.5 18.3469" stroke="#000004" stroke-width="2.4" stroke-linecap="round" stroke-linejoin="round"/>
<path d="M1.5 18.3469C2.19725 17.3849 3.10285 16.6041 4.14457 16.067C5.1863 15.5299 6.33532 15.2512 7.5 15.2532" stroke="#000004" stroke-width="2.4" stroke-linecap="round" stroke-linejoin="round"/>
<path d="M8.79688 28.1434C9.4554 26.7526 10.4795 25.5806 11.7524 24.7607C13.0254 23.9408 14.496 23.5061 15.9969 23.5061C17.4977 23.5061 18.9684 23.9408 20.2413 24.7607C21.5143 25.5806 22.5383 26.7526 23.1969 28.1434" stroke="#000004" stroke-width="2.4" stroke-linecap="round" stroke-linejoin="round"/>
<path d="M7.50406 15.2532C6.74486 15.254 6.00112 15.0319 5.35975 14.613C4.71837 14.1941 4.20584 13.5956 3.88204 12.8875C3.55825 12.1793 3.43656 11.3908 3.5312 10.614C3.62584 9.83714 3.9329 9.10414 4.4165 8.50061C4.9001 7.89707 5.54027 7.44792 6.2622 7.20565C6.98413 6.96337 7.75802 6.93797 8.49343 7.13242C9.22884 7.32686 9.8954 7.73312 10.4152 8.30372C10.9351 8.87432 11.2867 9.5857 11.4291 10.3547" stroke="#000004" stroke-width="2.4" stroke-linecap="round" stroke-linejoin="round"/>
<path d="M20.5781 10.3547C20.7205 9.5857 21.0721 8.87432 21.5919 8.30372C22.1118 7.73312 22.7783 7.32686 23.5138 7.13242C24.2492 6.93797 25.0231 6.96337 25.745 7.20565C26.4669 7.44792 27.1071 7.89707 27.5907 8.50061C28.0743 9.10414 28.3813 9.83714 28.476 10.614C28.5706 11.3908 28.4489 12.1793 28.1251 12.8875C27.8013 13.5956 27.2888 14.1941 26.6474 14.613C26.0061 15.0319 25.2623 15.254 24.5031 15.2532" stroke="#000004" stroke-width="2.4" stroke-linecap="round" stroke-linejoin="round"/>
</svg>
