<svg width="24" height="25" viewBox="0 0 24 25" fill="none" xmlns="http://www.w3.org/2000/svg">
<g clip-path="url(#clip0_619_265024)">
<path d="M19.5 4.44531H4.5C4.08579 4.44531 3.75 4.7811 3.75 5.19531V20.1953C3.75 20.6095 4.08579 20.9453 4.5 20.9453H19.5C19.9142 20.9453 20.25 20.6095 20.25 20.1953V5.19531C20.25 4.7811 19.9142 4.44531 19.5 4.44531Z" stroke="#FAFAFC" stroke-width="1.5" stroke-linecap="round" stroke-linejoin="round"/>
<path d="M16.5 2.94531V5.94531" stroke="#FAFAFC" stroke-width="1.5" stroke-linecap="round" stroke-linejoin="round"/>
<path d="M7.5 2.94531V5.94531" stroke="#FAFAFC" stroke-width="1.5" stroke-linecap="round" stroke-linejoin="round"/>
<path d="M3.75 8.94531H20.25" stroke="#FAFAFC" stroke-width="1.5" stroke-linecap="round" stroke-linejoin="round"/>
<path d="M8.625 12.6953H11.25L9.75 14.5703C9.99686 14.5699 10.24 14.6304 10.4579 14.7465C10.6757 14.8626 10.8616 15.0306 10.999 15.2357C11.1363 15.4409 11.2209 15.6767 11.2453 15.9224C11.2696 16.168 11.2329 16.4159 11.1385 16.644C11.0441 16.8721 10.8949 17.0733 10.704 17.2299C10.5132 17.3865 10.2866 17.4936 10.0445 17.5416C9.80236 17.5897 9.5521 17.5772 9.31593 17.5054C9.07976 17.4335 8.86497 17.3045 8.69062 17.1297" stroke="#FAFAFC" stroke-width="1.5" stroke-linecap="round" stroke-linejoin="round"/>
<path d="M13.5 13.8203L15 12.6953V17.5703" stroke="#FAFAFC" stroke-width="1.5" stroke-linecap="round" stroke-linejoin="round"/>
</g>
<defs>
<clipPath id="clip0_619_265024">
<rect width="24" height="24" fill="white" transform="translate(0 0.695312)"/>
</clipPath>
</defs>
</svg>
