<svg width="24" height="25" viewBox="0 0 24 25" fill="none" xmlns="http://www.w3.org/2000/svg">
<g clip-path="url(#clip0_619_265023)">
<path d="M9.75 17.1953C11.4069 17.1953 12.75 15.8522 12.75 14.1953C12.75 12.5385 11.4069 11.1953 9.75 11.1953C8.09315 11.1953 6.75 12.5385 6.75 14.1953C6.75 15.8522 8.09315 17.1953 9.75 17.1953Z" stroke="#FAFAFC" stroke-width="1.5" stroke-linecap="round" stroke-linejoin="round"/>
<path d="M5.00625 20.1953C5.43196 19.2975 6.1037 18.5389 6.94343 18.0078C7.78315 17.4766 8.75638 17.1946 9.75 17.1946C10.7436 17.1946 11.7168 17.4766 12.5566 18.0078C13.3963 18.5389 14.068 19.2975 14.4938 20.1953H20.25C20.4489 20.1953 20.6397 20.1163 20.7803 19.9756C20.921 19.835 21 19.6442 21 19.4453V5.94531C21 5.7464 20.921 5.55563 20.7803 5.41498C20.6397 5.27433 20.4489 5.19531 20.25 5.19531H3.75C3.55109 5.19531 3.36032 5.27433 3.21967 5.41498C3.07902 5.55563 3 5.7464 3 5.94531V19.4453C3 19.6442 3.07902 19.835 3.21967 19.9756C3.36032 20.1163 3.55109 20.1953 3.75 20.1953H5.00625Z" stroke="#FAFAFC" stroke-width="1.5" stroke-linecap="round" stroke-linejoin="round"/>
<path d="M16.5 17.1953H18V8.19531H6V9.69531" stroke="#FAFAFC" stroke-width="1.5" stroke-linecap="round" stroke-linejoin="round"/>
</g>
<defs>
<clipPath id="clip0_619_265023">
<rect width="24" height="24" fill="white" transform="translate(0 0.695312)"/>
</clipPath>
</defs>
</svg>
