<svg width="82" height="60" viewBox="0 0 82 60" fill="none" xmlns="http://www.w3.org/2000/svg">
<g clip-path="url(#clip0_619_265018)">
<g filter="url(#filter0_dd_619_265018)">
<path d="M11.4375 59.6953L33.9487 59.6953C37.8747 59.6953 41.0575 56.5126 41.0575 52.5865L41.0575 30.0754L18.5463 30.0754C14.6202 30.0754 11.4375 33.2581 11.4375 37.1841L11.4375 59.6953Z" fill="#2BFF99"/>
<path d="M11.4375 59.6953L33.9487 59.6953C37.8747 59.6953 41.0575 56.5126 41.0575 52.5865L41.0575 30.0754L18.5463 30.0754C14.6202 30.0754 11.4375 33.2581 11.4375 37.1841L11.4375 59.6953Z" fill="black" fill-opacity="0.45"/>
</g>
<g filter="url(#filter1_dd_619_265018)">
<path d="M0.398438 40.8369L19.8937 52.0925C23.2938 54.0555 27.6414 52.8906 29.6045 49.4905L40.86 29.9953L21.3648 18.7397C17.9647 16.7766 13.6171 17.9416 11.654 21.3417L0.398438 40.8369Z" fill="#2BFF99"/>
<path d="M0.398438 40.8369L19.8937 52.0925C23.2938 54.0555 27.6414 52.8906 29.6045 49.4905L40.86 29.9953L21.3648 18.7397C17.9647 16.7766 13.6171 17.9416 11.654 21.3417L0.398438 40.8369Z" fill="black" fill-opacity="0.35"/>
</g>
<g filter="url(#filter2_dd_619_265018)">
<path d="M0.398438 19.0586L11.654 38.5538C13.6171 41.9539 17.9647 43.1189 21.3648 41.1558L40.86 29.9002L29.6045 10.405C27.6414 7.00493 23.2938 5.83997 19.8937 7.80301L0.398438 19.0586Z" fill="#2BFF99"/>
<path d="M0.398438 19.0586L11.654 38.5538C13.6171 41.9539 17.9647 43.1189 21.3648 41.1558L40.86 29.9002L29.6045 10.405C27.6414 7.00493 23.2938 5.83997 19.8937 7.80301L0.398438 19.0586Z" fill="black" fill-opacity="0.25"/>
</g>
<g filter="url(#filter3_dd_619_265018)">
<path d="M11.4375 0.464844L11.4375 22.976C11.4375 26.9021 14.6202 30.0848 18.5463 30.0848L41.0575 30.0848L41.0575 7.57363C41.0575 3.64756 37.8747 0.464843 33.9487 0.464843L11.4375 0.464844Z" fill="#2BFF99"/>
</g>
<g filter="url(#filter4_dd_619_265018)">
<path d="M70.5635 0.304688L48.0523 0.304691C44.1262 0.304692 40.9435 3.48741 40.9435 7.41348L40.9435 29.9246L63.4547 29.9246C67.3808 29.9246 70.5635 26.7419 70.5635 22.8159L70.5635 0.304688Z" fill="#2BFF99"/>
<path d="M70.5635 0.304688L48.0523 0.304691C44.1262 0.304692 40.9435 3.48741 40.9435 7.41348L40.9435 29.9246L63.4547 29.9246C67.3808 29.9246 70.5635 26.7419 70.5635 22.8159L70.5635 0.304688Z" fill="black" fill-opacity="0.45"/>
</g>
<g filter="url(#filter5_dd_619_265018)">
<path d="M81.6025 19.1631L62.1073 7.90751C58.7072 5.94447 54.3595 7.10943 52.3965 10.5095L41.1409 30.0048L60.6362 41.2603C64.0363 43.2234 68.3839 42.0584 70.347 38.6583L81.6025 19.1631Z" fill="#2BFF99"/>
<path d="M81.6025 19.1631L62.1073 7.90751C58.7072 5.94447 54.3595 7.10943 52.3965 10.5095L41.1409 30.0048L60.6362 41.2603C64.0363 43.2234 68.3839 42.0584 70.347 38.6583L81.6025 19.1631Z" fill="black" fill-opacity="0.35"/>
</g>
<g filter="url(#filter6_dd_619_265018)">
<path d="M81.6025 40.9414L70.347 21.4462C68.3839 18.0461 64.0363 16.8811 60.6362 18.8442L41.1409 30.0998L52.3965 49.595C54.3596 52.9951 58.7072 54.16 62.1073 52.197L81.6025 40.9414Z" fill="#2BFF99"/>
<path d="M81.6025 40.9414L70.347 21.4462C68.3839 18.0461 64.0363 16.8811 60.6362 18.8442L41.1409 30.0998L52.3965 49.595C54.3596 52.9951 58.7072 54.16 62.1073 52.197L81.6025 40.9414Z" fill="black" fill-opacity="0.25"/>
</g>
<g filter="url(#filter7_dd_619_265018)">
<path d="M70.665 59.6245L70.665 37.1133C70.665 33.1873 67.4823 30.0046 63.5562 30.0046L41.0451 30.0046L41.0451 52.5157C41.0451 56.4418 44.2278 59.6245 48.1539 59.6245L70.665 59.6245Z" fill="#2BFF99"/>
</g>
</g>
<defs>
<filter id="filter0_dd_619_265018" x="-12.5625" y="22.0752" width="77.6201" height="77.6201" filterUnits="userSpaceOnUse" color-interpolation-filters="sRGB">
<feFlood flood-opacity="0" result="BackgroundImageFix"/>
<feColorMatrix in="SourceAlpha" type="matrix" values="0 0 0 0 0 0 0 0 0 0 0 0 0 0 0 0 0 0 127 0" result="hardAlpha"/>
<feOffset dy="16"/>
<feGaussianBlur stdDeviation="12"/>
<feComposite in2="hardAlpha" operator="out"/>
<feColorMatrix type="matrix" values="0 0 0 0 0 0 0 0 0 0 0 0 0 0 0 0 0 0 0.12 0"/>
<feBlend mode="normal" in2="BackgroundImageFix" result="effect1_dropShadow_619_265018"/>
<feColorMatrix in="SourceAlpha" type="matrix" values="0 0 0 0 0 0 0 0 0 0 0 0 0 0 0 0 0 0 127 0" result="hardAlpha"/>
<feOffset dy="8"/>
<feGaussianBlur stdDeviation="2.5"/>
<feComposite in2="hardAlpha" operator="out"/>
<feColorMatrix type="matrix" values="0 0 0 0 0 0 0 0 0 0 0 0 0 0 0 0 0 0 0.08 0"/>
<feBlend mode="normal" in2="effect1_dropShadow_619_265018" result="effect2_dropShadow_619_265018"/>
<feBlend mode="normal" in="SourceGraphic" in2="effect2_dropShadow_619_265018" result="shape"/>
</filter>
<filter id="filter1_dd_619_265018" x="-23.6016" y="9.78613" width="88.4619" height="83.2598" filterUnits="userSpaceOnUse" color-interpolation-filters="sRGB">
<feFlood flood-opacity="0" result="BackgroundImageFix"/>
<feColorMatrix in="SourceAlpha" type="matrix" values="0 0 0 0 0 0 0 0 0 0 0 0 0 0 0 0 0 0 127 0" result="hardAlpha"/>
<feOffset dy="16"/>
<feGaussianBlur stdDeviation="12"/>
<feComposite in2="hardAlpha" operator="out"/>
<feColorMatrix type="matrix" values="0 0 0 0 0 0 0 0 0 0 0 0 0 0 0 0 0 0 0.12 0"/>
<feBlend mode="normal" in2="BackgroundImageFix" result="effect1_dropShadow_619_265018"/>
<feColorMatrix in="SourceAlpha" type="matrix" values="0 0 0 0 0 0 0 0 0 0 0 0 0 0 0 0 0 0 127 0" result="hardAlpha"/>
<feOffset dy="8"/>
<feGaussianBlur stdDeviation="2.5"/>
<feComposite in2="hardAlpha" operator="out"/>
<feColorMatrix type="matrix" values="0 0 0 0 0 0 0 0 0 0 0 0 0 0 0 0 0 0 0.08 0"/>
<feBlend mode="normal" in2="effect1_dropShadow_619_265018" result="effect2_dropShadow_619_265018"/>
<feBlend mode="normal" in="SourceGraphic" in2="effect2_dropShadow_619_265018" result="shape"/>
</filter>
<filter id="filter2_dd_619_265018" x="-23.6016" y="-1.15039" width="88.4619" height="83.2598" filterUnits="userSpaceOnUse" color-interpolation-filters="sRGB">
<feFlood flood-opacity="0" result="BackgroundImageFix"/>
<feColorMatrix in="SourceAlpha" type="matrix" values="0 0 0 0 0 0 0 0 0 0 0 0 0 0 0 0 0 0 127 0" result="hardAlpha"/>
<feOffset dy="16"/>
<feGaussianBlur stdDeviation="12"/>
<feComposite in2="hardAlpha" operator="out"/>
<feColorMatrix type="matrix" values="0 0 0 0 0 0 0 0 0 0 0 0 0 0 0 0 0 0 0.12 0"/>
<feBlend mode="normal" in2="BackgroundImageFix" result="effect1_dropShadow_619_265018"/>
<feColorMatrix in="SourceAlpha" type="matrix" values="0 0 0 0 0 0 0 0 0 0 0 0 0 0 0 0 0 0 127 0" result="hardAlpha"/>
<feOffset dy="8"/>
<feGaussianBlur stdDeviation="2.5"/>
<feComposite in2="hardAlpha" operator="out"/>
<feColorMatrix type="matrix" values="0 0 0 0 0 0 0 0 0 0 0 0 0 0 0 0 0 0 0.08 0"/>
<feBlend mode="normal" in2="effect1_dropShadow_619_265018" result="effect2_dropShadow_619_265018"/>
<feBlend mode="normal" in="SourceGraphic" in2="effect2_dropShadow_619_265018" result="shape"/>
</filter>
<filter id="filter3_dd_619_265018" x="-12.5625" y="-7.53516" width="77.6201" height="77.6201" filterUnits="userSpaceOnUse" color-interpolation-filters="sRGB">
<feFlood flood-opacity="0" result="BackgroundImageFix"/>
<feColorMatrix in="SourceAlpha" type="matrix" values="0 0 0 0 0 0 0 0 0 0 0 0 0 0 0 0 0 0 127 0" result="hardAlpha"/>
<feOffset dy="16"/>
<feGaussianBlur stdDeviation="12"/>
<feComposite in2="hardAlpha" operator="out"/>
<feColorMatrix type="matrix" values="0 0 0 0 0 0 0 0 0 0 0 0 0 0 0 0 0 0 0.12 0"/>
<feBlend mode="normal" in2="BackgroundImageFix" result="effect1_dropShadow_619_265018"/>
<feColorMatrix in="SourceAlpha" type="matrix" values="0 0 0 0 0 0 0 0 0 0 0 0 0 0 0 0 0 0 127 0" result="hardAlpha"/>
<feOffset dy="8"/>
<feGaussianBlur stdDeviation="2.5"/>
<feComposite in2="hardAlpha" operator="out"/>
<feColorMatrix type="matrix" values="0 0 0 0 0 0 0 0 0 0 0 0 0 0 0 0 0 0 0.08 0"/>
<feBlend mode="normal" in2="effect1_dropShadow_619_265018" result="effect2_dropShadow_619_265018"/>
<feBlend mode="normal" in="SourceGraphic" in2="effect2_dropShadow_619_265018" result="shape"/>
</filter>
<filter id="filter4_dd_619_265018" x="16.9434" y="-7.69531" width="77.6201" height="77.6201" filterUnits="userSpaceOnUse" color-interpolation-filters="sRGB">
<feFlood flood-opacity="0" result="BackgroundImageFix"/>
<feColorMatrix in="SourceAlpha" type="matrix" values="0 0 0 0 0 0 0 0 0 0 0 0 0 0 0 0 0 0 127 0" result="hardAlpha"/>
<feOffset dy="16"/>
<feGaussianBlur stdDeviation="12"/>
<feComposite in2="hardAlpha" operator="out"/>
<feColorMatrix type="matrix" values="0 0 0 0 0 0 0 0 0 0 0 0 0 0 0 0 0 0 0.12 0"/>
<feBlend mode="normal" in2="BackgroundImageFix" result="effect1_dropShadow_619_265018"/>
<feColorMatrix in="SourceAlpha" type="matrix" values="0 0 0 0 0 0 0 0 0 0 0 0 0 0 0 0 0 0 127 0" result="hardAlpha"/>
<feOffset dy="8"/>
<feGaussianBlur stdDeviation="2.5"/>
<feComposite in2="hardAlpha" operator="out"/>
<feColorMatrix type="matrix" values="0 0 0 0 0 0 0 0 0 0 0 0 0 0 0 0 0 0 0.08 0"/>
<feBlend mode="normal" in2="effect1_dropShadow_619_265018" result="effect2_dropShadow_619_265018"/>
<feBlend mode="normal" in="SourceGraphic" in2="effect2_dropShadow_619_265018" result="shape"/>
</filter>
<filter id="filter5_dd_619_265018" x="17.1406" y="-1.0459" width="88.4619" height="83.2598" filterUnits="userSpaceOnUse" color-interpolation-filters="sRGB">
<feFlood flood-opacity="0" result="BackgroundImageFix"/>
<feColorMatrix in="SourceAlpha" type="matrix" values="0 0 0 0 0 0 0 0 0 0 0 0 0 0 0 0 0 0 127 0" result="hardAlpha"/>
<feOffset dy="16"/>
<feGaussianBlur stdDeviation="12"/>
<feComposite in2="hardAlpha" operator="out"/>
<feColorMatrix type="matrix" values="0 0 0 0 0 0 0 0 0 0 0 0 0 0 0 0 0 0 0.12 0"/>
<feBlend mode="normal" in2="BackgroundImageFix" result="effect1_dropShadow_619_265018"/>
<feColorMatrix in="SourceAlpha" type="matrix" values="0 0 0 0 0 0 0 0 0 0 0 0 0 0 0 0 0 0 127 0" result="hardAlpha"/>
<feOffset dy="8"/>
<feGaussianBlur stdDeviation="2.5"/>
<feComposite in2="hardAlpha" operator="out"/>
<feColorMatrix type="matrix" values="0 0 0 0 0 0 0 0 0 0 0 0 0 0 0 0 0 0 0.08 0"/>
<feBlend mode="normal" in2="effect1_dropShadow_619_265018" result="effect2_dropShadow_619_265018"/>
<feBlend mode="normal" in="SourceGraphic" in2="effect2_dropShadow_619_265018" result="shape"/>
</filter>
<filter id="filter6_dd_619_265018" x="17.1406" y="9.89062" width="88.4619" height="83.2598" filterUnits="userSpaceOnUse" color-interpolation-filters="sRGB">
<feFlood flood-opacity="0" result="BackgroundImageFix"/>
<feColorMatrix in="SourceAlpha" type="matrix" values="0 0 0 0 0 0 0 0 0 0 0 0 0 0 0 0 0 0 127 0" result="hardAlpha"/>
<feOffset dy="16"/>
<feGaussianBlur stdDeviation="12"/>
<feComposite in2="hardAlpha" operator="out"/>
<feColorMatrix type="matrix" values="0 0 0 0 0 0 0 0 0 0 0 0 0 0 0 0 0 0 0.12 0"/>
<feBlend mode="normal" in2="BackgroundImageFix" result="effect1_dropShadow_619_265018"/>
<feColorMatrix in="SourceAlpha" type="matrix" values="0 0 0 0 0 0 0 0 0 0 0 0 0 0 0 0 0 0 127 0" result="hardAlpha"/>
<feOffset dy="8"/>
<feGaussianBlur stdDeviation="2.5"/>
<feComposite in2="hardAlpha" operator="out"/>
<feColorMatrix type="matrix" values="0 0 0 0 0 0 0 0 0 0 0 0 0 0 0 0 0 0 0.08 0"/>
<feBlend mode="normal" in2="effect1_dropShadow_619_265018" result="effect2_dropShadow_619_265018"/>
<feBlend mode="normal" in="SourceGraphic" in2="effect2_dropShadow_619_265018" result="shape"/>
</filter>
<filter id="filter7_dd_619_265018" x="17.0449" y="22.0044" width="77.6201" height="77.6201" filterUnits="userSpaceOnUse" color-interpolation-filters="sRGB">
<feFlood flood-opacity="0" result="BackgroundImageFix"/>
<feColorMatrix in="SourceAlpha" type="matrix" values="0 0 0 0 0 0 0 0 0 0 0 0 0 0 0 0 0 0 127 0" result="hardAlpha"/>
<feOffset dy="16"/>
<feGaussianBlur stdDeviation="12"/>
<feComposite in2="hardAlpha" operator="out"/>
<feColorMatrix type="matrix" values="0 0 0 0 0 0 0 0 0 0 0 0 0 0 0 0 0 0 0.12 0"/>
<feBlend mode="normal" in2="BackgroundImageFix" result="effect1_dropShadow_619_265018"/>
<feColorMatrix in="SourceAlpha" type="matrix" values="0 0 0 0 0 0 0 0 0 0 0 0 0 0 0 0 0 0 127 0" result="hardAlpha"/>
<feOffset dy="8"/>
<feGaussianBlur stdDeviation="2.5"/>
<feComposite in2="hardAlpha" operator="out"/>
<feColorMatrix type="matrix" values="0 0 0 0 0 0 0 0 0 0 0 0 0 0 0 0 0 0 0.08 0"/>
<feBlend mode="normal" in2="effect1_dropShadow_619_265018" result="effect2_dropShadow_619_265018"/>
<feBlend mode="normal" in="SourceGraphic" in2="effect2_dropShadow_619_265018" result="shape"/>
</filter>
<clipPath id="clip0_619_265018">
<rect width="81.2037" height="59.3906" fill="white" transform="translate(0.398438 0.304688)"/>
</clipPath>
</defs>
</svg>
