<svg width="256" height="256" viewBox="0 0 256 256" fill="none" xmlns="http://www.w3.org/2000/svg">
<g clip-path="url(#clip0_1150_25816)">
<path d="M128 256C198.692 256 256 198.692 256 128C256 57.3076 198.692 0 128 0C57.3076 0 0 57.3076 0 128C0 198.692 57.3076 256 128 256Z" fill="#2BFF99"/>
<path d="M170.829 183.306C167.037 187.097 161.796 189.444 156.008 189.44C152.57 189.44 149.33 188.613 146.465 187.146C142.547 185.138 139.344 181.935 137.336 178.017C135.876 175.153 135.049 171.916 135.049 168.482V167.935C135.097 165.961 135.421 164.054 135.98 162.258C135.98 162.251 135.984 162.244 135.98 162.24C136.986 158.981 137.526 155.517 137.53 151.927C137.53 147.345 136.647 142.969 135.045 138.954C133.268 134.492 130.598 130.485 127.26 127.144C123.923 123.803 119.911 121.132 115.449 119.359C111.434 117.758 107.057 116.879 102.476 116.875C98.8851 116.875 95.4211 117.419 92.1619 118.425C92.1619 118.425 92.1508 118.425 92.1433 118.425C90.348 118.983 88.4446 119.307 86.4668 119.356H85.9192C82.4887 119.356 79.2482 118.533 76.3838 117.069C72.4654 115.061 69.2621 111.858 67.2544 107.94C65.7869 105.076 64.96 101.839 64.96 98.3978C64.96 92.6099 67.3028 87.3695 71.0947 83.578C74.8865 79.7864 80.1309 77.4399 85.9192 77.4399H176.215C176.625 77.4399 176.96 77.7751 176.96 78.1848V168.475C176.96 174.263 174.617 179.503 170.822 183.298L170.829 183.306Z" fill="#000004"/>
<path d="M103.385 172.101C114.983 172.101 124.385 162.699 124.385 151.101C124.385 139.503 114.983 130.101 103.385 130.101C91.7868 130.101 82.3848 139.503 82.3848 151.101C82.3848 162.699 91.7868 172.101 103.385 172.101Z" fill="#000004"/>
</g>
<defs>
<clipPath id="clip0_1150_25816">
<rect width="256" height="256" fill="white"/>
</clipPath>
</defs>
</svg>
