<svg width="429" height="164" viewBox="0 0 429 164" fill="none" xmlns="http://www.w3.org/2000/svg">
<g clip-path="url(#clip0_3739_72108)">
<path d="M71.2668 23.582H371.079C402.81 23.582 428.532 49.3047 428.532 81.0352C428.532 112.766 402.81 138.488 371.079 138.488H71.2668V23.582Z" fill="#000004"/>
<g filter="url(#filter0_f_3739_72108)">
<path d="M48.5319 132.451L50.7669 133.775C60.1539 139.346 70.9169 142.293 81.8929 142.298H81.9159C115.623 142.298 143.055 114.872 143.069 81.1626C143.075 64.8276 136.72 49.4666 125.174 37.9116C119.511 32.213 112.774 27.6942 105.353 24.6169C97.9316 21.5395 89.9738 19.9647 81.9399 19.9836C48.2069 19.9836 20.7739 47.4066 20.7619 81.1136C20.7453 92.6236 23.9866 103.903 30.1109 113.649L31.5659 115.961L25.3869 138.519L48.5319 132.451ZM7.72095 155.995L18.1599 117.881C11.7219 106.727 8.33495 94.0726 8.33895 81.1086C8.35595 40.5526 41.3599 7.55859 81.9169 7.55859C101.598 7.56859 120.071 15.2276 133.964 29.1306C147.857 43.0336 155.501 61.5136 155.494 81.1676C155.476 121.721 122.467 154.721 81.9159 154.721H81.8839C69.5709 154.716 57.4719 151.627 46.7249 145.767L7.72095 155.995Z" fill="#B3B3B3"/>
</g>
<path d="M6.96606 155.239L17.4051 117.125C10.956 105.944 7.56848 93.2603 7.58406 80.3527C7.60106 39.7967 40.6051 6.80273 81.1621 6.80273C100.843 6.81273 119.316 14.4717 133.209 28.3747C147.102 42.2777 154.746 60.7577 154.739 80.4117C154.721 120.965 121.712 153.965 81.1611 153.965H81.1291C68.8161 153.96 56.7171 150.871 45.9701 145.011L6.96606 155.239Z" fill="white"/>
<path d="M81.1839 19.2267C47.4509 19.2267 20.0179 46.6497 20.0059 80.3567C19.9893 91.8667 23.2305 103.146 29.3549 112.892L30.8099 115.205L24.6309 137.763L47.7769 131.694L50.0119 133.018C59.3989 138.589 70.1619 141.535 81.1379 141.541H81.1609C114.868 141.541 142.301 114.115 142.314 80.4057C142.339 72.3713 140.771 64.4117 137.699 56.9876C134.627 49.5635 130.114 42.8225 124.419 37.1547C118.756 31.456 112.019 26.9372 104.597 23.8598C97.176 20.7825 89.218 19.2077 81.1839 19.2267Z" fill="url(#paint0_linear_3739_72108)"/>
<path fill-rule="evenodd" clip-rule="evenodd" d="M62.7719 49.6038C61.3939 46.5428 59.9439 46.4808 58.6349 46.4278L55.1109 46.3848C53.8849 46.3848 51.8929 46.8448 50.2089 48.6848C48.5249 50.5248 43.7739 54.9718 43.7739 64.0168C43.7739 73.0618 50.3619 81.8018 51.2799 83.0298C52.1979 84.2578 63.9979 103.411 82.6849 110.78C98.2139 116.904 101.374 115.686 104.746 115.38C108.118 115.074 115.623 110.933 117.154 106.64C118.685 102.347 118.686 98.6688 118.227 97.8998C117.768 97.1308 116.542 96.6738 114.702 95.7538C112.862 94.8338 103.825 90.3868 102.14 89.7728C100.455 89.1588 99.2299 88.8538 98.0029 90.6938C96.7759 92.5338 93.2569 96.6728 92.1839 97.8998C91.1109 99.1268 90.0399 99.2808 88.1999 98.3618C86.3599 97.4428 80.4399 95.5008 73.4159 89.2378C67.9509 84.3648 64.2619 78.3468 63.1879 76.5078C62.1139 74.6688 63.0739 73.6728 63.9959 72.7568C64.8209 71.9328 65.8339 70.6098 66.7549 69.5368C67.6759 68.4638 67.9789 67.6968 68.5909 66.4718C69.2029 65.2468 68.8979 64.1708 68.4379 63.2518C67.9779 62.3328 64.4059 53.2398 62.7719 49.6038Z" fill="white"/>
<path d="M374.302 68.987C374.129 69.8604 373.83 70.6226 373.409 71.2772C372.986 71.9321 372.433 72.4652 371.75 72.8698C371.068 73.2777 370.217 73.4825 369.199 73.4825C368.209 73.4825 367.366 73.2777 366.669 72.8698C365.97 72.4652 365.411 71.9321 364.988 71.2772C364.568 70.6226 364.262 69.8603 364.072 68.987C363.883 68.1156 363.789 67.227 363.789 66.3279C363.789 65.3938 363.878 64.4925 364.051 63.6218C364.226 62.7487 364.525 61.9785 364.946 61.306C365.367 60.6387 365.92 60.0936 366.603 59.6727C367.285 59.2508 368.136 59.0373 369.155 59.0373C370.144 59.0373 370.979 59.2508 371.662 59.6727C372.347 60.0936 372.905 60.6445 373.342 61.3291C373.78 62.0133 374.093 62.7924 374.281 63.6638C374.472 64.5371 374.564 65.4251 374.564 66.328C374.564 67.227 374.476 68.1156 374.302 68.987ZM380.147 61.8963C379.74 60.4288 379.115 59.1407 378.271 58.0349C377.428 56.9302 376.368 56.0419 375.088 55.3739C373.807 54.7037 372.28 54.3709 370.506 54.3709C369.111 54.3709 367.831 54.6458 366.669 55.1987C365.505 55.7519 364.545 56.6392 363.789 57.861H363.704V54.98H357.814V85.4386H364.007V74.7483H364.095C364.851 75.8546 365.82 76.6896 366.996 77.2552C368.173 77.8224 369.461 78.1078 370.858 78.1078C372.514 78.1078 373.96 77.7854 375.198 77.147C376.432 76.508 377.466 75.6486 378.294 74.5718C379.124 73.4949 379.74 72.2601 380.147 70.8638C380.557 69.4669 380.759 68.0127 380.759 66.5004C380.759 64.9006 380.557 63.3667 380.147 61.8963ZM349.614 68.9872C349.438 69.8605 349.139 70.6227 348.719 71.2773C348.297 71.9323 347.744 72.4653 347.059 72.87C346.377 73.2779 345.525 73.4827 344.508 73.4827C343.518 73.4827 342.678 73.2779 341.98 72.87C341.281 72.4653 340.722 71.9322 340.3 71.2773C339.878 70.6227 339.573 69.8605 339.384 68.9872C339.194 68.1158 339.101 67.2271 339.101 66.3281C339.101 65.3939 339.186 64.4927 339.361 63.6219C339.537 62.7489 339.833 61.9786 340.257 61.3061C340.676 60.6388 341.23 60.0937 341.915 59.6729C342.597 59.251 343.446 59.0374 344.465 59.0374C345.453 59.0374 346.292 59.251 346.973 59.6729C347.657 60.0938 348.218 60.6447 348.653 61.3292C349.088 62.0134 349.401 62.7925 349.59 63.6639C349.781 64.5373 349.873 65.4253 349.873 66.3282C349.873 67.2272 349.788 68.1158 349.614 68.9872ZM353.582 58.0353C352.74 56.9305 351.677 56.0422 350.397 55.3743C349.117 54.704 347.592 54.3712 345.819 54.3712C344.421 54.3712 343.142 54.6462 341.98 55.199C340.814 55.7522 339.857 56.6395 339.101 57.8613H339.012V54.9803H333.122V85.4389H339.32V74.7486H339.404C340.159 75.8549 341.129 76.69 342.307 77.2556C343.482 77.8228 344.77 78.1081 346.167 78.1081C347.825 78.1081 349.271 77.7857 350.506 77.1474C351.742 76.5083 352.775 75.649 353.604 74.5721C354.434 73.4952 355.049 72.2605 355.459 70.8642C355.863 69.4672 356.069 68.013 356.069 66.5007C356.069 64.9009 355.863 63.3671 355.459 61.8967C355.049 60.4291 354.425 59.1411 353.582 58.0353ZM312.841 65.4974L316.898 54.0644H316.984L320.911 65.4974H312.841ZM313.494 46.3851L301.718 77.5393H308.61L311.051 70.6012H322.7L325.053 77.5393H332.165L320.52 46.3851H313.494ZM301.193 67.657C300.786 66.9445 300.247 66.3481 299.579 65.8667C298.91 65.3883 298.145 65.0018 297.289 64.7096C296.43 64.4203 295.551 64.1749 294.648 63.9705C293.777 63.7661 292.92 63.5769 292.077 63.402C291.233 63.2265 290.483 63.0305 289.828 62.8137C289.175 62.595 288.646 62.3132 288.238 61.9612C287.83 61.6131 287.628 61.1629 287.628 60.6094C287.628 60.1439 287.742 59.7734 287.976 59.4965C288.209 59.2215 288.493 59.0099 288.827 58.863C289.162 58.7187 289.53 58.6248 289.938 58.5796C290.345 58.5366 290.725 58.5162 291.072 58.5162C292.178 58.5162 293.138 58.7265 293.954 59.148C294.766 59.5699 295.218 60.3773 295.304 61.5691H301.193C301.076 60.1738 300.721 59.018 300.124 58.0992C299.529 57.1842 298.779 56.4493 297.878 55.8975C296.978 55.3446 295.952 54.9526 294.802 54.7193C293.653 54.4862 292.469 54.3711 291.249 54.3711C290.026 54.3711 288.833 54.4804 287.672 54.6962C286.507 54.9156 285.46 55.2952 284.531 55.8322C283.599 56.3701 282.852 57.1034 282.283 58.0352C281.715 58.9658 281.432 60.1599 281.432 61.6131C281.432 62.6022 281.637 63.4402 282.045 64.1231C282.448 64.8076 282.989 65.3725 283.655 65.8239C284.326 66.2748 285.09 66.6398 285.947 66.9141C286.805 67.1933 287.685 67.4315 288.585 67.636C290.798 68.1021 292.521 68.5659 293.756 69.0329C294.992 69.4974 295.61 70.1952 295.61 71.1271C295.61 71.6797 295.48 72.1353 295.218 72.4997C294.955 72.8654 294.629 73.1543 294.237 73.3728C293.842 73.5918 293.405 73.7527 292.928 73.8522C292.448 73.9549 291.988 74.0062 291.553 74.0062C290.942 74.0062 290.353 73.9328 289.788 73.7878C289.219 73.6422 288.718 73.4163 288.282 73.1108C287.846 72.8059 287.488 72.4139 287.212 71.9326C286.938 71.4522 286.797 70.8801 286.797 70.2093H280.909C280.968 71.7219 281.309 72.9808 281.936 73.9838C282.558 74.9875 283.357 75.7939 284.333 76.406C285.307 77.0157 286.421 77.4531 287.672 77.7158C288.921 77.9768 290.201 78.1081 291.507 78.1081C292.788 78.1081 294.046 77.9833 295.283 77.7383C296.518 77.4903 297.616 77.0609 298.576 76.4488C299.538 75.8391 300.312 75.032 300.91 74.0277C301.505 73.0227 301.803 71.7795 301.803 70.2958C301.803 69.2469 301.6 68.3694 301.193 67.657ZM275.588 48.2178H269.393V54.98H265.643V59.1248H269.393V72.4345C269.393 73.5705 269.584 74.4857 269.961 75.1832C270.34 75.8804 270.855 76.4218 271.509 76.799C272.163 77.1773 272.92 77.4308 273.778 77.5618C274.634 77.6918 275.546 77.7578 276.504 77.7578C277.117 77.7578 277.74 77.7422 278.381 77.7159C279.019 77.686 279.601 77.6294 280.125 77.5397V72.7393C279.833 72.7985 279.528 72.844 279.208 72.8703C278.889 72.8999 278.554 72.9155 278.205 72.9155C277.159 72.9155 276.46 72.7393 276.11 72.3905C275.763 72.0424 275.588 71.344 275.588 70.2958V59.1254H280.125V54.9807H275.588L275.588 48.2178ZM257.834 68.8107C257.834 69.1628 257.799 69.6279 257.725 70.2087C257.653 70.7921 257.456 71.3645 257.137 71.932C256.817 72.4991 256.321 72.9883 255.654 73.3936C254.985 73.8022 254.04 74.0056 252.817 74.0056C252.324 74.0056 251.843 73.962 251.378 73.873C250.912 73.7872 250.506 73.6331 250.157 73.4157C249.809 73.1976 249.531 72.8992 249.328 72.5209C249.125 72.1429 249.022 71.6791 249.022 71.1265C249.022 70.545 249.125 70.062 249.328 69.6856C249.531 69.3093 249.801 68.9953 250.136 68.7473C250.469 68.5002 250.862 68.3042 251.313 68.1573C251.763 68.0124 252.221 67.8963 252.687 67.8089C253.18 67.7234 253.676 67.6483 254.169 67.5905C254.665 67.5336 255.137 67.4588 255.587 67.373C256.039 67.2859 256.46 67.1754 256.853 67.0444C257.246 66.9134 257.572 66.734 257.834 66.5L257.834 68.8107ZM264.028 72.521V60.7849C264.028 59.4156 263.724 58.3186 263.111 57.4908C262.502 56.661 261.716 56.0145 260.758 55.5488C259.797 55.0837 258.735 54.7703 257.572 54.6107C256.409 54.4508 255.26 54.3712 254.127 54.3712C252.877 54.3712 251.632 54.4937 250.398 54.7417C249.159 54.9888 248.049 55.4042 247.06 55.9846C246.071 56.5664 245.254 57.3384 244.618 58.2972C243.976 59.257 243.613 60.4645 243.526 61.9194H249.72C249.836 60.6969 250.245 59.8236 250.943 59.3006C251.641 58.7767 252.599 58.5163 253.822 58.5163C254.374 58.5163 254.889 58.5527 255.37 58.6249C255.849 58.6983 256.271 58.8417 256.635 59.0611C256.999 59.2792 257.29 59.5837 257.507 59.9777C257.725 60.37 257.834 60.9021 257.834 61.5694C257.863 62.2113 257.673 62.6956 257.268 63.0307C256.86 63.3671 256.308 63.6223 255.61 63.7945C254.912 63.9707 254.112 64.102 253.21 64.1865C252.308 64.2756 251.393 64.3942 250.463 64.5375C249.531 64.6835 248.608 64.8795 247.694 65.1268C246.778 65.3725 245.961 65.7454 245.249 66.2378C244.536 66.7348 243.955 67.3955 243.503 68.225C243.053 69.0545 242.828 70.1099 242.828 71.3882C242.828 72.5515 243.024 73.5548 243.417 74.3976C243.809 75.2437 244.354 75.939 245.053 76.4924C245.752 77.0453 246.565 77.4532 247.496 77.7158C248.425 77.9768 249.429 78.1081 250.506 78.1081C251.902 78.1081 253.269 77.9036 254.605 77.4983C255.943 77.0881 257.108 76.378 258.096 75.3583C258.125 75.7363 258.176 76.1085 258.248 76.4712C258.321 76.8333 258.416 77.1918 258.532 77.5396H264.815C264.524 77.0768 264.319 76.378 264.204 75.4454C264.086 74.5152 264.028 73.5419 264.028 72.521ZM238.51 56.9213C237.9 56.121 237.063 55.4967 236.003 55.0446C234.94 54.5961 233.581 54.3708 231.924 54.3708C230.761 54.3708 229.569 54.6679 228.346 55.2653C227.125 55.8601 226.121 56.8137 225.337 58.1236H225.206V46.3848H219.011V77.539H225.206V65.7145C225.206 63.4169 225.583 61.767 226.34 60.7617C227.096 59.7593 228.317 59.2568 230.005 59.2568C231.487 59.2568 232.52 59.7148 233.101 60.6324C233.683 61.5477 233.974 62.9375 233.974 64.7983V77.5395H240.169V63.6641C240.169 62.2688 240.044 60.9967 239.797 59.8454C239.55 58.6983 239.121 57.7225 238.51 56.9213ZM205.795 67.8535H205.708L200.387 46.3853H193.974L188.565 67.5918H188.478L183.548 46.3853H176.701L184.945 77.5395H191.881L197.071 56.333H197.158L202.437 77.5395H209.242L217.617 46.3853H210.9L205.795 67.8535Z" fill="white"/>
<path d="M193.722 100.118H190.534C190.444 99.5955 190.276 99.1325 190.032 98.729C189.787 98.32 189.483 97.9734 189.12 97.6893C188.756 97.4052 188.341 97.1921 187.875 97.0501C187.415 96.9023 186.918 96.8285 186.384 96.8285C185.435 96.8285 184.594 97.0671 183.861 97.5444C183.128 98.016 182.554 98.7092 182.14 99.6239C181.725 100.533 181.517 101.644 181.517 102.956C181.517 104.292 181.725 105.417 182.14 106.331C182.56 107.24 183.134 107.928 183.861 108.394C184.594 108.854 185.432 109.084 186.375 109.084C186.898 109.084 187.387 109.016 187.841 108.88C188.302 108.738 188.713 108.53 189.077 108.257C189.446 107.985 189.756 107.65 190.006 107.252C190.262 106.854 190.438 106.4 190.534 105.888L193.722 105.905C193.603 106.735 193.344 107.513 192.946 108.24C192.554 108.968 192.04 109.61 191.404 110.167C190.767 110.718 190.023 111.15 189.171 111.462C188.319 111.769 187.373 111.922 186.333 111.922C184.799 111.922 183.429 111.567 182.225 110.857C181.02 110.147 180.071 109.121 179.378 107.78C178.685 106.439 178.338 104.831 178.338 102.956C178.338 101.076 178.688 99.4677 179.387 98.1325C180.086 96.7915 181.037 95.766 182.242 95.0558C183.446 94.3455 184.81 93.9904 186.333 93.9904C187.304 93.9904 188.208 94.1268 189.043 94.3995C189.878 94.6722 190.623 95.0728 191.276 95.6012C191.929 96.1239 192.466 96.766 192.887 97.5273C193.313 98.283 193.591 99.1467 193.722 100.118ZM199.566 104.013V111.684H196.481V94.229H199.498V100.817H199.652C199.958 100.078 200.433 99.4961 201.075 99.07C201.723 98.6381 202.547 98.4222 203.547 98.4222C204.456 98.4222 205.248 98.6126 205.924 98.9933C206.601 99.3739 207.123 99.9308 207.493 100.664C207.868 101.397 208.055 102.292 208.055 103.348V111.684H204.97V103.826C204.97 102.945 204.743 102.26 204.288 101.772C203.839 101.277 203.208 101.03 202.396 101.03C201.851 101.03 201.362 101.15 200.93 101.388C200.504 101.621 200.169 101.959 199.924 102.402C199.686 102.846 199.566 103.382 199.566 104.013ZM214.967 111.948C214.137 111.948 213.39 111.8 212.726 111.505C212.066 111.203 211.544 110.76 211.157 110.175C210.777 109.59 210.586 108.868 210.586 108.01C210.586 107.272 210.723 106.661 210.995 106.178C211.268 105.695 211.64 105.309 212.112 105.019C212.583 104.729 213.115 104.51 213.706 104.363C214.302 104.209 214.919 104.098 215.555 104.03C216.322 103.951 216.944 103.88 217.422 103.817C217.899 103.749 218.245 103.647 218.461 103.51C218.683 103.368 218.794 103.15 218.794 102.854V102.803C218.794 102.161 218.603 101.664 218.223 101.311C217.842 100.959 217.294 100.783 216.578 100.783C215.822 100.783 215.223 100.948 214.78 101.277C214.342 101.607 214.047 101.996 213.893 102.445L211.012 102.036C211.24 101.24 211.615 100.576 212.137 100.042C212.66 99.5018 213.299 99.0984 214.055 98.8313C214.811 98.5586 215.646 98.4222 216.561 98.4222C217.191 98.4222 217.819 98.4961 218.444 98.6438C219.069 98.7915 219.64 99.0359 220.157 99.3768C220.674 99.712 221.089 100.169 221.402 100.749C221.72 101.328 221.879 102.053 221.879 102.922V111.684H218.913V109.885H218.811C218.623 110.249 218.359 110.59 218.018 110.908C217.683 111.221 217.26 111.473 216.748 111.667C216.243 111.854 215.649 111.948 214.967 111.948ZM215.768 109.681C216.387 109.681 216.924 109.559 217.379 109.314C217.833 109.064 218.183 108.735 218.427 108.326C218.677 107.917 218.802 107.471 218.802 106.988V105.445C218.706 105.525 218.541 105.598 218.308 105.667C218.081 105.735 217.825 105.794 217.541 105.846C217.257 105.897 216.976 105.942 216.697 105.982C216.419 106.022 216.177 106.056 215.973 106.084C215.512 106.147 215.101 106.249 214.737 106.391C214.373 106.533 214.086 106.732 213.876 106.988C213.666 107.238 213.561 107.561 213.561 107.959C213.561 108.527 213.768 108.956 214.183 109.246C214.598 109.536 215.126 109.681 215.768 109.681ZM231.518 98.5927V100.979H223.993V98.5927H231.518ZM225.851 95.4563H228.936V107.746C228.936 108.161 228.998 108.479 229.123 108.701C229.254 108.917 229.424 109.064 229.635 109.144C229.845 109.223 230.078 109.263 230.333 109.263C230.527 109.263 230.703 109.249 230.862 109.221C231.027 109.192 231.152 109.167 231.237 109.144L231.757 111.556C231.592 111.613 231.356 111.675 231.049 111.743C230.748 111.811 230.379 111.851 229.941 111.863C229.169 111.885 228.473 111.769 227.853 111.513C227.234 111.252 226.743 110.848 226.379 110.303C226.021 109.757 225.845 109.076 225.851 108.257V95.4563ZM240.635 98.5927V100.979H233.11V98.5927H240.635ZM234.968 95.4563H238.053V107.746C238.053 108.161 238.115 108.479 238.24 108.701C238.371 108.917 238.542 109.064 238.752 109.144C238.962 109.223 239.195 109.263 239.451 109.263C239.644 109.263 239.82 109.249 239.979 109.221C240.144 109.192 240.269 109.167 240.354 109.144L240.874 111.556C240.709 111.613 240.473 111.675 240.167 111.743C239.865 111.811 239.496 111.851 239.059 111.863C238.286 111.885 237.59 111.769 236.971 111.513C236.351 111.252 235.86 110.848 235.496 110.303C235.138 109.757 234.962 109.076 234.968 108.257V95.4563ZM248.87 111.939C247.558 111.939 246.424 111.667 245.47 111.121C244.521 110.57 243.791 109.792 243.28 108.786C242.768 107.775 242.512 106.584 242.512 105.215C242.512 103.868 242.768 102.686 243.28 101.669C243.797 100.647 244.518 99.8512 245.444 99.283C246.37 98.7092 247.458 98.4222 248.708 98.4222C249.515 98.4222 250.277 98.5529 250.993 98.8143C251.714 99.07 252.351 99.4677 252.902 100.007C253.458 100.547 253.896 101.235 254.214 102.07C254.532 102.9 254.691 103.888 254.691 105.036V105.982H243.961V103.902H251.734C251.728 103.311 251.601 102.786 251.351 102.326C251.101 101.86 250.751 101.493 250.302 101.226C249.859 100.959 249.342 100.826 248.751 100.826C248.12 100.826 247.566 100.979 247.089 101.286C246.612 101.587 246.24 101.985 245.973 102.479C245.711 102.968 245.578 103.505 245.572 104.09V105.905C245.572 106.667 245.711 107.32 245.99 107.865C246.268 108.405 246.657 108.82 247.157 109.11C247.657 109.394 248.243 109.536 248.913 109.536C249.362 109.536 249.768 109.473 250.132 109.348C250.495 109.218 250.811 109.027 251.078 108.777C251.345 108.527 251.547 108.218 251.683 107.848L254.564 108.172C254.382 108.934 254.035 109.598 253.524 110.167C253.018 110.729 252.37 111.167 251.581 111.479C250.791 111.786 249.887 111.939 248.87 111.939ZM263.255 111.684V98.5927H266.204V100.817H266.357C266.63 100.067 267.081 99.4819 267.712 99.0614C268.343 98.6353 269.096 98.4222 269.971 98.4222C270.857 98.4222 271.604 98.6381 272.212 99.07C272.826 99.4961 273.258 100.078 273.508 100.817H273.644C273.934 100.09 274.422 99.5103 275.11 99.0785C275.803 98.641 276.624 98.4222 277.573 98.4222C278.777 98.4222 279.76 98.8029 280.522 99.5643C281.283 100.326 281.664 101.436 281.664 102.897V111.684H278.57V103.374C278.57 102.561 278.354 101.968 277.922 101.593C277.49 101.212 276.962 101.022 276.337 101.022C275.593 101.022 275.01 101.255 274.59 101.721C274.175 102.181 273.968 102.78 273.968 103.519V111.684H270.942V103.246C270.942 102.57 270.738 102.03 270.329 101.627C269.925 101.223 269.397 101.022 268.743 101.022C268.3 101.022 267.897 101.135 267.533 101.363C267.169 101.584 266.88 101.9 266.664 102.309C266.448 102.712 266.34 103.184 266.34 103.723V111.684H263.255ZM284.794 111.684V98.5927H287.879V111.684H284.794ZM286.345 96.7347C285.856 96.7347 285.436 96.5728 285.083 96.2489C284.731 95.9194 284.555 95.5245 284.555 95.0643C284.555 94.5984 284.731 94.2035 285.083 93.8796C285.436 93.5501 285.856 93.3853 286.345 93.3853C286.839 93.3853 287.26 93.5501 287.606 93.8796C287.958 94.2035 288.135 94.5984 288.135 95.0643C288.135 95.5245 287.958 95.9194 287.606 96.2489C287.26 96.5728 286.839 96.7347 286.345 96.7347ZM297.588 98.5927V100.979H290.063V98.5927H297.588ZM291.921 95.4563H295.006V107.746C295.006 108.161 295.069 108.479 295.194 108.701C295.324 108.917 295.495 109.064 295.705 109.144C295.915 109.223 296.148 109.263 296.404 109.263C296.597 109.263 296.773 109.249 296.932 109.221C297.097 109.192 297.222 109.167 297.307 109.144L297.827 111.556C297.662 111.613 297.427 111.675 297.12 111.743C296.819 111.811 296.449 111.851 296.012 111.863C295.239 111.885 294.543 111.769 293.924 111.513C293.304 111.252 292.813 110.848 292.449 110.303C292.091 109.757 291.915 109.076 291.921 108.257V95.4563ZM314.466 106.178V98.5927H317.551V111.684H314.559V109.357H314.423C314.128 110.09 313.642 110.689 312.966 111.155C312.295 111.621 311.468 111.854 310.485 111.854C309.628 111.854 308.869 111.664 308.21 111.283C307.557 110.897 307.045 110.337 306.676 109.604C306.307 108.865 306.122 107.973 306.122 106.928V98.5927H309.207V106.451C309.207 107.28 309.434 107.939 309.889 108.428C310.343 108.917 310.94 109.161 311.679 109.161C312.133 109.161 312.574 109.05 313 108.828C313.426 108.607 313.775 108.277 314.048 107.84C314.326 107.397 314.466 106.843 314.466 106.178ZM323.809 104.013V111.684H320.723V98.5927H323.672V100.817H323.826C324.127 100.084 324.607 99.5018 325.266 99.07C325.931 98.6381 326.752 98.4222 327.729 98.4222C328.633 98.4222 329.419 98.6154 330.09 99.0018C330.766 99.3881 331.289 99.9478 331.658 100.681C332.033 101.414 332.218 102.303 332.212 103.348V111.684H329.127V103.826C329.127 102.951 328.9 102.266 328.445 101.772C327.996 101.277 327.374 101.03 326.579 101.03C326.039 101.03 325.559 101.15 325.138 101.388C324.723 101.621 324.397 101.959 324.158 102.402C323.925 102.846 323.809 103.382 323.809 104.013ZM345.695 102.053L342.883 102.36C342.803 102.076 342.664 101.809 342.465 101.559C342.272 101.309 342.01 101.107 341.681 100.953C341.351 100.8 340.948 100.723 340.471 100.723C339.829 100.723 339.289 100.863 338.851 101.141C338.419 101.419 338.206 101.78 338.212 102.223C338.206 102.604 338.346 102.914 338.63 103.152C338.919 103.391 339.397 103.587 340.061 103.74L342.294 104.218C343.533 104.485 344.454 104.908 345.056 105.488C345.664 106.067 345.971 106.826 345.976 107.763C345.971 108.587 345.729 109.314 345.252 109.945C344.78 110.57 344.124 111.059 343.283 111.411C342.442 111.763 341.476 111.939 340.385 111.939C338.783 111.939 337.493 111.604 336.516 110.934C335.539 110.257 334.956 109.317 334.769 108.113L337.777 107.823C337.914 108.414 338.204 108.86 338.647 109.161C339.09 109.462 339.667 109.613 340.377 109.613C341.11 109.613 341.698 109.462 342.141 109.161C342.59 108.86 342.814 108.488 342.814 108.044C342.814 107.669 342.669 107.36 342.38 107.115C342.096 106.871 341.652 106.684 341.05 106.553L338.817 106.084C337.561 105.823 336.633 105.382 336.03 104.763C335.428 104.138 335.13 103.348 335.135 102.394C335.13 101.587 335.348 100.888 335.792 100.297C336.24 99.7006 336.863 99.2404 337.658 98.9165C338.459 98.587 339.383 98.4222 340.428 98.4222C341.962 98.4222 343.169 98.7489 344.05 99.4023C344.936 100.056 345.485 100.939 345.695 102.053ZM352.296 94.229L352.015 106.553H349.27L348.998 94.229H352.296ZM350.642 111.871C350.125 111.871 349.682 111.689 349.313 111.326C348.949 110.962 348.767 110.519 348.767 109.996C348.767 109.485 348.949 109.047 349.313 108.684C349.682 108.32 350.125 108.138 350.642 108.138C351.148 108.138 351.586 108.32 351.955 108.684C352.33 109.047 352.517 109.485 352.517 109.996C352.517 110.343 352.429 110.658 352.253 110.942C352.083 111.226 351.856 111.453 351.571 111.624C351.293 111.789 350.983 111.871 350.642 111.871Z" fill="#4CCB5B"/>
</g>
<defs>
<filter id="filter0_f_3739_72108" x="0.658947" y="0.496594" width="161.897" height="162.56" filterUnits="userSpaceOnUse" color-interpolation-filters="sRGB">
<feFlood flood-opacity="0" result="BackgroundImageFix"/>
<feBlend mode="normal" in="SourceGraphic" in2="BackgroundImageFix" result="shape"/>
<feGaussianBlur stdDeviation="3.531" result="effect1_foregroundBlur_3739_72108"/>
</filter>
<linearGradient id="paint0_linear_3739_72108" x1="79.9149" y1="26.5667" x2="80.5349" y2="131.092" gradientUnits="userSpaceOnUse">
<stop stop-color="#57D163"/>
<stop offset="1" stop-color="#23B33A"/>
</linearGradient>
<clipPath id="clip0_3739_72108">
<rect width="429" height="164" fill="white"/>
</clipPath>
</defs>
</svg>
