<svg width="1127" height="715" viewBox="0 0 1127 715" fill="none" xmlns="http://www.w3.org/2000/svg">
<path d="M83.3135 1118.94L6.29018 1042.01C-2.09673 1033.63 -2.09673 1020.03 6.29018 1011.62L448.897 569.539C451.262 567.176 454.452 565.852 457.75 565.852H504.953C508.286 565.852 511.476 567.176 513.806 569.539L556.314 611.996C558.679 614.359 560.005 617.545 560.005 620.838V667.985C560.005 671.314 558.679 674.5 556.314 676.827L113.743 1118.94C105.356 1127.32 91.7363 1127.32 83.3135 1118.94Z" fill="#454B50"/>
<path d="M1120.74 1042.01L1043.72 1118.94C1035.33 1127.32 1021.71 1127.32 1013.29 1118.94L570.684 676.866C568.318 674.504 566.992 671.317 566.992 668.024V620.877C566.992 617.548 568.318 614.362 570.684 612.035L613.192 569.578C615.557 567.215 618.747 565.891 622.045 565.891H669.248C672.581 565.891 675.771 567.215 678.101 569.578L1120.71 1011.65C1129.09 1020.03 1129.09 1033.63 1120.71 1042.05L1120.74 1042.01Z" fill="#454B50"/>
<path d="M1043.68 6.28265L1120.71 83.2138C1129.09 91.5907 1129.09 105.194 1120.71 113.607L678.101 555.683C675.735 558.046 672.545 559.371 669.248 559.371H622.045C618.711 559.371 615.522 558.046 613.192 555.683L570.684 513.226C568.318 510.864 566.992 507.677 566.992 504.384V457.237C566.992 453.908 568.318 450.722 570.684 448.395L1013.29 6.28265C1021.68 -2.09422 1035.3 -2.09422 1043.72 6.28265H1043.68Z" fill="#454B50"/>
<path d="M6.29018 83.2138L83.3135 6.28265C91.7004 -2.09422 105.32 -2.09422 113.743 6.28265L556.349 448.359C558.715 450.722 560.041 453.908 560.041 457.202V504.348C560.041 507.678 558.715 510.864 556.349 513.191L513.841 555.648C511.476 558.01 508.286 559.335 504.989 559.335H457.785C454.452 559.335 451.262 558.01 448.933 555.648L6.29018 113.607C-2.09673 105.23 -2.09673 91.6265 6.29018 83.2138Z" fill="#454B50"/>
</svg>
