<svg width="977" height="751" viewBox="0 0 977 751" fill="none" xmlns="http://www.w3.org/2000/svg">
<mask id="mask0_2715_62078" style="mask-type:alpha" maskUnits="userSpaceOnUse" x="0" y="0" width="977" height="751">
<rect width="977" height="751" fill="#141619"/>
</mask>
<g mask="url(#mask0_2715_62078)">
<path d="M72.3896 875.545L5.47987 808.609C-1.80579 801.321 -1.80579 789.485 5.47987 782.166L389.97 397.529C392.025 395.473 394.796 394.321 397.66 394.321H438.665C441.561 394.321 444.332 395.473 446.356 397.529L483.282 434.47C485.337 436.525 486.489 439.297 486.489 442.163V483.184C486.489 486.08 485.337 488.853 483.282 490.877L98.8235 875.545C91.5378 882.833 79.7064 882.833 72.3896 875.545Z" fill="#F2F2F3"/>
<path d="M973.603 808.61L906.693 875.545C899.407 882.833 887.576 882.833 880.259 875.545L495.769 490.908C493.715 488.853 492.562 486.081 492.562 483.215V442.194C492.562 439.297 493.715 436.525 495.769 434.501L532.696 397.56C534.751 395.504 537.522 394.352 540.386 394.352H581.392C584.287 394.352 587.058 395.504 589.082 397.56L973.572 782.197C980.857 789.485 980.857 801.321 973.572 808.641L973.603 808.61Z" fill="#F2F2F3"/>
<path d="M906.662 -92.5415L973.572 -25.6062C980.857 -18.3177 980.857 -6.4818 973.572 0.837787L589.082 385.474C587.027 387.53 584.256 388.683 581.392 388.683H540.386C537.491 388.683 534.72 387.53 532.696 385.474L495.769 348.534C493.715 346.478 492.562 343.706 492.562 340.84V299.82C492.562 296.923 493.715 294.151 495.769 292.126L880.259 -92.5415C887.545 -99.8299 899.376 -99.8299 906.693 -92.5415H906.662Z" fill="#F2F2F3"/>
<path d="M5.47987 -25.6062L72.3896 -92.5415C79.6753 -99.8299 91.5067 -99.8299 98.8235 -92.5415L483.313 292.095C485.368 294.151 486.52 296.923 486.52 299.789V340.809C486.52 343.706 485.368 346.478 483.313 348.503L446.387 385.443C444.332 387.499 441.561 388.651 438.696 388.651H397.691C394.796 388.651 392.025 387.499 390.001 385.443L5.47987 0.837802C-1.80579 -6.45064 -1.80579 -18.2866 5.47987 -25.6062Z" fill="#F2F2F3"/>
</g>
</svg>
