<svg width="49" height="48" viewBox="0 0 49 48" fill="none" xmlns="http://www.w3.org/2000/svg">
<g clip-path="url(#clip0_1808_54792)">
<path d="M45.4606 45.3708C43.8355 46.9959 41.5894 48.0016 39.1086 48C37.6351 48 36.2463 47.6456 35.0187 47.0166C33.3393 46.1562 31.9664 44.7833 31.1059 43.1039C30.4802 41.8763 30.1258 40.489 30.1258 39.0172V38.7825C30.1465 37.9364 30.2854 37.1191 30.5249 36.3496C30.5249 36.3464 30.5265 36.3432 30.5249 36.3416C30.9559 34.9448 31.1874 33.4602 31.189 31.9212C31.189 29.9577 30.8106 28.0819 30.1242 26.361C29.3627 24.4486 28.2181 22.7309 26.7877 21.2989C25.3574 19.867 23.6381 18.7224 21.7256 17.9625C20.0047 17.276 18.129 16.8993 16.1654 16.8977C14.6265 16.8977 13.1419 17.1308 11.745 17.5618C11.745 17.5618 11.7402 17.5618 11.737 17.5618C10.9676 17.8013 10.1518 17.9401 9.30416 17.9609H9.06949C7.59922 17.9609 6.21037 17.6081 4.98275 16.9807C3.30336 16.1203 1.93047 14.7474 1.07002 13.068C0.44424 11.8452 0.0898438 10.4563 0.0898438 8.98124C0.0898438 6.50047 1.09397 4.25436 2.71908 2.62924C4.3442 1.00412 6.59191 0 9.07109 0H47.7706C47.9462 0 48.0898 0.143674 48.0898 0.319276V39.0188C48.0898 41.4995 47.0857 43.7456 45.459 45.3724L45.4606 45.3708Z" fill="#141619"/>
<path d="M16.3763 40.215C21.2494 40.215 25.1998 36.2646 25.1998 31.3915C25.1998 26.5184 21.2494 22.568 16.3763 22.568C11.5032 22.568 7.55273 26.5184 7.55273 31.3915C7.55273 36.2646 11.5032 40.215 16.3763 40.215Z" fill="#141619"/>
</g>
<defs>
<clipPath id="clip0_1808_54792">
<rect width="48" height="48" fill="white" transform="translate(0.0898438)"/>
</clipPath>
</defs>
</svg>
